%TF.GenerationSoftware,KiCad,Pcbnew,10.0.5*%
%TF.CreationDate,2026-08-13T21:16:27-04:00*%
%TF.ProjectId,mule,6d756c65-2e6b-4696-9361-645f70636258,rev?*%
%TF.SameCoordinates,Original*%
%TF.FileFunction,Copper,L2,Bot*%
%TF.FilePolarity,Positive*%
%FSLAX46Y46*%
G04 Gerber Fmt 4.6, Leading zero omitted, Abs format (unit mm)*
G04 Created by KiCad (PCBNEW 10.0.5) date 2026-08-13 21:16:27*
%MOMM*%
%LPD*%
G01*
G04 APERTURE LIST*
G04 Aperture macros list*
%AMRoundRect*
0 Rectangle with rounded corners*
0 $1 Rounding radius*
0 $2 $3 $4 $5 $6 $7 $8 $9 X,Y pos of 4 corners*
0 Add a 4 corners polygon primitive as box body*
4,1,4,$2,$3,$4,$5,$6,$7,$8,$9,$2,$3,0*
0 Add four circle primitives for the rounded corners*
1,1,$1+$1,$2,$3*
1,1,$1+$1,$4,$5*
1,1,$1+$1,$6,$7*
1,1,$1+$1,$8,$9*
0 Add four rect primitives between the rounded corners*
20,1,$1+$1,$2,$3,$4,$5,0*
20,1,$1+$1,$4,$5,$6,$7,0*
20,1,$1+$1,$6,$7,$8,$9,0*
20,1,$1+$1,$8,$9,$2,$3,0*%
G04 Aperture macros list end*
%TA.AperFunction,ComponentPad*%
%ADD10RoundRect,0.250000X-0.550000X0.550000X-0.550000X-0.550000X0.550000X-0.550000X0.550000X0.550000X0*%
%TD*%
%TA.AperFunction,ComponentPad*%
%ADD11C,1.600000*%
%TD*%
%TA.AperFunction,ComponentPad*%
%ADD12R,1.700000X1.700000*%
%TD*%
%TA.AperFunction,ComponentPad*%
%ADD13C,1.700000*%
%TD*%
%TA.AperFunction,ComponentPad*%
%ADD14R,2.600000X2.600000*%
%TD*%
%TA.AperFunction,ComponentPad*%
%ADD15C,2.600000*%
%TD*%
%TA.AperFunction,ComponentPad*%
%ADD16RoundRect,0.250000X-1.050000X-1.050000X1.050000X-1.050000X1.050000X1.050000X-1.050000X1.050000X0*%
%TD*%
%TA.AperFunction,ComponentPad*%
%ADD17RoundRect,0.250001X-0.499999X-0.499999X0.499999X-0.499999X0.499999X0.499999X-0.499999X0.499999X0*%
%TD*%
%TA.AperFunction,ComponentPad*%
%ADD18C,1.500000*%
%TD*%
G04 APERTURE END LIST*
D10*
%TO.P,U5,1*%
%TO.N,U5_LED1*%
X20000000Y-62500000D03*
D11*
%TO.P,U5,2*%
%TO.N,DGND*%
X17460000Y-62500000D03*
%TO.P,U5,3*%
X14920000Y-62500000D03*
%TO.P,U5,4*%
%TO.N,U5_LED2*%
X12380000Y-62500000D03*
%TO.P,U5,5*%
%TO.N,ISO_GND*%
X12380000Y-70120000D03*
%TO.P,U5,6*%
%TO.N,BARCODE_ISO*%
X14920000Y-70120000D03*
%TO.P,U5,7*%
%TO.N,EVT_STROBE_ISO*%
X17460000Y-70120000D03*
%TO.P,U5,8*%
%TO.N,ISO_5V*%
X20000000Y-70120000D03*
%TD*%
D12*
%TO.P,J2,1*%
%TO.N,unconnected-(J2-Pin_1-Pad1)*%
X90000000Y-7000000D03*
D13*
%TO.P,J2,2*%
%TO.N,unconnected-(J2-Pin_2-Pad2)*%
X92540000Y-7000000D03*
%TO.P,J2,3*%
%TO.N,EVT_D2_PI*%
X90000000Y-9540000D03*
%TO.P,J2,4*%
%TO.N,unconnected-(J2-Pin_4-Pad4)*%
X92540000Y-9540000D03*
%TO.P,J2,5*%
%TO.N,EVT_D3_PI*%
X90000000Y-12080000D03*
%TO.P,J2,6*%
%TO.N,DGND*%
X92540000Y-12080000D03*
%TO.P,J2,7*%
%TO.N,EVT_D4_PI*%
X90000000Y-14620000D03*
%TO.P,J2,8*%
%TO.N,EVT_D14_PI*%
X92540000Y-14620000D03*
%TO.P,J2,9*%
%TO.N,DGND*%
X90000000Y-17160000D03*
%TO.P,J2,10*%
%TO.N,EVT_D15_PI*%
X92540000Y-17160000D03*
%TO.P,J2,11*%
%TO.N,BARCODE_PI*%
X90000000Y-19700000D03*
%TO.P,J2,12*%
%TO.N,unconnected-(J2-Pin_12-Pad12)*%
X92540000Y-19700000D03*
%TO.P,J2,13*%
%TO.N,unconnected-(J2-Pin_13-Pad13)*%
X90000000Y-22240000D03*
%TO.P,J2,14*%
%TO.N,DGND*%
X92540000Y-22240000D03*
%TO.P,J2,15*%
%TO.N,unconnected-(J2-Pin_15-Pad15)*%
X90000000Y-24780000D03*
%TO.P,J2,16*%
%TO.N,unconnected-(J2-Pin_16-Pad16)*%
X92540000Y-24780000D03*
%TO.P,J2,17*%
%TO.N,unconnected-(J2-Pin_17-Pad17)*%
X90000000Y-27320000D03*
%TO.P,J2,18*%
%TO.N,unconnected-(J2-Pin_18-Pad18)*%
X92540000Y-27320000D03*
%TO.P,J2,19*%
%TO.N,EVT_D10_PI*%
X90000000Y-29860000D03*
%TO.P,J2,20*%
%TO.N,DGND*%
X92540000Y-29860000D03*
%TO.P,J2,21*%
%TO.N,EVT_D9_PI*%
X90000000Y-32400000D03*
%TO.P,J2,22*%
%TO.N,unconnected-(J2-Pin_22-Pad22)*%
X92540000Y-32400000D03*
%TO.P,J2,23*%
%TO.N,EVT_D11_PI*%
X90000000Y-34940000D03*
%TO.P,J2,24*%
%TO.N,EVT_D8_PI*%
X92540000Y-34940000D03*
%TO.P,J2,25*%
%TO.N,DGND*%
X90000000Y-37480000D03*
%TO.P,J2,26*%
%TO.N,EVT_D7_PI*%
X92540000Y-37480000D03*
%TO.P,J2,27*%
%TO.N,EVT_D0_PI*%
X90000000Y-40020000D03*
%TO.P,J2,28*%
%TO.N,EVT_D1_PI*%
X92540000Y-40020000D03*
%TO.P,J2,29*%
%TO.N,EVT_D5_PI*%
X90000000Y-42560000D03*
%TO.P,J2,30*%
%TO.N,DGND*%
X92540000Y-42560000D03*
%TO.P,J2,31*%
%TO.N,EVT_D6_PI*%
X90000000Y-45100000D03*
%TO.P,J2,32*%
%TO.N,EVT_D12_PI*%
X92540000Y-45100000D03*
%TO.P,J2,33*%
%TO.N,EVT_D13_PI*%
X90000000Y-47640000D03*
%TO.P,J2,34*%
%TO.N,DGND*%
X92540000Y-47640000D03*
%TO.P,J2,35*%
%TO.N,unconnected-(J2-Pin_35-Pad35)*%
X90000000Y-50180000D03*
%TO.P,J2,36*%
%TO.N,EVT_STROBE_PI*%
X92540000Y-50180000D03*
%TO.P,J2,37*%
%TO.N,unconnected-(J2-Pin_37-Pad37)*%
X90000000Y-52720000D03*
%TO.P,J2,38*%
%TO.N,unconnected-(J2-Pin_38-Pad38)*%
X92540000Y-52720000D03*
%TO.P,J2,39*%
%TO.N,DGND*%
X90000000Y-55260000D03*
%TO.P,J2,40*%
%TO.N,unconnected-(J2-Pin_40-Pad40)*%
X92540000Y-55260000D03*
%TD*%
D14*
%TO.P,J8,1*%
%TO.N,DGND*%
X78000000Y-11000000D03*
D15*
%TO.P,J8,2*%
%TO.N,+5V*%
X78000000Y-17000000D03*
%TO.P,J8,3*%
%TO.N,N/C*%
X82700000Y-14000000D03*
%TD*%
D12*
%TO.P,J7,1*%
%TO.N,ISO_5V*%
X96000000Y-75000000D03*
D13*
%TO.P,J7,2*%
%TO.N,ISO_GND*%
X96000000Y-77540000D03*
%TD*%
D12*
%TO.P,J6,1*%
%TO.N,OPTO_SPARE2_IN*%
X52000000Y-53000000D03*
D13*
%TO.P,J6,2*%
%TO.N,DGND*%
X52000000Y-55540000D03*
%TD*%
D12*
%TO.P,J5,1*%
%TO.N,OPTO_SPARE1_IN*%
X52000000Y-45000000D03*
D13*
%TO.P,J5,2*%
%TO.N,DGND*%
X52000000Y-47540000D03*
%TD*%
D12*
%TO.P,J1,1*%
%TO.N,EVT_D0_TPC*%
X8000000Y-7000000D03*
D13*
%TO.P,J1,2*%
%TO.N,EVT_D1_TPC*%
X10540000Y-7000000D03*
%TO.P,J1,3*%
%TO.N,EVT_D2_TPC*%
X8000000Y-9540000D03*
%TO.P,J1,4*%
%TO.N,EVT_D3_TPC*%
X10540000Y-9540000D03*
%TO.P,J1,5*%
%TO.N,EVT_D4_TPC*%
X8000000Y-12080000D03*
%TO.P,J1,6*%
%TO.N,EVT_D5_TPC*%
X10540000Y-12080000D03*
%TO.P,J1,7*%
%TO.N,EVT_D6_TPC*%
X8000000Y-14620000D03*
%TO.P,J1,8*%
%TO.N,EVT_D7_TPC*%
X10540000Y-14620000D03*
%TO.P,J1,9*%
%TO.N,EVT_D8_TPC*%
X8000000Y-17160000D03*
%TO.P,J1,10*%
%TO.N,EVT_D9_TPC*%
X10540000Y-17160000D03*
%TO.P,J1,11*%
%TO.N,EVT_D10_TPC*%
X8000000Y-19700000D03*
%TO.P,J1,12*%
%TO.N,EVT_D11_TPC*%
X10540000Y-19700000D03*
%TO.P,J1,13*%
%TO.N,EVT_D12_TPC*%
X8000000Y-22240000D03*
%TO.P,J1,14*%
%TO.N,EVT_D13_TPC*%
X10540000Y-22240000D03*
%TO.P,J1,15*%
%TO.N,EVT_D14_TPC*%
X8000000Y-24780000D03*
%TO.P,J1,16*%
%TO.N,EVT_D15_TPC*%
X10540000Y-24780000D03*
%TO.P,J1,17*%
%TO.N,EVT_STROBE_TPC*%
X8000000Y-27320000D03*
%TO.P,J1,18*%
%TO.N,DGND*%
X10540000Y-27320000D03*
%TO.P,J1,19*%
X8000000Y-29860000D03*
%TO.P,J1,20*%
%TO.N,unconnected-(J1-Pin_20-Pad20)*%
X10540000Y-29860000D03*
%TO.P,J1,21*%
%TO.N,unconnected-(J1-Pin_21-Pad21)*%
X8000000Y-32400000D03*
%TO.P,J1,22*%
%TO.N,unconnected-(J1-Pin_22-Pad22)*%
X10540000Y-32400000D03*
%TO.P,J1,23*%
%TO.N,unconnected-(J1-Pin_23-Pad23)*%
X8000000Y-34940000D03*
%TO.P,J1,24*%
%TO.N,unconnected-(J1-Pin_24-Pad24)*%
X10540000Y-34940000D03*
%TO.P,J1,25*%
%TO.N,unconnected-(J1-Pin_25-Pad25)*%
X8000000Y-37480000D03*
%TO.P,J1,26*%
%TO.N,unconnected-(J1-Pin_26-Pad26)*%
X10540000Y-37480000D03*
%TO.P,J1,27*%
%TO.N,unconnected-(J1-Pin_27-Pad27)*%
X8000000Y-40020000D03*
%TO.P,J1,28*%
%TO.N,unconnected-(J1-Pin_28-Pad28)*%
X10540000Y-40020000D03*
%TO.P,J1,29*%
%TO.N,unconnected-(J1-Pin_29-Pad29)*%
X8000000Y-42560000D03*
%TO.P,J1,30*%
%TO.N,unconnected-(J1-Pin_30-Pad30)*%
X10540000Y-42560000D03*
%TO.P,J1,31*%
%TO.N,unconnected-(J1-Pin_31-Pad31)*%
X8000000Y-45100000D03*
%TO.P,J1,32*%
%TO.N,unconnected-(J1-Pin_32-Pad32)*%
X10540000Y-45100000D03*
%TO.P,J1,33*%
%TO.N,unconnected-(J1-Pin_33-Pad33)*%
X8000000Y-47640000D03*
%TO.P,J1,34*%
%TO.N,unconnected-(J1-Pin_34-Pad34)*%
X10540000Y-47640000D03*
%TO.P,J1,35*%
%TO.N,unconnected-(J1-Pin_35-Pad35)*%
X8000000Y-50180000D03*
%TO.P,J1,36*%
%TO.N,unconnected-(J1-Pin_36-Pad36)*%
X10540000Y-50180000D03*
%TO.P,J1,37*%
%TO.N,unconnected-(J1-Pin_37-Pad37)*%
X8000000Y-52720000D03*
%TO.P,J1,38*%
%TO.N,unconnected-(J1-Pin_38-Pad38)*%
X10540000Y-52720000D03*
%TO.P,J1,39*%
%TO.N,unconnected-(J1-Pin_39-Pad39)*%
X8000000Y-55260000D03*
%TO.P,J1,40*%
%TO.N,unconnected-(J1-Pin_40-Pad40)*%
X10540000Y-55260000D03*
%TD*%
D10*
%TO.P,U6,1*%
%TO.N,U6_LED1*%
X44000000Y-62500000D03*
D11*
%TO.P,U6,2*%
%TO.N,DGND*%
X41460000Y-62500000D03*
%TO.P,U6,3*%
X38920000Y-62500000D03*
%TO.P,U6,4*%
%TO.N,U6_LED2*%
X36380000Y-62500000D03*
%TO.P,U6,5*%
%TO.N,ISO_GND*%
X36380000Y-70120000D03*
%TO.P,U6,6*%
%TO.N,OPTO_SPARE2_ISO*%
X38920000Y-70120000D03*
%TO.P,U6,7*%
%TO.N,OPTO_SPARE1_ISO*%
X41460000Y-70120000D03*
%TO.P,U6,8*%
%TO.N,ISO_5V*%
X44000000Y-70120000D03*
%TD*%
D16*
%TO.P,J4,1*%
%TO.N,EVT_STROBE_ISO*%
X74000000Y-75000000D03*
D15*
%TO.P,J4,2*%
%TO.N,BARCODE_ISO*%
X79000000Y-75000000D03*
%TO.P,J4,3*%
%TO.N,OPTO_SPARE1_ISO*%
X84000000Y-75000000D03*
%TO.P,J4,4*%
%TO.N,OPTO_SPARE2_ISO*%
X89000000Y-75000000D03*
%TD*%
D12*
%TO.P,J3,1*%
%TO.N,BARCODE_OUT*%
X60000000Y-40000000D03*
D13*
%TO.P,J3,2*%
X60000000Y-42540000D03*
%TO.P,J3,3*%
X60000000Y-45080000D03*
%TO.P,J3,4*%
X60000000Y-47620000D03*
%TD*%
D17*
%TO.P,U7,1*%
%TO.N,+5V*%
X68000000Y-61200000D03*
D18*
%TO.P,U7,2*%
%TO.N,DGND*%
X68000000Y-63740000D03*
%TO.P,U7,4*%
%TO.N,ISO_GND*%
X68000000Y-68820000D03*
%TO.P,U7,6*%
%TO.N,ISO_5V*%
X68000000Y-73900000D03*
%TD*%
M02*
