M48
; DRILL file KiCad 10.0.5 date 2026-08-13T20:20:07
; FORMAT={-:-/ absolute / metric / decimal}
; #@! TF.CreationDate,2026-08-13T20:20:07-04:00
; #@! TF.GenerationSoftware,Kicad,Pcbnew,10.0.5
; #@! TF.FileFunction,MixedPlating,1,2
FMAT,2
METRIC
; #@! TA.AperFunction,Plated,PTH,ComponentDrill
T1C0.800
; #@! TA.AperFunction,Plated,PTH,ComponentDrill
T2C1.000
; #@! TA.AperFunction,Plated,PTH,ComponentDrill
T3C1.300
; #@! TA.AperFunction,Plated,PTH,ComponentDrill
T4C1.600
%
G90
G05
T1
X12.38Y-62.5
X12.38Y-70.12
X14.92Y-62.5
X14.92Y-70.12
X17.46Y-62.5
X17.46Y-70.12
X20.0Y-62.5
X20.0Y-70.12
X36.38Y-62.5
X36.38Y-70.12
X38.92Y-62.5
X38.92Y-70.12
X41.46Y-62.5
X41.46Y-70.12
X44.0Y-62.5
X44.0Y-70.12
T2
X8.0Y-7.0
X8.0Y-9.54
X8.0Y-12.08
X8.0Y-14.62
X8.0Y-17.16
X8.0Y-19.7
X8.0Y-22.24
X8.0Y-24.78
X8.0Y-27.32
X8.0Y-29.86
X8.0Y-32.4
X8.0Y-34.94
X8.0Y-37.48
X8.0Y-40.02
X8.0Y-42.56
X8.0Y-45.1
X8.0Y-47.64
X8.0Y-50.18
X8.0Y-52.72
X8.0Y-55.26
X10.54Y-7.0
X10.54Y-9.54
X10.54Y-12.08
X10.54Y-14.62
X10.54Y-17.16
X10.54Y-19.7
X10.54Y-22.24
X10.54Y-24.78
X10.54Y-27.32
X10.54Y-29.86
X10.54Y-32.4
X10.54Y-34.94
X10.54Y-37.48
X10.54Y-40.02
X10.54Y-42.56
X10.54Y-45.1
X10.54Y-47.64
X10.54Y-50.18
X10.54Y-52.72
X10.54Y-55.26
X52.0Y-45.0
X52.0Y-47.54
X52.0Y-53.0
X52.0Y-55.54
X60.0Y-40.0
X60.0Y-42.54
X60.0Y-45.08
X60.0Y-47.62
X68.0Y-61.2
X68.0Y-63.74
X68.0Y-68.82
X68.0Y-73.9
X90.0Y-7.0
X90.0Y-9.54
X90.0Y-12.08
X90.0Y-14.62
X90.0Y-17.16
X90.0Y-19.7
X90.0Y-22.24
X90.0Y-24.78
X90.0Y-27.32
X90.0Y-29.86
X90.0Y-32.4
X90.0Y-34.94
X90.0Y-37.48
X90.0Y-40.02
X90.0Y-42.56
X90.0Y-45.1
X90.0Y-47.64
X90.0Y-50.18
X90.0Y-52.72
X90.0Y-55.26
X92.54Y-7.0
X92.54Y-9.54
X92.54Y-12.08
X92.54Y-14.62
X92.54Y-17.16
X92.54Y-19.7
X92.54Y-22.24
X92.54Y-24.78
X92.54Y-27.32
X92.54Y-29.86
X92.54Y-32.4
X92.54Y-34.94
X92.54Y-37.48
X92.54Y-40.02
X92.54Y-42.56
X92.54Y-45.1
X92.54Y-47.64
X92.54Y-50.18
X92.54Y-52.72
X92.54Y-55.26
X96.0Y-75.0
X96.0Y-77.54
T3
X74.0Y-75.0
X79.0Y-75.0
X84.0Y-75.0
X89.0Y-75.0
T4
X78.0Y-11.0
X78.0Y-17.0
X82.7Y-14.0
M30
