%TF.GenerationSoftware,KiCad,Pcbnew,10.0.5*%
%TF.CreationDate,2026-08-13T20:20:07-04:00*%
%TF.ProjectId,mule,6d756c65-2e6b-4696-9361-645f70636258,rev?*%
%TF.SameCoordinates,Original*%
%TF.FileFunction,Other,User*%
%FSLAX46Y46*%
G04 Gerber Fmt 4.6, Leading zero omitted, Abs format (unit mm)*
G04 Created by KiCad (PCBNEW 10.0.5) date 2026-08-13 20:20:07*
%MOMM*%
%LPD*%
G01*
G04 APERTURE LIST*
%ADD10C,0.050000*%
G04 APERTURE END LIST*
%TO.C,C4*%
D10*
X58520000Y-29270000D02*
X61480000Y-29270000D01*
X61480000Y-30730000D01*
X58520000Y-30730000D01*
X58520000Y-29270000D01*
%TO.C,D15*%
X32070000Y-35000000D02*
X33100000Y-35000000D01*
X32070000Y-36110000D02*
X32070000Y-35000000D01*
X32070000Y-36890000D02*
X33100000Y-36890000D01*
X32070000Y-38000000D02*
X32070000Y-36890000D01*
X33100000Y-34800000D02*
X34900000Y-34800000D01*
X33100000Y-35000000D02*
X33100000Y-34800000D01*
X33100000Y-36110000D02*
X32070000Y-36110000D01*
X33100000Y-36890000D02*
X33100000Y-36110000D01*
X33100000Y-38000000D02*
X32070000Y-38000000D01*
X33100000Y-38200000D02*
X33100000Y-38000000D01*
X34900000Y-34800000D02*
X34900000Y-35950000D01*
X34900000Y-35950000D02*
X35930000Y-35950000D01*
X34900000Y-37050000D02*
X34900000Y-38200000D01*
X34900000Y-38200000D02*
X33100000Y-38200000D01*
X35930000Y-35950000D02*
X35930000Y-37050000D01*
X35930000Y-37050000D02*
X34900000Y-37050000D01*
%TO.C,R27*%
X42520000Y-76270000D02*
X45480000Y-76270000D01*
X45480000Y-77730000D01*
X42520000Y-77730000D01*
X42520000Y-76270000D01*
%TO.C,R9*%
X18520000Y-26270000D02*
X21480000Y-26270000D01*
X21480000Y-27730000D01*
X18520000Y-27730000D01*
X18520000Y-26270000D01*
%TO.C,J6*%
X50230000Y-51230000D02*
X53770000Y-51230000D01*
X53770000Y-57320000D01*
X50230000Y-57320000D01*
X50230000Y-51230000D01*
%TO.C,R23*%
X18520000Y-76270000D02*
X21480000Y-76270000D01*
X21480000Y-77730000D01*
X18520000Y-77730000D01*
X18520000Y-76270000D01*
%TO.C,D17*%
X32070000Y-46000000D02*
X33100000Y-46000000D01*
X32070000Y-47110000D02*
X32070000Y-46000000D01*
X32070000Y-47890000D02*
X33100000Y-47890000D01*
X32070000Y-49000000D02*
X32070000Y-47890000D01*
X33100000Y-45800000D02*
X34900000Y-45800000D01*
X33100000Y-46000000D02*
X33100000Y-45800000D01*
X33100000Y-47110000D02*
X32070000Y-47110000D01*
X33100000Y-47890000D02*
X33100000Y-47110000D01*
X33100000Y-49000000D02*
X32070000Y-49000000D01*
X33100000Y-49200000D02*
X33100000Y-49000000D01*
X34900000Y-45800000D02*
X34900000Y-46950000D01*
X34900000Y-46950000D02*
X35930000Y-46950000D01*
X34900000Y-48050000D02*
X34900000Y-49200000D01*
X34900000Y-49200000D02*
X33100000Y-49200000D01*
X35930000Y-46950000D02*
X35930000Y-48050000D01*
X35930000Y-48050000D02*
X34900000Y-48050000D01*
%TO.C,J2*%
X88230000Y-5220000D02*
X94320000Y-5220000D01*
X94320000Y-57030000D01*
X88230000Y-57030000D01*
X88230000Y-5220000D01*
%TO.C,D4*%
X26070000Y-24000000D02*
X27100000Y-24000000D01*
X26070000Y-25110000D02*
X26070000Y-24000000D01*
X26070000Y-25890000D02*
X27100000Y-25890000D01*
X26070000Y-27000000D02*
X26070000Y-25890000D01*
X27100000Y-23800000D02*
X28900000Y-23800000D01*
X27100000Y-24000000D02*
X27100000Y-23800000D01*
X27100000Y-25110000D02*
X26070000Y-25110000D01*
X27100000Y-25890000D02*
X27100000Y-25110000D01*
X27100000Y-27000000D02*
X26070000Y-27000000D01*
X27100000Y-27200000D02*
X27100000Y-27000000D01*
X28900000Y-23800000D02*
X28900000Y-24950000D01*
X28900000Y-24950000D02*
X29930000Y-24950000D01*
X28900000Y-26050000D02*
X28900000Y-27200000D01*
X28900000Y-27200000D02*
X27100000Y-27200000D01*
X29930000Y-24950000D02*
X29930000Y-26050000D01*
X29930000Y-26050000D02*
X28900000Y-26050000D01*
%TO.C,U8*%
X73600000Y-29400000D02*
X73600000Y-36600000D01*
X73600000Y-36600000D02*
X82400000Y-36600000D01*
X82400000Y-29400000D02*
X73600000Y-29400000D01*
X82400000Y-36600000D02*
X82400000Y-29400000D01*
%TO.C,C6*%
X46320000Y-71770000D02*
X49280000Y-71770000D01*
X49280000Y-73230000D01*
X46320000Y-73230000D01*
X46320000Y-71770000D01*
%TO.C,U1*%
X42100000Y-8600000D02*
X43550000Y-8600000D01*
X42100000Y-15400000D02*
X42100000Y-8600000D01*
X43550000Y-8500000D02*
X48450000Y-8500000D01*
X43550000Y-8600000D02*
X43550000Y-8500000D01*
X43550000Y-15400000D02*
X42100000Y-15400000D01*
X43550000Y-15500000D02*
X43550000Y-15400000D01*
X48450000Y-8500000D02*
X48450000Y-8600000D01*
X48450000Y-8600000D02*
X49900000Y-8600000D01*
X48450000Y-15400000D02*
X48450000Y-15500000D01*
X48450000Y-15500000D02*
X43550000Y-15500000D01*
X49900000Y-8600000D02*
X49900000Y-15400000D01*
X49900000Y-15400000D02*
X48450000Y-15400000D01*
%TO.C,C1*%
X52520000Y-11270000D02*
X55480000Y-11270000D01*
X55480000Y-12730000D01*
X52520000Y-12730000D01*
X52520000Y-11270000D01*
%TO.C,R1*%
X18520000Y-8270000D02*
X21480000Y-8270000D01*
X21480000Y-9730000D01*
X18520000Y-9730000D01*
X18520000Y-8270000D01*
%TO.C,R15*%
X18520000Y-44270000D02*
X21480000Y-44270000D01*
X21480000Y-45730000D01*
X18520000Y-45730000D01*
X18520000Y-44270000D01*
%TO.C,J1*%
X6230000Y-5220000D02*
X12320000Y-5220000D01*
X12320000Y-57030000D01*
X6230000Y-57030000D01*
X6230000Y-5220000D01*
%TO.C,R20*%
X14520000Y-49270000D02*
X17480000Y-49270000D01*
X17480000Y-50730000D01*
X14520000Y-50730000D01*
X14520000Y-49270000D01*
%TO.C,U4*%
X56100000Y-18600000D02*
X57550000Y-18600000D01*
X56100000Y-25400000D02*
X56100000Y-18600000D01*
X57550000Y-18500000D02*
X62450000Y-18500000D01*
X57550000Y-18600000D02*
X57550000Y-18500000D01*
X57550000Y-25400000D02*
X56100000Y-25400000D01*
X57550000Y-25500000D02*
X57550000Y-25400000D01*
X62450000Y-18500000D02*
X62450000Y-18600000D01*
X62450000Y-18600000D02*
X63900000Y-18600000D01*
X62450000Y-25400000D02*
X62450000Y-25500000D01*
X62450000Y-25500000D02*
X57550000Y-25500000D01*
X63900000Y-18600000D02*
X63900000Y-25400000D01*
X63900000Y-25400000D02*
X62450000Y-25400000D01*
%TO.C,R5*%
X18520000Y-14270000D02*
X21480000Y-14270000D01*
X21480000Y-15730000D01*
X18520000Y-15730000D01*
X18520000Y-14270000D01*
%TO.C,R14*%
X18520000Y-41270000D02*
X21480000Y-41270000D01*
X21480000Y-42730000D01*
X18520000Y-42730000D01*
X18520000Y-41270000D01*
%TO.C,D13*%
X32070000Y-24000000D02*
X33100000Y-24000000D01*
X32070000Y-25110000D02*
X32070000Y-24000000D01*
X32070000Y-25890000D02*
X33100000Y-25890000D01*
X32070000Y-27000000D02*
X32070000Y-25890000D01*
X33100000Y-23800000D02*
X34900000Y-23800000D01*
X33100000Y-24000000D02*
X33100000Y-23800000D01*
X33100000Y-25110000D02*
X32070000Y-25110000D01*
X33100000Y-25890000D02*
X33100000Y-25110000D01*
X33100000Y-27000000D02*
X32070000Y-27000000D01*
X33100000Y-27200000D02*
X33100000Y-27000000D01*
X34900000Y-23800000D02*
X34900000Y-24950000D01*
X34900000Y-24950000D02*
X35930000Y-24950000D01*
X34900000Y-26050000D02*
X34900000Y-27200000D01*
X34900000Y-27200000D02*
X33100000Y-27200000D01*
X35930000Y-24950000D02*
X35930000Y-26050000D01*
X35930000Y-26050000D02*
X34900000Y-26050000D01*
%TO.C,D12*%
X32070000Y-18500000D02*
X33100000Y-18500000D01*
X32070000Y-19610000D02*
X32070000Y-18500000D01*
X32070000Y-20390000D02*
X33100000Y-20390000D01*
X32070000Y-21500000D02*
X32070000Y-20390000D01*
X33100000Y-18300000D02*
X34900000Y-18300000D01*
X33100000Y-18500000D02*
X33100000Y-18300000D01*
X33100000Y-19610000D02*
X32070000Y-19610000D01*
X33100000Y-20390000D02*
X33100000Y-19610000D01*
X33100000Y-21500000D02*
X32070000Y-21500000D01*
X33100000Y-21700000D02*
X33100000Y-21500000D01*
X34900000Y-18300000D02*
X34900000Y-19450000D01*
X34900000Y-19450000D02*
X35930000Y-19450000D01*
X34900000Y-20550000D02*
X34900000Y-21700000D01*
X34900000Y-21700000D02*
X33100000Y-21700000D01*
X35930000Y-19450000D02*
X35930000Y-20550000D01*
X35930000Y-20550000D02*
X34900000Y-20550000D01*
%TO.C,D8*%
X26070000Y-46000000D02*
X27100000Y-46000000D01*
X26070000Y-47110000D02*
X26070000Y-46000000D01*
X26070000Y-47890000D02*
X27100000Y-47890000D01*
X26070000Y-49000000D02*
X26070000Y-47890000D01*
X27100000Y-45800000D02*
X28900000Y-45800000D01*
X27100000Y-46000000D02*
X27100000Y-45800000D01*
X27100000Y-47110000D02*
X26070000Y-47110000D01*
X27100000Y-47890000D02*
X27100000Y-47110000D01*
X27100000Y-49000000D02*
X26070000Y-49000000D01*
X27100000Y-49200000D02*
X27100000Y-49000000D01*
X28900000Y-45800000D02*
X28900000Y-46950000D01*
X28900000Y-46950000D02*
X29930000Y-46950000D01*
X28900000Y-48050000D02*
X28900000Y-49200000D01*
X28900000Y-49200000D02*
X27100000Y-49200000D01*
X29930000Y-46950000D02*
X29930000Y-48050000D01*
X29930000Y-48050000D02*
X28900000Y-48050000D01*
%TO.C,J8*%
X73000000Y-9800000D02*
X76200000Y-9800000D01*
X73000000Y-25200000D02*
X73000000Y-9800000D01*
X76200000Y-9200000D02*
X79800000Y-9200000D01*
X76200000Y-9800000D02*
X76200000Y-9200000D01*
X79800000Y-9200000D02*
X79800000Y-9800000D01*
X79800000Y-9800000D02*
X83000000Y-9800000D01*
X83000000Y-9800000D02*
X83000000Y-12200000D01*
X83000000Y-12200000D02*
X84500000Y-12200000D01*
X83000000Y-15800000D02*
X83000000Y-25200000D01*
X83000000Y-25200000D02*
X73000000Y-25200000D01*
X84500000Y-12200000D02*
X84500000Y-15800000D01*
X84500000Y-15800000D02*
X83000000Y-15800000D01*
%TO.C,J3*%
X58230000Y-38230000D02*
X61770000Y-38230000D01*
X61770000Y-49390000D01*
X58230000Y-49390000D01*
X58230000Y-38230000D01*
%TO.C,D10*%
X32070000Y-7500000D02*
X33100000Y-7500000D01*
X32070000Y-8610000D02*
X32070000Y-7500000D01*
X32070000Y-9390000D02*
X33100000Y-9390000D01*
X32070000Y-10500000D02*
X32070000Y-9390000D01*
X33100000Y-7300000D02*
X34900000Y-7300000D01*
X33100000Y-7500000D02*
X33100000Y-7300000D01*
X33100000Y-8610000D02*
X32070000Y-8610000D01*
X33100000Y-9390000D02*
X33100000Y-8610000D01*
X33100000Y-10500000D02*
X32070000Y-10500000D01*
X33100000Y-10700000D02*
X33100000Y-10500000D01*
X34900000Y-7300000D02*
X34900000Y-8450000D01*
X34900000Y-8450000D02*
X35930000Y-8450000D01*
X34900000Y-9550000D02*
X34900000Y-10700000D01*
X34900000Y-10700000D02*
X33100000Y-10700000D01*
X35930000Y-8450000D02*
X35930000Y-9550000D01*
X35930000Y-9550000D02*
X34900000Y-9550000D01*
%TO.C,C2*%
X52520000Y-25270000D02*
X55480000Y-25270000D01*
X55480000Y-26730000D01*
X52520000Y-26730000D01*
X52520000Y-25270000D01*
%TO.C,U3*%
X42100000Y-36600000D02*
X43550000Y-36600000D01*
X42100000Y-43400000D02*
X42100000Y-36600000D01*
X43550000Y-36500000D02*
X48450000Y-36500000D01*
X43550000Y-36600000D02*
X43550000Y-36500000D01*
X43550000Y-43400000D02*
X42100000Y-43400000D01*
X43550000Y-43500000D02*
X43550000Y-43400000D01*
X48450000Y-36500000D02*
X48450000Y-36600000D01*
X48450000Y-36600000D02*
X49900000Y-36600000D01*
X48450000Y-43400000D02*
X48450000Y-43500000D01*
X48450000Y-43500000D02*
X43550000Y-43500000D01*
X49900000Y-36600000D02*
X49900000Y-43400000D01*
X49900000Y-43400000D02*
X48450000Y-43400000D01*
%TO.C,D7*%
X26070000Y-40500000D02*
X27100000Y-40500000D01*
X26070000Y-41610000D02*
X26070000Y-40500000D01*
X26070000Y-42390000D02*
X27100000Y-42390000D01*
X26070000Y-43500000D02*
X26070000Y-42390000D01*
X27100000Y-40300000D02*
X28900000Y-40300000D01*
X27100000Y-40500000D02*
X27100000Y-40300000D01*
X27100000Y-41610000D02*
X26070000Y-41610000D01*
X27100000Y-42390000D02*
X27100000Y-41610000D01*
X27100000Y-43500000D02*
X26070000Y-43500000D01*
X27100000Y-43700000D02*
X27100000Y-43500000D01*
X28900000Y-40300000D02*
X28900000Y-41450000D01*
X28900000Y-41450000D02*
X29930000Y-41450000D01*
X28900000Y-42550000D02*
X28900000Y-43700000D01*
X28900000Y-43700000D02*
X27100000Y-43700000D01*
X29930000Y-41450000D02*
X29930000Y-42550000D01*
X29930000Y-42550000D02*
X28900000Y-42550000D01*
%TO.C,D14*%
X32070000Y-29500000D02*
X33100000Y-29500000D01*
X32070000Y-30610000D02*
X32070000Y-29500000D01*
X32070000Y-31390000D02*
X33100000Y-31390000D01*
X32070000Y-32500000D02*
X32070000Y-31390000D01*
X33100000Y-29300000D02*
X34900000Y-29300000D01*
X33100000Y-29500000D02*
X33100000Y-29300000D01*
X33100000Y-30610000D02*
X32070000Y-30610000D01*
X33100000Y-31390000D02*
X33100000Y-30610000D01*
X33100000Y-32500000D02*
X32070000Y-32500000D01*
X33100000Y-32700000D02*
X33100000Y-32500000D01*
X34900000Y-29300000D02*
X34900000Y-30450000D01*
X34900000Y-30450000D02*
X35930000Y-30450000D01*
X34900000Y-31550000D02*
X34900000Y-32700000D01*
X34900000Y-32700000D02*
X33100000Y-32700000D01*
X35930000Y-30450000D02*
X35930000Y-31550000D01*
X35930000Y-31550000D02*
X34900000Y-31550000D01*
%TO.C,C7*%
X58520000Y-54270000D02*
X61480000Y-54270000D01*
X61480000Y-55730000D01*
X58520000Y-55730000D01*
X58520000Y-54270000D01*
%TO.C,U5*%
X10860000Y-61440000D02*
X21520000Y-61440000D01*
X21520000Y-71170000D01*
X10860000Y-71170000D01*
X10860000Y-61440000D01*
%TO.C,R6*%
X18520000Y-17270000D02*
X21480000Y-17270000D01*
X21480000Y-18730000D01*
X18520000Y-18730000D01*
X18520000Y-17270000D01*
%TO.C,C5*%
X22320000Y-71770000D02*
X25280000Y-71770000D01*
X25280000Y-73230000D01*
X22320000Y-73230000D01*
X22320000Y-71770000D01*
%TO.C,R10*%
X18520000Y-29270000D02*
X21480000Y-29270000D01*
X21480000Y-30730000D01*
X18520000Y-30730000D01*
X18520000Y-29270000D01*
%TO.C,R11*%
X18520000Y-32270000D02*
X21480000Y-32270000D01*
X21480000Y-33730000D01*
X18520000Y-33730000D01*
X18520000Y-32270000D01*
%TO.C,R4*%
X58520000Y-11270000D02*
X61480000Y-11270000D01*
X61480000Y-12730000D01*
X58520000Y-12730000D01*
X58520000Y-11270000D01*
%TO.C,D1*%
X26070000Y-7500000D02*
X27100000Y-7500000D01*
X26070000Y-8610000D02*
X26070000Y-7500000D01*
X26070000Y-9390000D02*
X27100000Y-9390000D01*
X26070000Y-10500000D02*
X26070000Y-9390000D01*
X27100000Y-7300000D02*
X28900000Y-7300000D01*
X27100000Y-7500000D02*
X27100000Y-7300000D01*
X27100000Y-8610000D02*
X26070000Y-8610000D01*
X27100000Y-9390000D02*
X27100000Y-8610000D01*
X27100000Y-10500000D02*
X26070000Y-10500000D01*
X27100000Y-10700000D02*
X27100000Y-10500000D01*
X28900000Y-7300000D02*
X28900000Y-8450000D01*
X28900000Y-8450000D02*
X29930000Y-8450000D01*
X28900000Y-9550000D02*
X28900000Y-10700000D01*
X28900000Y-10700000D02*
X27100000Y-10700000D01*
X29930000Y-8450000D02*
X29930000Y-9550000D01*
X29930000Y-9550000D02*
X28900000Y-9550000D01*
%TO.C,J7*%
X94230000Y-73230000D02*
X97770000Y-73230000D01*
X97770000Y-79320000D01*
X94230000Y-79320000D01*
X94230000Y-73230000D01*
%TO.C,C3*%
X52520000Y-39270000D02*
X55480000Y-39270000D01*
X55480000Y-40730000D01*
X52520000Y-40730000D01*
X52520000Y-39270000D01*
%TO.C,D9*%
X26070000Y-51500000D02*
X27100000Y-51500000D01*
X26070000Y-52610000D02*
X26070000Y-51500000D01*
X26070000Y-53390000D02*
X27100000Y-53390000D01*
X26070000Y-54500000D02*
X26070000Y-53390000D01*
X27100000Y-51300000D02*
X28900000Y-51300000D01*
X27100000Y-51500000D02*
X27100000Y-51300000D01*
X27100000Y-52610000D02*
X26070000Y-52610000D01*
X27100000Y-53390000D02*
X27100000Y-52610000D01*
X27100000Y-54500000D02*
X26070000Y-54500000D01*
X27100000Y-54700000D02*
X27100000Y-54500000D01*
X28900000Y-51300000D02*
X28900000Y-52450000D01*
X28900000Y-52450000D02*
X29930000Y-52450000D01*
X28900000Y-53550000D02*
X28900000Y-54700000D01*
X28900000Y-54700000D02*
X27100000Y-54700000D01*
X29930000Y-52450000D02*
X29930000Y-53550000D01*
X29930000Y-53550000D02*
X28900000Y-53550000D01*
%TO.C,D2*%
X26070000Y-13000000D02*
X27100000Y-13000000D01*
X26070000Y-14110000D02*
X26070000Y-13000000D01*
X26070000Y-14890000D02*
X27100000Y-14890000D01*
X26070000Y-16000000D02*
X26070000Y-14890000D01*
X27100000Y-12800000D02*
X28900000Y-12800000D01*
X27100000Y-13000000D02*
X27100000Y-12800000D01*
X27100000Y-14110000D02*
X26070000Y-14110000D01*
X27100000Y-14890000D02*
X27100000Y-14110000D01*
X27100000Y-16000000D02*
X26070000Y-16000000D01*
X27100000Y-16200000D02*
X27100000Y-16000000D01*
X28900000Y-12800000D02*
X28900000Y-13950000D01*
X28900000Y-13950000D02*
X29930000Y-13950000D01*
X28900000Y-15050000D02*
X28900000Y-16200000D01*
X28900000Y-16200000D02*
X27100000Y-16200000D01*
X29930000Y-13950000D02*
X29930000Y-15050000D01*
X29930000Y-15050000D02*
X28900000Y-15050000D01*
%TO.C,R3*%
X18520000Y-11270000D02*
X21480000Y-11270000D01*
X21480000Y-12730000D01*
X18520000Y-12730000D01*
X18520000Y-11270000D01*
%TO.C,U7*%
X62820000Y-58850000D02*
X69430000Y-58850000D01*
X69430000Y-78850000D01*
X62820000Y-78850000D01*
X62820000Y-58850000D01*
%TO.C,D6*%
X26070000Y-35000000D02*
X27100000Y-35000000D01*
X26070000Y-36110000D02*
X26070000Y-35000000D01*
X26070000Y-36890000D02*
X27100000Y-36890000D01*
X26070000Y-38000000D02*
X26070000Y-36890000D01*
X27100000Y-34800000D02*
X28900000Y-34800000D01*
X27100000Y-35000000D02*
X27100000Y-34800000D01*
X27100000Y-36110000D02*
X26070000Y-36110000D01*
X27100000Y-36890000D02*
X27100000Y-36110000D01*
X27100000Y-38000000D02*
X26070000Y-38000000D01*
X27100000Y-38200000D02*
X27100000Y-38000000D01*
X28900000Y-34800000D02*
X28900000Y-35950000D01*
X28900000Y-35950000D02*
X29930000Y-35950000D01*
X28900000Y-37050000D02*
X28900000Y-38200000D01*
X28900000Y-38200000D02*
X27100000Y-38200000D01*
X29930000Y-35950000D02*
X29930000Y-37050000D01*
X29930000Y-37050000D02*
X28900000Y-37050000D01*
%TO.C,R8*%
X18520000Y-23270000D02*
X21480000Y-23270000D01*
X21480000Y-24730000D01*
X18520000Y-24730000D01*
X18520000Y-23270000D01*
%TO.C,J4*%
X71000000Y-69290000D02*
X92000000Y-69290000D01*
X92000000Y-80100000D01*
X71000000Y-80100000D01*
X71000000Y-69290000D01*
%TO.C,J5*%
X50230000Y-43230000D02*
X53770000Y-43230000D01*
X53770000Y-49320000D01*
X50230000Y-49320000D01*
X50230000Y-43230000D01*
%TO.C,C12*%
X66300000Y-81020000D02*
X69700000Y-81020000D01*
X69700000Y-82980000D01*
X66300000Y-82980000D01*
X66300000Y-81020000D01*
%TO.C,R17*%
X18520000Y-50270000D02*
X21480000Y-50270000D01*
X21480000Y-51730000D01*
X18520000Y-51730000D01*
X18520000Y-50270000D01*
%TO.C,R24*%
X42520000Y-49270000D02*
X45480000Y-49270000D01*
X45480000Y-50730000D01*
X42520000Y-50730000D01*
X42520000Y-49270000D01*
%TO.C,R7*%
X18520000Y-20270000D02*
X21480000Y-20270000D01*
X21480000Y-21730000D01*
X18520000Y-21730000D01*
X18520000Y-20270000D01*
%TO.C,C11*%
X76300000Y-48020000D02*
X79700000Y-48020000D01*
X79700000Y-49980000D01*
X76300000Y-49980000D01*
X76300000Y-48020000D01*
%TO.C,D11*%
X32070000Y-13000000D02*
X33100000Y-13000000D01*
X32070000Y-14110000D02*
X32070000Y-13000000D01*
X32070000Y-14890000D02*
X33100000Y-14890000D01*
X32070000Y-16000000D02*
X32070000Y-14890000D01*
X33100000Y-12800000D02*
X34900000Y-12800000D01*
X33100000Y-13000000D02*
X33100000Y-12800000D01*
X33100000Y-14110000D02*
X32070000Y-14110000D01*
X33100000Y-14890000D02*
X33100000Y-14110000D01*
X33100000Y-16000000D02*
X32070000Y-16000000D01*
X33100000Y-16200000D02*
X33100000Y-16000000D01*
X34900000Y-12800000D02*
X34900000Y-13950000D01*
X34900000Y-13950000D02*
X35930000Y-13950000D01*
X34900000Y-15050000D02*
X34900000Y-16200000D01*
X34900000Y-16200000D02*
X33100000Y-16200000D01*
X35930000Y-13950000D02*
X35930000Y-15050000D01*
X35930000Y-15050000D02*
X34900000Y-15050000D01*
%TO.C,R18*%
X18520000Y-53270000D02*
X21480000Y-53270000D01*
X21480000Y-54730000D01*
X18520000Y-54730000D01*
X18520000Y-53270000D01*
%TO.C,U6*%
X34860000Y-61440000D02*
X45520000Y-61440000D01*
X45520000Y-71170000D01*
X34860000Y-71170000D01*
X34860000Y-61440000D01*
%TO.C,R13*%
X18520000Y-38270000D02*
X21480000Y-38270000D01*
X21480000Y-39730000D01*
X18520000Y-39730000D01*
X18520000Y-38270000D01*
%TO.C,C10*%
X76300000Y-42020000D02*
X79700000Y-42020000D01*
X79700000Y-43980000D01*
X76300000Y-43980000D01*
X76300000Y-42020000D01*
%TO.C,D5*%
X26070000Y-29500000D02*
X27100000Y-29500000D01*
X26070000Y-30610000D02*
X26070000Y-29500000D01*
X26070000Y-31390000D02*
X27100000Y-31390000D01*
X26070000Y-32500000D02*
X26070000Y-31390000D01*
X27100000Y-29300000D02*
X28900000Y-29300000D01*
X27100000Y-29500000D02*
X27100000Y-29300000D01*
X27100000Y-30610000D02*
X26070000Y-30610000D01*
X27100000Y-31390000D02*
X27100000Y-30610000D01*
X27100000Y-32500000D02*
X26070000Y-32500000D01*
X27100000Y-32700000D02*
X27100000Y-32500000D01*
X28900000Y-29300000D02*
X28900000Y-30450000D01*
X28900000Y-30450000D02*
X29930000Y-30450000D01*
X28900000Y-31550000D02*
X28900000Y-32700000D01*
X28900000Y-32700000D02*
X27100000Y-32700000D01*
X29930000Y-30450000D02*
X29930000Y-31550000D01*
X29930000Y-31550000D02*
X28900000Y-31550000D01*
%TO.C,U2*%
X42100000Y-22600000D02*
X43550000Y-22600000D01*
X42100000Y-29400000D02*
X42100000Y-22600000D01*
X43550000Y-22500000D02*
X48450000Y-22500000D01*
X43550000Y-22600000D02*
X43550000Y-22500000D01*
X43550000Y-29400000D02*
X42100000Y-29400000D01*
X43550000Y-29500000D02*
X43550000Y-29400000D01*
X48450000Y-22500000D02*
X48450000Y-22600000D01*
X48450000Y-22600000D02*
X49900000Y-22600000D01*
X48450000Y-29400000D02*
X48450000Y-29500000D01*
X48450000Y-29500000D02*
X43550000Y-29500000D01*
X49900000Y-22600000D02*
X49900000Y-29400000D01*
X49900000Y-29400000D02*
X48450000Y-29400000D01*
%TO.C,R26*%
X42520000Y-53270000D02*
X45480000Y-53270000D01*
X45480000Y-54730000D01*
X42520000Y-54730000D01*
X42520000Y-53270000D01*
%TO.C,R21*%
X18520000Y-72270000D02*
X21480000Y-72270000D01*
X21480000Y-73730000D01*
X18520000Y-73730000D01*
X18520000Y-72270000D01*
%TO.C,D3*%
X26070000Y-18500000D02*
X27100000Y-18500000D01*
X26070000Y-19610000D02*
X26070000Y-18500000D01*
X26070000Y-20390000D02*
X27100000Y-20390000D01*
X26070000Y-21500000D02*
X26070000Y-20390000D01*
X27100000Y-18300000D02*
X28900000Y-18300000D01*
X27100000Y-18500000D02*
X27100000Y-18300000D01*
X27100000Y-19610000D02*
X26070000Y-19610000D01*
X27100000Y-20390000D02*
X27100000Y-19610000D01*
X27100000Y-21500000D02*
X26070000Y-21500000D01*
X27100000Y-21700000D02*
X27100000Y-21500000D01*
X28900000Y-18300000D02*
X28900000Y-19450000D01*
X28900000Y-19450000D02*
X29930000Y-19450000D01*
X28900000Y-20550000D02*
X28900000Y-21700000D01*
X28900000Y-21700000D02*
X27100000Y-21700000D01*
X29930000Y-19450000D02*
X29930000Y-20550000D01*
X29930000Y-20550000D02*
X28900000Y-20550000D01*
%TO.C,R2*%
X58520000Y-8270000D02*
X61480000Y-8270000D01*
X61480000Y-9730000D01*
X58520000Y-9730000D01*
X58520000Y-8270000D01*
%TO.C,R19*%
X18520000Y-56270000D02*
X21480000Y-56270000D01*
X21480000Y-57730000D01*
X18520000Y-57730000D01*
X18520000Y-56270000D01*
%TO.C,R12*%
X18520000Y-35270000D02*
X21480000Y-35270000D01*
X21480000Y-36730000D01*
X18520000Y-36730000D01*
X18520000Y-35270000D01*
%TO.C,R25*%
X42520000Y-72270000D02*
X45480000Y-72270000D01*
X45480000Y-73730000D01*
X42520000Y-73730000D01*
X42520000Y-72270000D01*
%TO.C,R22*%
X14520000Y-53270000D02*
X17480000Y-53270000D01*
X17480000Y-54730000D01*
X14520000Y-54730000D01*
X14520000Y-53270000D01*
%TO.C,C9*%
X68520000Y-34270000D02*
X71480000Y-34270000D01*
X71480000Y-35730000D01*
X68520000Y-35730000D01*
X68520000Y-34270000D01*
%TO.C,R16*%
X18520000Y-47270000D02*
X21480000Y-47270000D01*
X21480000Y-48730000D01*
X18520000Y-48730000D01*
X18520000Y-47270000D01*
%TO.C,D16*%
X32070000Y-40500000D02*
X33100000Y-40500000D01*
X32070000Y-41610000D02*
X32070000Y-40500000D01*
X32070000Y-42390000D02*
X33100000Y-42390000D01*
X32070000Y-43500000D02*
X32070000Y-42390000D01*
X33100000Y-40300000D02*
X34900000Y-40300000D01*
X33100000Y-40500000D02*
X33100000Y-40300000D01*
X33100000Y-41610000D02*
X32070000Y-41610000D01*
X33100000Y-42390000D02*
X33100000Y-41610000D01*
X33100000Y-43500000D02*
X32070000Y-43500000D01*
X33100000Y-43700000D02*
X33100000Y-43500000D01*
X34900000Y-40300000D02*
X34900000Y-41450000D01*
X34900000Y-41450000D02*
X35930000Y-41450000D01*
X34900000Y-42550000D02*
X34900000Y-43700000D01*
X34900000Y-43700000D02*
X33100000Y-43700000D01*
X35930000Y-41450000D02*
X35930000Y-42550000D01*
X35930000Y-42550000D02*
X34900000Y-42550000D01*
%TO.C,C8*%
X58520000Y-81270000D02*
X61480000Y-81270000D01*
X61480000Y-82730000D01*
X58520000Y-82730000D01*
X58520000Y-81270000D01*
%TD*%
M02*
