%TF.GenerationSoftware,KiCad,Pcbnew,10.0.5*%
%TF.CreationDate,2026-08-13T20:20:07-04:00*%
%TF.ProjectId,mule,6d756c65-2e6b-4696-9361-645f70636258,rev?*%
%TF.SameCoordinates,Original*%
%TF.FileFunction,Copper,L1,Top*%
%TF.FilePolarity,Positive*%
%FSLAX46Y46*%
G04 Gerber Fmt 4.6, Leading zero omitted, Abs format (unit mm)*
G04 Created by KiCad (PCBNEW 10.0.5) date 2026-08-13 20:20:07*
%MOMM*%
%LPD*%
G01*
G04 APERTURE LIST*
G04 Aperture macros list*
%AMRoundRect*
0 Rectangle with rounded corners*
0 $1 Rounding radius*
0 $2 $3 $4 $5 $6 $7 $8 $9 X,Y pos of 4 corners*
0 Add a 4 corners polygon primitive as box body*
4,1,4,$2,$3,$4,$5,$6,$7,$8,$9,$2,$3,0*
0 Add four circle primitives for the rounded corners*
1,1,$1+$1,$2,$3*
1,1,$1+$1,$4,$5*
1,1,$1+$1,$6,$7*
1,1,$1+$1,$8,$9*
0 Add four rect primitives between the rounded corners*
20,1,$1+$1,$2,$3,$4,$5,0*
20,1,$1+$1,$4,$5,$6,$7,0*
20,1,$1+$1,$6,$7,$8,$9,0*
20,1,$1+$1,$8,$9,$2,$3,0*%
G04 Aperture macros list end*
%TA.AperFunction,SMDPad,CuDef*%
%ADD10RoundRect,0.225000X-0.225000X-0.250000X0.225000X-0.250000X0.225000X0.250000X-0.225000X0.250000X0*%
%TD*%
%TA.AperFunction,SMDPad,CuDef*%
%ADD11RoundRect,0.150000X-0.587500X-0.150000X0.587500X-0.150000X0.587500X0.150000X-0.587500X0.150000X0*%
%TD*%
%TA.AperFunction,SMDPad,CuDef*%
%ADD12RoundRect,0.200000X-0.200000X-0.275000X0.200000X-0.275000X0.200000X0.275000X-0.200000X0.275000X0*%
%TD*%
%TA.AperFunction,ComponentPad*%
%ADD13R,1.700000X1.700000*%
%TD*%
%TA.AperFunction,ComponentPad*%
%ADD14C,1.700000*%
%TD*%
%TA.AperFunction,SMDPad,CuDef*%
%ADD15RoundRect,0.375000X-0.625000X-0.375000X0.625000X-0.375000X0.625000X0.375000X-0.625000X0.375000X0*%
%TD*%
%TA.AperFunction,SMDPad,CuDef*%
%ADD16RoundRect,0.500000X-0.500000X-1.400000X0.500000X-1.400000X0.500000X1.400000X-0.500000X1.400000X0*%
%TD*%
%TA.AperFunction,SMDPad,CuDef*%
%ADD17RoundRect,0.112500X-0.637500X-0.112500X0.637500X-0.112500X0.637500X0.112500X-0.637500X0.112500X0*%
%TD*%
%TA.AperFunction,ComponentPad*%
%ADD18R,2.600000X2.600000*%
%TD*%
%TA.AperFunction,ComponentPad*%
%ADD19C,2.600000*%
%TD*%
%TA.AperFunction,ComponentPad*%
%ADD20RoundRect,0.250000X-0.550000X-0.550000X0.550000X-0.550000X0.550000X0.550000X-0.550000X0.550000X0*%
%TD*%
%TA.AperFunction,ComponentPad*%
%ADD21C,1.600000*%
%TD*%
%TA.AperFunction,ComponentPad*%
%ADD22RoundRect,0.250001X-0.499999X-0.499999X0.499999X-0.499999X0.499999X0.499999X-0.499999X0.499999X0*%
%TD*%
%TA.AperFunction,ComponentPad*%
%ADD23C,1.500000*%
%TD*%
%TA.AperFunction,ComponentPad*%
%ADD24RoundRect,0.250000X-1.050000X-1.050000X1.050000X-1.050000X1.050000X1.050000X-1.050000X1.050000X0*%
%TD*%
%TA.AperFunction,SMDPad,CuDef*%
%ADD25RoundRect,0.250000X-0.250000X-0.475000X0.250000X-0.475000X0.250000X0.475000X-0.250000X0.475000X0*%
%TD*%
G04 APERTURE END LIST*
D10*
%TO.P,C4,1*%
%TO.N,+5V*%
X59225000Y-30000000D03*
%TO.P,C4,2*%
%TO.N,DGND*%
X60775000Y-30000000D03*
%TD*%
D11*
%TO.P,D15,1*%
%TO.N,DGND*%
X33062500Y-35550000D03*
%TO.P,D15,2*%
%TO.N,+5V*%
X33062500Y-37450000D03*
%TO.P,D15,3*%
%TO.N,EVT_D14_CLAMP*%
X34937500Y-36500000D03*
%TD*%
D12*
%TO.P,R27,1*%
%TO.N,ISO_5V*%
X43175000Y-77000000D03*
%TO.P,R27,2*%
%TO.N,OPTO_SPARE2_ISO*%
X44825000Y-77000000D03*
%TD*%
%TO.P,R9,1*%
%TO.N,EVT_D6_TPC*%
X19175000Y-27000000D03*
%TO.P,R9,2*%
%TO.N,EVT_D6_CLAMP*%
X20825000Y-27000000D03*
%TD*%
D13*
%TO.P,J6,1*%
%TO.N,OPTO_SPARE2_IN*%
X52000000Y-53000000D03*
D14*
%TO.P,J6,2*%
%TO.N,DGND*%
X52000000Y-55540000D03*
%TD*%
D12*
%TO.P,R23,1*%
%TO.N,ISO_5V*%
X19175000Y-77000000D03*
%TO.P,R23,2*%
%TO.N,BARCODE_ISO*%
X20825000Y-77000000D03*
%TD*%
D11*
%TO.P,D17,1*%
%TO.N,DGND*%
X33062500Y-46550000D03*
%TO.P,D17,2*%
%TO.N,+5V*%
X33062500Y-48450000D03*
%TO.P,D17,3*%
%TO.N,EVT_STROBE_CLAMP*%
X34937500Y-47500000D03*
%TD*%
D13*
%TO.P,J2,1*%
%TO.N,unconnected-(J2-Pin_1-Pad1)*%
X90000000Y-7000000D03*
D14*
%TO.P,J2,2*%
%TO.N,unconnected-(J2-Pin_2-Pad2)*%
X92540000Y-7000000D03*
%TO.P,J2,3*%
%TO.N,EVT_D2_PI*%
X90000000Y-9540000D03*
%TO.P,J2,4*%
%TO.N,unconnected-(J2-Pin_4-Pad4)*%
X92540000Y-9540000D03*
%TO.P,J2,5*%
%TO.N,EVT_D3_PI*%
X90000000Y-12080000D03*
%TO.P,J2,6*%
%TO.N,DGND*%
X92540000Y-12080000D03*
%TO.P,J2,7*%
%TO.N,EVT_D4_PI*%
X90000000Y-14620000D03*
%TO.P,J2,8*%
%TO.N,EVT_D14_PI*%
X92540000Y-14620000D03*
%TO.P,J2,9*%
%TO.N,DGND*%
X90000000Y-17160000D03*
%TO.P,J2,10*%
%TO.N,EVT_D15_PI*%
X92540000Y-17160000D03*
%TO.P,J2,11*%
%TO.N,BARCODE_PI*%
X90000000Y-19700000D03*
%TO.P,J2,12*%
%TO.N,unconnected-(J2-Pin_12-Pad12)*%
X92540000Y-19700000D03*
%TO.P,J2,13*%
%TO.N,unconnected-(J2-Pin_13-Pad13)*%
X90000000Y-22240000D03*
%TO.P,J2,14*%
%TO.N,DGND*%
X92540000Y-22240000D03*
%TO.P,J2,15*%
%TO.N,unconnected-(J2-Pin_15-Pad15)*%
X90000000Y-24780000D03*
%TO.P,J2,16*%
%TO.N,unconnected-(J2-Pin_16-Pad16)*%
X92540000Y-24780000D03*
%TO.P,J2,17*%
%TO.N,unconnected-(J2-Pin_17-Pad17)*%
X90000000Y-27320000D03*
%TO.P,J2,18*%
%TO.N,unconnected-(J2-Pin_18-Pad18)*%
X92540000Y-27320000D03*
%TO.P,J2,19*%
%TO.N,EVT_D10_PI*%
X90000000Y-29860000D03*
%TO.P,J2,20*%
%TO.N,DGND*%
X92540000Y-29860000D03*
%TO.P,J2,21*%
%TO.N,EVT_D9_PI*%
X90000000Y-32400000D03*
%TO.P,J2,22*%
%TO.N,unconnected-(J2-Pin_22-Pad22)*%
X92540000Y-32400000D03*
%TO.P,J2,23*%
%TO.N,EVT_D11_PI*%
X90000000Y-34940000D03*
%TO.P,J2,24*%
%TO.N,EVT_D8_PI*%
X92540000Y-34940000D03*
%TO.P,J2,25*%
%TO.N,DGND*%
X90000000Y-37480000D03*
%TO.P,J2,26*%
%TO.N,EVT_D7_PI*%
X92540000Y-37480000D03*
%TO.P,J2,27*%
%TO.N,EVT_D0_PI*%
X90000000Y-40020000D03*
%TO.P,J2,28*%
%TO.N,EVT_D1_PI*%
X92540000Y-40020000D03*
%TO.P,J2,29*%
%TO.N,EVT_D5_PI*%
X90000000Y-42560000D03*
%TO.P,J2,30*%
%TO.N,DGND*%
X92540000Y-42560000D03*
%TO.P,J2,31*%
%TO.N,EVT_D6_PI*%
X90000000Y-45100000D03*
%TO.P,J2,32*%
%TO.N,EVT_D12_PI*%
X92540000Y-45100000D03*
%TO.P,J2,33*%
%TO.N,EVT_D13_PI*%
X90000000Y-47640000D03*
%TO.P,J2,34*%
%TO.N,DGND*%
X92540000Y-47640000D03*
%TO.P,J2,35*%
%TO.N,unconnected-(J2-Pin_35-Pad35)*%
X90000000Y-50180000D03*
%TO.P,J2,36*%
%TO.N,EVT_STROBE_PI*%
X92540000Y-50180000D03*
%TO.P,J2,37*%
%TO.N,unconnected-(J2-Pin_37-Pad37)*%
X90000000Y-52720000D03*
%TO.P,J2,38*%
%TO.N,unconnected-(J2-Pin_38-Pad38)*%
X92540000Y-52720000D03*
%TO.P,J2,39*%
%TO.N,DGND*%
X90000000Y-55260000D03*
%TO.P,J2,40*%
%TO.N,unconnected-(J2-Pin_40-Pad40)*%
X92540000Y-55260000D03*
%TD*%
D11*
%TO.P,D4,1*%
%TO.N,DGND*%
X27062500Y-24550000D03*
%TO.P,D4,2*%
%TO.N,+5V*%
X27062500Y-26450000D03*
%TO.P,D4,3*%
%TO.N,EVT_D3_CLAMP*%
X28937500Y-25500000D03*
%TD*%
D15*
%TO.P,U8,1*%
%TO.N,DGND*%
X74850000Y-30700000D03*
%TO.P,U8,2*%
%TO.N,+3V3*%
X74850000Y-33000000D03*
D16*
X81150000Y-33000000D03*
D15*
%TO.P,U8,3*%
%TO.N,+5V*%
X74850000Y-35300000D03*
%TD*%
D10*
%TO.P,C6,1*%
%TO.N,ISO_5V*%
X47025000Y-72500000D03*
%TO.P,C6,2*%
%TO.N,ISO_GND*%
X48575000Y-72500000D03*
%TD*%
D17*
%TO.P,U1,1*%
%TO.N,DGND*%
X43100000Y-9075000D03*
%TO.P,U1,2*%
%TO.N,EVT_D0_CLAMP*%
X43100000Y-9725000D03*
%TO.P,U1,3*%
%TO.N,EVT_D1_CLAMP*%
X43100000Y-10375000D03*
%TO.P,U1,4*%
%TO.N,EVT_D2_CLAMP*%
X43100000Y-11025000D03*
%TO.P,U1,5*%
%TO.N,EVT_D3_CLAMP*%
X43100000Y-11675000D03*
%TO.P,U1,6*%
%TO.N,EVT_D4_CLAMP*%
X43100000Y-12325000D03*
%TO.P,U1,7*%
%TO.N,EVT_D5_CLAMP*%
X43100000Y-12975000D03*
%TO.P,U1,8*%
%TO.N,EVT_D6_CLAMP*%
X43100000Y-13625000D03*
%TO.P,U1,9*%
%TO.N,EVT_D7_CLAMP*%
X43100000Y-14275000D03*
%TO.P,U1,10*%
%TO.N,DGND*%
X43100000Y-14925000D03*
%TO.P,U1,11*%
%TO.N,EVT_D7_PI*%
X48900000Y-14925000D03*
%TO.P,U1,12*%
%TO.N,EVT_D6_PI*%
X48900000Y-14275000D03*
%TO.P,U1,13*%
%TO.N,EVT_D5_PI*%
X48900000Y-13625000D03*
%TO.P,U1,14*%
%TO.N,EVT_D4_PI*%
X48900000Y-12975000D03*
%TO.P,U1,15*%
%TO.N,EVT_D3_PI*%
X48900000Y-12325000D03*
%TO.P,U1,16*%
%TO.N,EVT_D2_PI*%
X48900000Y-11675000D03*
%TO.P,U1,17*%
%TO.N,EVT_D1_BUF*%
X48900000Y-11025000D03*
%TO.P,U1,18*%
%TO.N,EVT_D0_BUF*%
X48900000Y-10375000D03*
%TO.P,U1,19*%
%TO.N,DGND*%
X48900000Y-9725000D03*
%TO.P,U1,20*%
%TO.N,+3V3*%
X48900000Y-9075000D03*
%TD*%
D10*
%TO.P,C1,1*%
%TO.N,+3V3*%
X53225000Y-12000000D03*
%TO.P,C1,2*%
%TO.N,DGND*%
X54775000Y-12000000D03*
%TD*%
D12*
%TO.P,R1,1*%
%TO.N,EVT_D0_TPC*%
X19175000Y-9000000D03*
%TO.P,R1,2*%
%TO.N,EVT_D0_CLAMP*%
X20825000Y-9000000D03*
%TD*%
%TO.P,R15,1*%
%TO.N,EVT_D12_TPC*%
X19175000Y-45000000D03*
%TO.P,R15,2*%
%TO.N,EVT_D12_CLAMP*%
X20825000Y-45000000D03*
%TD*%
D13*
%TO.P,J1,1*%
%TO.N,EVT_D0_TPC*%
X8000000Y-7000000D03*
D14*
%TO.P,J1,2*%
%TO.N,EVT_D1_TPC*%
X10540000Y-7000000D03*
%TO.P,J1,3*%
%TO.N,EVT_D2_TPC*%
X8000000Y-9540000D03*
%TO.P,J1,4*%
%TO.N,EVT_D3_TPC*%
X10540000Y-9540000D03*
%TO.P,J1,5*%
%TO.N,EVT_D4_TPC*%
X8000000Y-12080000D03*
%TO.P,J1,6*%
%TO.N,EVT_D5_TPC*%
X10540000Y-12080000D03*
%TO.P,J1,7*%
%TO.N,EVT_D6_TPC*%
X8000000Y-14620000D03*
%TO.P,J1,8*%
%TO.N,EVT_D7_TPC*%
X10540000Y-14620000D03*
%TO.P,J1,9*%
%TO.N,EVT_D8_TPC*%
X8000000Y-17160000D03*
%TO.P,J1,10*%
%TO.N,EVT_D9_TPC*%
X10540000Y-17160000D03*
%TO.P,J1,11*%
%TO.N,EVT_D10_TPC*%
X8000000Y-19700000D03*
%TO.P,J1,12*%
%TO.N,EVT_D11_TPC*%
X10540000Y-19700000D03*
%TO.P,J1,13*%
%TO.N,EVT_D12_TPC*%
X8000000Y-22240000D03*
%TO.P,J1,14*%
%TO.N,EVT_D13_TPC*%
X10540000Y-22240000D03*
%TO.P,J1,15*%
%TO.N,EVT_D14_TPC*%
X8000000Y-24780000D03*
%TO.P,J1,16*%
%TO.N,EVT_D15_TPC*%
X10540000Y-24780000D03*
%TO.P,J1,17*%
%TO.N,EVT_STROBE_TPC*%
X8000000Y-27320000D03*
%TO.P,J1,18*%
%TO.N,DGND*%
X10540000Y-27320000D03*
%TO.P,J1,19*%
X8000000Y-29860000D03*
%TO.P,J1,20*%
%TO.N,unconnected-(J1-Pin_20-Pad20)*%
X10540000Y-29860000D03*
%TO.P,J1,21*%
%TO.N,unconnected-(J1-Pin_21-Pad21)*%
X8000000Y-32400000D03*
%TO.P,J1,22*%
%TO.N,unconnected-(J1-Pin_22-Pad22)*%
X10540000Y-32400000D03*
%TO.P,J1,23*%
%TO.N,unconnected-(J1-Pin_23-Pad23)*%
X8000000Y-34940000D03*
%TO.P,J1,24*%
%TO.N,unconnected-(J1-Pin_24-Pad24)*%
X10540000Y-34940000D03*
%TO.P,J1,25*%
%TO.N,unconnected-(J1-Pin_25-Pad25)*%
X8000000Y-37480000D03*
%TO.P,J1,26*%
%TO.N,unconnected-(J1-Pin_26-Pad26)*%
X10540000Y-37480000D03*
%TO.P,J1,27*%
%TO.N,unconnected-(J1-Pin_27-Pad27)*%
X8000000Y-40020000D03*
%TO.P,J1,28*%
%TO.N,unconnected-(J1-Pin_28-Pad28)*%
X10540000Y-40020000D03*
%TO.P,J1,29*%
%TO.N,unconnected-(J1-Pin_29-Pad29)*%
X8000000Y-42560000D03*
%TO.P,J1,30*%
%TO.N,unconnected-(J1-Pin_30-Pad30)*%
X10540000Y-42560000D03*
%TO.P,J1,31*%
%TO.N,unconnected-(J1-Pin_31-Pad31)*%
X8000000Y-45100000D03*
%TO.P,J1,32*%
%TO.N,unconnected-(J1-Pin_32-Pad32)*%
X10540000Y-45100000D03*
%TO.P,J1,33*%
%TO.N,unconnected-(J1-Pin_33-Pad33)*%
X8000000Y-47640000D03*
%TO.P,J1,34*%
%TO.N,unconnected-(J1-Pin_34-Pad34)*%
X10540000Y-47640000D03*
%TO.P,J1,35*%
%TO.N,unconnected-(J1-Pin_35-Pad35)*%
X8000000Y-50180000D03*
%TO.P,J1,36*%
%TO.N,unconnected-(J1-Pin_36-Pad36)*%
X10540000Y-50180000D03*
%TO.P,J1,37*%
%TO.N,unconnected-(J1-Pin_37-Pad37)*%
X8000000Y-52720000D03*
%TO.P,J1,38*%
%TO.N,unconnected-(J1-Pin_38-Pad38)*%
X10540000Y-52720000D03*
%TO.P,J1,39*%
%TO.N,unconnected-(J1-Pin_39-Pad39)*%
X8000000Y-55260000D03*
%TO.P,J1,40*%
%TO.N,unconnected-(J1-Pin_40-Pad40)*%
X10540000Y-55260000D03*
%TD*%
D12*
%TO.P,R20,1*%
%TO.N,EVT_STROBE_PI*%
X15175000Y-50000000D03*
%TO.P,R20,2*%
%TO.N,U5_LED1*%
X16825000Y-50000000D03*
%TD*%
D17*
%TO.P,U4,1*%
%TO.N,DGND*%
X57100000Y-19075000D03*
%TO.P,U4,2*%
%TO.N,BARCODE_PI*%
X57100000Y-19725000D03*
%TO.P,U4,3*%
%TO.N,DGND*%
X57100000Y-20375000D03*
%TO.P,U4,4*%
X57100000Y-21025000D03*
%TO.P,U4,5*%
X57100000Y-21675000D03*
%TO.P,U4,6*%
X57100000Y-22325000D03*
%TO.P,U4,7*%
X57100000Y-22975000D03*
%TO.P,U4,8*%
X57100000Y-23625000D03*
%TO.P,U4,9*%
X57100000Y-24275000D03*
%TO.P,U4,10*%
X57100000Y-24925000D03*
%TO.P,U4,11*%
%TO.N,unconnected-(U4-Y7-Pad11)*%
X62900000Y-24925000D03*
%TO.P,U4,12*%
%TO.N,unconnected-(U4-Y6-Pad12)*%
X62900000Y-24275000D03*
%TO.P,U4,13*%
%TO.N,unconnected-(U4-Y5-Pad13)*%
X62900000Y-23625000D03*
%TO.P,U4,14*%
%TO.N,unconnected-(U4-Y4-Pad14)*%
X62900000Y-22975000D03*
%TO.P,U4,15*%
%TO.N,unconnected-(U4-Y3-Pad15)*%
X62900000Y-22325000D03*
%TO.P,U4,16*%
%TO.N,unconnected-(U4-Y2-Pad16)*%
X62900000Y-21675000D03*
%TO.P,U4,17*%
%TO.N,unconnected-(U4-Y1-Pad17)*%
X62900000Y-21025000D03*
%TO.P,U4,18*%
%TO.N,BARCODE_OUT*%
X62900000Y-20375000D03*
%TO.P,U4,19*%
%TO.N,DGND*%
X62900000Y-19725000D03*
%TO.P,U4,20*%
%TO.N,+5V*%
X62900000Y-19075000D03*
%TD*%
D12*
%TO.P,R5,1*%
%TO.N,EVT_D2_TPC*%
X19175000Y-15000000D03*
%TO.P,R5,2*%
%TO.N,EVT_D2_CLAMP*%
X20825000Y-15000000D03*
%TD*%
%TO.P,R14,1*%
%TO.N,EVT_D11_TPC*%
X19175000Y-42000000D03*
%TO.P,R14,2*%
%TO.N,EVT_D11_CLAMP*%
X20825000Y-42000000D03*
%TD*%
D11*
%TO.P,D13,1*%
%TO.N,DGND*%
X33062500Y-24550000D03*
%TO.P,D13,2*%
%TO.N,+5V*%
X33062500Y-26450000D03*
%TO.P,D13,3*%
%TO.N,EVT_D12_CLAMP*%
X34937500Y-25500000D03*
%TD*%
%TO.P,D12,1*%
%TO.N,DGND*%
X33062500Y-19050000D03*
%TO.P,D12,2*%
%TO.N,+5V*%
X33062500Y-20950000D03*
%TO.P,D12,3*%
%TO.N,EVT_D11_CLAMP*%
X34937500Y-20000000D03*
%TD*%
%TO.P,D8,1*%
%TO.N,DGND*%
X27062500Y-46550000D03*
%TO.P,D8,2*%
%TO.N,+5V*%
X27062500Y-48450000D03*
%TO.P,D8,3*%
%TO.N,EVT_D7_CLAMP*%
X28937500Y-47500000D03*
%TD*%
D18*
%TO.P,J8,1*%
%TO.N,DGND*%
X78000000Y-11000000D03*
D19*
%TO.P,J8,2*%
%TO.N,+5V*%
X78000000Y-17000000D03*
%TO.P,J8,3*%
%TO.N,N/C*%
X82700000Y-14000000D03*
%TD*%
D13*
%TO.P,J3,1*%
%TO.N,BARCODE_OUT*%
X60000000Y-40000000D03*
D14*
%TO.P,J3,2*%
X60000000Y-42540000D03*
%TO.P,J3,3*%
X60000000Y-45080000D03*
%TO.P,J3,4*%
X60000000Y-47620000D03*
%TD*%
D11*
%TO.P,D10,1*%
%TO.N,DGND*%
X33062500Y-8050000D03*
%TO.P,D10,2*%
%TO.N,+5V*%
X33062500Y-9950000D03*
%TO.P,D10,3*%
%TO.N,EVT_D9_CLAMP*%
X34937500Y-9000000D03*
%TD*%
D10*
%TO.P,C2,1*%
%TO.N,+3V3*%
X53225000Y-26000000D03*
%TO.P,C2,2*%
%TO.N,DGND*%
X54775000Y-26000000D03*
%TD*%
D17*
%TO.P,U3,1*%
%TO.N,DGND*%
X43100000Y-37075000D03*
%TO.P,U3,2*%
%TO.N,EVT_STROBE_CLAMP*%
X43100000Y-37725000D03*
%TO.P,U3,3*%
%TO.N,DGND*%
X43100000Y-38375000D03*
%TO.P,U3,4*%
X43100000Y-39025000D03*
%TO.P,U3,5*%
X43100000Y-39675000D03*
%TO.P,U3,6*%
X43100000Y-40325000D03*
%TO.P,U3,7*%
X43100000Y-40975000D03*
%TO.P,U3,8*%
X43100000Y-41625000D03*
%TO.P,U3,9*%
X43100000Y-42275000D03*
%TO.P,U3,10*%
X43100000Y-42925000D03*
%TO.P,U3,11*%
%TO.N,unconnected-(U3-Y7-Pad11)*%
X48900000Y-42925000D03*
%TO.P,U3,12*%
%TO.N,unconnected-(U3-Y6-Pad12)*%
X48900000Y-42275000D03*
%TO.P,U3,13*%
%TO.N,unconnected-(U3-Y5-Pad13)*%
X48900000Y-41625000D03*
%TO.P,U3,14*%
%TO.N,unconnected-(U3-Y4-Pad14)*%
X48900000Y-40975000D03*
%TO.P,U3,15*%
%TO.N,unconnected-(U3-Y3-Pad15)*%
X48900000Y-40325000D03*
%TO.P,U3,16*%
%TO.N,unconnected-(U3-Y2-Pad16)*%
X48900000Y-39675000D03*
%TO.P,U3,17*%
%TO.N,unconnected-(U3-Y1-Pad17)*%
X48900000Y-39025000D03*
%TO.P,U3,18*%
%TO.N,EVT_STROBE_PI*%
X48900000Y-38375000D03*
%TO.P,U3,19*%
%TO.N,DGND*%
X48900000Y-37725000D03*
%TO.P,U3,20*%
%TO.N,+3V3*%
X48900000Y-37075000D03*
%TD*%
D11*
%TO.P,D7,1*%
%TO.N,DGND*%
X27062500Y-41050000D03*
%TO.P,D7,2*%
%TO.N,+5V*%
X27062500Y-42950000D03*
%TO.P,D7,3*%
%TO.N,EVT_D6_CLAMP*%
X28937500Y-42000000D03*
%TD*%
%TO.P,D14,1*%
%TO.N,DGND*%
X33062500Y-30050000D03*
%TO.P,D14,2*%
%TO.N,+5V*%
X33062500Y-31950000D03*
%TO.P,D14,3*%
%TO.N,EVT_D13_CLAMP*%
X34937500Y-31000000D03*
%TD*%
D10*
%TO.P,C7,1*%
%TO.N,+5V*%
X59225000Y-55000000D03*
%TO.P,C7,2*%
%TO.N,DGND*%
X60775000Y-55000000D03*
%TD*%
D20*
%TO.P,U5,1*%
%TO.N,U5_LED1*%
X20000000Y-62500000D03*
D21*
%TO.P,U5,2*%
%TO.N,DGND*%
X17460000Y-62500000D03*
%TO.P,U5,3*%
X14920000Y-62500000D03*
%TO.P,U5,4*%
%TO.N,U5_LED2*%
X12380000Y-62500000D03*
%TO.P,U5,5*%
%TO.N,ISO_GND*%
X12380000Y-70120000D03*
%TO.P,U5,6*%
%TO.N,BARCODE_ISO*%
X14920000Y-70120000D03*
%TO.P,U5,7*%
%TO.N,EVT_STROBE_ISO*%
X17460000Y-70120000D03*
%TO.P,U5,8*%
%TO.N,ISO_5V*%
X20000000Y-70120000D03*
%TD*%
D12*
%TO.P,R6,1*%
%TO.N,EVT_D3_TPC*%
X19175000Y-18000000D03*
%TO.P,R6,2*%
%TO.N,EVT_D3_CLAMP*%
X20825000Y-18000000D03*
%TD*%
D10*
%TO.P,C5,1*%
%TO.N,ISO_5V*%
X23025000Y-72500000D03*
%TO.P,C5,2*%
%TO.N,ISO_GND*%
X24575000Y-72500000D03*
%TD*%
D12*
%TO.P,R10,1*%
%TO.N,EVT_D7_TPC*%
X19175000Y-30000000D03*
%TO.P,R10,2*%
%TO.N,EVT_D7_CLAMP*%
X20825000Y-30000000D03*
%TD*%
%TO.P,R11,1*%
%TO.N,EVT_D8_TPC*%
X19175000Y-33000000D03*
%TO.P,R11,2*%
%TO.N,EVT_D8_CLAMP*%
X20825000Y-33000000D03*
%TD*%
%TO.P,R4,1*%
%TO.N,EVT_D1_BUF*%
X59175000Y-12000000D03*
%TO.P,R4,2*%
%TO.N,EVT_D1_PI*%
X60825000Y-12000000D03*
%TD*%
D11*
%TO.P,D1,1*%
%TO.N,DGND*%
X27062500Y-8050000D03*
%TO.P,D1,2*%
%TO.N,+5V*%
X27062500Y-9950000D03*
%TO.P,D1,3*%
%TO.N,EVT_D0_CLAMP*%
X28937500Y-9000000D03*
%TD*%
D13*
%TO.P,J7,1*%
%TO.N,ISO_5V*%
X96000000Y-75000000D03*
D14*
%TO.P,J7,2*%
%TO.N,ISO_GND*%
X96000000Y-77540000D03*
%TD*%
D10*
%TO.P,C3,1*%
%TO.N,+3V3*%
X53225000Y-40000000D03*
%TO.P,C3,2*%
%TO.N,DGND*%
X54775000Y-40000000D03*
%TD*%
D11*
%TO.P,D9,1*%
%TO.N,DGND*%
X27062500Y-52050000D03*
%TO.P,D9,2*%
%TO.N,+5V*%
X27062500Y-53950000D03*
%TO.P,D9,3*%
%TO.N,EVT_D8_CLAMP*%
X28937500Y-53000000D03*
%TD*%
%TO.P,D2,1*%
%TO.N,DGND*%
X27062500Y-13550000D03*
%TO.P,D2,2*%
%TO.N,+5V*%
X27062500Y-15450000D03*
%TO.P,D2,3*%
%TO.N,EVT_D1_CLAMP*%
X28937500Y-14500000D03*
%TD*%
D12*
%TO.P,R3,1*%
%TO.N,EVT_D1_TPC*%
X19175000Y-12000000D03*
%TO.P,R3,2*%
%TO.N,EVT_D1_CLAMP*%
X20825000Y-12000000D03*
%TD*%
D22*
%TO.P,U7,1*%
%TO.N,+5V*%
X68000000Y-61200000D03*
D23*
%TO.P,U7,2*%
%TO.N,DGND*%
X68000000Y-63740000D03*
%TO.P,U7,4*%
%TO.N,ISO_GND*%
X68000000Y-68820000D03*
%TO.P,U7,6*%
%TO.N,ISO_5V*%
X68000000Y-73900000D03*
%TD*%
D11*
%TO.P,D6,1*%
%TO.N,DGND*%
X27062500Y-35550000D03*
%TO.P,D6,2*%
%TO.N,+5V*%
X27062500Y-37450000D03*
%TO.P,D6,3*%
%TO.N,EVT_D5_CLAMP*%
X28937500Y-36500000D03*
%TD*%
D12*
%TO.P,R8,1*%
%TO.N,EVT_D5_TPC*%
X19175000Y-24000000D03*
%TO.P,R8,2*%
%TO.N,EVT_D5_CLAMP*%
X20825000Y-24000000D03*
%TD*%
D24*
%TO.P,J4,1*%
%TO.N,EVT_STROBE_ISO*%
X74000000Y-75000000D03*
D19*
%TO.P,J4,2*%
%TO.N,BARCODE_ISO*%
X79000000Y-75000000D03*
%TO.P,J4,3*%
%TO.N,OPTO_SPARE1_ISO*%
X84000000Y-75000000D03*
%TO.P,J4,4*%
%TO.N,OPTO_SPARE2_ISO*%
X89000000Y-75000000D03*
%TD*%
D13*
%TO.P,J5,1*%
%TO.N,OPTO_SPARE1_IN*%
X52000000Y-45000000D03*
D14*
%TO.P,J5,2*%
%TO.N,DGND*%
X52000000Y-47540000D03*
%TD*%
D25*
%TO.P,C12,1*%
%TO.N,ISO_5V*%
X67050000Y-82000000D03*
%TO.P,C12,2*%
%TO.N,ISO_GND*%
X68950000Y-82000000D03*
%TD*%
D12*
%TO.P,R17,1*%
%TO.N,EVT_D14_TPC*%
X19175000Y-51000000D03*
%TO.P,R17,2*%
%TO.N,EVT_D14_CLAMP*%
X20825000Y-51000000D03*
%TD*%
%TO.P,R24,1*%
%TO.N,OPTO_SPARE1_IN*%
X43175000Y-50000000D03*
%TO.P,R24,2*%
%TO.N,U6_LED1*%
X44825000Y-50000000D03*
%TD*%
%TO.P,R7,1*%
%TO.N,EVT_D4_TPC*%
X19175000Y-21000000D03*
%TO.P,R7,2*%
%TO.N,EVT_D4_CLAMP*%
X20825000Y-21000000D03*
%TD*%
D25*
%TO.P,C11,1*%
%TO.N,+3V3*%
X77050000Y-49000000D03*
%TO.P,C11,2*%
%TO.N,DGND*%
X78950000Y-49000000D03*
%TD*%
D11*
%TO.P,D11,1*%
%TO.N,DGND*%
X33062500Y-13550000D03*
%TO.P,D11,2*%
%TO.N,+5V*%
X33062500Y-15450000D03*
%TO.P,D11,3*%
%TO.N,EVT_D10_CLAMP*%
X34937500Y-14500000D03*
%TD*%
D12*
%TO.P,R18,1*%
%TO.N,EVT_D15_TPC*%
X19175000Y-54000000D03*
%TO.P,R18,2*%
%TO.N,EVT_D15_CLAMP*%
X20825000Y-54000000D03*
%TD*%
D20*
%TO.P,U6,1*%
%TO.N,U6_LED1*%
X44000000Y-62500000D03*
D21*
%TO.P,U6,2*%
%TO.N,DGND*%
X41460000Y-62500000D03*
%TO.P,U6,3*%
X38920000Y-62500000D03*
%TO.P,U6,4*%
%TO.N,U6_LED2*%
X36380000Y-62500000D03*
%TO.P,U6,5*%
%TO.N,ISO_GND*%
X36380000Y-70120000D03*
%TO.P,U6,6*%
%TO.N,OPTO_SPARE2_ISO*%
X38920000Y-70120000D03*
%TO.P,U6,7*%
%TO.N,OPTO_SPARE1_ISO*%
X41460000Y-70120000D03*
%TO.P,U6,8*%
%TO.N,ISO_5V*%
X44000000Y-70120000D03*
%TD*%
D12*
%TO.P,R13,1*%
%TO.N,EVT_D10_TPC*%
X19175000Y-39000000D03*
%TO.P,R13,2*%
%TO.N,EVT_D10_CLAMP*%
X20825000Y-39000000D03*
%TD*%
D25*
%TO.P,C10,1*%
%TO.N,+5V*%
X77050000Y-43000000D03*
%TO.P,C10,2*%
%TO.N,DGND*%
X78950000Y-43000000D03*
%TD*%
D11*
%TO.P,D5,1*%
%TO.N,DGND*%
X27062500Y-30050000D03*
%TO.P,D5,2*%
%TO.N,+5V*%
X27062500Y-31950000D03*
%TO.P,D5,3*%
%TO.N,EVT_D4_CLAMP*%
X28937500Y-31000000D03*
%TD*%
D17*
%TO.P,U2,1*%
%TO.N,DGND*%
X43100000Y-23075000D03*
%TO.P,U2,2*%
%TO.N,EVT_D8_CLAMP*%
X43100000Y-23725000D03*
%TO.P,U2,3*%
%TO.N,EVT_D9_CLAMP*%
X43100000Y-24375000D03*
%TO.P,U2,4*%
%TO.N,EVT_D10_CLAMP*%
X43100000Y-25025000D03*
%TO.P,U2,5*%
%TO.N,EVT_D11_CLAMP*%
X43100000Y-25675000D03*
%TO.P,U2,6*%
%TO.N,EVT_D12_CLAMP*%
X43100000Y-26325000D03*
%TO.P,U2,7*%
%TO.N,EVT_D13_CLAMP*%
X43100000Y-26975000D03*
%TO.P,U2,8*%
%TO.N,EVT_D14_CLAMP*%
X43100000Y-27625000D03*
%TO.P,U2,9*%
%TO.N,EVT_D15_CLAMP*%
X43100000Y-28275000D03*
%TO.P,U2,10*%
%TO.N,DGND*%
X43100000Y-28925000D03*
%TO.P,U2,11*%
%TO.N,EVT_D15_PI*%
X48900000Y-28925000D03*
%TO.P,U2,12*%
%TO.N,EVT_D14_PI*%
X48900000Y-28275000D03*
%TO.P,U2,13*%
%TO.N,EVT_D13_PI*%
X48900000Y-27625000D03*
%TO.P,U2,14*%
%TO.N,EVT_D12_PI*%
X48900000Y-26975000D03*
%TO.P,U2,15*%
%TO.N,EVT_D11_PI*%
X48900000Y-26325000D03*
%TO.P,U2,16*%
%TO.N,EVT_D10_PI*%
X48900000Y-25675000D03*
%TO.P,U2,17*%
%TO.N,EVT_D9_PI*%
X48900000Y-25025000D03*
%TO.P,U2,18*%
%TO.N,EVT_D8_PI*%
X48900000Y-24375000D03*
%TO.P,U2,19*%
%TO.N,DGND*%
X48900000Y-23725000D03*
%TO.P,U2,20*%
%TO.N,+3V3*%
X48900000Y-23075000D03*
%TD*%
D12*
%TO.P,R26,1*%
%TO.N,OPTO_SPARE2_IN*%
X43175000Y-54000000D03*
%TO.P,R26,2*%
%TO.N,U6_LED2*%
X44825000Y-54000000D03*
%TD*%
%TO.P,R21,1*%
%TO.N,ISO_5V*%
X19175000Y-73000000D03*
%TO.P,R21,2*%
%TO.N,EVT_STROBE_ISO*%
X20825000Y-73000000D03*
%TD*%
D11*
%TO.P,D3,1*%
%TO.N,DGND*%
X27062500Y-19050000D03*
%TO.P,D3,2*%
%TO.N,+5V*%
X27062500Y-20950000D03*
%TO.P,D3,3*%
%TO.N,EVT_D2_CLAMP*%
X28937500Y-20000000D03*
%TD*%
D12*
%TO.P,R2,1*%
%TO.N,EVT_D0_BUF*%
X59175000Y-9000000D03*
%TO.P,R2,2*%
%TO.N,EVT_D0_PI*%
X60825000Y-9000000D03*
%TD*%
%TO.P,R19,1*%
%TO.N,EVT_STROBE_TPC*%
X19175000Y-57000000D03*
%TO.P,R19,2*%
%TO.N,EVT_STROBE_CLAMP*%
X20825000Y-57000000D03*
%TD*%
%TO.P,R12,1*%
%TO.N,EVT_D9_TPC*%
X19175000Y-36000000D03*
%TO.P,R12,2*%
%TO.N,EVT_D9_CLAMP*%
X20825000Y-36000000D03*
%TD*%
%TO.P,R25,1*%
%TO.N,ISO_5V*%
X43175000Y-73000000D03*
%TO.P,R25,2*%
%TO.N,OPTO_SPARE1_ISO*%
X44825000Y-73000000D03*
%TD*%
%TO.P,R22,1*%
%TO.N,BARCODE_OUT*%
X15175000Y-54000000D03*
%TO.P,R22,2*%
%TO.N,U5_LED2*%
X16825000Y-54000000D03*
%TD*%
D10*
%TO.P,C9,1*%
%TO.N,+3V3*%
X69225000Y-35000000D03*
%TO.P,C9,2*%
%TO.N,DGND*%
X70775000Y-35000000D03*
%TD*%
D12*
%TO.P,R16,1*%
%TO.N,EVT_D13_TPC*%
X19175000Y-48000000D03*
%TO.P,R16,2*%
%TO.N,EVT_D13_CLAMP*%
X20825000Y-48000000D03*
%TD*%
D11*
%TO.P,D16,1*%
%TO.N,DGND*%
X33062500Y-41050000D03*
%TO.P,D16,2*%
%TO.N,+5V*%
X33062500Y-42950000D03*
%TO.P,D16,3*%
%TO.N,EVT_D15_CLAMP*%
X34937500Y-42000000D03*
%TD*%
D10*
%TO.P,C8,1*%
%TO.N,ISO_5V*%
X59225000Y-82000000D03*
%TO.P,C8,2*%
%TO.N,ISO_GND*%
X60775000Y-82000000D03*
%TD*%
M02*
