%TF.GenerationSoftware,KiCad,Pcbnew,10.0.5*%
%TF.CreationDate,2026-08-13T20:20:07-04:00*%
%TF.ProjectId,mule,6d756c65-2e6b-4696-9361-645f70636258,rev?*%
%TF.SameCoordinates,Original*%
%TF.FileFunction,Legend,Top*%
%TF.FilePolarity,Positive*%
%FSLAX46Y46*%
G04 Gerber Fmt 4.6, Leading zero omitted, Abs format (unit mm)*
G04 Created by KiCad (PCBNEW 10.0.5) date 2026-08-13 20:20:07*
%MOMM*%
%LPD*%
G01*
G04 APERTURE LIST*
%ADD10C,0.195000*%
%ADD11C,0.130000*%
%ADD12C,0.120000*%
G04 APERTURE END LIST*
D10*
X74899999Y-64291264D02*
X74899999Y-62991264D01*
X75457143Y-64229360D02*
X75642857Y-64291264D01*
X75642857Y-64291264D02*
X75952381Y-64291264D01*
X75952381Y-64291264D02*
X76076190Y-64229360D01*
X76076190Y-64229360D02*
X76138095Y-64167455D01*
X76138095Y-64167455D02*
X76200000Y-64043645D01*
X76200000Y-64043645D02*
X76200000Y-63919836D01*
X76200000Y-63919836D02*
X76138095Y-63796026D01*
X76138095Y-63796026D02*
X76076190Y-63734121D01*
X76076190Y-63734121D02*
X75952381Y-63672217D01*
X75952381Y-63672217D02*
X75704762Y-63610312D01*
X75704762Y-63610312D02*
X75580952Y-63548407D01*
X75580952Y-63548407D02*
X75519047Y-63486502D01*
X75519047Y-63486502D02*
X75457143Y-63362693D01*
X75457143Y-63362693D02*
X75457143Y-63238883D01*
X75457143Y-63238883D02*
X75519047Y-63115074D01*
X75519047Y-63115074D02*
X75580952Y-63053169D01*
X75580952Y-63053169D02*
X75704762Y-62991264D01*
X75704762Y-62991264D02*
X76014285Y-62991264D01*
X76014285Y-62991264D02*
X76200000Y-63053169D01*
X77004761Y-62991264D02*
X77252380Y-62991264D01*
X77252380Y-62991264D02*
X77376190Y-63053169D01*
X77376190Y-63053169D02*
X77499999Y-63176979D01*
X77499999Y-63176979D02*
X77561904Y-63424598D01*
X77561904Y-63424598D02*
X77561904Y-63857931D01*
X77561904Y-63857931D02*
X77499999Y-64105550D01*
X77499999Y-64105550D02*
X77376190Y-64229360D01*
X77376190Y-64229360D02*
X77252380Y-64291264D01*
X77252380Y-64291264D02*
X77004761Y-64291264D01*
X77004761Y-64291264D02*
X76880952Y-64229360D01*
X76880952Y-64229360D02*
X76757142Y-64105550D01*
X76757142Y-64105550D02*
X76695238Y-63857931D01*
X76695238Y-63857931D02*
X76695238Y-63424598D01*
X76695238Y-63424598D02*
X76757142Y-63176979D01*
X76757142Y-63176979D02*
X76880952Y-63053169D01*
X76880952Y-63053169D02*
X77004761Y-62991264D01*
X78738095Y-64291264D02*
X78119047Y-64291264D01*
X78119047Y-64291264D02*
X78119047Y-62991264D01*
X79109524Y-63919836D02*
X79728571Y-63919836D01*
X78985714Y-64291264D02*
X79419047Y-62991264D01*
X79419047Y-62991264D02*
X79852381Y-64291264D01*
X80100000Y-62991264D02*
X80842857Y-62991264D01*
X80471429Y-64291264D02*
X80471429Y-62991264D01*
X81276190Y-64291264D02*
X81276190Y-62991264D01*
X82142857Y-62991264D02*
X82390476Y-62991264D01*
X82390476Y-62991264D02*
X82514286Y-63053169D01*
X82514286Y-63053169D02*
X82638095Y-63176979D01*
X82638095Y-63176979D02*
X82700000Y-63424598D01*
X82700000Y-63424598D02*
X82700000Y-63857931D01*
X82700000Y-63857931D02*
X82638095Y-64105550D01*
X82638095Y-64105550D02*
X82514286Y-64229360D01*
X82514286Y-64229360D02*
X82390476Y-64291264D01*
X82390476Y-64291264D02*
X82142857Y-64291264D01*
X82142857Y-64291264D02*
X82019048Y-64229360D01*
X82019048Y-64229360D02*
X81895238Y-64105550D01*
X81895238Y-64105550D02*
X81833334Y-63857931D01*
X81833334Y-63857931D02*
X81833334Y-63424598D01*
X81833334Y-63424598D02*
X81895238Y-63176979D01*
X81895238Y-63176979D02*
X82019048Y-63053169D01*
X82019048Y-63053169D02*
X82142857Y-62991264D01*
X83257143Y-64291264D02*
X83257143Y-62991264D01*
X83257143Y-62991264D02*
X84000000Y-64291264D01*
X84000000Y-64291264D02*
X84000000Y-62991264D01*
X86042858Y-63610312D02*
X86228572Y-63672217D01*
X86228572Y-63672217D02*
X86290477Y-63734121D01*
X86290477Y-63734121D02*
X86352381Y-63857931D01*
X86352381Y-63857931D02*
X86352381Y-64043645D01*
X86352381Y-64043645D02*
X86290477Y-64167455D01*
X86290477Y-64167455D02*
X86228572Y-64229360D01*
X86228572Y-64229360D02*
X86104762Y-64291264D01*
X86104762Y-64291264D02*
X85609524Y-64291264D01*
X85609524Y-64291264D02*
X85609524Y-62991264D01*
X85609524Y-62991264D02*
X86042858Y-62991264D01*
X86042858Y-62991264D02*
X86166667Y-63053169D01*
X86166667Y-63053169D02*
X86228572Y-63115074D01*
X86228572Y-63115074D02*
X86290477Y-63238883D01*
X86290477Y-63238883D02*
X86290477Y-63362693D01*
X86290477Y-63362693D02*
X86228572Y-63486502D01*
X86228572Y-63486502D02*
X86166667Y-63548407D01*
X86166667Y-63548407D02*
X86042858Y-63610312D01*
X86042858Y-63610312D02*
X85609524Y-63610312D01*
X86847620Y-63919836D02*
X87466667Y-63919836D01*
X86723810Y-64291264D02*
X87157143Y-62991264D01*
X87157143Y-62991264D02*
X87590477Y-64291264D01*
X88766667Y-64291264D02*
X88333334Y-63672217D01*
X88023810Y-64291264D02*
X88023810Y-62991264D01*
X88023810Y-62991264D02*
X88519048Y-62991264D01*
X88519048Y-62991264D02*
X88642858Y-63053169D01*
X88642858Y-63053169D02*
X88704763Y-63115074D01*
X88704763Y-63115074D02*
X88766667Y-63238883D01*
X88766667Y-63238883D02*
X88766667Y-63424598D01*
X88766667Y-63424598D02*
X88704763Y-63548407D01*
X88704763Y-63548407D02*
X88642858Y-63610312D01*
X88642858Y-63610312D02*
X88519048Y-63672217D01*
X88519048Y-63672217D02*
X88023810Y-63672217D01*
X90066667Y-64291264D02*
X89633334Y-63672217D01*
X89323810Y-64291264D02*
X89323810Y-62991264D01*
X89323810Y-62991264D02*
X89819048Y-62991264D01*
X89819048Y-62991264D02*
X89942858Y-63053169D01*
X89942858Y-63053169D02*
X90004763Y-63115074D01*
X90004763Y-63115074D02*
X90066667Y-63238883D01*
X90066667Y-63238883D02*
X90066667Y-63424598D01*
X90066667Y-63424598D02*
X90004763Y-63548407D01*
X90004763Y-63548407D02*
X89942858Y-63610312D01*
X89942858Y-63610312D02*
X89819048Y-63672217D01*
X89819048Y-63672217D02*
X89323810Y-63672217D01*
X90623810Y-64291264D02*
X90623810Y-62991264D01*
X91242858Y-63610312D02*
X91676192Y-63610312D01*
X91861906Y-64291264D02*
X91242858Y-64291264D01*
X91242858Y-64291264D02*
X91242858Y-62991264D01*
X91242858Y-62991264D02*
X91861906Y-62991264D01*
X93161905Y-64291264D02*
X92728572Y-63672217D01*
X92419048Y-64291264D02*
X92419048Y-62991264D01*
X92419048Y-62991264D02*
X92914286Y-62991264D01*
X92914286Y-62991264D02*
X93038096Y-63053169D01*
X93038096Y-63053169D02*
X93100001Y-63115074D01*
X93100001Y-63115074D02*
X93161905Y-63238883D01*
X93161905Y-63238883D02*
X93161905Y-63424598D01*
X93161905Y-63424598D02*
X93100001Y-63548407D01*
X93100001Y-63548407D02*
X93038096Y-63610312D01*
X93038096Y-63610312D02*
X92914286Y-63672217D01*
X92914286Y-63672217D02*
X92419048Y-63672217D01*
D11*
X59866667Y-28757144D02*
X59828571Y-28795240D01*
X59828571Y-28795240D02*
X59714286Y-28833335D01*
X59714286Y-28833335D02*
X59638095Y-28833335D01*
X59638095Y-28833335D02*
X59523809Y-28795240D01*
X59523809Y-28795240D02*
X59447619Y-28719049D01*
X59447619Y-28719049D02*
X59409524Y-28642859D01*
X59409524Y-28642859D02*
X59371428Y-28490478D01*
X59371428Y-28490478D02*
X59371428Y-28376192D01*
X59371428Y-28376192D02*
X59409524Y-28223811D01*
X59409524Y-28223811D02*
X59447619Y-28147620D01*
X59447619Y-28147620D02*
X59523809Y-28071430D01*
X59523809Y-28071430D02*
X59638095Y-28033335D01*
X59638095Y-28033335D02*
X59714286Y-28033335D01*
X59714286Y-28033335D02*
X59828571Y-28071430D01*
X59828571Y-28071430D02*
X59866667Y-28109525D01*
X60552381Y-28300001D02*
X60552381Y-28833335D01*
X60361905Y-27995240D02*
X60171428Y-28566668D01*
X60171428Y-28566668D02*
X60666667Y-28566668D01*
X33028571Y-34363335D02*
X33028571Y-33563335D01*
X33028571Y-33563335D02*
X33219047Y-33563335D01*
X33219047Y-33563335D02*
X33333333Y-33601430D01*
X33333333Y-33601430D02*
X33409523Y-33677620D01*
X33409523Y-33677620D02*
X33447618Y-33753811D01*
X33447618Y-33753811D02*
X33485714Y-33906192D01*
X33485714Y-33906192D02*
X33485714Y-34020478D01*
X33485714Y-34020478D02*
X33447618Y-34172859D01*
X33447618Y-34172859D02*
X33409523Y-34249049D01*
X33409523Y-34249049D02*
X33333333Y-34325240D01*
X33333333Y-34325240D02*
X33219047Y-34363335D01*
X33219047Y-34363335D02*
X33028571Y-34363335D01*
X34247618Y-34363335D02*
X33790475Y-34363335D01*
X34019047Y-34363335D02*
X34019047Y-33563335D01*
X34019047Y-33563335D02*
X33942856Y-33677620D01*
X33942856Y-33677620D02*
X33866666Y-33753811D01*
X33866666Y-33753811D02*
X33790475Y-33791906D01*
X34971428Y-33563335D02*
X34590476Y-33563335D01*
X34590476Y-33563335D02*
X34552380Y-33944287D01*
X34552380Y-33944287D02*
X34590476Y-33906192D01*
X34590476Y-33906192D02*
X34666666Y-33868097D01*
X34666666Y-33868097D02*
X34857142Y-33868097D01*
X34857142Y-33868097D02*
X34933333Y-33906192D01*
X34933333Y-33906192D02*
X34971428Y-33944287D01*
X34971428Y-33944287D02*
X35009523Y-34020478D01*
X35009523Y-34020478D02*
X35009523Y-34210954D01*
X35009523Y-34210954D02*
X34971428Y-34287144D01*
X34971428Y-34287144D02*
X34933333Y-34325240D01*
X34933333Y-34325240D02*
X34857142Y-34363335D01*
X34857142Y-34363335D02*
X34666666Y-34363335D01*
X34666666Y-34363335D02*
X34590476Y-34325240D01*
X34590476Y-34325240D02*
X34552380Y-34287144D01*
X43485714Y-75833335D02*
X43219047Y-75452382D01*
X43028571Y-75833335D02*
X43028571Y-75033335D01*
X43028571Y-75033335D02*
X43333333Y-75033335D01*
X43333333Y-75033335D02*
X43409523Y-75071430D01*
X43409523Y-75071430D02*
X43447618Y-75109525D01*
X43447618Y-75109525D02*
X43485714Y-75185716D01*
X43485714Y-75185716D02*
X43485714Y-75300001D01*
X43485714Y-75300001D02*
X43447618Y-75376192D01*
X43447618Y-75376192D02*
X43409523Y-75414287D01*
X43409523Y-75414287D02*
X43333333Y-75452382D01*
X43333333Y-75452382D02*
X43028571Y-75452382D01*
X43790475Y-75109525D02*
X43828571Y-75071430D01*
X43828571Y-75071430D02*
X43904761Y-75033335D01*
X43904761Y-75033335D02*
X44095237Y-75033335D01*
X44095237Y-75033335D02*
X44171428Y-75071430D01*
X44171428Y-75071430D02*
X44209523Y-75109525D01*
X44209523Y-75109525D02*
X44247618Y-75185716D01*
X44247618Y-75185716D02*
X44247618Y-75261906D01*
X44247618Y-75261906D02*
X44209523Y-75376192D01*
X44209523Y-75376192D02*
X43752380Y-75833335D01*
X43752380Y-75833335D02*
X44247618Y-75833335D01*
X44514285Y-75033335D02*
X45047619Y-75033335D01*
X45047619Y-75033335D02*
X44704761Y-75833335D01*
X19866667Y-25833335D02*
X19600000Y-25452382D01*
X19409524Y-25833335D02*
X19409524Y-25033335D01*
X19409524Y-25033335D02*
X19714286Y-25033335D01*
X19714286Y-25033335D02*
X19790476Y-25071430D01*
X19790476Y-25071430D02*
X19828571Y-25109525D01*
X19828571Y-25109525D02*
X19866667Y-25185716D01*
X19866667Y-25185716D02*
X19866667Y-25300001D01*
X19866667Y-25300001D02*
X19828571Y-25376192D01*
X19828571Y-25376192D02*
X19790476Y-25414287D01*
X19790476Y-25414287D02*
X19714286Y-25452382D01*
X19714286Y-25452382D02*
X19409524Y-25452382D01*
X20247619Y-25833335D02*
X20400000Y-25833335D01*
X20400000Y-25833335D02*
X20476190Y-25795240D01*
X20476190Y-25795240D02*
X20514286Y-25757144D01*
X20514286Y-25757144D02*
X20590476Y-25642859D01*
X20590476Y-25642859D02*
X20628571Y-25490478D01*
X20628571Y-25490478D02*
X20628571Y-25185716D01*
X20628571Y-25185716D02*
X20590476Y-25109525D01*
X20590476Y-25109525D02*
X20552381Y-25071430D01*
X20552381Y-25071430D02*
X20476190Y-25033335D01*
X20476190Y-25033335D02*
X20323809Y-25033335D01*
X20323809Y-25033335D02*
X20247619Y-25071430D01*
X20247619Y-25071430D02*
X20209524Y-25109525D01*
X20209524Y-25109525D02*
X20171428Y-25185716D01*
X20171428Y-25185716D02*
X20171428Y-25376192D01*
X20171428Y-25376192D02*
X20209524Y-25452382D01*
X20209524Y-25452382D02*
X20247619Y-25490478D01*
X20247619Y-25490478D02*
X20323809Y-25528573D01*
X20323809Y-25528573D02*
X20476190Y-25528573D01*
X20476190Y-25528573D02*
X20552381Y-25490478D01*
X20552381Y-25490478D02*
X20590476Y-25452382D01*
X20590476Y-25452382D02*
X20628571Y-25376192D01*
X51733333Y-49993335D02*
X51733333Y-50564763D01*
X51733333Y-50564763D02*
X51695238Y-50679049D01*
X51695238Y-50679049D02*
X51619047Y-50755240D01*
X51619047Y-50755240D02*
X51504762Y-50793335D01*
X51504762Y-50793335D02*
X51428571Y-50793335D01*
X52457143Y-49993335D02*
X52304762Y-49993335D01*
X52304762Y-49993335D02*
X52228571Y-50031430D01*
X52228571Y-50031430D02*
X52190476Y-50069525D01*
X52190476Y-50069525D02*
X52114286Y-50183811D01*
X52114286Y-50183811D02*
X52076190Y-50336192D01*
X52076190Y-50336192D02*
X52076190Y-50640954D01*
X52076190Y-50640954D02*
X52114286Y-50717144D01*
X52114286Y-50717144D02*
X52152381Y-50755240D01*
X52152381Y-50755240D02*
X52228571Y-50793335D01*
X52228571Y-50793335D02*
X52380952Y-50793335D01*
X52380952Y-50793335D02*
X52457143Y-50755240D01*
X52457143Y-50755240D02*
X52495238Y-50717144D01*
X52495238Y-50717144D02*
X52533333Y-50640954D01*
X52533333Y-50640954D02*
X52533333Y-50450478D01*
X52533333Y-50450478D02*
X52495238Y-50374287D01*
X52495238Y-50374287D02*
X52457143Y-50336192D01*
X52457143Y-50336192D02*
X52380952Y-50298097D01*
X52380952Y-50298097D02*
X52228571Y-50298097D01*
X52228571Y-50298097D02*
X52152381Y-50336192D01*
X52152381Y-50336192D02*
X52114286Y-50374287D01*
X52114286Y-50374287D02*
X52076190Y-50450478D01*
X19485714Y-75833335D02*
X19219047Y-75452382D01*
X19028571Y-75833335D02*
X19028571Y-75033335D01*
X19028571Y-75033335D02*
X19333333Y-75033335D01*
X19333333Y-75033335D02*
X19409523Y-75071430D01*
X19409523Y-75071430D02*
X19447618Y-75109525D01*
X19447618Y-75109525D02*
X19485714Y-75185716D01*
X19485714Y-75185716D02*
X19485714Y-75300001D01*
X19485714Y-75300001D02*
X19447618Y-75376192D01*
X19447618Y-75376192D02*
X19409523Y-75414287D01*
X19409523Y-75414287D02*
X19333333Y-75452382D01*
X19333333Y-75452382D02*
X19028571Y-75452382D01*
X19790475Y-75109525D02*
X19828571Y-75071430D01*
X19828571Y-75071430D02*
X19904761Y-75033335D01*
X19904761Y-75033335D02*
X20095237Y-75033335D01*
X20095237Y-75033335D02*
X20171428Y-75071430D01*
X20171428Y-75071430D02*
X20209523Y-75109525D01*
X20209523Y-75109525D02*
X20247618Y-75185716D01*
X20247618Y-75185716D02*
X20247618Y-75261906D01*
X20247618Y-75261906D02*
X20209523Y-75376192D01*
X20209523Y-75376192D02*
X19752380Y-75833335D01*
X19752380Y-75833335D02*
X20247618Y-75833335D01*
X20514285Y-75033335D02*
X21009523Y-75033335D01*
X21009523Y-75033335D02*
X20742857Y-75338097D01*
X20742857Y-75338097D02*
X20857142Y-75338097D01*
X20857142Y-75338097D02*
X20933333Y-75376192D01*
X20933333Y-75376192D02*
X20971428Y-75414287D01*
X20971428Y-75414287D02*
X21009523Y-75490478D01*
X21009523Y-75490478D02*
X21009523Y-75680954D01*
X21009523Y-75680954D02*
X20971428Y-75757144D01*
X20971428Y-75757144D02*
X20933333Y-75795240D01*
X20933333Y-75795240D02*
X20857142Y-75833335D01*
X20857142Y-75833335D02*
X20628571Y-75833335D01*
X20628571Y-75833335D02*
X20552380Y-75795240D01*
X20552380Y-75795240D02*
X20514285Y-75757144D01*
X33028571Y-45363335D02*
X33028571Y-44563335D01*
X33028571Y-44563335D02*
X33219047Y-44563335D01*
X33219047Y-44563335D02*
X33333333Y-44601430D01*
X33333333Y-44601430D02*
X33409523Y-44677620D01*
X33409523Y-44677620D02*
X33447618Y-44753811D01*
X33447618Y-44753811D02*
X33485714Y-44906192D01*
X33485714Y-44906192D02*
X33485714Y-45020478D01*
X33485714Y-45020478D02*
X33447618Y-45172859D01*
X33447618Y-45172859D02*
X33409523Y-45249049D01*
X33409523Y-45249049D02*
X33333333Y-45325240D01*
X33333333Y-45325240D02*
X33219047Y-45363335D01*
X33219047Y-45363335D02*
X33028571Y-45363335D01*
X34247618Y-45363335D02*
X33790475Y-45363335D01*
X34019047Y-45363335D02*
X34019047Y-44563335D01*
X34019047Y-44563335D02*
X33942856Y-44677620D01*
X33942856Y-44677620D02*
X33866666Y-44753811D01*
X33866666Y-44753811D02*
X33790475Y-44791906D01*
X34514285Y-44563335D02*
X35047619Y-44563335D01*
X35047619Y-44563335D02*
X34704761Y-45363335D01*
X91008333Y-3983335D02*
X91008333Y-4554763D01*
X91008333Y-4554763D02*
X90970238Y-4669049D01*
X90970238Y-4669049D02*
X90894047Y-4745240D01*
X90894047Y-4745240D02*
X90779762Y-4783335D01*
X90779762Y-4783335D02*
X90703571Y-4783335D01*
X91351190Y-4059525D02*
X91389286Y-4021430D01*
X91389286Y-4021430D02*
X91465476Y-3983335D01*
X91465476Y-3983335D02*
X91655952Y-3983335D01*
X91655952Y-3983335D02*
X91732143Y-4021430D01*
X91732143Y-4021430D02*
X91770238Y-4059525D01*
X91770238Y-4059525D02*
X91808333Y-4135716D01*
X91808333Y-4135716D02*
X91808333Y-4211906D01*
X91808333Y-4211906D02*
X91770238Y-4326192D01*
X91770238Y-4326192D02*
X91313095Y-4783335D01*
X91313095Y-4783335D02*
X91808333Y-4783335D01*
X27409524Y-23363335D02*
X27409524Y-22563335D01*
X27409524Y-22563335D02*
X27600000Y-22563335D01*
X27600000Y-22563335D02*
X27714286Y-22601430D01*
X27714286Y-22601430D02*
X27790476Y-22677620D01*
X27790476Y-22677620D02*
X27828571Y-22753811D01*
X27828571Y-22753811D02*
X27866667Y-22906192D01*
X27866667Y-22906192D02*
X27866667Y-23020478D01*
X27866667Y-23020478D02*
X27828571Y-23172859D01*
X27828571Y-23172859D02*
X27790476Y-23249049D01*
X27790476Y-23249049D02*
X27714286Y-23325240D01*
X27714286Y-23325240D02*
X27600000Y-23363335D01*
X27600000Y-23363335D02*
X27409524Y-23363335D01*
X28552381Y-22830001D02*
X28552381Y-23363335D01*
X28361905Y-22525240D02*
X28171428Y-23096668D01*
X28171428Y-23096668D02*
X28666667Y-23096668D01*
X77390476Y-28163335D02*
X77390476Y-28810954D01*
X77390476Y-28810954D02*
X77428571Y-28887144D01*
X77428571Y-28887144D02*
X77466666Y-28925240D01*
X77466666Y-28925240D02*
X77542857Y-28963335D01*
X77542857Y-28963335D02*
X77695238Y-28963335D01*
X77695238Y-28963335D02*
X77771428Y-28925240D01*
X77771428Y-28925240D02*
X77809523Y-28887144D01*
X77809523Y-28887144D02*
X77847619Y-28810954D01*
X77847619Y-28810954D02*
X77847619Y-28163335D01*
X78342856Y-28506192D02*
X78266666Y-28468097D01*
X78266666Y-28468097D02*
X78228571Y-28430001D01*
X78228571Y-28430001D02*
X78190475Y-28353811D01*
X78190475Y-28353811D02*
X78190475Y-28315716D01*
X78190475Y-28315716D02*
X78228571Y-28239525D01*
X78228571Y-28239525D02*
X78266666Y-28201430D01*
X78266666Y-28201430D02*
X78342856Y-28163335D01*
X78342856Y-28163335D02*
X78495237Y-28163335D01*
X78495237Y-28163335D02*
X78571428Y-28201430D01*
X78571428Y-28201430D02*
X78609523Y-28239525D01*
X78609523Y-28239525D02*
X78647618Y-28315716D01*
X78647618Y-28315716D02*
X78647618Y-28353811D01*
X78647618Y-28353811D02*
X78609523Y-28430001D01*
X78609523Y-28430001D02*
X78571428Y-28468097D01*
X78571428Y-28468097D02*
X78495237Y-28506192D01*
X78495237Y-28506192D02*
X78342856Y-28506192D01*
X78342856Y-28506192D02*
X78266666Y-28544287D01*
X78266666Y-28544287D02*
X78228571Y-28582382D01*
X78228571Y-28582382D02*
X78190475Y-28658573D01*
X78190475Y-28658573D02*
X78190475Y-28810954D01*
X78190475Y-28810954D02*
X78228571Y-28887144D01*
X78228571Y-28887144D02*
X78266666Y-28925240D01*
X78266666Y-28925240D02*
X78342856Y-28963335D01*
X78342856Y-28963335D02*
X78495237Y-28963335D01*
X78495237Y-28963335D02*
X78571428Y-28925240D01*
X78571428Y-28925240D02*
X78609523Y-28887144D01*
X78609523Y-28887144D02*
X78647618Y-28810954D01*
X78647618Y-28810954D02*
X78647618Y-28658573D01*
X78647618Y-28658573D02*
X78609523Y-28582382D01*
X78609523Y-28582382D02*
X78571428Y-28544287D01*
X78571428Y-28544287D02*
X78495237Y-28506192D01*
X47666667Y-71257144D02*
X47628571Y-71295240D01*
X47628571Y-71295240D02*
X47514286Y-71333335D01*
X47514286Y-71333335D02*
X47438095Y-71333335D01*
X47438095Y-71333335D02*
X47323809Y-71295240D01*
X47323809Y-71295240D02*
X47247619Y-71219049D01*
X47247619Y-71219049D02*
X47209524Y-71142859D01*
X47209524Y-71142859D02*
X47171428Y-70990478D01*
X47171428Y-70990478D02*
X47171428Y-70876192D01*
X47171428Y-70876192D02*
X47209524Y-70723811D01*
X47209524Y-70723811D02*
X47247619Y-70647620D01*
X47247619Y-70647620D02*
X47323809Y-70571430D01*
X47323809Y-70571430D02*
X47438095Y-70533335D01*
X47438095Y-70533335D02*
X47514286Y-70533335D01*
X47514286Y-70533335D02*
X47628571Y-70571430D01*
X47628571Y-70571430D02*
X47666667Y-70609525D01*
X48352381Y-70533335D02*
X48200000Y-70533335D01*
X48200000Y-70533335D02*
X48123809Y-70571430D01*
X48123809Y-70571430D02*
X48085714Y-70609525D01*
X48085714Y-70609525D02*
X48009524Y-70723811D01*
X48009524Y-70723811D02*
X47971428Y-70876192D01*
X47971428Y-70876192D02*
X47971428Y-71180954D01*
X47971428Y-71180954D02*
X48009524Y-71257144D01*
X48009524Y-71257144D02*
X48047619Y-71295240D01*
X48047619Y-71295240D02*
X48123809Y-71333335D01*
X48123809Y-71333335D02*
X48276190Y-71333335D01*
X48276190Y-71333335D02*
X48352381Y-71295240D01*
X48352381Y-71295240D02*
X48390476Y-71257144D01*
X48390476Y-71257144D02*
X48428571Y-71180954D01*
X48428571Y-71180954D02*
X48428571Y-70990478D01*
X48428571Y-70990478D02*
X48390476Y-70914287D01*
X48390476Y-70914287D02*
X48352381Y-70876192D01*
X48352381Y-70876192D02*
X48276190Y-70838097D01*
X48276190Y-70838097D02*
X48123809Y-70838097D01*
X48123809Y-70838097D02*
X48047619Y-70876192D01*
X48047619Y-70876192D02*
X48009524Y-70914287D01*
X48009524Y-70914287D02*
X47971428Y-70990478D01*
X45390476Y-7263335D02*
X45390476Y-7910954D01*
X45390476Y-7910954D02*
X45428571Y-7987144D01*
X45428571Y-7987144D02*
X45466666Y-8025240D01*
X45466666Y-8025240D02*
X45542857Y-8063335D01*
X45542857Y-8063335D02*
X45695238Y-8063335D01*
X45695238Y-8063335D02*
X45771428Y-8025240D01*
X45771428Y-8025240D02*
X45809523Y-7987144D01*
X45809523Y-7987144D02*
X45847619Y-7910954D01*
X45847619Y-7910954D02*
X45847619Y-7263335D01*
X46647618Y-8063335D02*
X46190475Y-8063335D01*
X46419047Y-8063335D02*
X46419047Y-7263335D01*
X46419047Y-7263335D02*
X46342856Y-7377620D01*
X46342856Y-7377620D02*
X46266666Y-7453811D01*
X46266666Y-7453811D02*
X46190475Y-7491906D01*
X53866667Y-10757144D02*
X53828571Y-10795240D01*
X53828571Y-10795240D02*
X53714286Y-10833335D01*
X53714286Y-10833335D02*
X53638095Y-10833335D01*
X53638095Y-10833335D02*
X53523809Y-10795240D01*
X53523809Y-10795240D02*
X53447619Y-10719049D01*
X53447619Y-10719049D02*
X53409524Y-10642859D01*
X53409524Y-10642859D02*
X53371428Y-10490478D01*
X53371428Y-10490478D02*
X53371428Y-10376192D01*
X53371428Y-10376192D02*
X53409524Y-10223811D01*
X53409524Y-10223811D02*
X53447619Y-10147620D01*
X53447619Y-10147620D02*
X53523809Y-10071430D01*
X53523809Y-10071430D02*
X53638095Y-10033335D01*
X53638095Y-10033335D02*
X53714286Y-10033335D01*
X53714286Y-10033335D02*
X53828571Y-10071430D01*
X53828571Y-10071430D02*
X53866667Y-10109525D01*
X54628571Y-10833335D02*
X54171428Y-10833335D01*
X54400000Y-10833335D02*
X54400000Y-10033335D01*
X54400000Y-10033335D02*
X54323809Y-10147620D01*
X54323809Y-10147620D02*
X54247619Y-10223811D01*
X54247619Y-10223811D02*
X54171428Y-10261906D01*
X19866667Y-7833335D02*
X19600000Y-7452382D01*
X19409524Y-7833335D02*
X19409524Y-7033335D01*
X19409524Y-7033335D02*
X19714286Y-7033335D01*
X19714286Y-7033335D02*
X19790476Y-7071430D01*
X19790476Y-7071430D02*
X19828571Y-7109525D01*
X19828571Y-7109525D02*
X19866667Y-7185716D01*
X19866667Y-7185716D02*
X19866667Y-7300001D01*
X19866667Y-7300001D02*
X19828571Y-7376192D01*
X19828571Y-7376192D02*
X19790476Y-7414287D01*
X19790476Y-7414287D02*
X19714286Y-7452382D01*
X19714286Y-7452382D02*
X19409524Y-7452382D01*
X20628571Y-7833335D02*
X20171428Y-7833335D01*
X20400000Y-7833335D02*
X20400000Y-7033335D01*
X20400000Y-7033335D02*
X20323809Y-7147620D01*
X20323809Y-7147620D02*
X20247619Y-7223811D01*
X20247619Y-7223811D02*
X20171428Y-7261906D01*
X19485714Y-43833335D02*
X19219047Y-43452382D01*
X19028571Y-43833335D02*
X19028571Y-43033335D01*
X19028571Y-43033335D02*
X19333333Y-43033335D01*
X19333333Y-43033335D02*
X19409523Y-43071430D01*
X19409523Y-43071430D02*
X19447618Y-43109525D01*
X19447618Y-43109525D02*
X19485714Y-43185716D01*
X19485714Y-43185716D02*
X19485714Y-43300001D01*
X19485714Y-43300001D02*
X19447618Y-43376192D01*
X19447618Y-43376192D02*
X19409523Y-43414287D01*
X19409523Y-43414287D02*
X19333333Y-43452382D01*
X19333333Y-43452382D02*
X19028571Y-43452382D01*
X20247618Y-43833335D02*
X19790475Y-43833335D01*
X20019047Y-43833335D02*
X20019047Y-43033335D01*
X20019047Y-43033335D02*
X19942856Y-43147620D01*
X19942856Y-43147620D02*
X19866666Y-43223811D01*
X19866666Y-43223811D02*
X19790475Y-43261906D01*
X20971428Y-43033335D02*
X20590476Y-43033335D01*
X20590476Y-43033335D02*
X20552380Y-43414287D01*
X20552380Y-43414287D02*
X20590476Y-43376192D01*
X20590476Y-43376192D02*
X20666666Y-43338097D01*
X20666666Y-43338097D02*
X20857142Y-43338097D01*
X20857142Y-43338097D02*
X20933333Y-43376192D01*
X20933333Y-43376192D02*
X20971428Y-43414287D01*
X20971428Y-43414287D02*
X21009523Y-43490478D01*
X21009523Y-43490478D02*
X21009523Y-43680954D01*
X21009523Y-43680954D02*
X20971428Y-43757144D01*
X20971428Y-43757144D02*
X20933333Y-43795240D01*
X20933333Y-43795240D02*
X20857142Y-43833335D01*
X20857142Y-43833335D02*
X20666666Y-43833335D01*
X20666666Y-43833335D02*
X20590476Y-43795240D01*
X20590476Y-43795240D02*
X20552380Y-43757144D01*
X9008333Y-3983335D02*
X9008333Y-4554763D01*
X9008333Y-4554763D02*
X8970238Y-4669049D01*
X8970238Y-4669049D02*
X8894047Y-4745240D01*
X8894047Y-4745240D02*
X8779762Y-4783335D01*
X8779762Y-4783335D02*
X8703571Y-4783335D01*
X9808333Y-4783335D02*
X9351190Y-4783335D01*
X9579762Y-4783335D02*
X9579762Y-3983335D01*
X9579762Y-3983335D02*
X9503571Y-4097620D01*
X9503571Y-4097620D02*
X9427381Y-4173811D01*
X9427381Y-4173811D02*
X9351190Y-4211906D01*
X15485714Y-48833335D02*
X15219047Y-48452382D01*
X15028571Y-48833335D02*
X15028571Y-48033335D01*
X15028571Y-48033335D02*
X15333333Y-48033335D01*
X15333333Y-48033335D02*
X15409523Y-48071430D01*
X15409523Y-48071430D02*
X15447618Y-48109525D01*
X15447618Y-48109525D02*
X15485714Y-48185716D01*
X15485714Y-48185716D02*
X15485714Y-48300001D01*
X15485714Y-48300001D02*
X15447618Y-48376192D01*
X15447618Y-48376192D02*
X15409523Y-48414287D01*
X15409523Y-48414287D02*
X15333333Y-48452382D01*
X15333333Y-48452382D02*
X15028571Y-48452382D01*
X15790475Y-48109525D02*
X15828571Y-48071430D01*
X15828571Y-48071430D02*
X15904761Y-48033335D01*
X15904761Y-48033335D02*
X16095237Y-48033335D01*
X16095237Y-48033335D02*
X16171428Y-48071430D01*
X16171428Y-48071430D02*
X16209523Y-48109525D01*
X16209523Y-48109525D02*
X16247618Y-48185716D01*
X16247618Y-48185716D02*
X16247618Y-48261906D01*
X16247618Y-48261906D02*
X16209523Y-48376192D01*
X16209523Y-48376192D02*
X15752380Y-48833335D01*
X15752380Y-48833335D02*
X16247618Y-48833335D01*
X16742857Y-48033335D02*
X16819047Y-48033335D01*
X16819047Y-48033335D02*
X16895238Y-48071430D01*
X16895238Y-48071430D02*
X16933333Y-48109525D01*
X16933333Y-48109525D02*
X16971428Y-48185716D01*
X16971428Y-48185716D02*
X17009523Y-48338097D01*
X17009523Y-48338097D02*
X17009523Y-48528573D01*
X17009523Y-48528573D02*
X16971428Y-48680954D01*
X16971428Y-48680954D02*
X16933333Y-48757144D01*
X16933333Y-48757144D02*
X16895238Y-48795240D01*
X16895238Y-48795240D02*
X16819047Y-48833335D01*
X16819047Y-48833335D02*
X16742857Y-48833335D01*
X16742857Y-48833335D02*
X16666666Y-48795240D01*
X16666666Y-48795240D02*
X16628571Y-48757144D01*
X16628571Y-48757144D02*
X16590476Y-48680954D01*
X16590476Y-48680954D02*
X16552380Y-48528573D01*
X16552380Y-48528573D02*
X16552380Y-48338097D01*
X16552380Y-48338097D02*
X16590476Y-48185716D01*
X16590476Y-48185716D02*
X16628571Y-48109525D01*
X16628571Y-48109525D02*
X16666666Y-48071430D01*
X16666666Y-48071430D02*
X16742857Y-48033335D01*
X59390476Y-17263335D02*
X59390476Y-17910954D01*
X59390476Y-17910954D02*
X59428571Y-17987144D01*
X59428571Y-17987144D02*
X59466666Y-18025240D01*
X59466666Y-18025240D02*
X59542857Y-18063335D01*
X59542857Y-18063335D02*
X59695238Y-18063335D01*
X59695238Y-18063335D02*
X59771428Y-18025240D01*
X59771428Y-18025240D02*
X59809523Y-17987144D01*
X59809523Y-17987144D02*
X59847619Y-17910954D01*
X59847619Y-17910954D02*
X59847619Y-17263335D01*
X60571428Y-17530001D02*
X60571428Y-18063335D01*
X60380952Y-17225240D02*
X60190475Y-17796668D01*
X60190475Y-17796668D02*
X60685714Y-17796668D01*
X19866667Y-13833335D02*
X19600000Y-13452382D01*
X19409524Y-13833335D02*
X19409524Y-13033335D01*
X19409524Y-13033335D02*
X19714286Y-13033335D01*
X19714286Y-13033335D02*
X19790476Y-13071430D01*
X19790476Y-13071430D02*
X19828571Y-13109525D01*
X19828571Y-13109525D02*
X19866667Y-13185716D01*
X19866667Y-13185716D02*
X19866667Y-13300001D01*
X19866667Y-13300001D02*
X19828571Y-13376192D01*
X19828571Y-13376192D02*
X19790476Y-13414287D01*
X19790476Y-13414287D02*
X19714286Y-13452382D01*
X19714286Y-13452382D02*
X19409524Y-13452382D01*
X20590476Y-13033335D02*
X20209524Y-13033335D01*
X20209524Y-13033335D02*
X20171428Y-13414287D01*
X20171428Y-13414287D02*
X20209524Y-13376192D01*
X20209524Y-13376192D02*
X20285714Y-13338097D01*
X20285714Y-13338097D02*
X20476190Y-13338097D01*
X20476190Y-13338097D02*
X20552381Y-13376192D01*
X20552381Y-13376192D02*
X20590476Y-13414287D01*
X20590476Y-13414287D02*
X20628571Y-13490478D01*
X20628571Y-13490478D02*
X20628571Y-13680954D01*
X20628571Y-13680954D02*
X20590476Y-13757144D01*
X20590476Y-13757144D02*
X20552381Y-13795240D01*
X20552381Y-13795240D02*
X20476190Y-13833335D01*
X20476190Y-13833335D02*
X20285714Y-13833335D01*
X20285714Y-13833335D02*
X20209524Y-13795240D01*
X20209524Y-13795240D02*
X20171428Y-13757144D01*
X19485714Y-40833335D02*
X19219047Y-40452382D01*
X19028571Y-40833335D02*
X19028571Y-40033335D01*
X19028571Y-40033335D02*
X19333333Y-40033335D01*
X19333333Y-40033335D02*
X19409523Y-40071430D01*
X19409523Y-40071430D02*
X19447618Y-40109525D01*
X19447618Y-40109525D02*
X19485714Y-40185716D01*
X19485714Y-40185716D02*
X19485714Y-40300001D01*
X19485714Y-40300001D02*
X19447618Y-40376192D01*
X19447618Y-40376192D02*
X19409523Y-40414287D01*
X19409523Y-40414287D02*
X19333333Y-40452382D01*
X19333333Y-40452382D02*
X19028571Y-40452382D01*
X20247618Y-40833335D02*
X19790475Y-40833335D01*
X20019047Y-40833335D02*
X20019047Y-40033335D01*
X20019047Y-40033335D02*
X19942856Y-40147620D01*
X19942856Y-40147620D02*
X19866666Y-40223811D01*
X19866666Y-40223811D02*
X19790475Y-40261906D01*
X20933333Y-40300001D02*
X20933333Y-40833335D01*
X20742857Y-39995240D02*
X20552380Y-40566668D01*
X20552380Y-40566668D02*
X21047619Y-40566668D01*
X33028571Y-23363335D02*
X33028571Y-22563335D01*
X33028571Y-22563335D02*
X33219047Y-22563335D01*
X33219047Y-22563335D02*
X33333333Y-22601430D01*
X33333333Y-22601430D02*
X33409523Y-22677620D01*
X33409523Y-22677620D02*
X33447618Y-22753811D01*
X33447618Y-22753811D02*
X33485714Y-22906192D01*
X33485714Y-22906192D02*
X33485714Y-23020478D01*
X33485714Y-23020478D02*
X33447618Y-23172859D01*
X33447618Y-23172859D02*
X33409523Y-23249049D01*
X33409523Y-23249049D02*
X33333333Y-23325240D01*
X33333333Y-23325240D02*
X33219047Y-23363335D01*
X33219047Y-23363335D02*
X33028571Y-23363335D01*
X34247618Y-23363335D02*
X33790475Y-23363335D01*
X34019047Y-23363335D02*
X34019047Y-22563335D01*
X34019047Y-22563335D02*
X33942856Y-22677620D01*
X33942856Y-22677620D02*
X33866666Y-22753811D01*
X33866666Y-22753811D02*
X33790475Y-22791906D01*
X34514285Y-22563335D02*
X35009523Y-22563335D01*
X35009523Y-22563335D02*
X34742857Y-22868097D01*
X34742857Y-22868097D02*
X34857142Y-22868097D01*
X34857142Y-22868097D02*
X34933333Y-22906192D01*
X34933333Y-22906192D02*
X34971428Y-22944287D01*
X34971428Y-22944287D02*
X35009523Y-23020478D01*
X35009523Y-23020478D02*
X35009523Y-23210954D01*
X35009523Y-23210954D02*
X34971428Y-23287144D01*
X34971428Y-23287144D02*
X34933333Y-23325240D01*
X34933333Y-23325240D02*
X34857142Y-23363335D01*
X34857142Y-23363335D02*
X34628571Y-23363335D01*
X34628571Y-23363335D02*
X34552380Y-23325240D01*
X34552380Y-23325240D02*
X34514285Y-23287144D01*
X33028571Y-17863335D02*
X33028571Y-17063335D01*
X33028571Y-17063335D02*
X33219047Y-17063335D01*
X33219047Y-17063335D02*
X33333333Y-17101430D01*
X33333333Y-17101430D02*
X33409523Y-17177620D01*
X33409523Y-17177620D02*
X33447618Y-17253811D01*
X33447618Y-17253811D02*
X33485714Y-17406192D01*
X33485714Y-17406192D02*
X33485714Y-17520478D01*
X33485714Y-17520478D02*
X33447618Y-17672859D01*
X33447618Y-17672859D02*
X33409523Y-17749049D01*
X33409523Y-17749049D02*
X33333333Y-17825240D01*
X33333333Y-17825240D02*
X33219047Y-17863335D01*
X33219047Y-17863335D02*
X33028571Y-17863335D01*
X34247618Y-17863335D02*
X33790475Y-17863335D01*
X34019047Y-17863335D02*
X34019047Y-17063335D01*
X34019047Y-17063335D02*
X33942856Y-17177620D01*
X33942856Y-17177620D02*
X33866666Y-17253811D01*
X33866666Y-17253811D02*
X33790475Y-17291906D01*
X34552380Y-17139525D02*
X34590476Y-17101430D01*
X34590476Y-17101430D02*
X34666666Y-17063335D01*
X34666666Y-17063335D02*
X34857142Y-17063335D01*
X34857142Y-17063335D02*
X34933333Y-17101430D01*
X34933333Y-17101430D02*
X34971428Y-17139525D01*
X34971428Y-17139525D02*
X35009523Y-17215716D01*
X35009523Y-17215716D02*
X35009523Y-17291906D01*
X35009523Y-17291906D02*
X34971428Y-17406192D01*
X34971428Y-17406192D02*
X34514285Y-17863335D01*
X34514285Y-17863335D02*
X35009523Y-17863335D01*
X27409524Y-45363335D02*
X27409524Y-44563335D01*
X27409524Y-44563335D02*
X27600000Y-44563335D01*
X27600000Y-44563335D02*
X27714286Y-44601430D01*
X27714286Y-44601430D02*
X27790476Y-44677620D01*
X27790476Y-44677620D02*
X27828571Y-44753811D01*
X27828571Y-44753811D02*
X27866667Y-44906192D01*
X27866667Y-44906192D02*
X27866667Y-45020478D01*
X27866667Y-45020478D02*
X27828571Y-45172859D01*
X27828571Y-45172859D02*
X27790476Y-45249049D01*
X27790476Y-45249049D02*
X27714286Y-45325240D01*
X27714286Y-45325240D02*
X27600000Y-45363335D01*
X27600000Y-45363335D02*
X27409524Y-45363335D01*
X28323809Y-44906192D02*
X28247619Y-44868097D01*
X28247619Y-44868097D02*
X28209524Y-44830001D01*
X28209524Y-44830001D02*
X28171428Y-44753811D01*
X28171428Y-44753811D02*
X28171428Y-44715716D01*
X28171428Y-44715716D02*
X28209524Y-44639525D01*
X28209524Y-44639525D02*
X28247619Y-44601430D01*
X28247619Y-44601430D02*
X28323809Y-44563335D01*
X28323809Y-44563335D02*
X28476190Y-44563335D01*
X28476190Y-44563335D02*
X28552381Y-44601430D01*
X28552381Y-44601430D02*
X28590476Y-44639525D01*
X28590476Y-44639525D02*
X28628571Y-44715716D01*
X28628571Y-44715716D02*
X28628571Y-44753811D01*
X28628571Y-44753811D02*
X28590476Y-44830001D01*
X28590476Y-44830001D02*
X28552381Y-44868097D01*
X28552381Y-44868097D02*
X28476190Y-44906192D01*
X28476190Y-44906192D02*
X28323809Y-44906192D01*
X28323809Y-44906192D02*
X28247619Y-44944287D01*
X28247619Y-44944287D02*
X28209524Y-44982382D01*
X28209524Y-44982382D02*
X28171428Y-45058573D01*
X28171428Y-45058573D02*
X28171428Y-45210954D01*
X28171428Y-45210954D02*
X28209524Y-45287144D01*
X28209524Y-45287144D02*
X28247619Y-45325240D01*
X28247619Y-45325240D02*
X28323809Y-45363335D01*
X28323809Y-45363335D02*
X28476190Y-45363335D01*
X28476190Y-45363335D02*
X28552381Y-45325240D01*
X28552381Y-45325240D02*
X28590476Y-45287144D01*
X28590476Y-45287144D02*
X28628571Y-45210954D01*
X28628571Y-45210954D02*
X28628571Y-45058573D01*
X28628571Y-45058573D02*
X28590476Y-44982382D01*
X28590476Y-44982382D02*
X28552381Y-44944287D01*
X28552381Y-44944287D02*
X28476190Y-44906192D01*
X78483333Y-7963335D02*
X78483333Y-8534763D01*
X78483333Y-8534763D02*
X78445238Y-8649049D01*
X78445238Y-8649049D02*
X78369047Y-8725240D01*
X78369047Y-8725240D02*
X78254762Y-8763335D01*
X78254762Y-8763335D02*
X78178571Y-8763335D01*
X78978571Y-8306192D02*
X78902381Y-8268097D01*
X78902381Y-8268097D02*
X78864286Y-8230001D01*
X78864286Y-8230001D02*
X78826190Y-8153811D01*
X78826190Y-8153811D02*
X78826190Y-8115716D01*
X78826190Y-8115716D02*
X78864286Y-8039525D01*
X78864286Y-8039525D02*
X78902381Y-8001430D01*
X78902381Y-8001430D02*
X78978571Y-7963335D01*
X78978571Y-7963335D02*
X79130952Y-7963335D01*
X79130952Y-7963335D02*
X79207143Y-8001430D01*
X79207143Y-8001430D02*
X79245238Y-8039525D01*
X79245238Y-8039525D02*
X79283333Y-8115716D01*
X79283333Y-8115716D02*
X79283333Y-8153811D01*
X79283333Y-8153811D02*
X79245238Y-8230001D01*
X79245238Y-8230001D02*
X79207143Y-8268097D01*
X79207143Y-8268097D02*
X79130952Y-8306192D01*
X79130952Y-8306192D02*
X78978571Y-8306192D01*
X78978571Y-8306192D02*
X78902381Y-8344287D01*
X78902381Y-8344287D02*
X78864286Y-8382382D01*
X78864286Y-8382382D02*
X78826190Y-8458573D01*
X78826190Y-8458573D02*
X78826190Y-8610954D01*
X78826190Y-8610954D02*
X78864286Y-8687144D01*
X78864286Y-8687144D02*
X78902381Y-8725240D01*
X78902381Y-8725240D02*
X78978571Y-8763335D01*
X78978571Y-8763335D02*
X79130952Y-8763335D01*
X79130952Y-8763335D02*
X79207143Y-8725240D01*
X79207143Y-8725240D02*
X79245238Y-8687144D01*
X79245238Y-8687144D02*
X79283333Y-8610954D01*
X79283333Y-8610954D02*
X79283333Y-8458573D01*
X79283333Y-8458573D02*
X79245238Y-8382382D01*
X79245238Y-8382382D02*
X79207143Y-8344287D01*
X79207143Y-8344287D02*
X79130952Y-8306192D01*
X59733333Y-36993335D02*
X59733333Y-37564763D01*
X59733333Y-37564763D02*
X59695238Y-37679049D01*
X59695238Y-37679049D02*
X59619047Y-37755240D01*
X59619047Y-37755240D02*
X59504762Y-37793335D01*
X59504762Y-37793335D02*
X59428571Y-37793335D01*
X60038095Y-36993335D02*
X60533333Y-36993335D01*
X60533333Y-36993335D02*
X60266667Y-37298097D01*
X60266667Y-37298097D02*
X60380952Y-37298097D01*
X60380952Y-37298097D02*
X60457143Y-37336192D01*
X60457143Y-37336192D02*
X60495238Y-37374287D01*
X60495238Y-37374287D02*
X60533333Y-37450478D01*
X60533333Y-37450478D02*
X60533333Y-37640954D01*
X60533333Y-37640954D02*
X60495238Y-37717144D01*
X60495238Y-37717144D02*
X60457143Y-37755240D01*
X60457143Y-37755240D02*
X60380952Y-37793335D01*
X60380952Y-37793335D02*
X60152381Y-37793335D01*
X60152381Y-37793335D02*
X60076190Y-37755240D01*
X60076190Y-37755240D02*
X60038095Y-37717144D01*
X33028571Y-6863335D02*
X33028571Y-6063335D01*
X33028571Y-6063335D02*
X33219047Y-6063335D01*
X33219047Y-6063335D02*
X33333333Y-6101430D01*
X33333333Y-6101430D02*
X33409523Y-6177620D01*
X33409523Y-6177620D02*
X33447618Y-6253811D01*
X33447618Y-6253811D02*
X33485714Y-6406192D01*
X33485714Y-6406192D02*
X33485714Y-6520478D01*
X33485714Y-6520478D02*
X33447618Y-6672859D01*
X33447618Y-6672859D02*
X33409523Y-6749049D01*
X33409523Y-6749049D02*
X33333333Y-6825240D01*
X33333333Y-6825240D02*
X33219047Y-6863335D01*
X33219047Y-6863335D02*
X33028571Y-6863335D01*
X34247618Y-6863335D02*
X33790475Y-6863335D01*
X34019047Y-6863335D02*
X34019047Y-6063335D01*
X34019047Y-6063335D02*
X33942856Y-6177620D01*
X33942856Y-6177620D02*
X33866666Y-6253811D01*
X33866666Y-6253811D02*
X33790475Y-6291906D01*
X34742857Y-6063335D02*
X34819047Y-6063335D01*
X34819047Y-6063335D02*
X34895238Y-6101430D01*
X34895238Y-6101430D02*
X34933333Y-6139525D01*
X34933333Y-6139525D02*
X34971428Y-6215716D01*
X34971428Y-6215716D02*
X35009523Y-6368097D01*
X35009523Y-6368097D02*
X35009523Y-6558573D01*
X35009523Y-6558573D02*
X34971428Y-6710954D01*
X34971428Y-6710954D02*
X34933333Y-6787144D01*
X34933333Y-6787144D02*
X34895238Y-6825240D01*
X34895238Y-6825240D02*
X34819047Y-6863335D01*
X34819047Y-6863335D02*
X34742857Y-6863335D01*
X34742857Y-6863335D02*
X34666666Y-6825240D01*
X34666666Y-6825240D02*
X34628571Y-6787144D01*
X34628571Y-6787144D02*
X34590476Y-6710954D01*
X34590476Y-6710954D02*
X34552380Y-6558573D01*
X34552380Y-6558573D02*
X34552380Y-6368097D01*
X34552380Y-6368097D02*
X34590476Y-6215716D01*
X34590476Y-6215716D02*
X34628571Y-6139525D01*
X34628571Y-6139525D02*
X34666666Y-6101430D01*
X34666666Y-6101430D02*
X34742857Y-6063335D01*
X53866667Y-24757144D02*
X53828571Y-24795240D01*
X53828571Y-24795240D02*
X53714286Y-24833335D01*
X53714286Y-24833335D02*
X53638095Y-24833335D01*
X53638095Y-24833335D02*
X53523809Y-24795240D01*
X53523809Y-24795240D02*
X53447619Y-24719049D01*
X53447619Y-24719049D02*
X53409524Y-24642859D01*
X53409524Y-24642859D02*
X53371428Y-24490478D01*
X53371428Y-24490478D02*
X53371428Y-24376192D01*
X53371428Y-24376192D02*
X53409524Y-24223811D01*
X53409524Y-24223811D02*
X53447619Y-24147620D01*
X53447619Y-24147620D02*
X53523809Y-24071430D01*
X53523809Y-24071430D02*
X53638095Y-24033335D01*
X53638095Y-24033335D02*
X53714286Y-24033335D01*
X53714286Y-24033335D02*
X53828571Y-24071430D01*
X53828571Y-24071430D02*
X53866667Y-24109525D01*
X54171428Y-24109525D02*
X54209524Y-24071430D01*
X54209524Y-24071430D02*
X54285714Y-24033335D01*
X54285714Y-24033335D02*
X54476190Y-24033335D01*
X54476190Y-24033335D02*
X54552381Y-24071430D01*
X54552381Y-24071430D02*
X54590476Y-24109525D01*
X54590476Y-24109525D02*
X54628571Y-24185716D01*
X54628571Y-24185716D02*
X54628571Y-24261906D01*
X54628571Y-24261906D02*
X54590476Y-24376192D01*
X54590476Y-24376192D02*
X54133333Y-24833335D01*
X54133333Y-24833335D02*
X54628571Y-24833335D01*
X45390476Y-35263335D02*
X45390476Y-35910954D01*
X45390476Y-35910954D02*
X45428571Y-35987144D01*
X45428571Y-35987144D02*
X45466666Y-36025240D01*
X45466666Y-36025240D02*
X45542857Y-36063335D01*
X45542857Y-36063335D02*
X45695238Y-36063335D01*
X45695238Y-36063335D02*
X45771428Y-36025240D01*
X45771428Y-36025240D02*
X45809523Y-35987144D01*
X45809523Y-35987144D02*
X45847619Y-35910954D01*
X45847619Y-35910954D02*
X45847619Y-35263335D01*
X46152380Y-35263335D02*
X46647618Y-35263335D01*
X46647618Y-35263335D02*
X46380952Y-35568097D01*
X46380952Y-35568097D02*
X46495237Y-35568097D01*
X46495237Y-35568097D02*
X46571428Y-35606192D01*
X46571428Y-35606192D02*
X46609523Y-35644287D01*
X46609523Y-35644287D02*
X46647618Y-35720478D01*
X46647618Y-35720478D02*
X46647618Y-35910954D01*
X46647618Y-35910954D02*
X46609523Y-35987144D01*
X46609523Y-35987144D02*
X46571428Y-36025240D01*
X46571428Y-36025240D02*
X46495237Y-36063335D01*
X46495237Y-36063335D02*
X46266666Y-36063335D01*
X46266666Y-36063335D02*
X46190475Y-36025240D01*
X46190475Y-36025240D02*
X46152380Y-35987144D01*
X27409524Y-39863335D02*
X27409524Y-39063335D01*
X27409524Y-39063335D02*
X27600000Y-39063335D01*
X27600000Y-39063335D02*
X27714286Y-39101430D01*
X27714286Y-39101430D02*
X27790476Y-39177620D01*
X27790476Y-39177620D02*
X27828571Y-39253811D01*
X27828571Y-39253811D02*
X27866667Y-39406192D01*
X27866667Y-39406192D02*
X27866667Y-39520478D01*
X27866667Y-39520478D02*
X27828571Y-39672859D01*
X27828571Y-39672859D02*
X27790476Y-39749049D01*
X27790476Y-39749049D02*
X27714286Y-39825240D01*
X27714286Y-39825240D02*
X27600000Y-39863335D01*
X27600000Y-39863335D02*
X27409524Y-39863335D01*
X28133333Y-39063335D02*
X28666667Y-39063335D01*
X28666667Y-39063335D02*
X28323809Y-39863335D01*
X33028571Y-28863335D02*
X33028571Y-28063335D01*
X33028571Y-28063335D02*
X33219047Y-28063335D01*
X33219047Y-28063335D02*
X33333333Y-28101430D01*
X33333333Y-28101430D02*
X33409523Y-28177620D01*
X33409523Y-28177620D02*
X33447618Y-28253811D01*
X33447618Y-28253811D02*
X33485714Y-28406192D01*
X33485714Y-28406192D02*
X33485714Y-28520478D01*
X33485714Y-28520478D02*
X33447618Y-28672859D01*
X33447618Y-28672859D02*
X33409523Y-28749049D01*
X33409523Y-28749049D02*
X33333333Y-28825240D01*
X33333333Y-28825240D02*
X33219047Y-28863335D01*
X33219047Y-28863335D02*
X33028571Y-28863335D01*
X34247618Y-28863335D02*
X33790475Y-28863335D01*
X34019047Y-28863335D02*
X34019047Y-28063335D01*
X34019047Y-28063335D02*
X33942856Y-28177620D01*
X33942856Y-28177620D02*
X33866666Y-28253811D01*
X33866666Y-28253811D02*
X33790475Y-28291906D01*
X34933333Y-28330001D02*
X34933333Y-28863335D01*
X34742857Y-28025240D02*
X34552380Y-28596668D01*
X34552380Y-28596668D02*
X35047619Y-28596668D01*
X59866667Y-53757144D02*
X59828571Y-53795240D01*
X59828571Y-53795240D02*
X59714286Y-53833335D01*
X59714286Y-53833335D02*
X59638095Y-53833335D01*
X59638095Y-53833335D02*
X59523809Y-53795240D01*
X59523809Y-53795240D02*
X59447619Y-53719049D01*
X59447619Y-53719049D02*
X59409524Y-53642859D01*
X59409524Y-53642859D02*
X59371428Y-53490478D01*
X59371428Y-53490478D02*
X59371428Y-53376192D01*
X59371428Y-53376192D02*
X59409524Y-53223811D01*
X59409524Y-53223811D02*
X59447619Y-53147620D01*
X59447619Y-53147620D02*
X59523809Y-53071430D01*
X59523809Y-53071430D02*
X59638095Y-53033335D01*
X59638095Y-53033335D02*
X59714286Y-53033335D01*
X59714286Y-53033335D02*
X59828571Y-53071430D01*
X59828571Y-53071430D02*
X59866667Y-53109525D01*
X60133333Y-53033335D02*
X60666667Y-53033335D01*
X60666667Y-53033335D02*
X60323809Y-53833335D01*
X21710476Y-65868335D02*
X21710476Y-66515954D01*
X21710476Y-66515954D02*
X21748571Y-66592144D01*
X21748571Y-66592144D02*
X21786666Y-66630240D01*
X21786666Y-66630240D02*
X21862857Y-66668335D01*
X21862857Y-66668335D02*
X22015238Y-66668335D01*
X22015238Y-66668335D02*
X22091428Y-66630240D01*
X22091428Y-66630240D02*
X22129523Y-66592144D01*
X22129523Y-66592144D02*
X22167619Y-66515954D01*
X22167619Y-66515954D02*
X22167619Y-65868335D01*
X22929523Y-65868335D02*
X22548571Y-65868335D01*
X22548571Y-65868335D02*
X22510475Y-66249287D01*
X22510475Y-66249287D02*
X22548571Y-66211192D01*
X22548571Y-66211192D02*
X22624761Y-66173097D01*
X22624761Y-66173097D02*
X22815237Y-66173097D01*
X22815237Y-66173097D02*
X22891428Y-66211192D01*
X22891428Y-66211192D02*
X22929523Y-66249287D01*
X22929523Y-66249287D02*
X22967618Y-66325478D01*
X22967618Y-66325478D02*
X22967618Y-66515954D01*
X22967618Y-66515954D02*
X22929523Y-66592144D01*
X22929523Y-66592144D02*
X22891428Y-66630240D01*
X22891428Y-66630240D02*
X22815237Y-66668335D01*
X22815237Y-66668335D02*
X22624761Y-66668335D01*
X22624761Y-66668335D02*
X22548571Y-66630240D01*
X22548571Y-66630240D02*
X22510475Y-66592144D01*
X19866667Y-16833335D02*
X19600000Y-16452382D01*
X19409524Y-16833335D02*
X19409524Y-16033335D01*
X19409524Y-16033335D02*
X19714286Y-16033335D01*
X19714286Y-16033335D02*
X19790476Y-16071430D01*
X19790476Y-16071430D02*
X19828571Y-16109525D01*
X19828571Y-16109525D02*
X19866667Y-16185716D01*
X19866667Y-16185716D02*
X19866667Y-16300001D01*
X19866667Y-16300001D02*
X19828571Y-16376192D01*
X19828571Y-16376192D02*
X19790476Y-16414287D01*
X19790476Y-16414287D02*
X19714286Y-16452382D01*
X19714286Y-16452382D02*
X19409524Y-16452382D01*
X20552381Y-16033335D02*
X20400000Y-16033335D01*
X20400000Y-16033335D02*
X20323809Y-16071430D01*
X20323809Y-16071430D02*
X20285714Y-16109525D01*
X20285714Y-16109525D02*
X20209524Y-16223811D01*
X20209524Y-16223811D02*
X20171428Y-16376192D01*
X20171428Y-16376192D02*
X20171428Y-16680954D01*
X20171428Y-16680954D02*
X20209524Y-16757144D01*
X20209524Y-16757144D02*
X20247619Y-16795240D01*
X20247619Y-16795240D02*
X20323809Y-16833335D01*
X20323809Y-16833335D02*
X20476190Y-16833335D01*
X20476190Y-16833335D02*
X20552381Y-16795240D01*
X20552381Y-16795240D02*
X20590476Y-16757144D01*
X20590476Y-16757144D02*
X20628571Y-16680954D01*
X20628571Y-16680954D02*
X20628571Y-16490478D01*
X20628571Y-16490478D02*
X20590476Y-16414287D01*
X20590476Y-16414287D02*
X20552381Y-16376192D01*
X20552381Y-16376192D02*
X20476190Y-16338097D01*
X20476190Y-16338097D02*
X20323809Y-16338097D01*
X20323809Y-16338097D02*
X20247619Y-16376192D01*
X20247619Y-16376192D02*
X20209524Y-16414287D01*
X20209524Y-16414287D02*
X20171428Y-16490478D01*
X23666667Y-71257144D02*
X23628571Y-71295240D01*
X23628571Y-71295240D02*
X23514286Y-71333335D01*
X23514286Y-71333335D02*
X23438095Y-71333335D01*
X23438095Y-71333335D02*
X23323809Y-71295240D01*
X23323809Y-71295240D02*
X23247619Y-71219049D01*
X23247619Y-71219049D02*
X23209524Y-71142859D01*
X23209524Y-71142859D02*
X23171428Y-70990478D01*
X23171428Y-70990478D02*
X23171428Y-70876192D01*
X23171428Y-70876192D02*
X23209524Y-70723811D01*
X23209524Y-70723811D02*
X23247619Y-70647620D01*
X23247619Y-70647620D02*
X23323809Y-70571430D01*
X23323809Y-70571430D02*
X23438095Y-70533335D01*
X23438095Y-70533335D02*
X23514286Y-70533335D01*
X23514286Y-70533335D02*
X23628571Y-70571430D01*
X23628571Y-70571430D02*
X23666667Y-70609525D01*
X24390476Y-70533335D02*
X24009524Y-70533335D01*
X24009524Y-70533335D02*
X23971428Y-70914287D01*
X23971428Y-70914287D02*
X24009524Y-70876192D01*
X24009524Y-70876192D02*
X24085714Y-70838097D01*
X24085714Y-70838097D02*
X24276190Y-70838097D01*
X24276190Y-70838097D02*
X24352381Y-70876192D01*
X24352381Y-70876192D02*
X24390476Y-70914287D01*
X24390476Y-70914287D02*
X24428571Y-70990478D01*
X24428571Y-70990478D02*
X24428571Y-71180954D01*
X24428571Y-71180954D02*
X24390476Y-71257144D01*
X24390476Y-71257144D02*
X24352381Y-71295240D01*
X24352381Y-71295240D02*
X24276190Y-71333335D01*
X24276190Y-71333335D02*
X24085714Y-71333335D01*
X24085714Y-71333335D02*
X24009524Y-71295240D01*
X24009524Y-71295240D02*
X23971428Y-71257144D01*
X19485714Y-28833335D02*
X19219047Y-28452382D01*
X19028571Y-28833335D02*
X19028571Y-28033335D01*
X19028571Y-28033335D02*
X19333333Y-28033335D01*
X19333333Y-28033335D02*
X19409523Y-28071430D01*
X19409523Y-28071430D02*
X19447618Y-28109525D01*
X19447618Y-28109525D02*
X19485714Y-28185716D01*
X19485714Y-28185716D02*
X19485714Y-28300001D01*
X19485714Y-28300001D02*
X19447618Y-28376192D01*
X19447618Y-28376192D02*
X19409523Y-28414287D01*
X19409523Y-28414287D02*
X19333333Y-28452382D01*
X19333333Y-28452382D02*
X19028571Y-28452382D01*
X20247618Y-28833335D02*
X19790475Y-28833335D01*
X20019047Y-28833335D02*
X20019047Y-28033335D01*
X20019047Y-28033335D02*
X19942856Y-28147620D01*
X19942856Y-28147620D02*
X19866666Y-28223811D01*
X19866666Y-28223811D02*
X19790475Y-28261906D01*
X20742857Y-28033335D02*
X20819047Y-28033335D01*
X20819047Y-28033335D02*
X20895238Y-28071430D01*
X20895238Y-28071430D02*
X20933333Y-28109525D01*
X20933333Y-28109525D02*
X20971428Y-28185716D01*
X20971428Y-28185716D02*
X21009523Y-28338097D01*
X21009523Y-28338097D02*
X21009523Y-28528573D01*
X21009523Y-28528573D02*
X20971428Y-28680954D01*
X20971428Y-28680954D02*
X20933333Y-28757144D01*
X20933333Y-28757144D02*
X20895238Y-28795240D01*
X20895238Y-28795240D02*
X20819047Y-28833335D01*
X20819047Y-28833335D02*
X20742857Y-28833335D01*
X20742857Y-28833335D02*
X20666666Y-28795240D01*
X20666666Y-28795240D02*
X20628571Y-28757144D01*
X20628571Y-28757144D02*
X20590476Y-28680954D01*
X20590476Y-28680954D02*
X20552380Y-28528573D01*
X20552380Y-28528573D02*
X20552380Y-28338097D01*
X20552380Y-28338097D02*
X20590476Y-28185716D01*
X20590476Y-28185716D02*
X20628571Y-28109525D01*
X20628571Y-28109525D02*
X20666666Y-28071430D01*
X20666666Y-28071430D02*
X20742857Y-28033335D01*
X19485714Y-31833335D02*
X19219047Y-31452382D01*
X19028571Y-31833335D02*
X19028571Y-31033335D01*
X19028571Y-31033335D02*
X19333333Y-31033335D01*
X19333333Y-31033335D02*
X19409523Y-31071430D01*
X19409523Y-31071430D02*
X19447618Y-31109525D01*
X19447618Y-31109525D02*
X19485714Y-31185716D01*
X19485714Y-31185716D02*
X19485714Y-31300001D01*
X19485714Y-31300001D02*
X19447618Y-31376192D01*
X19447618Y-31376192D02*
X19409523Y-31414287D01*
X19409523Y-31414287D02*
X19333333Y-31452382D01*
X19333333Y-31452382D02*
X19028571Y-31452382D01*
X20247618Y-31833335D02*
X19790475Y-31833335D01*
X20019047Y-31833335D02*
X20019047Y-31033335D01*
X20019047Y-31033335D02*
X19942856Y-31147620D01*
X19942856Y-31147620D02*
X19866666Y-31223811D01*
X19866666Y-31223811D02*
X19790475Y-31261906D01*
X21009523Y-31833335D02*
X20552380Y-31833335D01*
X20780952Y-31833335D02*
X20780952Y-31033335D01*
X20780952Y-31033335D02*
X20704761Y-31147620D01*
X20704761Y-31147620D02*
X20628571Y-31223811D01*
X20628571Y-31223811D02*
X20552380Y-31261906D01*
X59866667Y-10833335D02*
X59600000Y-10452382D01*
X59409524Y-10833335D02*
X59409524Y-10033335D01*
X59409524Y-10033335D02*
X59714286Y-10033335D01*
X59714286Y-10033335D02*
X59790476Y-10071430D01*
X59790476Y-10071430D02*
X59828571Y-10109525D01*
X59828571Y-10109525D02*
X59866667Y-10185716D01*
X59866667Y-10185716D02*
X59866667Y-10300001D01*
X59866667Y-10300001D02*
X59828571Y-10376192D01*
X59828571Y-10376192D02*
X59790476Y-10414287D01*
X59790476Y-10414287D02*
X59714286Y-10452382D01*
X59714286Y-10452382D02*
X59409524Y-10452382D01*
X60552381Y-10300001D02*
X60552381Y-10833335D01*
X60361905Y-9995240D02*
X60171428Y-10566668D01*
X60171428Y-10566668D02*
X60666667Y-10566668D01*
X27409524Y-6863335D02*
X27409524Y-6063335D01*
X27409524Y-6063335D02*
X27600000Y-6063335D01*
X27600000Y-6063335D02*
X27714286Y-6101430D01*
X27714286Y-6101430D02*
X27790476Y-6177620D01*
X27790476Y-6177620D02*
X27828571Y-6253811D01*
X27828571Y-6253811D02*
X27866667Y-6406192D01*
X27866667Y-6406192D02*
X27866667Y-6520478D01*
X27866667Y-6520478D02*
X27828571Y-6672859D01*
X27828571Y-6672859D02*
X27790476Y-6749049D01*
X27790476Y-6749049D02*
X27714286Y-6825240D01*
X27714286Y-6825240D02*
X27600000Y-6863335D01*
X27600000Y-6863335D02*
X27409524Y-6863335D01*
X28628571Y-6863335D02*
X28171428Y-6863335D01*
X28400000Y-6863335D02*
X28400000Y-6063335D01*
X28400000Y-6063335D02*
X28323809Y-6177620D01*
X28323809Y-6177620D02*
X28247619Y-6253811D01*
X28247619Y-6253811D02*
X28171428Y-6291906D01*
X95733333Y-71993335D02*
X95733333Y-72564763D01*
X95733333Y-72564763D02*
X95695238Y-72679049D01*
X95695238Y-72679049D02*
X95619047Y-72755240D01*
X95619047Y-72755240D02*
X95504762Y-72793335D01*
X95504762Y-72793335D02*
X95428571Y-72793335D01*
X96038095Y-71993335D02*
X96571429Y-71993335D01*
X96571429Y-71993335D02*
X96228571Y-72793335D01*
X53866667Y-38757144D02*
X53828571Y-38795240D01*
X53828571Y-38795240D02*
X53714286Y-38833335D01*
X53714286Y-38833335D02*
X53638095Y-38833335D01*
X53638095Y-38833335D02*
X53523809Y-38795240D01*
X53523809Y-38795240D02*
X53447619Y-38719049D01*
X53447619Y-38719049D02*
X53409524Y-38642859D01*
X53409524Y-38642859D02*
X53371428Y-38490478D01*
X53371428Y-38490478D02*
X53371428Y-38376192D01*
X53371428Y-38376192D02*
X53409524Y-38223811D01*
X53409524Y-38223811D02*
X53447619Y-38147620D01*
X53447619Y-38147620D02*
X53523809Y-38071430D01*
X53523809Y-38071430D02*
X53638095Y-38033335D01*
X53638095Y-38033335D02*
X53714286Y-38033335D01*
X53714286Y-38033335D02*
X53828571Y-38071430D01*
X53828571Y-38071430D02*
X53866667Y-38109525D01*
X54133333Y-38033335D02*
X54628571Y-38033335D01*
X54628571Y-38033335D02*
X54361905Y-38338097D01*
X54361905Y-38338097D02*
X54476190Y-38338097D01*
X54476190Y-38338097D02*
X54552381Y-38376192D01*
X54552381Y-38376192D02*
X54590476Y-38414287D01*
X54590476Y-38414287D02*
X54628571Y-38490478D01*
X54628571Y-38490478D02*
X54628571Y-38680954D01*
X54628571Y-38680954D02*
X54590476Y-38757144D01*
X54590476Y-38757144D02*
X54552381Y-38795240D01*
X54552381Y-38795240D02*
X54476190Y-38833335D01*
X54476190Y-38833335D02*
X54247619Y-38833335D01*
X54247619Y-38833335D02*
X54171428Y-38795240D01*
X54171428Y-38795240D02*
X54133333Y-38757144D01*
X27409524Y-50863335D02*
X27409524Y-50063335D01*
X27409524Y-50063335D02*
X27600000Y-50063335D01*
X27600000Y-50063335D02*
X27714286Y-50101430D01*
X27714286Y-50101430D02*
X27790476Y-50177620D01*
X27790476Y-50177620D02*
X27828571Y-50253811D01*
X27828571Y-50253811D02*
X27866667Y-50406192D01*
X27866667Y-50406192D02*
X27866667Y-50520478D01*
X27866667Y-50520478D02*
X27828571Y-50672859D01*
X27828571Y-50672859D02*
X27790476Y-50749049D01*
X27790476Y-50749049D02*
X27714286Y-50825240D01*
X27714286Y-50825240D02*
X27600000Y-50863335D01*
X27600000Y-50863335D02*
X27409524Y-50863335D01*
X28247619Y-50863335D02*
X28400000Y-50863335D01*
X28400000Y-50863335D02*
X28476190Y-50825240D01*
X28476190Y-50825240D02*
X28514286Y-50787144D01*
X28514286Y-50787144D02*
X28590476Y-50672859D01*
X28590476Y-50672859D02*
X28628571Y-50520478D01*
X28628571Y-50520478D02*
X28628571Y-50215716D01*
X28628571Y-50215716D02*
X28590476Y-50139525D01*
X28590476Y-50139525D02*
X28552381Y-50101430D01*
X28552381Y-50101430D02*
X28476190Y-50063335D01*
X28476190Y-50063335D02*
X28323809Y-50063335D01*
X28323809Y-50063335D02*
X28247619Y-50101430D01*
X28247619Y-50101430D02*
X28209524Y-50139525D01*
X28209524Y-50139525D02*
X28171428Y-50215716D01*
X28171428Y-50215716D02*
X28171428Y-50406192D01*
X28171428Y-50406192D02*
X28209524Y-50482382D01*
X28209524Y-50482382D02*
X28247619Y-50520478D01*
X28247619Y-50520478D02*
X28323809Y-50558573D01*
X28323809Y-50558573D02*
X28476190Y-50558573D01*
X28476190Y-50558573D02*
X28552381Y-50520478D01*
X28552381Y-50520478D02*
X28590476Y-50482382D01*
X28590476Y-50482382D02*
X28628571Y-50406192D01*
X27409524Y-12363335D02*
X27409524Y-11563335D01*
X27409524Y-11563335D02*
X27600000Y-11563335D01*
X27600000Y-11563335D02*
X27714286Y-11601430D01*
X27714286Y-11601430D02*
X27790476Y-11677620D01*
X27790476Y-11677620D02*
X27828571Y-11753811D01*
X27828571Y-11753811D02*
X27866667Y-11906192D01*
X27866667Y-11906192D02*
X27866667Y-12020478D01*
X27866667Y-12020478D02*
X27828571Y-12172859D01*
X27828571Y-12172859D02*
X27790476Y-12249049D01*
X27790476Y-12249049D02*
X27714286Y-12325240D01*
X27714286Y-12325240D02*
X27600000Y-12363335D01*
X27600000Y-12363335D02*
X27409524Y-12363335D01*
X28171428Y-11639525D02*
X28209524Y-11601430D01*
X28209524Y-11601430D02*
X28285714Y-11563335D01*
X28285714Y-11563335D02*
X28476190Y-11563335D01*
X28476190Y-11563335D02*
X28552381Y-11601430D01*
X28552381Y-11601430D02*
X28590476Y-11639525D01*
X28590476Y-11639525D02*
X28628571Y-11715716D01*
X28628571Y-11715716D02*
X28628571Y-11791906D01*
X28628571Y-11791906D02*
X28590476Y-11906192D01*
X28590476Y-11906192D02*
X28133333Y-12363335D01*
X28133333Y-12363335D02*
X28628571Y-12363335D01*
X19866667Y-10833335D02*
X19600000Y-10452382D01*
X19409524Y-10833335D02*
X19409524Y-10033335D01*
X19409524Y-10033335D02*
X19714286Y-10033335D01*
X19714286Y-10033335D02*
X19790476Y-10071430D01*
X19790476Y-10071430D02*
X19828571Y-10109525D01*
X19828571Y-10109525D02*
X19866667Y-10185716D01*
X19866667Y-10185716D02*
X19866667Y-10300001D01*
X19866667Y-10300001D02*
X19828571Y-10376192D01*
X19828571Y-10376192D02*
X19790476Y-10414287D01*
X19790476Y-10414287D02*
X19714286Y-10452382D01*
X19714286Y-10452382D02*
X19409524Y-10452382D01*
X20133333Y-10033335D02*
X20628571Y-10033335D01*
X20628571Y-10033335D02*
X20361905Y-10338097D01*
X20361905Y-10338097D02*
X20476190Y-10338097D01*
X20476190Y-10338097D02*
X20552381Y-10376192D01*
X20552381Y-10376192D02*
X20590476Y-10414287D01*
X20590476Y-10414287D02*
X20628571Y-10490478D01*
X20628571Y-10490478D02*
X20628571Y-10680954D01*
X20628571Y-10680954D02*
X20590476Y-10757144D01*
X20590476Y-10757144D02*
X20552381Y-10795240D01*
X20552381Y-10795240D02*
X20476190Y-10833335D01*
X20476190Y-10833335D02*
X20247619Y-10833335D01*
X20247619Y-10833335D02*
X20171428Y-10795240D01*
X20171428Y-10795240D02*
X20133333Y-10757144D01*
X65515476Y-57613335D02*
X65515476Y-58260954D01*
X65515476Y-58260954D02*
X65553571Y-58337144D01*
X65553571Y-58337144D02*
X65591666Y-58375240D01*
X65591666Y-58375240D02*
X65667857Y-58413335D01*
X65667857Y-58413335D02*
X65820238Y-58413335D01*
X65820238Y-58413335D02*
X65896428Y-58375240D01*
X65896428Y-58375240D02*
X65934523Y-58337144D01*
X65934523Y-58337144D02*
X65972619Y-58260954D01*
X65972619Y-58260954D02*
X65972619Y-57613335D01*
X66277380Y-57613335D02*
X66810714Y-57613335D01*
X66810714Y-57613335D02*
X66467856Y-58413335D01*
X27409524Y-34363335D02*
X27409524Y-33563335D01*
X27409524Y-33563335D02*
X27600000Y-33563335D01*
X27600000Y-33563335D02*
X27714286Y-33601430D01*
X27714286Y-33601430D02*
X27790476Y-33677620D01*
X27790476Y-33677620D02*
X27828571Y-33753811D01*
X27828571Y-33753811D02*
X27866667Y-33906192D01*
X27866667Y-33906192D02*
X27866667Y-34020478D01*
X27866667Y-34020478D02*
X27828571Y-34172859D01*
X27828571Y-34172859D02*
X27790476Y-34249049D01*
X27790476Y-34249049D02*
X27714286Y-34325240D01*
X27714286Y-34325240D02*
X27600000Y-34363335D01*
X27600000Y-34363335D02*
X27409524Y-34363335D01*
X28552381Y-33563335D02*
X28400000Y-33563335D01*
X28400000Y-33563335D02*
X28323809Y-33601430D01*
X28323809Y-33601430D02*
X28285714Y-33639525D01*
X28285714Y-33639525D02*
X28209524Y-33753811D01*
X28209524Y-33753811D02*
X28171428Y-33906192D01*
X28171428Y-33906192D02*
X28171428Y-34210954D01*
X28171428Y-34210954D02*
X28209524Y-34287144D01*
X28209524Y-34287144D02*
X28247619Y-34325240D01*
X28247619Y-34325240D02*
X28323809Y-34363335D01*
X28323809Y-34363335D02*
X28476190Y-34363335D01*
X28476190Y-34363335D02*
X28552381Y-34325240D01*
X28552381Y-34325240D02*
X28590476Y-34287144D01*
X28590476Y-34287144D02*
X28628571Y-34210954D01*
X28628571Y-34210954D02*
X28628571Y-34020478D01*
X28628571Y-34020478D02*
X28590476Y-33944287D01*
X28590476Y-33944287D02*
X28552381Y-33906192D01*
X28552381Y-33906192D02*
X28476190Y-33868097D01*
X28476190Y-33868097D02*
X28323809Y-33868097D01*
X28323809Y-33868097D02*
X28247619Y-33906192D01*
X28247619Y-33906192D02*
X28209524Y-33944287D01*
X28209524Y-33944287D02*
X28171428Y-34020478D01*
X19866667Y-22833335D02*
X19600000Y-22452382D01*
X19409524Y-22833335D02*
X19409524Y-22033335D01*
X19409524Y-22033335D02*
X19714286Y-22033335D01*
X19714286Y-22033335D02*
X19790476Y-22071430D01*
X19790476Y-22071430D02*
X19828571Y-22109525D01*
X19828571Y-22109525D02*
X19866667Y-22185716D01*
X19866667Y-22185716D02*
X19866667Y-22300001D01*
X19866667Y-22300001D02*
X19828571Y-22376192D01*
X19828571Y-22376192D02*
X19790476Y-22414287D01*
X19790476Y-22414287D02*
X19714286Y-22452382D01*
X19714286Y-22452382D02*
X19409524Y-22452382D01*
X20323809Y-22376192D02*
X20247619Y-22338097D01*
X20247619Y-22338097D02*
X20209524Y-22300001D01*
X20209524Y-22300001D02*
X20171428Y-22223811D01*
X20171428Y-22223811D02*
X20171428Y-22185716D01*
X20171428Y-22185716D02*
X20209524Y-22109525D01*
X20209524Y-22109525D02*
X20247619Y-22071430D01*
X20247619Y-22071430D02*
X20323809Y-22033335D01*
X20323809Y-22033335D02*
X20476190Y-22033335D01*
X20476190Y-22033335D02*
X20552381Y-22071430D01*
X20552381Y-22071430D02*
X20590476Y-22109525D01*
X20590476Y-22109525D02*
X20628571Y-22185716D01*
X20628571Y-22185716D02*
X20628571Y-22223811D01*
X20628571Y-22223811D02*
X20590476Y-22300001D01*
X20590476Y-22300001D02*
X20552381Y-22338097D01*
X20552381Y-22338097D02*
X20476190Y-22376192D01*
X20476190Y-22376192D02*
X20323809Y-22376192D01*
X20323809Y-22376192D02*
X20247619Y-22414287D01*
X20247619Y-22414287D02*
X20209524Y-22452382D01*
X20209524Y-22452382D02*
X20171428Y-22528573D01*
X20171428Y-22528573D02*
X20171428Y-22680954D01*
X20171428Y-22680954D02*
X20209524Y-22757144D01*
X20209524Y-22757144D02*
X20247619Y-22795240D01*
X20247619Y-22795240D02*
X20323809Y-22833335D01*
X20323809Y-22833335D02*
X20476190Y-22833335D01*
X20476190Y-22833335D02*
X20552381Y-22795240D01*
X20552381Y-22795240D02*
X20590476Y-22757144D01*
X20590476Y-22757144D02*
X20628571Y-22680954D01*
X20628571Y-22680954D02*
X20628571Y-22528573D01*
X20628571Y-22528573D02*
X20590476Y-22452382D01*
X20590476Y-22452382D02*
X20552381Y-22414287D01*
X20552381Y-22414287D02*
X20476190Y-22376192D01*
X81233333Y-68053335D02*
X81233333Y-68624763D01*
X81233333Y-68624763D02*
X81195238Y-68739049D01*
X81195238Y-68739049D02*
X81119047Y-68815240D01*
X81119047Y-68815240D02*
X81004762Y-68853335D01*
X81004762Y-68853335D02*
X80928571Y-68853335D01*
X81957143Y-68320001D02*
X81957143Y-68853335D01*
X81766667Y-68015240D02*
X81576190Y-68586668D01*
X81576190Y-68586668D02*
X82071429Y-68586668D01*
X51733333Y-41993335D02*
X51733333Y-42564763D01*
X51733333Y-42564763D02*
X51695238Y-42679049D01*
X51695238Y-42679049D02*
X51619047Y-42755240D01*
X51619047Y-42755240D02*
X51504762Y-42793335D01*
X51504762Y-42793335D02*
X51428571Y-42793335D01*
X52495238Y-41993335D02*
X52114286Y-41993335D01*
X52114286Y-41993335D02*
X52076190Y-42374287D01*
X52076190Y-42374287D02*
X52114286Y-42336192D01*
X52114286Y-42336192D02*
X52190476Y-42298097D01*
X52190476Y-42298097D02*
X52380952Y-42298097D01*
X52380952Y-42298097D02*
X52457143Y-42336192D01*
X52457143Y-42336192D02*
X52495238Y-42374287D01*
X52495238Y-42374287D02*
X52533333Y-42450478D01*
X52533333Y-42450478D02*
X52533333Y-42640954D01*
X52533333Y-42640954D02*
X52495238Y-42717144D01*
X52495238Y-42717144D02*
X52457143Y-42755240D01*
X52457143Y-42755240D02*
X52380952Y-42793335D01*
X52380952Y-42793335D02*
X52190476Y-42793335D01*
X52190476Y-42793335D02*
X52114286Y-42755240D01*
X52114286Y-42755240D02*
X52076190Y-42717144D01*
X67485714Y-80507144D02*
X67447618Y-80545240D01*
X67447618Y-80545240D02*
X67333333Y-80583335D01*
X67333333Y-80583335D02*
X67257142Y-80583335D01*
X67257142Y-80583335D02*
X67142856Y-80545240D01*
X67142856Y-80545240D02*
X67066666Y-80469049D01*
X67066666Y-80469049D02*
X67028571Y-80392859D01*
X67028571Y-80392859D02*
X66990475Y-80240478D01*
X66990475Y-80240478D02*
X66990475Y-80126192D01*
X66990475Y-80126192D02*
X67028571Y-79973811D01*
X67028571Y-79973811D02*
X67066666Y-79897620D01*
X67066666Y-79897620D02*
X67142856Y-79821430D01*
X67142856Y-79821430D02*
X67257142Y-79783335D01*
X67257142Y-79783335D02*
X67333333Y-79783335D01*
X67333333Y-79783335D02*
X67447618Y-79821430D01*
X67447618Y-79821430D02*
X67485714Y-79859525D01*
X68247618Y-80583335D02*
X67790475Y-80583335D01*
X68019047Y-80583335D02*
X68019047Y-79783335D01*
X68019047Y-79783335D02*
X67942856Y-79897620D01*
X67942856Y-79897620D02*
X67866666Y-79973811D01*
X67866666Y-79973811D02*
X67790475Y-80011906D01*
X68552380Y-79859525D02*
X68590476Y-79821430D01*
X68590476Y-79821430D02*
X68666666Y-79783335D01*
X68666666Y-79783335D02*
X68857142Y-79783335D01*
X68857142Y-79783335D02*
X68933333Y-79821430D01*
X68933333Y-79821430D02*
X68971428Y-79859525D01*
X68971428Y-79859525D02*
X69009523Y-79935716D01*
X69009523Y-79935716D02*
X69009523Y-80011906D01*
X69009523Y-80011906D02*
X68971428Y-80126192D01*
X68971428Y-80126192D02*
X68514285Y-80583335D01*
X68514285Y-80583335D02*
X69009523Y-80583335D01*
X19485714Y-49833335D02*
X19219047Y-49452382D01*
X19028571Y-49833335D02*
X19028571Y-49033335D01*
X19028571Y-49033335D02*
X19333333Y-49033335D01*
X19333333Y-49033335D02*
X19409523Y-49071430D01*
X19409523Y-49071430D02*
X19447618Y-49109525D01*
X19447618Y-49109525D02*
X19485714Y-49185716D01*
X19485714Y-49185716D02*
X19485714Y-49300001D01*
X19485714Y-49300001D02*
X19447618Y-49376192D01*
X19447618Y-49376192D02*
X19409523Y-49414287D01*
X19409523Y-49414287D02*
X19333333Y-49452382D01*
X19333333Y-49452382D02*
X19028571Y-49452382D01*
X20247618Y-49833335D02*
X19790475Y-49833335D01*
X20019047Y-49833335D02*
X20019047Y-49033335D01*
X20019047Y-49033335D02*
X19942856Y-49147620D01*
X19942856Y-49147620D02*
X19866666Y-49223811D01*
X19866666Y-49223811D02*
X19790475Y-49261906D01*
X20514285Y-49033335D02*
X21047619Y-49033335D01*
X21047619Y-49033335D02*
X20704761Y-49833335D01*
X43485714Y-48833335D02*
X43219047Y-48452382D01*
X43028571Y-48833335D02*
X43028571Y-48033335D01*
X43028571Y-48033335D02*
X43333333Y-48033335D01*
X43333333Y-48033335D02*
X43409523Y-48071430D01*
X43409523Y-48071430D02*
X43447618Y-48109525D01*
X43447618Y-48109525D02*
X43485714Y-48185716D01*
X43485714Y-48185716D02*
X43485714Y-48300001D01*
X43485714Y-48300001D02*
X43447618Y-48376192D01*
X43447618Y-48376192D02*
X43409523Y-48414287D01*
X43409523Y-48414287D02*
X43333333Y-48452382D01*
X43333333Y-48452382D02*
X43028571Y-48452382D01*
X43790475Y-48109525D02*
X43828571Y-48071430D01*
X43828571Y-48071430D02*
X43904761Y-48033335D01*
X43904761Y-48033335D02*
X44095237Y-48033335D01*
X44095237Y-48033335D02*
X44171428Y-48071430D01*
X44171428Y-48071430D02*
X44209523Y-48109525D01*
X44209523Y-48109525D02*
X44247618Y-48185716D01*
X44247618Y-48185716D02*
X44247618Y-48261906D01*
X44247618Y-48261906D02*
X44209523Y-48376192D01*
X44209523Y-48376192D02*
X43752380Y-48833335D01*
X43752380Y-48833335D02*
X44247618Y-48833335D01*
X44933333Y-48300001D02*
X44933333Y-48833335D01*
X44742857Y-47995240D02*
X44552380Y-48566668D01*
X44552380Y-48566668D02*
X45047619Y-48566668D01*
X19866667Y-19833335D02*
X19600000Y-19452382D01*
X19409524Y-19833335D02*
X19409524Y-19033335D01*
X19409524Y-19033335D02*
X19714286Y-19033335D01*
X19714286Y-19033335D02*
X19790476Y-19071430D01*
X19790476Y-19071430D02*
X19828571Y-19109525D01*
X19828571Y-19109525D02*
X19866667Y-19185716D01*
X19866667Y-19185716D02*
X19866667Y-19300001D01*
X19866667Y-19300001D02*
X19828571Y-19376192D01*
X19828571Y-19376192D02*
X19790476Y-19414287D01*
X19790476Y-19414287D02*
X19714286Y-19452382D01*
X19714286Y-19452382D02*
X19409524Y-19452382D01*
X20133333Y-19033335D02*
X20666667Y-19033335D01*
X20666667Y-19033335D02*
X20323809Y-19833335D01*
X77485714Y-47507144D02*
X77447618Y-47545240D01*
X77447618Y-47545240D02*
X77333333Y-47583335D01*
X77333333Y-47583335D02*
X77257142Y-47583335D01*
X77257142Y-47583335D02*
X77142856Y-47545240D01*
X77142856Y-47545240D02*
X77066666Y-47469049D01*
X77066666Y-47469049D02*
X77028571Y-47392859D01*
X77028571Y-47392859D02*
X76990475Y-47240478D01*
X76990475Y-47240478D02*
X76990475Y-47126192D01*
X76990475Y-47126192D02*
X77028571Y-46973811D01*
X77028571Y-46973811D02*
X77066666Y-46897620D01*
X77066666Y-46897620D02*
X77142856Y-46821430D01*
X77142856Y-46821430D02*
X77257142Y-46783335D01*
X77257142Y-46783335D02*
X77333333Y-46783335D01*
X77333333Y-46783335D02*
X77447618Y-46821430D01*
X77447618Y-46821430D02*
X77485714Y-46859525D01*
X78247618Y-47583335D02*
X77790475Y-47583335D01*
X78019047Y-47583335D02*
X78019047Y-46783335D01*
X78019047Y-46783335D02*
X77942856Y-46897620D01*
X77942856Y-46897620D02*
X77866666Y-46973811D01*
X77866666Y-46973811D02*
X77790475Y-47011906D01*
X79009523Y-47583335D02*
X78552380Y-47583335D01*
X78780952Y-47583335D02*
X78780952Y-46783335D01*
X78780952Y-46783335D02*
X78704761Y-46897620D01*
X78704761Y-46897620D02*
X78628571Y-46973811D01*
X78628571Y-46973811D02*
X78552380Y-47011906D01*
X33028571Y-12363335D02*
X33028571Y-11563335D01*
X33028571Y-11563335D02*
X33219047Y-11563335D01*
X33219047Y-11563335D02*
X33333333Y-11601430D01*
X33333333Y-11601430D02*
X33409523Y-11677620D01*
X33409523Y-11677620D02*
X33447618Y-11753811D01*
X33447618Y-11753811D02*
X33485714Y-11906192D01*
X33485714Y-11906192D02*
X33485714Y-12020478D01*
X33485714Y-12020478D02*
X33447618Y-12172859D01*
X33447618Y-12172859D02*
X33409523Y-12249049D01*
X33409523Y-12249049D02*
X33333333Y-12325240D01*
X33333333Y-12325240D02*
X33219047Y-12363335D01*
X33219047Y-12363335D02*
X33028571Y-12363335D01*
X34247618Y-12363335D02*
X33790475Y-12363335D01*
X34019047Y-12363335D02*
X34019047Y-11563335D01*
X34019047Y-11563335D02*
X33942856Y-11677620D01*
X33942856Y-11677620D02*
X33866666Y-11753811D01*
X33866666Y-11753811D02*
X33790475Y-11791906D01*
X35009523Y-12363335D02*
X34552380Y-12363335D01*
X34780952Y-12363335D02*
X34780952Y-11563335D01*
X34780952Y-11563335D02*
X34704761Y-11677620D01*
X34704761Y-11677620D02*
X34628571Y-11753811D01*
X34628571Y-11753811D02*
X34552380Y-11791906D01*
X19485714Y-52833335D02*
X19219047Y-52452382D01*
X19028571Y-52833335D02*
X19028571Y-52033335D01*
X19028571Y-52033335D02*
X19333333Y-52033335D01*
X19333333Y-52033335D02*
X19409523Y-52071430D01*
X19409523Y-52071430D02*
X19447618Y-52109525D01*
X19447618Y-52109525D02*
X19485714Y-52185716D01*
X19485714Y-52185716D02*
X19485714Y-52300001D01*
X19485714Y-52300001D02*
X19447618Y-52376192D01*
X19447618Y-52376192D02*
X19409523Y-52414287D01*
X19409523Y-52414287D02*
X19333333Y-52452382D01*
X19333333Y-52452382D02*
X19028571Y-52452382D01*
X20247618Y-52833335D02*
X19790475Y-52833335D01*
X20019047Y-52833335D02*
X20019047Y-52033335D01*
X20019047Y-52033335D02*
X19942856Y-52147620D01*
X19942856Y-52147620D02*
X19866666Y-52223811D01*
X19866666Y-52223811D02*
X19790475Y-52261906D01*
X20704761Y-52376192D02*
X20628571Y-52338097D01*
X20628571Y-52338097D02*
X20590476Y-52300001D01*
X20590476Y-52300001D02*
X20552380Y-52223811D01*
X20552380Y-52223811D02*
X20552380Y-52185716D01*
X20552380Y-52185716D02*
X20590476Y-52109525D01*
X20590476Y-52109525D02*
X20628571Y-52071430D01*
X20628571Y-52071430D02*
X20704761Y-52033335D01*
X20704761Y-52033335D02*
X20857142Y-52033335D01*
X20857142Y-52033335D02*
X20933333Y-52071430D01*
X20933333Y-52071430D02*
X20971428Y-52109525D01*
X20971428Y-52109525D02*
X21009523Y-52185716D01*
X21009523Y-52185716D02*
X21009523Y-52223811D01*
X21009523Y-52223811D02*
X20971428Y-52300001D01*
X20971428Y-52300001D02*
X20933333Y-52338097D01*
X20933333Y-52338097D02*
X20857142Y-52376192D01*
X20857142Y-52376192D02*
X20704761Y-52376192D01*
X20704761Y-52376192D02*
X20628571Y-52414287D01*
X20628571Y-52414287D02*
X20590476Y-52452382D01*
X20590476Y-52452382D02*
X20552380Y-52528573D01*
X20552380Y-52528573D02*
X20552380Y-52680954D01*
X20552380Y-52680954D02*
X20590476Y-52757144D01*
X20590476Y-52757144D02*
X20628571Y-52795240D01*
X20628571Y-52795240D02*
X20704761Y-52833335D01*
X20704761Y-52833335D02*
X20857142Y-52833335D01*
X20857142Y-52833335D02*
X20933333Y-52795240D01*
X20933333Y-52795240D02*
X20971428Y-52757144D01*
X20971428Y-52757144D02*
X21009523Y-52680954D01*
X21009523Y-52680954D02*
X21009523Y-52528573D01*
X21009523Y-52528573D02*
X20971428Y-52452382D01*
X20971428Y-52452382D02*
X20933333Y-52414287D01*
X20933333Y-52414287D02*
X20857142Y-52376192D01*
X45710476Y-65868335D02*
X45710476Y-66515954D01*
X45710476Y-66515954D02*
X45748571Y-66592144D01*
X45748571Y-66592144D02*
X45786666Y-66630240D01*
X45786666Y-66630240D02*
X45862857Y-66668335D01*
X45862857Y-66668335D02*
X46015238Y-66668335D01*
X46015238Y-66668335D02*
X46091428Y-66630240D01*
X46091428Y-66630240D02*
X46129523Y-66592144D01*
X46129523Y-66592144D02*
X46167619Y-66515954D01*
X46167619Y-66515954D02*
X46167619Y-65868335D01*
X46891428Y-65868335D02*
X46739047Y-65868335D01*
X46739047Y-65868335D02*
X46662856Y-65906430D01*
X46662856Y-65906430D02*
X46624761Y-65944525D01*
X46624761Y-65944525D02*
X46548571Y-66058811D01*
X46548571Y-66058811D02*
X46510475Y-66211192D01*
X46510475Y-66211192D02*
X46510475Y-66515954D01*
X46510475Y-66515954D02*
X46548571Y-66592144D01*
X46548571Y-66592144D02*
X46586666Y-66630240D01*
X46586666Y-66630240D02*
X46662856Y-66668335D01*
X46662856Y-66668335D02*
X46815237Y-66668335D01*
X46815237Y-66668335D02*
X46891428Y-66630240D01*
X46891428Y-66630240D02*
X46929523Y-66592144D01*
X46929523Y-66592144D02*
X46967618Y-66515954D01*
X46967618Y-66515954D02*
X46967618Y-66325478D01*
X46967618Y-66325478D02*
X46929523Y-66249287D01*
X46929523Y-66249287D02*
X46891428Y-66211192D01*
X46891428Y-66211192D02*
X46815237Y-66173097D01*
X46815237Y-66173097D02*
X46662856Y-66173097D01*
X46662856Y-66173097D02*
X46586666Y-66211192D01*
X46586666Y-66211192D02*
X46548571Y-66249287D01*
X46548571Y-66249287D02*
X46510475Y-66325478D01*
X19485714Y-37833335D02*
X19219047Y-37452382D01*
X19028571Y-37833335D02*
X19028571Y-37033335D01*
X19028571Y-37033335D02*
X19333333Y-37033335D01*
X19333333Y-37033335D02*
X19409523Y-37071430D01*
X19409523Y-37071430D02*
X19447618Y-37109525D01*
X19447618Y-37109525D02*
X19485714Y-37185716D01*
X19485714Y-37185716D02*
X19485714Y-37300001D01*
X19485714Y-37300001D02*
X19447618Y-37376192D01*
X19447618Y-37376192D02*
X19409523Y-37414287D01*
X19409523Y-37414287D02*
X19333333Y-37452382D01*
X19333333Y-37452382D02*
X19028571Y-37452382D01*
X20247618Y-37833335D02*
X19790475Y-37833335D01*
X20019047Y-37833335D02*
X20019047Y-37033335D01*
X20019047Y-37033335D02*
X19942856Y-37147620D01*
X19942856Y-37147620D02*
X19866666Y-37223811D01*
X19866666Y-37223811D02*
X19790475Y-37261906D01*
X20514285Y-37033335D02*
X21009523Y-37033335D01*
X21009523Y-37033335D02*
X20742857Y-37338097D01*
X20742857Y-37338097D02*
X20857142Y-37338097D01*
X20857142Y-37338097D02*
X20933333Y-37376192D01*
X20933333Y-37376192D02*
X20971428Y-37414287D01*
X20971428Y-37414287D02*
X21009523Y-37490478D01*
X21009523Y-37490478D02*
X21009523Y-37680954D01*
X21009523Y-37680954D02*
X20971428Y-37757144D01*
X20971428Y-37757144D02*
X20933333Y-37795240D01*
X20933333Y-37795240D02*
X20857142Y-37833335D01*
X20857142Y-37833335D02*
X20628571Y-37833335D01*
X20628571Y-37833335D02*
X20552380Y-37795240D01*
X20552380Y-37795240D02*
X20514285Y-37757144D01*
X77485714Y-41507144D02*
X77447618Y-41545240D01*
X77447618Y-41545240D02*
X77333333Y-41583335D01*
X77333333Y-41583335D02*
X77257142Y-41583335D01*
X77257142Y-41583335D02*
X77142856Y-41545240D01*
X77142856Y-41545240D02*
X77066666Y-41469049D01*
X77066666Y-41469049D02*
X77028571Y-41392859D01*
X77028571Y-41392859D02*
X76990475Y-41240478D01*
X76990475Y-41240478D02*
X76990475Y-41126192D01*
X76990475Y-41126192D02*
X77028571Y-40973811D01*
X77028571Y-40973811D02*
X77066666Y-40897620D01*
X77066666Y-40897620D02*
X77142856Y-40821430D01*
X77142856Y-40821430D02*
X77257142Y-40783335D01*
X77257142Y-40783335D02*
X77333333Y-40783335D01*
X77333333Y-40783335D02*
X77447618Y-40821430D01*
X77447618Y-40821430D02*
X77485714Y-40859525D01*
X78247618Y-41583335D02*
X77790475Y-41583335D01*
X78019047Y-41583335D02*
X78019047Y-40783335D01*
X78019047Y-40783335D02*
X77942856Y-40897620D01*
X77942856Y-40897620D02*
X77866666Y-40973811D01*
X77866666Y-40973811D02*
X77790475Y-41011906D01*
X78742857Y-40783335D02*
X78819047Y-40783335D01*
X78819047Y-40783335D02*
X78895238Y-40821430D01*
X78895238Y-40821430D02*
X78933333Y-40859525D01*
X78933333Y-40859525D02*
X78971428Y-40935716D01*
X78971428Y-40935716D02*
X79009523Y-41088097D01*
X79009523Y-41088097D02*
X79009523Y-41278573D01*
X79009523Y-41278573D02*
X78971428Y-41430954D01*
X78971428Y-41430954D02*
X78933333Y-41507144D01*
X78933333Y-41507144D02*
X78895238Y-41545240D01*
X78895238Y-41545240D02*
X78819047Y-41583335D01*
X78819047Y-41583335D02*
X78742857Y-41583335D01*
X78742857Y-41583335D02*
X78666666Y-41545240D01*
X78666666Y-41545240D02*
X78628571Y-41507144D01*
X78628571Y-41507144D02*
X78590476Y-41430954D01*
X78590476Y-41430954D02*
X78552380Y-41278573D01*
X78552380Y-41278573D02*
X78552380Y-41088097D01*
X78552380Y-41088097D02*
X78590476Y-40935716D01*
X78590476Y-40935716D02*
X78628571Y-40859525D01*
X78628571Y-40859525D02*
X78666666Y-40821430D01*
X78666666Y-40821430D02*
X78742857Y-40783335D01*
X27409524Y-28863335D02*
X27409524Y-28063335D01*
X27409524Y-28063335D02*
X27600000Y-28063335D01*
X27600000Y-28063335D02*
X27714286Y-28101430D01*
X27714286Y-28101430D02*
X27790476Y-28177620D01*
X27790476Y-28177620D02*
X27828571Y-28253811D01*
X27828571Y-28253811D02*
X27866667Y-28406192D01*
X27866667Y-28406192D02*
X27866667Y-28520478D01*
X27866667Y-28520478D02*
X27828571Y-28672859D01*
X27828571Y-28672859D02*
X27790476Y-28749049D01*
X27790476Y-28749049D02*
X27714286Y-28825240D01*
X27714286Y-28825240D02*
X27600000Y-28863335D01*
X27600000Y-28863335D02*
X27409524Y-28863335D01*
X28590476Y-28063335D02*
X28209524Y-28063335D01*
X28209524Y-28063335D02*
X28171428Y-28444287D01*
X28171428Y-28444287D02*
X28209524Y-28406192D01*
X28209524Y-28406192D02*
X28285714Y-28368097D01*
X28285714Y-28368097D02*
X28476190Y-28368097D01*
X28476190Y-28368097D02*
X28552381Y-28406192D01*
X28552381Y-28406192D02*
X28590476Y-28444287D01*
X28590476Y-28444287D02*
X28628571Y-28520478D01*
X28628571Y-28520478D02*
X28628571Y-28710954D01*
X28628571Y-28710954D02*
X28590476Y-28787144D01*
X28590476Y-28787144D02*
X28552381Y-28825240D01*
X28552381Y-28825240D02*
X28476190Y-28863335D01*
X28476190Y-28863335D02*
X28285714Y-28863335D01*
X28285714Y-28863335D02*
X28209524Y-28825240D01*
X28209524Y-28825240D02*
X28171428Y-28787144D01*
X45390476Y-21263335D02*
X45390476Y-21910954D01*
X45390476Y-21910954D02*
X45428571Y-21987144D01*
X45428571Y-21987144D02*
X45466666Y-22025240D01*
X45466666Y-22025240D02*
X45542857Y-22063335D01*
X45542857Y-22063335D02*
X45695238Y-22063335D01*
X45695238Y-22063335D02*
X45771428Y-22025240D01*
X45771428Y-22025240D02*
X45809523Y-21987144D01*
X45809523Y-21987144D02*
X45847619Y-21910954D01*
X45847619Y-21910954D02*
X45847619Y-21263335D01*
X46190475Y-21339525D02*
X46228571Y-21301430D01*
X46228571Y-21301430D02*
X46304761Y-21263335D01*
X46304761Y-21263335D02*
X46495237Y-21263335D01*
X46495237Y-21263335D02*
X46571428Y-21301430D01*
X46571428Y-21301430D02*
X46609523Y-21339525D01*
X46609523Y-21339525D02*
X46647618Y-21415716D01*
X46647618Y-21415716D02*
X46647618Y-21491906D01*
X46647618Y-21491906D02*
X46609523Y-21606192D01*
X46609523Y-21606192D02*
X46152380Y-22063335D01*
X46152380Y-22063335D02*
X46647618Y-22063335D01*
X43485714Y-52833335D02*
X43219047Y-52452382D01*
X43028571Y-52833335D02*
X43028571Y-52033335D01*
X43028571Y-52033335D02*
X43333333Y-52033335D01*
X43333333Y-52033335D02*
X43409523Y-52071430D01*
X43409523Y-52071430D02*
X43447618Y-52109525D01*
X43447618Y-52109525D02*
X43485714Y-52185716D01*
X43485714Y-52185716D02*
X43485714Y-52300001D01*
X43485714Y-52300001D02*
X43447618Y-52376192D01*
X43447618Y-52376192D02*
X43409523Y-52414287D01*
X43409523Y-52414287D02*
X43333333Y-52452382D01*
X43333333Y-52452382D02*
X43028571Y-52452382D01*
X43790475Y-52109525D02*
X43828571Y-52071430D01*
X43828571Y-52071430D02*
X43904761Y-52033335D01*
X43904761Y-52033335D02*
X44095237Y-52033335D01*
X44095237Y-52033335D02*
X44171428Y-52071430D01*
X44171428Y-52071430D02*
X44209523Y-52109525D01*
X44209523Y-52109525D02*
X44247618Y-52185716D01*
X44247618Y-52185716D02*
X44247618Y-52261906D01*
X44247618Y-52261906D02*
X44209523Y-52376192D01*
X44209523Y-52376192D02*
X43752380Y-52833335D01*
X43752380Y-52833335D02*
X44247618Y-52833335D01*
X44933333Y-52033335D02*
X44780952Y-52033335D01*
X44780952Y-52033335D02*
X44704761Y-52071430D01*
X44704761Y-52071430D02*
X44666666Y-52109525D01*
X44666666Y-52109525D02*
X44590476Y-52223811D01*
X44590476Y-52223811D02*
X44552380Y-52376192D01*
X44552380Y-52376192D02*
X44552380Y-52680954D01*
X44552380Y-52680954D02*
X44590476Y-52757144D01*
X44590476Y-52757144D02*
X44628571Y-52795240D01*
X44628571Y-52795240D02*
X44704761Y-52833335D01*
X44704761Y-52833335D02*
X44857142Y-52833335D01*
X44857142Y-52833335D02*
X44933333Y-52795240D01*
X44933333Y-52795240D02*
X44971428Y-52757144D01*
X44971428Y-52757144D02*
X45009523Y-52680954D01*
X45009523Y-52680954D02*
X45009523Y-52490478D01*
X45009523Y-52490478D02*
X44971428Y-52414287D01*
X44971428Y-52414287D02*
X44933333Y-52376192D01*
X44933333Y-52376192D02*
X44857142Y-52338097D01*
X44857142Y-52338097D02*
X44704761Y-52338097D01*
X44704761Y-52338097D02*
X44628571Y-52376192D01*
X44628571Y-52376192D02*
X44590476Y-52414287D01*
X44590476Y-52414287D02*
X44552380Y-52490478D01*
X19485714Y-71833335D02*
X19219047Y-71452382D01*
X19028571Y-71833335D02*
X19028571Y-71033335D01*
X19028571Y-71033335D02*
X19333333Y-71033335D01*
X19333333Y-71033335D02*
X19409523Y-71071430D01*
X19409523Y-71071430D02*
X19447618Y-71109525D01*
X19447618Y-71109525D02*
X19485714Y-71185716D01*
X19485714Y-71185716D02*
X19485714Y-71300001D01*
X19485714Y-71300001D02*
X19447618Y-71376192D01*
X19447618Y-71376192D02*
X19409523Y-71414287D01*
X19409523Y-71414287D02*
X19333333Y-71452382D01*
X19333333Y-71452382D02*
X19028571Y-71452382D01*
X19790475Y-71109525D02*
X19828571Y-71071430D01*
X19828571Y-71071430D02*
X19904761Y-71033335D01*
X19904761Y-71033335D02*
X20095237Y-71033335D01*
X20095237Y-71033335D02*
X20171428Y-71071430D01*
X20171428Y-71071430D02*
X20209523Y-71109525D01*
X20209523Y-71109525D02*
X20247618Y-71185716D01*
X20247618Y-71185716D02*
X20247618Y-71261906D01*
X20247618Y-71261906D02*
X20209523Y-71376192D01*
X20209523Y-71376192D02*
X19752380Y-71833335D01*
X19752380Y-71833335D02*
X20247618Y-71833335D01*
X21009523Y-71833335D02*
X20552380Y-71833335D01*
X20780952Y-71833335D02*
X20780952Y-71033335D01*
X20780952Y-71033335D02*
X20704761Y-71147620D01*
X20704761Y-71147620D02*
X20628571Y-71223811D01*
X20628571Y-71223811D02*
X20552380Y-71261906D01*
X27409524Y-17863335D02*
X27409524Y-17063335D01*
X27409524Y-17063335D02*
X27600000Y-17063335D01*
X27600000Y-17063335D02*
X27714286Y-17101430D01*
X27714286Y-17101430D02*
X27790476Y-17177620D01*
X27790476Y-17177620D02*
X27828571Y-17253811D01*
X27828571Y-17253811D02*
X27866667Y-17406192D01*
X27866667Y-17406192D02*
X27866667Y-17520478D01*
X27866667Y-17520478D02*
X27828571Y-17672859D01*
X27828571Y-17672859D02*
X27790476Y-17749049D01*
X27790476Y-17749049D02*
X27714286Y-17825240D01*
X27714286Y-17825240D02*
X27600000Y-17863335D01*
X27600000Y-17863335D02*
X27409524Y-17863335D01*
X28133333Y-17063335D02*
X28628571Y-17063335D01*
X28628571Y-17063335D02*
X28361905Y-17368097D01*
X28361905Y-17368097D02*
X28476190Y-17368097D01*
X28476190Y-17368097D02*
X28552381Y-17406192D01*
X28552381Y-17406192D02*
X28590476Y-17444287D01*
X28590476Y-17444287D02*
X28628571Y-17520478D01*
X28628571Y-17520478D02*
X28628571Y-17710954D01*
X28628571Y-17710954D02*
X28590476Y-17787144D01*
X28590476Y-17787144D02*
X28552381Y-17825240D01*
X28552381Y-17825240D02*
X28476190Y-17863335D01*
X28476190Y-17863335D02*
X28247619Y-17863335D01*
X28247619Y-17863335D02*
X28171428Y-17825240D01*
X28171428Y-17825240D02*
X28133333Y-17787144D01*
X59866667Y-7833335D02*
X59600000Y-7452382D01*
X59409524Y-7833335D02*
X59409524Y-7033335D01*
X59409524Y-7033335D02*
X59714286Y-7033335D01*
X59714286Y-7033335D02*
X59790476Y-7071430D01*
X59790476Y-7071430D02*
X59828571Y-7109525D01*
X59828571Y-7109525D02*
X59866667Y-7185716D01*
X59866667Y-7185716D02*
X59866667Y-7300001D01*
X59866667Y-7300001D02*
X59828571Y-7376192D01*
X59828571Y-7376192D02*
X59790476Y-7414287D01*
X59790476Y-7414287D02*
X59714286Y-7452382D01*
X59714286Y-7452382D02*
X59409524Y-7452382D01*
X60171428Y-7109525D02*
X60209524Y-7071430D01*
X60209524Y-7071430D02*
X60285714Y-7033335D01*
X60285714Y-7033335D02*
X60476190Y-7033335D01*
X60476190Y-7033335D02*
X60552381Y-7071430D01*
X60552381Y-7071430D02*
X60590476Y-7109525D01*
X60590476Y-7109525D02*
X60628571Y-7185716D01*
X60628571Y-7185716D02*
X60628571Y-7261906D01*
X60628571Y-7261906D02*
X60590476Y-7376192D01*
X60590476Y-7376192D02*
X60133333Y-7833335D01*
X60133333Y-7833335D02*
X60628571Y-7833335D01*
X19485714Y-55833335D02*
X19219047Y-55452382D01*
X19028571Y-55833335D02*
X19028571Y-55033335D01*
X19028571Y-55033335D02*
X19333333Y-55033335D01*
X19333333Y-55033335D02*
X19409523Y-55071430D01*
X19409523Y-55071430D02*
X19447618Y-55109525D01*
X19447618Y-55109525D02*
X19485714Y-55185716D01*
X19485714Y-55185716D02*
X19485714Y-55300001D01*
X19485714Y-55300001D02*
X19447618Y-55376192D01*
X19447618Y-55376192D02*
X19409523Y-55414287D01*
X19409523Y-55414287D02*
X19333333Y-55452382D01*
X19333333Y-55452382D02*
X19028571Y-55452382D01*
X20247618Y-55833335D02*
X19790475Y-55833335D01*
X20019047Y-55833335D02*
X20019047Y-55033335D01*
X20019047Y-55033335D02*
X19942856Y-55147620D01*
X19942856Y-55147620D02*
X19866666Y-55223811D01*
X19866666Y-55223811D02*
X19790475Y-55261906D01*
X20628571Y-55833335D02*
X20780952Y-55833335D01*
X20780952Y-55833335D02*
X20857142Y-55795240D01*
X20857142Y-55795240D02*
X20895238Y-55757144D01*
X20895238Y-55757144D02*
X20971428Y-55642859D01*
X20971428Y-55642859D02*
X21009523Y-55490478D01*
X21009523Y-55490478D02*
X21009523Y-55185716D01*
X21009523Y-55185716D02*
X20971428Y-55109525D01*
X20971428Y-55109525D02*
X20933333Y-55071430D01*
X20933333Y-55071430D02*
X20857142Y-55033335D01*
X20857142Y-55033335D02*
X20704761Y-55033335D01*
X20704761Y-55033335D02*
X20628571Y-55071430D01*
X20628571Y-55071430D02*
X20590476Y-55109525D01*
X20590476Y-55109525D02*
X20552380Y-55185716D01*
X20552380Y-55185716D02*
X20552380Y-55376192D01*
X20552380Y-55376192D02*
X20590476Y-55452382D01*
X20590476Y-55452382D02*
X20628571Y-55490478D01*
X20628571Y-55490478D02*
X20704761Y-55528573D01*
X20704761Y-55528573D02*
X20857142Y-55528573D01*
X20857142Y-55528573D02*
X20933333Y-55490478D01*
X20933333Y-55490478D02*
X20971428Y-55452382D01*
X20971428Y-55452382D02*
X21009523Y-55376192D01*
X19485714Y-34833335D02*
X19219047Y-34452382D01*
X19028571Y-34833335D02*
X19028571Y-34033335D01*
X19028571Y-34033335D02*
X19333333Y-34033335D01*
X19333333Y-34033335D02*
X19409523Y-34071430D01*
X19409523Y-34071430D02*
X19447618Y-34109525D01*
X19447618Y-34109525D02*
X19485714Y-34185716D01*
X19485714Y-34185716D02*
X19485714Y-34300001D01*
X19485714Y-34300001D02*
X19447618Y-34376192D01*
X19447618Y-34376192D02*
X19409523Y-34414287D01*
X19409523Y-34414287D02*
X19333333Y-34452382D01*
X19333333Y-34452382D02*
X19028571Y-34452382D01*
X20247618Y-34833335D02*
X19790475Y-34833335D01*
X20019047Y-34833335D02*
X20019047Y-34033335D01*
X20019047Y-34033335D02*
X19942856Y-34147620D01*
X19942856Y-34147620D02*
X19866666Y-34223811D01*
X19866666Y-34223811D02*
X19790475Y-34261906D01*
X20552380Y-34109525D02*
X20590476Y-34071430D01*
X20590476Y-34071430D02*
X20666666Y-34033335D01*
X20666666Y-34033335D02*
X20857142Y-34033335D01*
X20857142Y-34033335D02*
X20933333Y-34071430D01*
X20933333Y-34071430D02*
X20971428Y-34109525D01*
X20971428Y-34109525D02*
X21009523Y-34185716D01*
X21009523Y-34185716D02*
X21009523Y-34261906D01*
X21009523Y-34261906D02*
X20971428Y-34376192D01*
X20971428Y-34376192D02*
X20514285Y-34833335D01*
X20514285Y-34833335D02*
X21009523Y-34833335D01*
X43485714Y-71833335D02*
X43219047Y-71452382D01*
X43028571Y-71833335D02*
X43028571Y-71033335D01*
X43028571Y-71033335D02*
X43333333Y-71033335D01*
X43333333Y-71033335D02*
X43409523Y-71071430D01*
X43409523Y-71071430D02*
X43447618Y-71109525D01*
X43447618Y-71109525D02*
X43485714Y-71185716D01*
X43485714Y-71185716D02*
X43485714Y-71300001D01*
X43485714Y-71300001D02*
X43447618Y-71376192D01*
X43447618Y-71376192D02*
X43409523Y-71414287D01*
X43409523Y-71414287D02*
X43333333Y-71452382D01*
X43333333Y-71452382D02*
X43028571Y-71452382D01*
X43790475Y-71109525D02*
X43828571Y-71071430D01*
X43828571Y-71071430D02*
X43904761Y-71033335D01*
X43904761Y-71033335D02*
X44095237Y-71033335D01*
X44095237Y-71033335D02*
X44171428Y-71071430D01*
X44171428Y-71071430D02*
X44209523Y-71109525D01*
X44209523Y-71109525D02*
X44247618Y-71185716D01*
X44247618Y-71185716D02*
X44247618Y-71261906D01*
X44247618Y-71261906D02*
X44209523Y-71376192D01*
X44209523Y-71376192D02*
X43752380Y-71833335D01*
X43752380Y-71833335D02*
X44247618Y-71833335D01*
X44971428Y-71033335D02*
X44590476Y-71033335D01*
X44590476Y-71033335D02*
X44552380Y-71414287D01*
X44552380Y-71414287D02*
X44590476Y-71376192D01*
X44590476Y-71376192D02*
X44666666Y-71338097D01*
X44666666Y-71338097D02*
X44857142Y-71338097D01*
X44857142Y-71338097D02*
X44933333Y-71376192D01*
X44933333Y-71376192D02*
X44971428Y-71414287D01*
X44971428Y-71414287D02*
X45009523Y-71490478D01*
X45009523Y-71490478D02*
X45009523Y-71680954D01*
X45009523Y-71680954D02*
X44971428Y-71757144D01*
X44971428Y-71757144D02*
X44933333Y-71795240D01*
X44933333Y-71795240D02*
X44857142Y-71833335D01*
X44857142Y-71833335D02*
X44666666Y-71833335D01*
X44666666Y-71833335D02*
X44590476Y-71795240D01*
X44590476Y-71795240D02*
X44552380Y-71757144D01*
X15485714Y-52833335D02*
X15219047Y-52452382D01*
X15028571Y-52833335D02*
X15028571Y-52033335D01*
X15028571Y-52033335D02*
X15333333Y-52033335D01*
X15333333Y-52033335D02*
X15409523Y-52071430D01*
X15409523Y-52071430D02*
X15447618Y-52109525D01*
X15447618Y-52109525D02*
X15485714Y-52185716D01*
X15485714Y-52185716D02*
X15485714Y-52300001D01*
X15485714Y-52300001D02*
X15447618Y-52376192D01*
X15447618Y-52376192D02*
X15409523Y-52414287D01*
X15409523Y-52414287D02*
X15333333Y-52452382D01*
X15333333Y-52452382D02*
X15028571Y-52452382D01*
X15790475Y-52109525D02*
X15828571Y-52071430D01*
X15828571Y-52071430D02*
X15904761Y-52033335D01*
X15904761Y-52033335D02*
X16095237Y-52033335D01*
X16095237Y-52033335D02*
X16171428Y-52071430D01*
X16171428Y-52071430D02*
X16209523Y-52109525D01*
X16209523Y-52109525D02*
X16247618Y-52185716D01*
X16247618Y-52185716D02*
X16247618Y-52261906D01*
X16247618Y-52261906D02*
X16209523Y-52376192D01*
X16209523Y-52376192D02*
X15752380Y-52833335D01*
X15752380Y-52833335D02*
X16247618Y-52833335D01*
X16552380Y-52109525D02*
X16590476Y-52071430D01*
X16590476Y-52071430D02*
X16666666Y-52033335D01*
X16666666Y-52033335D02*
X16857142Y-52033335D01*
X16857142Y-52033335D02*
X16933333Y-52071430D01*
X16933333Y-52071430D02*
X16971428Y-52109525D01*
X16971428Y-52109525D02*
X17009523Y-52185716D01*
X17009523Y-52185716D02*
X17009523Y-52261906D01*
X17009523Y-52261906D02*
X16971428Y-52376192D01*
X16971428Y-52376192D02*
X16514285Y-52833335D01*
X16514285Y-52833335D02*
X17009523Y-52833335D01*
X69866667Y-33757144D02*
X69828571Y-33795240D01*
X69828571Y-33795240D02*
X69714286Y-33833335D01*
X69714286Y-33833335D02*
X69638095Y-33833335D01*
X69638095Y-33833335D02*
X69523809Y-33795240D01*
X69523809Y-33795240D02*
X69447619Y-33719049D01*
X69447619Y-33719049D02*
X69409524Y-33642859D01*
X69409524Y-33642859D02*
X69371428Y-33490478D01*
X69371428Y-33490478D02*
X69371428Y-33376192D01*
X69371428Y-33376192D02*
X69409524Y-33223811D01*
X69409524Y-33223811D02*
X69447619Y-33147620D01*
X69447619Y-33147620D02*
X69523809Y-33071430D01*
X69523809Y-33071430D02*
X69638095Y-33033335D01*
X69638095Y-33033335D02*
X69714286Y-33033335D01*
X69714286Y-33033335D02*
X69828571Y-33071430D01*
X69828571Y-33071430D02*
X69866667Y-33109525D01*
X70247619Y-33833335D02*
X70400000Y-33833335D01*
X70400000Y-33833335D02*
X70476190Y-33795240D01*
X70476190Y-33795240D02*
X70514286Y-33757144D01*
X70514286Y-33757144D02*
X70590476Y-33642859D01*
X70590476Y-33642859D02*
X70628571Y-33490478D01*
X70628571Y-33490478D02*
X70628571Y-33185716D01*
X70628571Y-33185716D02*
X70590476Y-33109525D01*
X70590476Y-33109525D02*
X70552381Y-33071430D01*
X70552381Y-33071430D02*
X70476190Y-33033335D01*
X70476190Y-33033335D02*
X70323809Y-33033335D01*
X70323809Y-33033335D02*
X70247619Y-33071430D01*
X70247619Y-33071430D02*
X70209524Y-33109525D01*
X70209524Y-33109525D02*
X70171428Y-33185716D01*
X70171428Y-33185716D02*
X70171428Y-33376192D01*
X70171428Y-33376192D02*
X70209524Y-33452382D01*
X70209524Y-33452382D02*
X70247619Y-33490478D01*
X70247619Y-33490478D02*
X70323809Y-33528573D01*
X70323809Y-33528573D02*
X70476190Y-33528573D01*
X70476190Y-33528573D02*
X70552381Y-33490478D01*
X70552381Y-33490478D02*
X70590476Y-33452382D01*
X70590476Y-33452382D02*
X70628571Y-33376192D01*
X19485714Y-46833335D02*
X19219047Y-46452382D01*
X19028571Y-46833335D02*
X19028571Y-46033335D01*
X19028571Y-46033335D02*
X19333333Y-46033335D01*
X19333333Y-46033335D02*
X19409523Y-46071430D01*
X19409523Y-46071430D02*
X19447618Y-46109525D01*
X19447618Y-46109525D02*
X19485714Y-46185716D01*
X19485714Y-46185716D02*
X19485714Y-46300001D01*
X19485714Y-46300001D02*
X19447618Y-46376192D01*
X19447618Y-46376192D02*
X19409523Y-46414287D01*
X19409523Y-46414287D02*
X19333333Y-46452382D01*
X19333333Y-46452382D02*
X19028571Y-46452382D01*
X20247618Y-46833335D02*
X19790475Y-46833335D01*
X20019047Y-46833335D02*
X20019047Y-46033335D01*
X20019047Y-46033335D02*
X19942856Y-46147620D01*
X19942856Y-46147620D02*
X19866666Y-46223811D01*
X19866666Y-46223811D02*
X19790475Y-46261906D01*
X20933333Y-46033335D02*
X20780952Y-46033335D01*
X20780952Y-46033335D02*
X20704761Y-46071430D01*
X20704761Y-46071430D02*
X20666666Y-46109525D01*
X20666666Y-46109525D02*
X20590476Y-46223811D01*
X20590476Y-46223811D02*
X20552380Y-46376192D01*
X20552380Y-46376192D02*
X20552380Y-46680954D01*
X20552380Y-46680954D02*
X20590476Y-46757144D01*
X20590476Y-46757144D02*
X20628571Y-46795240D01*
X20628571Y-46795240D02*
X20704761Y-46833335D01*
X20704761Y-46833335D02*
X20857142Y-46833335D01*
X20857142Y-46833335D02*
X20933333Y-46795240D01*
X20933333Y-46795240D02*
X20971428Y-46757144D01*
X20971428Y-46757144D02*
X21009523Y-46680954D01*
X21009523Y-46680954D02*
X21009523Y-46490478D01*
X21009523Y-46490478D02*
X20971428Y-46414287D01*
X20971428Y-46414287D02*
X20933333Y-46376192D01*
X20933333Y-46376192D02*
X20857142Y-46338097D01*
X20857142Y-46338097D02*
X20704761Y-46338097D01*
X20704761Y-46338097D02*
X20628571Y-46376192D01*
X20628571Y-46376192D02*
X20590476Y-46414287D01*
X20590476Y-46414287D02*
X20552380Y-46490478D01*
X33028571Y-39863335D02*
X33028571Y-39063335D01*
X33028571Y-39063335D02*
X33219047Y-39063335D01*
X33219047Y-39063335D02*
X33333333Y-39101430D01*
X33333333Y-39101430D02*
X33409523Y-39177620D01*
X33409523Y-39177620D02*
X33447618Y-39253811D01*
X33447618Y-39253811D02*
X33485714Y-39406192D01*
X33485714Y-39406192D02*
X33485714Y-39520478D01*
X33485714Y-39520478D02*
X33447618Y-39672859D01*
X33447618Y-39672859D02*
X33409523Y-39749049D01*
X33409523Y-39749049D02*
X33333333Y-39825240D01*
X33333333Y-39825240D02*
X33219047Y-39863335D01*
X33219047Y-39863335D02*
X33028571Y-39863335D01*
X34247618Y-39863335D02*
X33790475Y-39863335D01*
X34019047Y-39863335D02*
X34019047Y-39063335D01*
X34019047Y-39063335D02*
X33942856Y-39177620D01*
X33942856Y-39177620D02*
X33866666Y-39253811D01*
X33866666Y-39253811D02*
X33790475Y-39291906D01*
X34933333Y-39063335D02*
X34780952Y-39063335D01*
X34780952Y-39063335D02*
X34704761Y-39101430D01*
X34704761Y-39101430D02*
X34666666Y-39139525D01*
X34666666Y-39139525D02*
X34590476Y-39253811D01*
X34590476Y-39253811D02*
X34552380Y-39406192D01*
X34552380Y-39406192D02*
X34552380Y-39710954D01*
X34552380Y-39710954D02*
X34590476Y-39787144D01*
X34590476Y-39787144D02*
X34628571Y-39825240D01*
X34628571Y-39825240D02*
X34704761Y-39863335D01*
X34704761Y-39863335D02*
X34857142Y-39863335D01*
X34857142Y-39863335D02*
X34933333Y-39825240D01*
X34933333Y-39825240D02*
X34971428Y-39787144D01*
X34971428Y-39787144D02*
X35009523Y-39710954D01*
X35009523Y-39710954D02*
X35009523Y-39520478D01*
X35009523Y-39520478D02*
X34971428Y-39444287D01*
X34971428Y-39444287D02*
X34933333Y-39406192D01*
X34933333Y-39406192D02*
X34857142Y-39368097D01*
X34857142Y-39368097D02*
X34704761Y-39368097D01*
X34704761Y-39368097D02*
X34628571Y-39406192D01*
X34628571Y-39406192D02*
X34590476Y-39444287D01*
X34590476Y-39444287D02*
X34552380Y-39520478D01*
X59866667Y-80757144D02*
X59828571Y-80795240D01*
X59828571Y-80795240D02*
X59714286Y-80833335D01*
X59714286Y-80833335D02*
X59638095Y-80833335D01*
X59638095Y-80833335D02*
X59523809Y-80795240D01*
X59523809Y-80795240D02*
X59447619Y-80719049D01*
X59447619Y-80719049D02*
X59409524Y-80642859D01*
X59409524Y-80642859D02*
X59371428Y-80490478D01*
X59371428Y-80490478D02*
X59371428Y-80376192D01*
X59371428Y-80376192D02*
X59409524Y-80223811D01*
X59409524Y-80223811D02*
X59447619Y-80147620D01*
X59447619Y-80147620D02*
X59523809Y-80071430D01*
X59523809Y-80071430D02*
X59638095Y-80033335D01*
X59638095Y-80033335D02*
X59714286Y-80033335D01*
X59714286Y-80033335D02*
X59828571Y-80071430D01*
X59828571Y-80071430D02*
X59866667Y-80109525D01*
X60323809Y-80376192D02*
X60247619Y-80338097D01*
X60247619Y-80338097D02*
X60209524Y-80300001D01*
X60209524Y-80300001D02*
X60171428Y-80223811D01*
X60171428Y-80223811D02*
X60171428Y-80185716D01*
X60171428Y-80185716D02*
X60209524Y-80109525D01*
X60209524Y-80109525D02*
X60247619Y-80071430D01*
X60247619Y-80071430D02*
X60323809Y-80033335D01*
X60323809Y-80033335D02*
X60476190Y-80033335D01*
X60476190Y-80033335D02*
X60552381Y-80071430D01*
X60552381Y-80071430D02*
X60590476Y-80109525D01*
X60590476Y-80109525D02*
X60628571Y-80185716D01*
X60628571Y-80185716D02*
X60628571Y-80223811D01*
X60628571Y-80223811D02*
X60590476Y-80300001D01*
X60590476Y-80300001D02*
X60552381Y-80338097D01*
X60552381Y-80338097D02*
X60476190Y-80376192D01*
X60476190Y-80376192D02*
X60323809Y-80376192D01*
X60323809Y-80376192D02*
X60247619Y-80414287D01*
X60247619Y-80414287D02*
X60209524Y-80452382D01*
X60209524Y-80452382D02*
X60171428Y-80528573D01*
X60171428Y-80528573D02*
X60171428Y-80680954D01*
X60171428Y-80680954D02*
X60209524Y-80757144D01*
X60209524Y-80757144D02*
X60247619Y-80795240D01*
X60247619Y-80795240D02*
X60323809Y-80833335D01*
X60323809Y-80833335D02*
X60476190Y-80833335D01*
X60476190Y-80833335D02*
X60552381Y-80795240D01*
X60552381Y-80795240D02*
X60590476Y-80757144D01*
X60590476Y-80757144D02*
X60628571Y-80680954D01*
X60628571Y-80680954D02*
X60628571Y-80528573D01*
X60628571Y-80528573D02*
X60590476Y-80452382D01*
X60590476Y-80452382D02*
X60552381Y-80414287D01*
X60552381Y-80414287D02*
X60476190Y-80376192D01*
%TO.C,C4*%
D12*
X59859420Y-29490000D02*
X60140580Y-29490000D01*
X59859420Y-30510000D02*
X60140580Y-30510000D01*
%TO.C,D15*%
X33240000Y-34940000D02*
X34760000Y-34940000D01*
X33240000Y-34990000D02*
X33240000Y-34940000D01*
X33240000Y-36890000D02*
X33240000Y-36110000D01*
X33240000Y-38060000D02*
X33240000Y-38010000D01*
X34760000Y-34940000D02*
X34760000Y-35940000D01*
X34760000Y-37060000D02*
X34760000Y-38060000D01*
X34760000Y-38060000D02*
X33240000Y-38060000D01*
X32700000Y-36120000D02*
X32940000Y-36450000D01*
X32460000Y-36450000D01*
X32700000Y-36120000D01*
G36*
X32940000Y-36450000D02*
G01*
X32460000Y-36450000D01*
X32700000Y-36120000D01*
X32940000Y-36450000D01*
G37*
%TO.C,R27*%
X43762742Y-76477500D02*
X44237258Y-76477500D01*
X43762742Y-77522500D02*
X44237258Y-77522500D01*
%TO.C,R9*%
X19762742Y-26477500D02*
X20237258Y-26477500D01*
X19762742Y-27522500D02*
X20237258Y-27522500D01*
%TO.C,J6*%
X50620000Y-51620000D02*
X52000000Y-51620000D01*
X50620000Y-53000000D02*
X50620000Y-51620000D01*
X50620000Y-54270000D02*
X50620000Y-56920000D01*
X50620000Y-54270000D02*
X53380000Y-54270000D01*
X50620000Y-56920000D02*
X53380000Y-56920000D01*
X53380000Y-54270000D02*
X53380000Y-56920000D01*
%TO.C,R23*%
X19762742Y-76477500D02*
X20237258Y-76477500D01*
X19762742Y-77522500D02*
X20237258Y-77522500D01*
%TO.C,D17*%
X33240000Y-45940000D02*
X34760000Y-45940000D01*
X33240000Y-45990000D02*
X33240000Y-45940000D01*
X33240000Y-47890000D02*
X33240000Y-47110000D01*
X33240000Y-49060000D02*
X33240000Y-49010000D01*
X34760000Y-45940000D02*
X34760000Y-46940000D01*
X34760000Y-48060000D02*
X34760000Y-49060000D01*
X34760000Y-49060000D02*
X33240000Y-49060000D01*
X32700000Y-47120000D02*
X32940000Y-47450000D01*
X32460000Y-47450000D01*
X32700000Y-47120000D01*
G36*
X32940000Y-47450000D02*
G01*
X32460000Y-47450000D01*
X32700000Y-47120000D01*
X32940000Y-47450000D01*
G37*
%TO.C,J2*%
X88620000Y-5620000D02*
X90000000Y-5620000D01*
X88620000Y-7000000D02*
X88620000Y-5620000D01*
X88620000Y-8270000D02*
X88620000Y-56640000D01*
X88620000Y-8270000D02*
X91270000Y-8270000D01*
X88620000Y-56640000D02*
X93920000Y-56640000D01*
X91270000Y-5620000D02*
X93920000Y-5620000D01*
X91270000Y-8270000D02*
X91270000Y-5620000D01*
X93920000Y-5620000D02*
X93920000Y-56640000D01*
%TO.C,D4*%
X27240000Y-23940000D02*
X28760000Y-23940000D01*
X27240000Y-23990000D02*
X27240000Y-23940000D01*
X27240000Y-25890000D02*
X27240000Y-25110000D01*
X27240000Y-27060000D02*
X27240000Y-27010000D01*
X28760000Y-23940000D02*
X28760000Y-24940000D01*
X28760000Y-26060000D02*
X28760000Y-27060000D01*
X28760000Y-27060000D02*
X27240000Y-27060000D01*
X26700000Y-25120000D02*
X26940000Y-25450000D01*
X26460000Y-25450000D01*
X26700000Y-25120000D01*
G36*
X26940000Y-25450000D02*
G01*
X26460000Y-25450000D01*
X26700000Y-25120000D01*
X26940000Y-25450000D01*
G37*
%TO.C,U8*%
X76150000Y-29590000D02*
X79910000Y-29590000D01*
X76150000Y-36410000D02*
X79910000Y-36410000D01*
X79910000Y-29590000D02*
X79910000Y-30850000D01*
X79910000Y-36410000D02*
X79910000Y-35150000D01*
X74870000Y-29690000D02*
X74630000Y-29360000D01*
X75110000Y-29360000D01*
X74870000Y-29690000D01*
G36*
X74870000Y-29690000D02*
G01*
X74630000Y-29360000D01*
X75110000Y-29360000D01*
X74870000Y-29690000D01*
G37*
%TO.C,C6*%
X47659420Y-71990000D02*
X47940580Y-71990000D01*
X47659420Y-73010000D02*
X47940580Y-73010000D01*
%TO.C,U1*%
X43690000Y-8590000D02*
X48310000Y-8590000D01*
X48310000Y-15410000D02*
X43690000Y-15410000D01*
X42090000Y-9070000D02*
X41760000Y-9310000D01*
X41760000Y-8830000D01*
X42090000Y-9070000D01*
G36*
X42090000Y-9070000D02*
G01*
X41760000Y-9310000D01*
X41760000Y-8830000D01*
X42090000Y-9070000D01*
G37*
%TO.C,C1*%
X53859420Y-11490000D02*
X54140580Y-11490000D01*
X53859420Y-12510000D02*
X54140580Y-12510000D01*
%TO.C,R1*%
X19762742Y-8477500D02*
X20237258Y-8477500D01*
X19762742Y-9522500D02*
X20237258Y-9522500D01*
%TO.C,R15*%
X19762742Y-44477500D02*
X20237258Y-44477500D01*
X19762742Y-45522500D02*
X20237258Y-45522500D01*
%TO.C,J1*%
X6620000Y-5620000D02*
X8000000Y-5620000D01*
X6620000Y-7000000D02*
X6620000Y-5620000D01*
X6620000Y-8270000D02*
X6620000Y-56640000D01*
X6620000Y-8270000D02*
X9270000Y-8270000D01*
X6620000Y-56640000D02*
X11920000Y-56640000D01*
X9270000Y-5620000D02*
X11920000Y-5620000D01*
X9270000Y-8270000D02*
X9270000Y-5620000D01*
X11920000Y-5620000D02*
X11920000Y-56640000D01*
%TO.C,R20*%
X15762742Y-49477500D02*
X16237258Y-49477500D01*
X15762742Y-50522500D02*
X16237258Y-50522500D01*
%TO.C,U4*%
X57690000Y-18590000D02*
X62310000Y-18590000D01*
X62310000Y-25410000D02*
X57690000Y-25410000D01*
X56090000Y-19070000D02*
X55760000Y-19310000D01*
X55760000Y-18830000D01*
X56090000Y-19070000D01*
G36*
X56090000Y-19070000D02*
G01*
X55760000Y-19310000D01*
X55760000Y-18830000D01*
X56090000Y-19070000D01*
G37*
%TO.C,R5*%
X19762742Y-14477500D02*
X20237258Y-14477500D01*
X19762742Y-15522500D02*
X20237258Y-15522500D01*
%TO.C,R14*%
X19762742Y-41477500D02*
X20237258Y-41477500D01*
X19762742Y-42522500D02*
X20237258Y-42522500D01*
%TO.C,D13*%
X33240000Y-23940000D02*
X34760000Y-23940000D01*
X33240000Y-23990000D02*
X33240000Y-23940000D01*
X33240000Y-25890000D02*
X33240000Y-25110000D01*
X33240000Y-27060000D02*
X33240000Y-27010000D01*
X34760000Y-23940000D02*
X34760000Y-24940000D01*
X34760000Y-26060000D02*
X34760000Y-27060000D01*
X34760000Y-27060000D02*
X33240000Y-27060000D01*
X32700000Y-25120000D02*
X32940000Y-25450000D01*
X32460000Y-25450000D01*
X32700000Y-25120000D01*
G36*
X32940000Y-25450000D02*
G01*
X32460000Y-25450000D01*
X32700000Y-25120000D01*
X32940000Y-25450000D01*
G37*
%TO.C,D12*%
X33240000Y-18440000D02*
X34760000Y-18440000D01*
X33240000Y-18490000D02*
X33240000Y-18440000D01*
X33240000Y-20390000D02*
X33240000Y-19610000D01*
X33240000Y-21560000D02*
X33240000Y-21510000D01*
X34760000Y-18440000D02*
X34760000Y-19440000D01*
X34760000Y-20560000D02*
X34760000Y-21560000D01*
X34760000Y-21560000D02*
X33240000Y-21560000D01*
X32700000Y-19620000D02*
X32940000Y-19950000D01*
X32460000Y-19950000D01*
X32700000Y-19620000D01*
G36*
X32940000Y-19950000D02*
G01*
X32460000Y-19950000D01*
X32700000Y-19620000D01*
X32940000Y-19950000D01*
G37*
%TO.C,D8*%
X27240000Y-45940000D02*
X28760000Y-45940000D01*
X27240000Y-45990000D02*
X27240000Y-45940000D01*
X27240000Y-47890000D02*
X27240000Y-47110000D01*
X27240000Y-49060000D02*
X27240000Y-49010000D01*
X28760000Y-45940000D02*
X28760000Y-46940000D01*
X28760000Y-48060000D02*
X28760000Y-49060000D01*
X28760000Y-49060000D02*
X27240000Y-49060000D01*
X26700000Y-47120000D02*
X26940000Y-47450000D01*
X26460000Y-47450000D01*
X26700000Y-47120000D01*
G36*
X26940000Y-47450000D02*
G01*
X26460000Y-47450000D01*
X26700000Y-47120000D01*
X26940000Y-47450000D01*
G37*
%TO.C,J8*%
X73160000Y-9960000D02*
X74900000Y-9960000D01*
X73160000Y-11700000D02*
X73160000Y-9960000D01*
X73400000Y-10200000D02*
X76200000Y-10200000D01*
X73400000Y-24800000D02*
X73400000Y-10200000D01*
X79800000Y-10200000D02*
X82600000Y-10200000D01*
X82600000Y-10200000D02*
X82600000Y-12200000D01*
X82600000Y-15800000D02*
X82600000Y-24800000D01*
X82600000Y-24800000D02*
X73400000Y-24800000D01*
%TO.C,J3*%
X58620000Y-38620000D02*
X60000000Y-38620000D01*
X58620000Y-40000000D02*
X58620000Y-38620000D01*
X58620000Y-41270000D02*
X58620000Y-49000000D01*
X58620000Y-41270000D02*
X61380000Y-41270000D01*
X58620000Y-49000000D02*
X61380000Y-49000000D01*
X61380000Y-41270000D02*
X61380000Y-49000000D01*
%TO.C,D10*%
X33240000Y-7440000D02*
X34760000Y-7440000D01*
X33240000Y-7490000D02*
X33240000Y-7440000D01*
X33240000Y-9390000D02*
X33240000Y-8610000D01*
X33240000Y-10560000D02*
X33240000Y-10510000D01*
X34760000Y-7440000D02*
X34760000Y-8440000D01*
X34760000Y-9560000D02*
X34760000Y-10560000D01*
X34760000Y-10560000D02*
X33240000Y-10560000D01*
X32700000Y-8620000D02*
X32940000Y-8950000D01*
X32460000Y-8950000D01*
X32700000Y-8620000D01*
G36*
X32940000Y-8950000D02*
G01*
X32460000Y-8950000D01*
X32700000Y-8620000D01*
X32940000Y-8950000D01*
G37*
%TO.C,C2*%
X53859420Y-25490000D02*
X54140580Y-25490000D01*
X53859420Y-26510000D02*
X54140580Y-26510000D01*
%TO.C,U3*%
X43690000Y-36590000D02*
X48310000Y-36590000D01*
X48310000Y-43410000D02*
X43690000Y-43410000D01*
X42090000Y-37070000D02*
X41760000Y-37310000D01*
X41760000Y-36830000D01*
X42090000Y-37070000D01*
G36*
X42090000Y-37070000D02*
G01*
X41760000Y-37310000D01*
X41760000Y-36830000D01*
X42090000Y-37070000D01*
G37*
%TO.C,D7*%
X27240000Y-40440000D02*
X28760000Y-40440000D01*
X27240000Y-40490000D02*
X27240000Y-40440000D01*
X27240000Y-42390000D02*
X27240000Y-41610000D01*
X27240000Y-43560000D02*
X27240000Y-43510000D01*
X28760000Y-40440000D02*
X28760000Y-41440000D01*
X28760000Y-42560000D02*
X28760000Y-43560000D01*
X28760000Y-43560000D02*
X27240000Y-43560000D01*
X26700000Y-41620000D02*
X26940000Y-41950000D01*
X26460000Y-41950000D01*
X26700000Y-41620000D01*
G36*
X26940000Y-41950000D02*
G01*
X26460000Y-41950000D01*
X26700000Y-41620000D01*
X26940000Y-41950000D01*
G37*
%TO.C,D14*%
X33240000Y-29440000D02*
X34760000Y-29440000D01*
X33240000Y-29490000D02*
X33240000Y-29440000D01*
X33240000Y-31390000D02*
X33240000Y-30610000D01*
X33240000Y-32560000D02*
X33240000Y-32510000D01*
X34760000Y-29440000D02*
X34760000Y-30440000D01*
X34760000Y-31560000D02*
X34760000Y-32560000D01*
X34760000Y-32560000D02*
X33240000Y-32560000D01*
X32700000Y-30620000D02*
X32940000Y-30950000D01*
X32460000Y-30950000D01*
X32700000Y-30620000D01*
G36*
X32940000Y-30950000D02*
G01*
X32460000Y-30950000D01*
X32700000Y-30620000D01*
X32940000Y-30950000D01*
G37*
%TO.C,C7*%
X59859420Y-54490000D02*
X60140580Y-54490000D01*
X59859420Y-55510000D02*
X60140580Y-55510000D01*
%TO.C,U5*%
X11050000Y-63660000D02*
X11050000Y-68960000D01*
X11050000Y-68960000D02*
X21330000Y-68960000D01*
X21330000Y-63660000D02*
X11050000Y-63660000D01*
X21330000Y-65310000D02*
X21330000Y-63660000D01*
X21330000Y-68960000D02*
X21330000Y-67310000D01*
X21330000Y-67310000D02*
G75*
G02*
X21330000Y-65310000I0J1000000D01*
G01*
%TO.C,R6*%
X19762742Y-17477500D02*
X20237258Y-17477500D01*
X19762742Y-18522500D02*
X20237258Y-18522500D01*
%TO.C,C5*%
X23659420Y-71990000D02*
X23940580Y-71990000D01*
X23659420Y-73010000D02*
X23940580Y-73010000D01*
%TO.C,R10*%
X19762742Y-29477500D02*
X20237258Y-29477500D01*
X19762742Y-30522500D02*
X20237258Y-30522500D01*
%TO.C,R11*%
X19762742Y-32477500D02*
X20237258Y-32477500D01*
X19762742Y-33522500D02*
X20237258Y-33522500D01*
%TO.C,R4*%
X59762742Y-11477500D02*
X60237258Y-11477500D01*
X59762742Y-12522500D02*
X60237258Y-12522500D01*
%TO.C,D1*%
X27240000Y-7440000D02*
X28760000Y-7440000D01*
X27240000Y-7490000D02*
X27240000Y-7440000D01*
X27240000Y-9390000D02*
X27240000Y-8610000D01*
X27240000Y-10560000D02*
X27240000Y-10510000D01*
X28760000Y-7440000D02*
X28760000Y-8440000D01*
X28760000Y-9560000D02*
X28760000Y-10560000D01*
X28760000Y-10560000D02*
X27240000Y-10560000D01*
X26700000Y-8620000D02*
X26940000Y-8950000D01*
X26460000Y-8950000D01*
X26700000Y-8620000D01*
G36*
X26940000Y-8950000D02*
G01*
X26460000Y-8950000D01*
X26700000Y-8620000D01*
X26940000Y-8950000D01*
G37*
%TO.C,J7*%
X94620000Y-73620000D02*
X96000000Y-73620000D01*
X94620000Y-75000000D02*
X94620000Y-73620000D01*
X94620000Y-76270000D02*
X94620000Y-78920000D01*
X94620000Y-76270000D02*
X97380000Y-76270000D01*
X94620000Y-78920000D02*
X97380000Y-78920000D01*
X97380000Y-76270000D02*
X97380000Y-78920000D01*
%TO.C,C3*%
X53859420Y-39490000D02*
X54140580Y-39490000D01*
X53859420Y-40510000D02*
X54140580Y-40510000D01*
%TO.C,D9*%
X27240000Y-51440000D02*
X28760000Y-51440000D01*
X27240000Y-51490000D02*
X27240000Y-51440000D01*
X27240000Y-53390000D02*
X27240000Y-52610000D01*
X27240000Y-54560000D02*
X27240000Y-54510000D01*
X28760000Y-51440000D02*
X28760000Y-52440000D01*
X28760000Y-53560000D02*
X28760000Y-54560000D01*
X28760000Y-54560000D02*
X27240000Y-54560000D01*
X26700000Y-52620000D02*
X26940000Y-52950000D01*
X26460000Y-52950000D01*
X26700000Y-52620000D01*
G36*
X26940000Y-52950000D02*
G01*
X26460000Y-52950000D01*
X26700000Y-52620000D01*
X26940000Y-52950000D01*
G37*
%TO.C,D2*%
X27240000Y-12940000D02*
X28760000Y-12940000D01*
X27240000Y-12990000D02*
X27240000Y-12940000D01*
X27240000Y-14890000D02*
X27240000Y-14110000D01*
X27240000Y-16060000D02*
X27240000Y-16010000D01*
X28760000Y-12940000D02*
X28760000Y-13940000D01*
X28760000Y-15060000D02*
X28760000Y-16060000D01*
X28760000Y-16060000D02*
X27240000Y-16060000D01*
X26700000Y-14120000D02*
X26940000Y-14450000D01*
X26460000Y-14450000D01*
X26700000Y-14120000D01*
G36*
X26940000Y-14450000D02*
G01*
X26460000Y-14450000D01*
X26700000Y-14120000D01*
X26940000Y-14450000D01*
G37*
%TO.C,R3*%
X19762742Y-11477500D02*
X20237258Y-11477500D01*
X19762742Y-12522500D02*
X20237258Y-12522500D01*
%TO.C,U7*%
X62965000Y-58990000D02*
X69285000Y-58990000D01*
X62965000Y-60904000D02*
X62965000Y-58990000D01*
X62965000Y-78710000D02*
X62965000Y-61496000D01*
X69285000Y-58990000D02*
X69285000Y-78710000D01*
X69285000Y-78710000D02*
X62965000Y-78710000D01*
X62965000Y-61200000D02*
X62495000Y-61540000D01*
X62495000Y-60860000D01*
X62965000Y-61200000D01*
G36*
X62965000Y-61200000D02*
G01*
X62495000Y-61540000D01*
X62495000Y-60860000D01*
X62965000Y-61200000D01*
G37*
%TO.C,D6*%
X27240000Y-34940000D02*
X28760000Y-34940000D01*
X27240000Y-34990000D02*
X27240000Y-34940000D01*
X27240000Y-36890000D02*
X27240000Y-36110000D01*
X27240000Y-38060000D02*
X27240000Y-38010000D01*
X28760000Y-34940000D02*
X28760000Y-35940000D01*
X28760000Y-37060000D02*
X28760000Y-38060000D01*
X28760000Y-38060000D02*
X27240000Y-38060000D01*
X26700000Y-36120000D02*
X26940000Y-36450000D01*
X26460000Y-36450000D01*
X26700000Y-36120000D01*
G36*
X26940000Y-36450000D02*
G01*
X26460000Y-36450000D01*
X26700000Y-36120000D01*
X26940000Y-36450000D01*
G37*
%TO.C,R8*%
X19762742Y-23477500D02*
X20237258Y-23477500D01*
X19762742Y-24522500D02*
X20237258Y-24522500D01*
%TO.C,J4*%
X71380000Y-69680000D02*
X91620000Y-69680000D01*
X71380000Y-72700000D02*
X91620000Y-72700000D01*
X71380000Y-77600000D02*
X91620000Y-77600000D01*
X71380000Y-79100000D02*
X91620000Y-79100000D01*
X71380000Y-79720000D02*
X71380000Y-69680000D01*
X73700000Y-79720000D02*
X71380000Y-79720000D01*
X91620000Y-69680000D02*
X91620000Y-79720000D01*
X91620000Y-79720000D02*
X74300000Y-79720000D01*
X74000000Y-79720000D02*
X74440000Y-80330000D01*
X73560000Y-80330000D01*
X74000000Y-79720000D01*
G36*
X74440000Y-80330000D02*
G01*
X73560000Y-80330000D01*
X74000000Y-79720000D01*
X74440000Y-80330000D01*
G37*
%TO.C,J5*%
X50620000Y-43620000D02*
X52000000Y-43620000D01*
X50620000Y-45000000D02*
X50620000Y-43620000D01*
X50620000Y-46270000D02*
X50620000Y-48920000D01*
X50620000Y-46270000D02*
X53380000Y-46270000D01*
X50620000Y-48920000D02*
X53380000Y-48920000D01*
X53380000Y-46270000D02*
X53380000Y-48920000D01*
%TO.C,C12*%
X67738748Y-81265000D02*
X68261252Y-81265000D01*
X67738748Y-82735000D02*
X68261252Y-82735000D01*
%TO.C,R17*%
X19762742Y-50477500D02*
X20237258Y-50477500D01*
X19762742Y-51522500D02*
X20237258Y-51522500D01*
%TO.C,R24*%
X43762742Y-49477500D02*
X44237258Y-49477500D01*
X43762742Y-50522500D02*
X44237258Y-50522500D01*
%TO.C,R7*%
X19762742Y-20477500D02*
X20237258Y-20477500D01*
X19762742Y-21522500D02*
X20237258Y-21522500D01*
%TO.C,C11*%
X77738748Y-48265000D02*
X78261252Y-48265000D01*
X77738748Y-49735000D02*
X78261252Y-49735000D01*
%TO.C,D11*%
X33240000Y-12940000D02*
X34760000Y-12940000D01*
X33240000Y-12990000D02*
X33240000Y-12940000D01*
X33240000Y-14890000D02*
X33240000Y-14110000D01*
X33240000Y-16060000D02*
X33240000Y-16010000D01*
X34760000Y-12940000D02*
X34760000Y-13940000D01*
X34760000Y-15060000D02*
X34760000Y-16060000D01*
X34760000Y-16060000D02*
X33240000Y-16060000D01*
X32700000Y-14120000D02*
X32940000Y-14450000D01*
X32460000Y-14450000D01*
X32700000Y-14120000D01*
G36*
X32940000Y-14450000D02*
G01*
X32460000Y-14450000D01*
X32700000Y-14120000D01*
X32940000Y-14450000D01*
G37*
%TO.C,R18*%
X19762742Y-53477500D02*
X20237258Y-53477500D01*
X19762742Y-54522500D02*
X20237258Y-54522500D01*
%TO.C,U6*%
X35050000Y-63660000D02*
X35050000Y-68960000D01*
X35050000Y-68960000D02*
X45330000Y-68960000D01*
X45330000Y-63660000D02*
X35050000Y-63660000D01*
X45330000Y-65310000D02*
X45330000Y-63660000D01*
X45330000Y-68960000D02*
X45330000Y-67310000D01*
X45330000Y-67310000D02*
G75*
G02*
X45330000Y-65310000I0J1000000D01*
G01*
%TO.C,R13*%
X19762742Y-38477500D02*
X20237258Y-38477500D01*
X19762742Y-39522500D02*
X20237258Y-39522500D01*
%TO.C,C10*%
X77738748Y-42265000D02*
X78261252Y-42265000D01*
X77738748Y-43735000D02*
X78261252Y-43735000D01*
%TO.C,D5*%
X27240000Y-29440000D02*
X28760000Y-29440000D01*
X27240000Y-29490000D02*
X27240000Y-29440000D01*
X27240000Y-31390000D02*
X27240000Y-30610000D01*
X27240000Y-32560000D02*
X27240000Y-32510000D01*
X28760000Y-29440000D02*
X28760000Y-30440000D01*
X28760000Y-31560000D02*
X28760000Y-32560000D01*
X28760000Y-32560000D02*
X27240000Y-32560000D01*
X26700000Y-30620000D02*
X26940000Y-30950000D01*
X26460000Y-30950000D01*
X26700000Y-30620000D01*
G36*
X26940000Y-30950000D02*
G01*
X26460000Y-30950000D01*
X26700000Y-30620000D01*
X26940000Y-30950000D01*
G37*
%TO.C,U2*%
X43690000Y-22590000D02*
X48310000Y-22590000D01*
X48310000Y-29410000D02*
X43690000Y-29410000D01*
X42090000Y-23070000D02*
X41760000Y-23310000D01*
X41760000Y-22830000D01*
X42090000Y-23070000D01*
G36*
X42090000Y-23070000D02*
G01*
X41760000Y-23310000D01*
X41760000Y-22830000D01*
X42090000Y-23070000D01*
G37*
%TO.C,R26*%
X43762742Y-53477500D02*
X44237258Y-53477500D01*
X43762742Y-54522500D02*
X44237258Y-54522500D01*
%TO.C,R21*%
X19762742Y-72477500D02*
X20237258Y-72477500D01*
X19762742Y-73522500D02*
X20237258Y-73522500D01*
%TO.C,D3*%
X27240000Y-18440000D02*
X28760000Y-18440000D01*
X27240000Y-18490000D02*
X27240000Y-18440000D01*
X27240000Y-20390000D02*
X27240000Y-19610000D01*
X27240000Y-21560000D02*
X27240000Y-21510000D01*
X28760000Y-18440000D02*
X28760000Y-19440000D01*
X28760000Y-20560000D02*
X28760000Y-21560000D01*
X28760000Y-21560000D02*
X27240000Y-21560000D01*
X26700000Y-19620000D02*
X26940000Y-19950000D01*
X26460000Y-19950000D01*
X26700000Y-19620000D01*
G36*
X26940000Y-19950000D02*
G01*
X26460000Y-19950000D01*
X26700000Y-19620000D01*
X26940000Y-19950000D01*
G37*
%TO.C,R2*%
X59762742Y-8477500D02*
X60237258Y-8477500D01*
X59762742Y-9522500D02*
X60237258Y-9522500D01*
%TO.C,R19*%
X19762742Y-56477500D02*
X20237258Y-56477500D01*
X19762742Y-57522500D02*
X20237258Y-57522500D01*
%TO.C,R12*%
X19762742Y-35477500D02*
X20237258Y-35477500D01*
X19762742Y-36522500D02*
X20237258Y-36522500D01*
%TO.C,R25*%
X43762742Y-72477500D02*
X44237258Y-72477500D01*
X43762742Y-73522500D02*
X44237258Y-73522500D01*
%TO.C,R22*%
X15762742Y-53477500D02*
X16237258Y-53477500D01*
X15762742Y-54522500D02*
X16237258Y-54522500D01*
%TO.C,C9*%
X69859420Y-34490000D02*
X70140580Y-34490000D01*
X69859420Y-35510000D02*
X70140580Y-35510000D01*
%TO.C,R16*%
X19762742Y-47477500D02*
X20237258Y-47477500D01*
X19762742Y-48522500D02*
X20237258Y-48522500D01*
%TO.C,D16*%
X33240000Y-40440000D02*
X34760000Y-40440000D01*
X33240000Y-40490000D02*
X33240000Y-40440000D01*
X33240000Y-42390000D02*
X33240000Y-41610000D01*
X33240000Y-43560000D02*
X33240000Y-43510000D01*
X34760000Y-40440000D02*
X34760000Y-41440000D01*
X34760000Y-42560000D02*
X34760000Y-43560000D01*
X34760000Y-43560000D02*
X33240000Y-43560000D01*
X32700000Y-41620000D02*
X32940000Y-41950000D01*
X32460000Y-41950000D01*
X32700000Y-41620000D01*
G36*
X32940000Y-41950000D02*
G01*
X32460000Y-41950000D01*
X32700000Y-41620000D01*
X32940000Y-41950000D01*
G37*
%TO.C,C8*%
X59859420Y-81490000D02*
X60140580Y-81490000D01*
X59859420Y-82510000D02*
X60140580Y-82510000D01*
%TD*%
M02*
