%TF.GenerationSoftware,KiCad,Pcbnew,10.0.5*%
%TF.CreationDate,2026-08-13T20:20:07-04:00*%
%TF.ProjectId,mule,6d756c65-2e6b-4696-9361-645f70636258,rev?*%
%TF.SameCoordinates,Original*%
%TF.FileFunction,AssemblyDrawing,Top*%
%FSLAX46Y46*%
G04 Gerber Fmt 4.6, Leading zero omitted, Abs format (unit mm)*
G04 Created by KiCad (PCBNEW 10.0.5) date 2026-08-13 20:20:07*
%MOMM*%
%LPD*%
G01*
G04 APERTURE LIST*
%ADD10C,0.060000*%
%ADD11C,0.110000*%
%ADD12C,0.150000*%
%ADD13C,0.120000*%
%ADD14C,0.080000*%
%ADD15C,0.100000*%
G04 APERTURE END LIST*
D10*
X59933333Y-30143832D02*
X59914285Y-30162880D01*
X59914285Y-30162880D02*
X59857143Y-30181927D01*
X59857143Y-30181927D02*
X59819047Y-30181927D01*
X59819047Y-30181927D02*
X59761904Y-30162880D01*
X59761904Y-30162880D02*
X59723809Y-30124784D01*
X59723809Y-30124784D02*
X59704762Y-30086689D01*
X59704762Y-30086689D02*
X59685714Y-30010499D01*
X59685714Y-30010499D02*
X59685714Y-29953356D01*
X59685714Y-29953356D02*
X59704762Y-29877165D01*
X59704762Y-29877165D02*
X59723809Y-29839070D01*
X59723809Y-29839070D02*
X59761904Y-29800975D01*
X59761904Y-29800975D02*
X59819047Y-29781927D01*
X59819047Y-29781927D02*
X59857143Y-29781927D01*
X59857143Y-29781927D02*
X59914285Y-29800975D01*
X59914285Y-29800975D02*
X59933333Y-29820022D01*
X60276190Y-29915260D02*
X60276190Y-30181927D01*
X60180952Y-29762880D02*
X60085714Y-30048594D01*
X60085714Y-30048594D02*
X60333333Y-30048594D01*
D11*
X34327365Y-37374285D02*
X33607365Y-37374285D01*
X33607365Y-37374285D02*
X33607365Y-37202856D01*
X33607365Y-37202856D02*
X33641651Y-37099999D01*
X33641651Y-37099999D02*
X33710222Y-37031428D01*
X33710222Y-37031428D02*
X33778794Y-36997142D01*
X33778794Y-36997142D02*
X33915937Y-36962856D01*
X33915937Y-36962856D02*
X34018794Y-36962856D01*
X34018794Y-36962856D02*
X34155937Y-36997142D01*
X34155937Y-36997142D02*
X34224508Y-37031428D01*
X34224508Y-37031428D02*
X34293080Y-37099999D01*
X34293080Y-37099999D02*
X34327365Y-37202856D01*
X34327365Y-37202856D02*
X34327365Y-37374285D01*
X34327365Y-36277142D02*
X34327365Y-36688571D01*
X34327365Y-36482856D02*
X33607365Y-36482856D01*
X33607365Y-36482856D02*
X33710222Y-36551428D01*
X33710222Y-36551428D02*
X33778794Y-36619999D01*
X33778794Y-36619999D02*
X33813080Y-36688571D01*
X33607365Y-35625714D02*
X33607365Y-35968571D01*
X33607365Y-35968571D02*
X33950222Y-36002857D01*
X33950222Y-36002857D02*
X33915937Y-35968571D01*
X33915937Y-35968571D02*
X33881651Y-35900000D01*
X33881651Y-35900000D02*
X33881651Y-35728571D01*
X33881651Y-35728571D02*
X33915937Y-35660000D01*
X33915937Y-35660000D02*
X33950222Y-35625714D01*
X33950222Y-35625714D02*
X34018794Y-35591428D01*
X34018794Y-35591428D02*
X34190222Y-35591428D01*
X34190222Y-35591428D02*
X34258794Y-35625714D01*
X34258794Y-35625714D02*
X34293080Y-35660000D01*
X34293080Y-35660000D02*
X34327365Y-35728571D01*
X34327365Y-35728571D02*
X34327365Y-35900000D01*
X34327365Y-35900000D02*
X34293080Y-35968571D01*
X34293080Y-35968571D02*
X34258794Y-36002857D01*
D10*
X43742857Y-77181927D02*
X43609524Y-76991451D01*
X43514286Y-77181927D02*
X43514286Y-76781927D01*
X43514286Y-76781927D02*
X43666667Y-76781927D01*
X43666667Y-76781927D02*
X43704762Y-76800975D01*
X43704762Y-76800975D02*
X43723809Y-76820022D01*
X43723809Y-76820022D02*
X43742857Y-76858118D01*
X43742857Y-76858118D02*
X43742857Y-76915260D01*
X43742857Y-76915260D02*
X43723809Y-76953356D01*
X43723809Y-76953356D02*
X43704762Y-76972403D01*
X43704762Y-76972403D02*
X43666667Y-76991451D01*
X43666667Y-76991451D02*
X43514286Y-76991451D01*
X43895238Y-76820022D02*
X43914286Y-76800975D01*
X43914286Y-76800975D02*
X43952381Y-76781927D01*
X43952381Y-76781927D02*
X44047619Y-76781927D01*
X44047619Y-76781927D02*
X44085714Y-76800975D01*
X44085714Y-76800975D02*
X44104762Y-76820022D01*
X44104762Y-76820022D02*
X44123809Y-76858118D01*
X44123809Y-76858118D02*
X44123809Y-76896213D01*
X44123809Y-76896213D02*
X44104762Y-76953356D01*
X44104762Y-76953356D02*
X43876190Y-77181927D01*
X43876190Y-77181927D02*
X44123809Y-77181927D01*
X44257142Y-76781927D02*
X44523809Y-76781927D01*
X44523809Y-76781927D02*
X44352380Y-77181927D01*
X19933333Y-27181927D02*
X19800000Y-26991451D01*
X19704762Y-27181927D02*
X19704762Y-26781927D01*
X19704762Y-26781927D02*
X19857143Y-26781927D01*
X19857143Y-26781927D02*
X19895238Y-26800975D01*
X19895238Y-26800975D02*
X19914285Y-26820022D01*
X19914285Y-26820022D02*
X19933333Y-26858118D01*
X19933333Y-26858118D02*
X19933333Y-26915260D01*
X19933333Y-26915260D02*
X19914285Y-26953356D01*
X19914285Y-26953356D02*
X19895238Y-26972403D01*
X19895238Y-26972403D02*
X19857143Y-26991451D01*
X19857143Y-26991451D02*
X19704762Y-26991451D01*
X20123809Y-27181927D02*
X20200000Y-27181927D01*
X20200000Y-27181927D02*
X20238095Y-27162880D01*
X20238095Y-27162880D02*
X20257143Y-27143832D01*
X20257143Y-27143832D02*
X20295238Y-27086689D01*
X20295238Y-27086689D02*
X20314285Y-27010499D01*
X20314285Y-27010499D02*
X20314285Y-26858118D01*
X20314285Y-26858118D02*
X20295238Y-26820022D01*
X20295238Y-26820022D02*
X20276190Y-26800975D01*
X20276190Y-26800975D02*
X20238095Y-26781927D01*
X20238095Y-26781927D02*
X20161904Y-26781927D01*
X20161904Y-26781927D02*
X20123809Y-26800975D01*
X20123809Y-26800975D02*
X20104762Y-26820022D01*
X20104762Y-26820022D02*
X20085714Y-26858118D01*
X20085714Y-26858118D02*
X20085714Y-26953356D01*
X20085714Y-26953356D02*
X20104762Y-26991451D01*
X20104762Y-26991451D02*
X20123809Y-27010499D01*
X20123809Y-27010499D02*
X20161904Y-27029546D01*
X20161904Y-27029546D02*
X20238095Y-27029546D01*
X20238095Y-27029546D02*
X20276190Y-27010499D01*
X20276190Y-27010499D02*
X20295238Y-26991451D01*
X20295238Y-26991451D02*
X20314285Y-26953356D01*
D12*
X51454819Y-54603333D02*
X52169104Y-54603333D01*
X52169104Y-54603333D02*
X52311961Y-54650952D01*
X52311961Y-54650952D02*
X52407200Y-54746190D01*
X52407200Y-54746190D02*
X52454819Y-54889047D01*
X52454819Y-54889047D02*
X52454819Y-54984285D01*
X51454819Y-53698571D02*
X51454819Y-53889047D01*
X51454819Y-53889047D02*
X51502438Y-53984285D01*
X51502438Y-53984285D02*
X51550057Y-54031904D01*
X51550057Y-54031904D02*
X51692914Y-54127142D01*
X51692914Y-54127142D02*
X51883390Y-54174761D01*
X51883390Y-54174761D02*
X52264342Y-54174761D01*
X52264342Y-54174761D02*
X52359580Y-54127142D01*
X52359580Y-54127142D02*
X52407200Y-54079523D01*
X52407200Y-54079523D02*
X52454819Y-53984285D01*
X52454819Y-53984285D02*
X52454819Y-53793809D01*
X52454819Y-53793809D02*
X52407200Y-53698571D01*
X52407200Y-53698571D02*
X52359580Y-53650952D01*
X52359580Y-53650952D02*
X52264342Y-53603333D01*
X52264342Y-53603333D02*
X52026247Y-53603333D01*
X52026247Y-53603333D02*
X51931009Y-53650952D01*
X51931009Y-53650952D02*
X51883390Y-53698571D01*
X51883390Y-53698571D02*
X51835771Y-53793809D01*
X51835771Y-53793809D02*
X51835771Y-53984285D01*
X51835771Y-53984285D02*
X51883390Y-54079523D01*
X51883390Y-54079523D02*
X51931009Y-54127142D01*
X51931009Y-54127142D02*
X52026247Y-54174761D01*
D10*
X19742857Y-77181927D02*
X19609524Y-76991451D01*
X19514286Y-77181927D02*
X19514286Y-76781927D01*
X19514286Y-76781927D02*
X19666667Y-76781927D01*
X19666667Y-76781927D02*
X19704762Y-76800975D01*
X19704762Y-76800975D02*
X19723809Y-76820022D01*
X19723809Y-76820022D02*
X19742857Y-76858118D01*
X19742857Y-76858118D02*
X19742857Y-76915260D01*
X19742857Y-76915260D02*
X19723809Y-76953356D01*
X19723809Y-76953356D02*
X19704762Y-76972403D01*
X19704762Y-76972403D02*
X19666667Y-76991451D01*
X19666667Y-76991451D02*
X19514286Y-76991451D01*
X19895238Y-76820022D02*
X19914286Y-76800975D01*
X19914286Y-76800975D02*
X19952381Y-76781927D01*
X19952381Y-76781927D02*
X20047619Y-76781927D01*
X20047619Y-76781927D02*
X20085714Y-76800975D01*
X20085714Y-76800975D02*
X20104762Y-76820022D01*
X20104762Y-76820022D02*
X20123809Y-76858118D01*
X20123809Y-76858118D02*
X20123809Y-76896213D01*
X20123809Y-76896213D02*
X20104762Y-76953356D01*
X20104762Y-76953356D02*
X19876190Y-77181927D01*
X19876190Y-77181927D02*
X20123809Y-77181927D01*
X20257142Y-76781927D02*
X20504761Y-76781927D01*
X20504761Y-76781927D02*
X20371428Y-76934308D01*
X20371428Y-76934308D02*
X20428571Y-76934308D01*
X20428571Y-76934308D02*
X20466666Y-76953356D01*
X20466666Y-76953356D02*
X20485714Y-76972403D01*
X20485714Y-76972403D02*
X20504761Y-77010499D01*
X20504761Y-77010499D02*
X20504761Y-77105737D01*
X20504761Y-77105737D02*
X20485714Y-77143832D01*
X20485714Y-77143832D02*
X20466666Y-77162880D01*
X20466666Y-77162880D02*
X20428571Y-77181927D01*
X20428571Y-77181927D02*
X20314285Y-77181927D01*
X20314285Y-77181927D02*
X20276190Y-77162880D01*
X20276190Y-77162880D02*
X20257142Y-77143832D01*
D11*
X34327365Y-48374285D02*
X33607365Y-48374285D01*
X33607365Y-48374285D02*
X33607365Y-48202856D01*
X33607365Y-48202856D02*
X33641651Y-48099999D01*
X33641651Y-48099999D02*
X33710222Y-48031428D01*
X33710222Y-48031428D02*
X33778794Y-47997142D01*
X33778794Y-47997142D02*
X33915937Y-47962856D01*
X33915937Y-47962856D02*
X34018794Y-47962856D01*
X34018794Y-47962856D02*
X34155937Y-47997142D01*
X34155937Y-47997142D02*
X34224508Y-48031428D01*
X34224508Y-48031428D02*
X34293080Y-48099999D01*
X34293080Y-48099999D02*
X34327365Y-48202856D01*
X34327365Y-48202856D02*
X34327365Y-48374285D01*
X34327365Y-47277142D02*
X34327365Y-47688571D01*
X34327365Y-47482856D02*
X33607365Y-47482856D01*
X33607365Y-47482856D02*
X33710222Y-47551428D01*
X33710222Y-47551428D02*
X33778794Y-47619999D01*
X33778794Y-47619999D02*
X33813080Y-47688571D01*
X33607365Y-47037142D02*
X33607365Y-46557142D01*
X33607365Y-46557142D02*
X34327365Y-46865714D01*
D12*
X90724819Y-31463333D02*
X91439104Y-31463333D01*
X91439104Y-31463333D02*
X91581961Y-31510952D01*
X91581961Y-31510952D02*
X91677200Y-31606190D01*
X91677200Y-31606190D02*
X91724819Y-31749047D01*
X91724819Y-31749047D02*
X91724819Y-31844285D01*
X90820057Y-31034761D02*
X90772438Y-30987142D01*
X90772438Y-30987142D02*
X90724819Y-30891904D01*
X90724819Y-30891904D02*
X90724819Y-30653809D01*
X90724819Y-30653809D02*
X90772438Y-30558571D01*
X90772438Y-30558571D02*
X90820057Y-30510952D01*
X90820057Y-30510952D02*
X90915295Y-30463333D01*
X90915295Y-30463333D02*
X91010533Y-30463333D01*
X91010533Y-30463333D02*
X91153390Y-30510952D01*
X91153390Y-30510952D02*
X91724819Y-31082380D01*
X91724819Y-31082380D02*
X91724819Y-30463333D01*
D11*
X28327365Y-26031428D02*
X27607365Y-26031428D01*
X27607365Y-26031428D02*
X27607365Y-25859999D01*
X27607365Y-25859999D02*
X27641651Y-25757142D01*
X27641651Y-25757142D02*
X27710222Y-25688571D01*
X27710222Y-25688571D02*
X27778794Y-25654285D01*
X27778794Y-25654285D02*
X27915937Y-25619999D01*
X27915937Y-25619999D02*
X28018794Y-25619999D01*
X28018794Y-25619999D02*
X28155937Y-25654285D01*
X28155937Y-25654285D02*
X28224508Y-25688571D01*
X28224508Y-25688571D02*
X28293080Y-25757142D01*
X28293080Y-25757142D02*
X28327365Y-25859999D01*
X28327365Y-25859999D02*
X28327365Y-26031428D01*
X27847365Y-25002857D02*
X28327365Y-25002857D01*
X27573080Y-25174285D02*
X28087365Y-25345714D01*
X28087365Y-25345714D02*
X28087365Y-24899999D01*
D13*
X77563855Y-33609523D02*
X78211474Y-33609523D01*
X78211474Y-33609523D02*
X78287664Y-33571428D01*
X78287664Y-33571428D02*
X78325760Y-33533333D01*
X78325760Y-33533333D02*
X78363855Y-33457142D01*
X78363855Y-33457142D02*
X78363855Y-33304761D01*
X78363855Y-33304761D02*
X78325760Y-33228571D01*
X78325760Y-33228571D02*
X78287664Y-33190476D01*
X78287664Y-33190476D02*
X78211474Y-33152380D01*
X78211474Y-33152380D02*
X77563855Y-33152380D01*
X77906712Y-32657143D02*
X77868617Y-32733333D01*
X77868617Y-32733333D02*
X77830521Y-32771428D01*
X77830521Y-32771428D02*
X77754331Y-32809524D01*
X77754331Y-32809524D02*
X77716236Y-32809524D01*
X77716236Y-32809524D02*
X77640045Y-32771428D01*
X77640045Y-32771428D02*
X77601950Y-32733333D01*
X77601950Y-32733333D02*
X77563855Y-32657143D01*
X77563855Y-32657143D02*
X77563855Y-32504762D01*
X77563855Y-32504762D02*
X77601950Y-32428571D01*
X77601950Y-32428571D02*
X77640045Y-32390476D01*
X77640045Y-32390476D02*
X77716236Y-32352381D01*
X77716236Y-32352381D02*
X77754331Y-32352381D01*
X77754331Y-32352381D02*
X77830521Y-32390476D01*
X77830521Y-32390476D02*
X77868617Y-32428571D01*
X77868617Y-32428571D02*
X77906712Y-32504762D01*
X77906712Y-32504762D02*
X77906712Y-32657143D01*
X77906712Y-32657143D02*
X77944807Y-32733333D01*
X77944807Y-32733333D02*
X77982902Y-32771428D01*
X77982902Y-32771428D02*
X78059093Y-32809524D01*
X78059093Y-32809524D02*
X78211474Y-32809524D01*
X78211474Y-32809524D02*
X78287664Y-32771428D01*
X78287664Y-32771428D02*
X78325760Y-32733333D01*
X78325760Y-32733333D02*
X78363855Y-32657143D01*
X78363855Y-32657143D02*
X78363855Y-32504762D01*
X78363855Y-32504762D02*
X78325760Y-32428571D01*
X78325760Y-32428571D02*
X78287664Y-32390476D01*
X78287664Y-32390476D02*
X78211474Y-32352381D01*
X78211474Y-32352381D02*
X78059093Y-32352381D01*
X78059093Y-32352381D02*
X77982902Y-32390476D01*
X77982902Y-32390476D02*
X77944807Y-32428571D01*
X77944807Y-32428571D02*
X77906712Y-32504762D01*
D10*
X47733333Y-72643832D02*
X47714285Y-72662880D01*
X47714285Y-72662880D02*
X47657143Y-72681927D01*
X47657143Y-72681927D02*
X47619047Y-72681927D01*
X47619047Y-72681927D02*
X47561904Y-72662880D01*
X47561904Y-72662880D02*
X47523809Y-72624784D01*
X47523809Y-72624784D02*
X47504762Y-72586689D01*
X47504762Y-72586689D02*
X47485714Y-72510499D01*
X47485714Y-72510499D02*
X47485714Y-72453356D01*
X47485714Y-72453356D02*
X47504762Y-72377165D01*
X47504762Y-72377165D02*
X47523809Y-72339070D01*
X47523809Y-72339070D02*
X47561904Y-72300975D01*
X47561904Y-72300975D02*
X47619047Y-72281927D01*
X47619047Y-72281927D02*
X47657143Y-72281927D01*
X47657143Y-72281927D02*
X47714285Y-72300975D01*
X47714285Y-72300975D02*
X47733333Y-72320022D01*
X48076190Y-72281927D02*
X48000000Y-72281927D01*
X48000000Y-72281927D02*
X47961904Y-72300975D01*
X47961904Y-72300975D02*
X47942857Y-72320022D01*
X47942857Y-72320022D02*
X47904762Y-72377165D01*
X47904762Y-72377165D02*
X47885714Y-72453356D01*
X47885714Y-72453356D02*
X47885714Y-72605737D01*
X47885714Y-72605737D02*
X47904762Y-72643832D01*
X47904762Y-72643832D02*
X47923809Y-72662880D01*
X47923809Y-72662880D02*
X47961904Y-72681927D01*
X47961904Y-72681927D02*
X48038095Y-72681927D01*
X48038095Y-72681927D02*
X48076190Y-72662880D01*
X48076190Y-72662880D02*
X48095238Y-72643832D01*
X48095238Y-72643832D02*
X48114285Y-72605737D01*
X48114285Y-72605737D02*
X48114285Y-72510499D01*
X48114285Y-72510499D02*
X48095238Y-72472403D01*
X48095238Y-72472403D02*
X48076190Y-72453356D01*
X48076190Y-72453356D02*
X48038095Y-72434308D01*
X48038095Y-72434308D02*
X47961904Y-72434308D01*
X47961904Y-72434308D02*
X47923809Y-72453356D01*
X47923809Y-72453356D02*
X47904762Y-72472403D01*
X47904762Y-72472403D02*
X47885714Y-72510499D01*
D12*
X45238095Y-11454819D02*
X45238095Y-12264342D01*
X45238095Y-12264342D02*
X45285714Y-12359580D01*
X45285714Y-12359580D02*
X45333333Y-12407200D01*
X45333333Y-12407200D02*
X45428571Y-12454819D01*
X45428571Y-12454819D02*
X45619047Y-12454819D01*
X45619047Y-12454819D02*
X45714285Y-12407200D01*
X45714285Y-12407200D02*
X45761904Y-12359580D01*
X45761904Y-12359580D02*
X45809523Y-12264342D01*
X45809523Y-12264342D02*
X45809523Y-11454819D01*
X46809523Y-12454819D02*
X46238095Y-12454819D01*
X46523809Y-12454819D02*
X46523809Y-11454819D01*
X46523809Y-11454819D02*
X46428571Y-11597676D01*
X46428571Y-11597676D02*
X46333333Y-11692914D01*
X46333333Y-11692914D02*
X46238095Y-11740533D01*
D10*
X53933333Y-12143832D02*
X53914285Y-12162880D01*
X53914285Y-12162880D02*
X53857143Y-12181927D01*
X53857143Y-12181927D02*
X53819047Y-12181927D01*
X53819047Y-12181927D02*
X53761904Y-12162880D01*
X53761904Y-12162880D02*
X53723809Y-12124784D01*
X53723809Y-12124784D02*
X53704762Y-12086689D01*
X53704762Y-12086689D02*
X53685714Y-12010499D01*
X53685714Y-12010499D02*
X53685714Y-11953356D01*
X53685714Y-11953356D02*
X53704762Y-11877165D01*
X53704762Y-11877165D02*
X53723809Y-11839070D01*
X53723809Y-11839070D02*
X53761904Y-11800975D01*
X53761904Y-11800975D02*
X53819047Y-11781927D01*
X53819047Y-11781927D02*
X53857143Y-11781927D01*
X53857143Y-11781927D02*
X53914285Y-11800975D01*
X53914285Y-11800975D02*
X53933333Y-11820022D01*
X54314285Y-12181927D02*
X54085714Y-12181927D01*
X54200000Y-12181927D02*
X54200000Y-11781927D01*
X54200000Y-11781927D02*
X54161904Y-11839070D01*
X54161904Y-11839070D02*
X54123809Y-11877165D01*
X54123809Y-11877165D02*
X54085714Y-11896213D01*
X19933333Y-9181927D02*
X19800000Y-8991451D01*
X19704762Y-9181927D02*
X19704762Y-8781927D01*
X19704762Y-8781927D02*
X19857143Y-8781927D01*
X19857143Y-8781927D02*
X19895238Y-8800975D01*
X19895238Y-8800975D02*
X19914285Y-8820022D01*
X19914285Y-8820022D02*
X19933333Y-8858118D01*
X19933333Y-8858118D02*
X19933333Y-8915260D01*
X19933333Y-8915260D02*
X19914285Y-8953356D01*
X19914285Y-8953356D02*
X19895238Y-8972403D01*
X19895238Y-8972403D02*
X19857143Y-8991451D01*
X19857143Y-8991451D02*
X19704762Y-8991451D01*
X20314285Y-9181927D02*
X20085714Y-9181927D01*
X20200000Y-9181927D02*
X20200000Y-8781927D01*
X20200000Y-8781927D02*
X20161904Y-8839070D01*
X20161904Y-8839070D02*
X20123809Y-8877165D01*
X20123809Y-8877165D02*
X20085714Y-8896213D01*
X19742857Y-45181927D02*
X19609524Y-44991451D01*
X19514286Y-45181927D02*
X19514286Y-44781927D01*
X19514286Y-44781927D02*
X19666667Y-44781927D01*
X19666667Y-44781927D02*
X19704762Y-44800975D01*
X19704762Y-44800975D02*
X19723809Y-44820022D01*
X19723809Y-44820022D02*
X19742857Y-44858118D01*
X19742857Y-44858118D02*
X19742857Y-44915260D01*
X19742857Y-44915260D02*
X19723809Y-44953356D01*
X19723809Y-44953356D02*
X19704762Y-44972403D01*
X19704762Y-44972403D02*
X19666667Y-44991451D01*
X19666667Y-44991451D02*
X19514286Y-44991451D01*
X20123809Y-45181927D02*
X19895238Y-45181927D01*
X20009524Y-45181927D02*
X20009524Y-44781927D01*
X20009524Y-44781927D02*
X19971428Y-44839070D01*
X19971428Y-44839070D02*
X19933333Y-44877165D01*
X19933333Y-44877165D02*
X19895238Y-44896213D01*
X20485714Y-44781927D02*
X20295238Y-44781927D01*
X20295238Y-44781927D02*
X20276190Y-44972403D01*
X20276190Y-44972403D02*
X20295238Y-44953356D01*
X20295238Y-44953356D02*
X20333333Y-44934308D01*
X20333333Y-44934308D02*
X20428571Y-44934308D01*
X20428571Y-44934308D02*
X20466666Y-44953356D01*
X20466666Y-44953356D02*
X20485714Y-44972403D01*
X20485714Y-44972403D02*
X20504761Y-45010499D01*
X20504761Y-45010499D02*
X20504761Y-45105737D01*
X20504761Y-45105737D02*
X20485714Y-45143832D01*
X20485714Y-45143832D02*
X20466666Y-45162880D01*
X20466666Y-45162880D02*
X20428571Y-45181927D01*
X20428571Y-45181927D02*
X20333333Y-45181927D01*
X20333333Y-45181927D02*
X20295238Y-45162880D01*
X20295238Y-45162880D02*
X20276190Y-45143832D01*
D12*
X8724819Y-31463333D02*
X9439104Y-31463333D01*
X9439104Y-31463333D02*
X9581961Y-31510952D01*
X9581961Y-31510952D02*
X9677200Y-31606190D01*
X9677200Y-31606190D02*
X9724819Y-31749047D01*
X9724819Y-31749047D02*
X9724819Y-31844285D01*
X9724819Y-30463333D02*
X9724819Y-31034761D01*
X9724819Y-30749047D02*
X8724819Y-30749047D01*
X8724819Y-30749047D02*
X8867676Y-30844285D01*
X8867676Y-30844285D02*
X8962914Y-30939523D01*
X8962914Y-30939523D02*
X9010533Y-31034761D01*
D10*
X15742857Y-50181927D02*
X15609524Y-49991451D01*
X15514286Y-50181927D02*
X15514286Y-49781927D01*
X15514286Y-49781927D02*
X15666667Y-49781927D01*
X15666667Y-49781927D02*
X15704762Y-49800975D01*
X15704762Y-49800975D02*
X15723809Y-49820022D01*
X15723809Y-49820022D02*
X15742857Y-49858118D01*
X15742857Y-49858118D02*
X15742857Y-49915260D01*
X15742857Y-49915260D02*
X15723809Y-49953356D01*
X15723809Y-49953356D02*
X15704762Y-49972403D01*
X15704762Y-49972403D02*
X15666667Y-49991451D01*
X15666667Y-49991451D02*
X15514286Y-49991451D01*
X15895238Y-49820022D02*
X15914286Y-49800975D01*
X15914286Y-49800975D02*
X15952381Y-49781927D01*
X15952381Y-49781927D02*
X16047619Y-49781927D01*
X16047619Y-49781927D02*
X16085714Y-49800975D01*
X16085714Y-49800975D02*
X16104762Y-49820022D01*
X16104762Y-49820022D02*
X16123809Y-49858118D01*
X16123809Y-49858118D02*
X16123809Y-49896213D01*
X16123809Y-49896213D02*
X16104762Y-49953356D01*
X16104762Y-49953356D02*
X15876190Y-50181927D01*
X15876190Y-50181927D02*
X16123809Y-50181927D01*
X16371428Y-49781927D02*
X16409523Y-49781927D01*
X16409523Y-49781927D02*
X16447619Y-49800975D01*
X16447619Y-49800975D02*
X16466666Y-49820022D01*
X16466666Y-49820022D02*
X16485714Y-49858118D01*
X16485714Y-49858118D02*
X16504761Y-49934308D01*
X16504761Y-49934308D02*
X16504761Y-50029546D01*
X16504761Y-50029546D02*
X16485714Y-50105737D01*
X16485714Y-50105737D02*
X16466666Y-50143832D01*
X16466666Y-50143832D02*
X16447619Y-50162880D01*
X16447619Y-50162880D02*
X16409523Y-50181927D01*
X16409523Y-50181927D02*
X16371428Y-50181927D01*
X16371428Y-50181927D02*
X16333333Y-50162880D01*
X16333333Y-50162880D02*
X16314285Y-50143832D01*
X16314285Y-50143832D02*
X16295238Y-50105737D01*
X16295238Y-50105737D02*
X16276190Y-50029546D01*
X16276190Y-50029546D02*
X16276190Y-49934308D01*
X16276190Y-49934308D02*
X16295238Y-49858118D01*
X16295238Y-49858118D02*
X16314285Y-49820022D01*
X16314285Y-49820022D02*
X16333333Y-49800975D01*
X16333333Y-49800975D02*
X16371428Y-49781927D01*
D12*
X59238095Y-21454819D02*
X59238095Y-22264342D01*
X59238095Y-22264342D02*
X59285714Y-22359580D01*
X59285714Y-22359580D02*
X59333333Y-22407200D01*
X59333333Y-22407200D02*
X59428571Y-22454819D01*
X59428571Y-22454819D02*
X59619047Y-22454819D01*
X59619047Y-22454819D02*
X59714285Y-22407200D01*
X59714285Y-22407200D02*
X59761904Y-22359580D01*
X59761904Y-22359580D02*
X59809523Y-22264342D01*
X59809523Y-22264342D02*
X59809523Y-21454819D01*
X60714285Y-21788152D02*
X60714285Y-22454819D01*
X60476190Y-21407200D02*
X60238095Y-22121485D01*
X60238095Y-22121485D02*
X60857142Y-22121485D01*
D10*
X19933333Y-15181927D02*
X19800000Y-14991451D01*
X19704762Y-15181927D02*
X19704762Y-14781927D01*
X19704762Y-14781927D02*
X19857143Y-14781927D01*
X19857143Y-14781927D02*
X19895238Y-14800975D01*
X19895238Y-14800975D02*
X19914285Y-14820022D01*
X19914285Y-14820022D02*
X19933333Y-14858118D01*
X19933333Y-14858118D02*
X19933333Y-14915260D01*
X19933333Y-14915260D02*
X19914285Y-14953356D01*
X19914285Y-14953356D02*
X19895238Y-14972403D01*
X19895238Y-14972403D02*
X19857143Y-14991451D01*
X19857143Y-14991451D02*
X19704762Y-14991451D01*
X20295238Y-14781927D02*
X20104762Y-14781927D01*
X20104762Y-14781927D02*
X20085714Y-14972403D01*
X20085714Y-14972403D02*
X20104762Y-14953356D01*
X20104762Y-14953356D02*
X20142857Y-14934308D01*
X20142857Y-14934308D02*
X20238095Y-14934308D01*
X20238095Y-14934308D02*
X20276190Y-14953356D01*
X20276190Y-14953356D02*
X20295238Y-14972403D01*
X20295238Y-14972403D02*
X20314285Y-15010499D01*
X20314285Y-15010499D02*
X20314285Y-15105737D01*
X20314285Y-15105737D02*
X20295238Y-15143832D01*
X20295238Y-15143832D02*
X20276190Y-15162880D01*
X20276190Y-15162880D02*
X20238095Y-15181927D01*
X20238095Y-15181927D02*
X20142857Y-15181927D01*
X20142857Y-15181927D02*
X20104762Y-15162880D01*
X20104762Y-15162880D02*
X20085714Y-15143832D01*
X19742857Y-42181927D02*
X19609524Y-41991451D01*
X19514286Y-42181927D02*
X19514286Y-41781927D01*
X19514286Y-41781927D02*
X19666667Y-41781927D01*
X19666667Y-41781927D02*
X19704762Y-41800975D01*
X19704762Y-41800975D02*
X19723809Y-41820022D01*
X19723809Y-41820022D02*
X19742857Y-41858118D01*
X19742857Y-41858118D02*
X19742857Y-41915260D01*
X19742857Y-41915260D02*
X19723809Y-41953356D01*
X19723809Y-41953356D02*
X19704762Y-41972403D01*
X19704762Y-41972403D02*
X19666667Y-41991451D01*
X19666667Y-41991451D02*
X19514286Y-41991451D01*
X20123809Y-42181927D02*
X19895238Y-42181927D01*
X20009524Y-42181927D02*
X20009524Y-41781927D01*
X20009524Y-41781927D02*
X19971428Y-41839070D01*
X19971428Y-41839070D02*
X19933333Y-41877165D01*
X19933333Y-41877165D02*
X19895238Y-41896213D01*
X20466666Y-41915260D02*
X20466666Y-42181927D01*
X20371428Y-41762880D02*
X20276190Y-42048594D01*
X20276190Y-42048594D02*
X20523809Y-42048594D01*
D11*
X34327365Y-26374285D02*
X33607365Y-26374285D01*
X33607365Y-26374285D02*
X33607365Y-26202856D01*
X33607365Y-26202856D02*
X33641651Y-26099999D01*
X33641651Y-26099999D02*
X33710222Y-26031428D01*
X33710222Y-26031428D02*
X33778794Y-25997142D01*
X33778794Y-25997142D02*
X33915937Y-25962856D01*
X33915937Y-25962856D02*
X34018794Y-25962856D01*
X34018794Y-25962856D02*
X34155937Y-25997142D01*
X34155937Y-25997142D02*
X34224508Y-26031428D01*
X34224508Y-26031428D02*
X34293080Y-26099999D01*
X34293080Y-26099999D02*
X34327365Y-26202856D01*
X34327365Y-26202856D02*
X34327365Y-26374285D01*
X34327365Y-25277142D02*
X34327365Y-25688571D01*
X34327365Y-25482856D02*
X33607365Y-25482856D01*
X33607365Y-25482856D02*
X33710222Y-25551428D01*
X33710222Y-25551428D02*
X33778794Y-25619999D01*
X33778794Y-25619999D02*
X33813080Y-25688571D01*
X33607365Y-25037142D02*
X33607365Y-24591428D01*
X33607365Y-24591428D02*
X33881651Y-24831428D01*
X33881651Y-24831428D02*
X33881651Y-24728571D01*
X33881651Y-24728571D02*
X33915937Y-24660000D01*
X33915937Y-24660000D02*
X33950222Y-24625714D01*
X33950222Y-24625714D02*
X34018794Y-24591428D01*
X34018794Y-24591428D02*
X34190222Y-24591428D01*
X34190222Y-24591428D02*
X34258794Y-24625714D01*
X34258794Y-24625714D02*
X34293080Y-24660000D01*
X34293080Y-24660000D02*
X34327365Y-24728571D01*
X34327365Y-24728571D02*
X34327365Y-24934285D01*
X34327365Y-24934285D02*
X34293080Y-25002857D01*
X34293080Y-25002857D02*
X34258794Y-25037142D01*
X34327365Y-20874285D02*
X33607365Y-20874285D01*
X33607365Y-20874285D02*
X33607365Y-20702856D01*
X33607365Y-20702856D02*
X33641651Y-20599999D01*
X33641651Y-20599999D02*
X33710222Y-20531428D01*
X33710222Y-20531428D02*
X33778794Y-20497142D01*
X33778794Y-20497142D02*
X33915937Y-20462856D01*
X33915937Y-20462856D02*
X34018794Y-20462856D01*
X34018794Y-20462856D02*
X34155937Y-20497142D01*
X34155937Y-20497142D02*
X34224508Y-20531428D01*
X34224508Y-20531428D02*
X34293080Y-20599999D01*
X34293080Y-20599999D02*
X34327365Y-20702856D01*
X34327365Y-20702856D02*
X34327365Y-20874285D01*
X34327365Y-19777142D02*
X34327365Y-20188571D01*
X34327365Y-19982856D02*
X33607365Y-19982856D01*
X33607365Y-19982856D02*
X33710222Y-20051428D01*
X33710222Y-20051428D02*
X33778794Y-20119999D01*
X33778794Y-20119999D02*
X33813080Y-20188571D01*
X33675937Y-19502857D02*
X33641651Y-19468571D01*
X33641651Y-19468571D02*
X33607365Y-19400000D01*
X33607365Y-19400000D02*
X33607365Y-19228571D01*
X33607365Y-19228571D02*
X33641651Y-19160000D01*
X33641651Y-19160000D02*
X33675937Y-19125714D01*
X33675937Y-19125714D02*
X33744508Y-19091428D01*
X33744508Y-19091428D02*
X33813080Y-19091428D01*
X33813080Y-19091428D02*
X33915937Y-19125714D01*
X33915937Y-19125714D02*
X34327365Y-19537142D01*
X34327365Y-19537142D02*
X34327365Y-19091428D01*
X28327365Y-48031428D02*
X27607365Y-48031428D01*
X27607365Y-48031428D02*
X27607365Y-47859999D01*
X27607365Y-47859999D02*
X27641651Y-47757142D01*
X27641651Y-47757142D02*
X27710222Y-47688571D01*
X27710222Y-47688571D02*
X27778794Y-47654285D01*
X27778794Y-47654285D02*
X27915937Y-47619999D01*
X27915937Y-47619999D02*
X28018794Y-47619999D01*
X28018794Y-47619999D02*
X28155937Y-47654285D01*
X28155937Y-47654285D02*
X28224508Y-47688571D01*
X28224508Y-47688571D02*
X28293080Y-47757142D01*
X28293080Y-47757142D02*
X28327365Y-47859999D01*
X28327365Y-47859999D02*
X28327365Y-48031428D01*
X27915937Y-47208571D02*
X27881651Y-47277142D01*
X27881651Y-47277142D02*
X27847365Y-47311428D01*
X27847365Y-47311428D02*
X27778794Y-47345714D01*
X27778794Y-47345714D02*
X27744508Y-47345714D01*
X27744508Y-47345714D02*
X27675937Y-47311428D01*
X27675937Y-47311428D02*
X27641651Y-47277142D01*
X27641651Y-47277142D02*
X27607365Y-47208571D01*
X27607365Y-47208571D02*
X27607365Y-47071428D01*
X27607365Y-47071428D02*
X27641651Y-47002857D01*
X27641651Y-47002857D02*
X27675937Y-46968571D01*
X27675937Y-46968571D02*
X27744508Y-46934285D01*
X27744508Y-46934285D02*
X27778794Y-46934285D01*
X27778794Y-46934285D02*
X27847365Y-46968571D01*
X27847365Y-46968571D02*
X27881651Y-47002857D01*
X27881651Y-47002857D02*
X27915937Y-47071428D01*
X27915937Y-47071428D02*
X27915937Y-47208571D01*
X27915937Y-47208571D02*
X27950222Y-47277142D01*
X27950222Y-47277142D02*
X27984508Y-47311428D01*
X27984508Y-47311428D02*
X28053080Y-47345714D01*
X28053080Y-47345714D02*
X28190222Y-47345714D01*
X28190222Y-47345714D02*
X28258794Y-47311428D01*
X28258794Y-47311428D02*
X28293080Y-47277142D01*
X28293080Y-47277142D02*
X28327365Y-47208571D01*
X28327365Y-47208571D02*
X28327365Y-47071428D01*
X28327365Y-47071428D02*
X28293080Y-47002857D01*
X28293080Y-47002857D02*
X28258794Y-46968571D01*
X28258794Y-46968571D02*
X28190222Y-46934285D01*
X28190222Y-46934285D02*
X28053080Y-46934285D01*
X28053080Y-46934285D02*
X27984508Y-46968571D01*
X27984508Y-46968571D02*
X27950222Y-47002857D01*
X27950222Y-47002857D02*
X27915937Y-47071428D01*
D12*
X77666666Y-16954819D02*
X77666666Y-17669104D01*
X77666666Y-17669104D02*
X77619047Y-17811961D01*
X77619047Y-17811961D02*
X77523809Y-17907200D01*
X77523809Y-17907200D02*
X77380952Y-17954819D01*
X77380952Y-17954819D02*
X77285714Y-17954819D01*
X78285714Y-17383390D02*
X78190476Y-17335771D01*
X78190476Y-17335771D02*
X78142857Y-17288152D01*
X78142857Y-17288152D02*
X78095238Y-17192914D01*
X78095238Y-17192914D02*
X78095238Y-17145295D01*
X78095238Y-17145295D02*
X78142857Y-17050057D01*
X78142857Y-17050057D02*
X78190476Y-17002438D01*
X78190476Y-17002438D02*
X78285714Y-16954819D01*
X78285714Y-16954819D02*
X78476190Y-16954819D01*
X78476190Y-16954819D02*
X78571428Y-17002438D01*
X78571428Y-17002438D02*
X78619047Y-17050057D01*
X78619047Y-17050057D02*
X78666666Y-17145295D01*
X78666666Y-17145295D02*
X78666666Y-17192914D01*
X78666666Y-17192914D02*
X78619047Y-17288152D01*
X78619047Y-17288152D02*
X78571428Y-17335771D01*
X78571428Y-17335771D02*
X78476190Y-17383390D01*
X78476190Y-17383390D02*
X78285714Y-17383390D01*
X78285714Y-17383390D02*
X78190476Y-17431009D01*
X78190476Y-17431009D02*
X78142857Y-17478628D01*
X78142857Y-17478628D02*
X78095238Y-17573866D01*
X78095238Y-17573866D02*
X78095238Y-17764342D01*
X78095238Y-17764342D02*
X78142857Y-17859580D01*
X78142857Y-17859580D02*
X78190476Y-17907200D01*
X78190476Y-17907200D02*
X78285714Y-17954819D01*
X78285714Y-17954819D02*
X78476190Y-17954819D01*
X78476190Y-17954819D02*
X78571428Y-17907200D01*
X78571428Y-17907200D02*
X78619047Y-17859580D01*
X78619047Y-17859580D02*
X78666666Y-17764342D01*
X78666666Y-17764342D02*
X78666666Y-17573866D01*
X78666666Y-17573866D02*
X78619047Y-17478628D01*
X78619047Y-17478628D02*
X78571428Y-17431009D01*
X78571428Y-17431009D02*
X78476190Y-17383390D01*
X59454819Y-44143333D02*
X60169104Y-44143333D01*
X60169104Y-44143333D02*
X60311961Y-44190952D01*
X60311961Y-44190952D02*
X60407200Y-44286190D01*
X60407200Y-44286190D02*
X60454819Y-44429047D01*
X60454819Y-44429047D02*
X60454819Y-44524285D01*
X59454819Y-43762380D02*
X59454819Y-43143333D01*
X59454819Y-43143333D02*
X59835771Y-43476666D01*
X59835771Y-43476666D02*
X59835771Y-43333809D01*
X59835771Y-43333809D02*
X59883390Y-43238571D01*
X59883390Y-43238571D02*
X59931009Y-43190952D01*
X59931009Y-43190952D02*
X60026247Y-43143333D01*
X60026247Y-43143333D02*
X60264342Y-43143333D01*
X60264342Y-43143333D02*
X60359580Y-43190952D01*
X60359580Y-43190952D02*
X60407200Y-43238571D01*
X60407200Y-43238571D02*
X60454819Y-43333809D01*
X60454819Y-43333809D02*
X60454819Y-43619523D01*
X60454819Y-43619523D02*
X60407200Y-43714761D01*
X60407200Y-43714761D02*
X60359580Y-43762380D01*
D11*
X34327365Y-9874285D02*
X33607365Y-9874285D01*
X33607365Y-9874285D02*
X33607365Y-9702856D01*
X33607365Y-9702856D02*
X33641651Y-9599999D01*
X33641651Y-9599999D02*
X33710222Y-9531428D01*
X33710222Y-9531428D02*
X33778794Y-9497142D01*
X33778794Y-9497142D02*
X33915937Y-9462856D01*
X33915937Y-9462856D02*
X34018794Y-9462856D01*
X34018794Y-9462856D02*
X34155937Y-9497142D01*
X34155937Y-9497142D02*
X34224508Y-9531428D01*
X34224508Y-9531428D02*
X34293080Y-9599999D01*
X34293080Y-9599999D02*
X34327365Y-9702856D01*
X34327365Y-9702856D02*
X34327365Y-9874285D01*
X34327365Y-8777142D02*
X34327365Y-9188571D01*
X34327365Y-8982856D02*
X33607365Y-8982856D01*
X33607365Y-8982856D02*
X33710222Y-9051428D01*
X33710222Y-9051428D02*
X33778794Y-9119999D01*
X33778794Y-9119999D02*
X33813080Y-9188571D01*
X33607365Y-8331428D02*
X33607365Y-8262857D01*
X33607365Y-8262857D02*
X33641651Y-8194285D01*
X33641651Y-8194285D02*
X33675937Y-8160000D01*
X33675937Y-8160000D02*
X33744508Y-8125714D01*
X33744508Y-8125714D02*
X33881651Y-8091428D01*
X33881651Y-8091428D02*
X34053080Y-8091428D01*
X34053080Y-8091428D02*
X34190222Y-8125714D01*
X34190222Y-8125714D02*
X34258794Y-8160000D01*
X34258794Y-8160000D02*
X34293080Y-8194285D01*
X34293080Y-8194285D02*
X34327365Y-8262857D01*
X34327365Y-8262857D02*
X34327365Y-8331428D01*
X34327365Y-8331428D02*
X34293080Y-8400000D01*
X34293080Y-8400000D02*
X34258794Y-8434285D01*
X34258794Y-8434285D02*
X34190222Y-8468571D01*
X34190222Y-8468571D02*
X34053080Y-8502857D01*
X34053080Y-8502857D02*
X33881651Y-8502857D01*
X33881651Y-8502857D02*
X33744508Y-8468571D01*
X33744508Y-8468571D02*
X33675937Y-8434285D01*
X33675937Y-8434285D02*
X33641651Y-8400000D01*
X33641651Y-8400000D02*
X33607365Y-8331428D01*
D10*
X53933333Y-26143832D02*
X53914285Y-26162880D01*
X53914285Y-26162880D02*
X53857143Y-26181927D01*
X53857143Y-26181927D02*
X53819047Y-26181927D01*
X53819047Y-26181927D02*
X53761904Y-26162880D01*
X53761904Y-26162880D02*
X53723809Y-26124784D01*
X53723809Y-26124784D02*
X53704762Y-26086689D01*
X53704762Y-26086689D02*
X53685714Y-26010499D01*
X53685714Y-26010499D02*
X53685714Y-25953356D01*
X53685714Y-25953356D02*
X53704762Y-25877165D01*
X53704762Y-25877165D02*
X53723809Y-25839070D01*
X53723809Y-25839070D02*
X53761904Y-25800975D01*
X53761904Y-25800975D02*
X53819047Y-25781927D01*
X53819047Y-25781927D02*
X53857143Y-25781927D01*
X53857143Y-25781927D02*
X53914285Y-25800975D01*
X53914285Y-25800975D02*
X53933333Y-25820022D01*
X54085714Y-25820022D02*
X54104762Y-25800975D01*
X54104762Y-25800975D02*
X54142857Y-25781927D01*
X54142857Y-25781927D02*
X54238095Y-25781927D01*
X54238095Y-25781927D02*
X54276190Y-25800975D01*
X54276190Y-25800975D02*
X54295238Y-25820022D01*
X54295238Y-25820022D02*
X54314285Y-25858118D01*
X54314285Y-25858118D02*
X54314285Y-25896213D01*
X54314285Y-25896213D02*
X54295238Y-25953356D01*
X54295238Y-25953356D02*
X54066666Y-26181927D01*
X54066666Y-26181927D02*
X54314285Y-26181927D01*
D12*
X45238095Y-39454819D02*
X45238095Y-40264342D01*
X45238095Y-40264342D02*
X45285714Y-40359580D01*
X45285714Y-40359580D02*
X45333333Y-40407200D01*
X45333333Y-40407200D02*
X45428571Y-40454819D01*
X45428571Y-40454819D02*
X45619047Y-40454819D01*
X45619047Y-40454819D02*
X45714285Y-40407200D01*
X45714285Y-40407200D02*
X45761904Y-40359580D01*
X45761904Y-40359580D02*
X45809523Y-40264342D01*
X45809523Y-40264342D02*
X45809523Y-39454819D01*
X46190476Y-39454819D02*
X46809523Y-39454819D01*
X46809523Y-39454819D02*
X46476190Y-39835771D01*
X46476190Y-39835771D02*
X46619047Y-39835771D01*
X46619047Y-39835771D02*
X46714285Y-39883390D01*
X46714285Y-39883390D02*
X46761904Y-39931009D01*
X46761904Y-39931009D02*
X46809523Y-40026247D01*
X46809523Y-40026247D02*
X46809523Y-40264342D01*
X46809523Y-40264342D02*
X46761904Y-40359580D01*
X46761904Y-40359580D02*
X46714285Y-40407200D01*
X46714285Y-40407200D02*
X46619047Y-40454819D01*
X46619047Y-40454819D02*
X46333333Y-40454819D01*
X46333333Y-40454819D02*
X46238095Y-40407200D01*
X46238095Y-40407200D02*
X46190476Y-40359580D01*
D11*
X28327365Y-42531428D02*
X27607365Y-42531428D01*
X27607365Y-42531428D02*
X27607365Y-42359999D01*
X27607365Y-42359999D02*
X27641651Y-42257142D01*
X27641651Y-42257142D02*
X27710222Y-42188571D01*
X27710222Y-42188571D02*
X27778794Y-42154285D01*
X27778794Y-42154285D02*
X27915937Y-42119999D01*
X27915937Y-42119999D02*
X28018794Y-42119999D01*
X28018794Y-42119999D02*
X28155937Y-42154285D01*
X28155937Y-42154285D02*
X28224508Y-42188571D01*
X28224508Y-42188571D02*
X28293080Y-42257142D01*
X28293080Y-42257142D02*
X28327365Y-42359999D01*
X28327365Y-42359999D02*
X28327365Y-42531428D01*
X27607365Y-41879999D02*
X27607365Y-41399999D01*
X27607365Y-41399999D02*
X28327365Y-41708571D01*
X34327365Y-31874285D02*
X33607365Y-31874285D01*
X33607365Y-31874285D02*
X33607365Y-31702856D01*
X33607365Y-31702856D02*
X33641651Y-31599999D01*
X33641651Y-31599999D02*
X33710222Y-31531428D01*
X33710222Y-31531428D02*
X33778794Y-31497142D01*
X33778794Y-31497142D02*
X33915937Y-31462856D01*
X33915937Y-31462856D02*
X34018794Y-31462856D01*
X34018794Y-31462856D02*
X34155937Y-31497142D01*
X34155937Y-31497142D02*
X34224508Y-31531428D01*
X34224508Y-31531428D02*
X34293080Y-31599999D01*
X34293080Y-31599999D02*
X34327365Y-31702856D01*
X34327365Y-31702856D02*
X34327365Y-31874285D01*
X34327365Y-30777142D02*
X34327365Y-31188571D01*
X34327365Y-30982856D02*
X33607365Y-30982856D01*
X33607365Y-30982856D02*
X33710222Y-31051428D01*
X33710222Y-31051428D02*
X33778794Y-31119999D01*
X33778794Y-31119999D02*
X33813080Y-31188571D01*
X33847365Y-30160000D02*
X34327365Y-30160000D01*
X33573080Y-30331428D02*
X34087365Y-30502857D01*
X34087365Y-30502857D02*
X34087365Y-30057142D01*
D10*
X59933333Y-55143832D02*
X59914285Y-55162880D01*
X59914285Y-55162880D02*
X59857143Y-55181927D01*
X59857143Y-55181927D02*
X59819047Y-55181927D01*
X59819047Y-55181927D02*
X59761904Y-55162880D01*
X59761904Y-55162880D02*
X59723809Y-55124784D01*
X59723809Y-55124784D02*
X59704762Y-55086689D01*
X59704762Y-55086689D02*
X59685714Y-55010499D01*
X59685714Y-55010499D02*
X59685714Y-54953356D01*
X59685714Y-54953356D02*
X59704762Y-54877165D01*
X59704762Y-54877165D02*
X59723809Y-54839070D01*
X59723809Y-54839070D02*
X59761904Y-54800975D01*
X59761904Y-54800975D02*
X59819047Y-54781927D01*
X59819047Y-54781927D02*
X59857143Y-54781927D01*
X59857143Y-54781927D02*
X59914285Y-54800975D01*
X59914285Y-54800975D02*
X59933333Y-54820022D01*
X60066666Y-54781927D02*
X60333333Y-54781927D01*
X60333333Y-54781927D02*
X60161904Y-55181927D01*
D12*
X15644819Y-67071904D02*
X16454342Y-67071904D01*
X16454342Y-67071904D02*
X16549580Y-67024285D01*
X16549580Y-67024285D02*
X16597200Y-66976666D01*
X16597200Y-66976666D02*
X16644819Y-66881428D01*
X16644819Y-66881428D02*
X16644819Y-66690952D01*
X16644819Y-66690952D02*
X16597200Y-66595714D01*
X16597200Y-66595714D02*
X16549580Y-66548095D01*
X16549580Y-66548095D02*
X16454342Y-66500476D01*
X16454342Y-66500476D02*
X15644819Y-66500476D01*
X15644819Y-65548095D02*
X15644819Y-66024285D01*
X15644819Y-66024285D02*
X16121009Y-66071904D01*
X16121009Y-66071904D02*
X16073390Y-66024285D01*
X16073390Y-66024285D02*
X16025771Y-65929047D01*
X16025771Y-65929047D02*
X16025771Y-65690952D01*
X16025771Y-65690952D02*
X16073390Y-65595714D01*
X16073390Y-65595714D02*
X16121009Y-65548095D01*
X16121009Y-65548095D02*
X16216247Y-65500476D01*
X16216247Y-65500476D02*
X16454342Y-65500476D01*
X16454342Y-65500476D02*
X16549580Y-65548095D01*
X16549580Y-65548095D02*
X16597200Y-65595714D01*
X16597200Y-65595714D02*
X16644819Y-65690952D01*
X16644819Y-65690952D02*
X16644819Y-65929047D01*
X16644819Y-65929047D02*
X16597200Y-66024285D01*
X16597200Y-66024285D02*
X16549580Y-66071904D01*
D10*
X19933333Y-18181927D02*
X19800000Y-17991451D01*
X19704762Y-18181927D02*
X19704762Y-17781927D01*
X19704762Y-17781927D02*
X19857143Y-17781927D01*
X19857143Y-17781927D02*
X19895238Y-17800975D01*
X19895238Y-17800975D02*
X19914285Y-17820022D01*
X19914285Y-17820022D02*
X19933333Y-17858118D01*
X19933333Y-17858118D02*
X19933333Y-17915260D01*
X19933333Y-17915260D02*
X19914285Y-17953356D01*
X19914285Y-17953356D02*
X19895238Y-17972403D01*
X19895238Y-17972403D02*
X19857143Y-17991451D01*
X19857143Y-17991451D02*
X19704762Y-17991451D01*
X20276190Y-17781927D02*
X20200000Y-17781927D01*
X20200000Y-17781927D02*
X20161904Y-17800975D01*
X20161904Y-17800975D02*
X20142857Y-17820022D01*
X20142857Y-17820022D02*
X20104762Y-17877165D01*
X20104762Y-17877165D02*
X20085714Y-17953356D01*
X20085714Y-17953356D02*
X20085714Y-18105737D01*
X20085714Y-18105737D02*
X20104762Y-18143832D01*
X20104762Y-18143832D02*
X20123809Y-18162880D01*
X20123809Y-18162880D02*
X20161904Y-18181927D01*
X20161904Y-18181927D02*
X20238095Y-18181927D01*
X20238095Y-18181927D02*
X20276190Y-18162880D01*
X20276190Y-18162880D02*
X20295238Y-18143832D01*
X20295238Y-18143832D02*
X20314285Y-18105737D01*
X20314285Y-18105737D02*
X20314285Y-18010499D01*
X20314285Y-18010499D02*
X20295238Y-17972403D01*
X20295238Y-17972403D02*
X20276190Y-17953356D01*
X20276190Y-17953356D02*
X20238095Y-17934308D01*
X20238095Y-17934308D02*
X20161904Y-17934308D01*
X20161904Y-17934308D02*
X20123809Y-17953356D01*
X20123809Y-17953356D02*
X20104762Y-17972403D01*
X20104762Y-17972403D02*
X20085714Y-18010499D01*
X23733333Y-72643832D02*
X23714285Y-72662880D01*
X23714285Y-72662880D02*
X23657143Y-72681927D01*
X23657143Y-72681927D02*
X23619047Y-72681927D01*
X23619047Y-72681927D02*
X23561904Y-72662880D01*
X23561904Y-72662880D02*
X23523809Y-72624784D01*
X23523809Y-72624784D02*
X23504762Y-72586689D01*
X23504762Y-72586689D02*
X23485714Y-72510499D01*
X23485714Y-72510499D02*
X23485714Y-72453356D01*
X23485714Y-72453356D02*
X23504762Y-72377165D01*
X23504762Y-72377165D02*
X23523809Y-72339070D01*
X23523809Y-72339070D02*
X23561904Y-72300975D01*
X23561904Y-72300975D02*
X23619047Y-72281927D01*
X23619047Y-72281927D02*
X23657143Y-72281927D01*
X23657143Y-72281927D02*
X23714285Y-72300975D01*
X23714285Y-72300975D02*
X23733333Y-72320022D01*
X24095238Y-72281927D02*
X23904762Y-72281927D01*
X23904762Y-72281927D02*
X23885714Y-72472403D01*
X23885714Y-72472403D02*
X23904762Y-72453356D01*
X23904762Y-72453356D02*
X23942857Y-72434308D01*
X23942857Y-72434308D02*
X24038095Y-72434308D01*
X24038095Y-72434308D02*
X24076190Y-72453356D01*
X24076190Y-72453356D02*
X24095238Y-72472403D01*
X24095238Y-72472403D02*
X24114285Y-72510499D01*
X24114285Y-72510499D02*
X24114285Y-72605737D01*
X24114285Y-72605737D02*
X24095238Y-72643832D01*
X24095238Y-72643832D02*
X24076190Y-72662880D01*
X24076190Y-72662880D02*
X24038095Y-72681927D01*
X24038095Y-72681927D02*
X23942857Y-72681927D01*
X23942857Y-72681927D02*
X23904762Y-72662880D01*
X23904762Y-72662880D02*
X23885714Y-72643832D01*
X19742857Y-30181927D02*
X19609524Y-29991451D01*
X19514286Y-30181927D02*
X19514286Y-29781927D01*
X19514286Y-29781927D02*
X19666667Y-29781927D01*
X19666667Y-29781927D02*
X19704762Y-29800975D01*
X19704762Y-29800975D02*
X19723809Y-29820022D01*
X19723809Y-29820022D02*
X19742857Y-29858118D01*
X19742857Y-29858118D02*
X19742857Y-29915260D01*
X19742857Y-29915260D02*
X19723809Y-29953356D01*
X19723809Y-29953356D02*
X19704762Y-29972403D01*
X19704762Y-29972403D02*
X19666667Y-29991451D01*
X19666667Y-29991451D02*
X19514286Y-29991451D01*
X20123809Y-30181927D02*
X19895238Y-30181927D01*
X20009524Y-30181927D02*
X20009524Y-29781927D01*
X20009524Y-29781927D02*
X19971428Y-29839070D01*
X19971428Y-29839070D02*
X19933333Y-29877165D01*
X19933333Y-29877165D02*
X19895238Y-29896213D01*
X20371428Y-29781927D02*
X20409523Y-29781927D01*
X20409523Y-29781927D02*
X20447619Y-29800975D01*
X20447619Y-29800975D02*
X20466666Y-29820022D01*
X20466666Y-29820022D02*
X20485714Y-29858118D01*
X20485714Y-29858118D02*
X20504761Y-29934308D01*
X20504761Y-29934308D02*
X20504761Y-30029546D01*
X20504761Y-30029546D02*
X20485714Y-30105737D01*
X20485714Y-30105737D02*
X20466666Y-30143832D01*
X20466666Y-30143832D02*
X20447619Y-30162880D01*
X20447619Y-30162880D02*
X20409523Y-30181927D01*
X20409523Y-30181927D02*
X20371428Y-30181927D01*
X20371428Y-30181927D02*
X20333333Y-30162880D01*
X20333333Y-30162880D02*
X20314285Y-30143832D01*
X20314285Y-30143832D02*
X20295238Y-30105737D01*
X20295238Y-30105737D02*
X20276190Y-30029546D01*
X20276190Y-30029546D02*
X20276190Y-29934308D01*
X20276190Y-29934308D02*
X20295238Y-29858118D01*
X20295238Y-29858118D02*
X20314285Y-29820022D01*
X20314285Y-29820022D02*
X20333333Y-29800975D01*
X20333333Y-29800975D02*
X20371428Y-29781927D01*
X19742857Y-33181927D02*
X19609524Y-32991451D01*
X19514286Y-33181927D02*
X19514286Y-32781927D01*
X19514286Y-32781927D02*
X19666667Y-32781927D01*
X19666667Y-32781927D02*
X19704762Y-32800975D01*
X19704762Y-32800975D02*
X19723809Y-32820022D01*
X19723809Y-32820022D02*
X19742857Y-32858118D01*
X19742857Y-32858118D02*
X19742857Y-32915260D01*
X19742857Y-32915260D02*
X19723809Y-32953356D01*
X19723809Y-32953356D02*
X19704762Y-32972403D01*
X19704762Y-32972403D02*
X19666667Y-32991451D01*
X19666667Y-32991451D02*
X19514286Y-32991451D01*
X20123809Y-33181927D02*
X19895238Y-33181927D01*
X20009524Y-33181927D02*
X20009524Y-32781927D01*
X20009524Y-32781927D02*
X19971428Y-32839070D01*
X19971428Y-32839070D02*
X19933333Y-32877165D01*
X19933333Y-32877165D02*
X19895238Y-32896213D01*
X20504761Y-33181927D02*
X20276190Y-33181927D01*
X20390476Y-33181927D02*
X20390476Y-32781927D01*
X20390476Y-32781927D02*
X20352380Y-32839070D01*
X20352380Y-32839070D02*
X20314285Y-32877165D01*
X20314285Y-32877165D02*
X20276190Y-32896213D01*
X59933333Y-12181927D02*
X59800000Y-11991451D01*
X59704762Y-12181927D02*
X59704762Y-11781927D01*
X59704762Y-11781927D02*
X59857143Y-11781927D01*
X59857143Y-11781927D02*
X59895238Y-11800975D01*
X59895238Y-11800975D02*
X59914285Y-11820022D01*
X59914285Y-11820022D02*
X59933333Y-11858118D01*
X59933333Y-11858118D02*
X59933333Y-11915260D01*
X59933333Y-11915260D02*
X59914285Y-11953356D01*
X59914285Y-11953356D02*
X59895238Y-11972403D01*
X59895238Y-11972403D02*
X59857143Y-11991451D01*
X59857143Y-11991451D02*
X59704762Y-11991451D01*
X60276190Y-11915260D02*
X60276190Y-12181927D01*
X60180952Y-11762880D02*
X60085714Y-12048594D01*
X60085714Y-12048594D02*
X60333333Y-12048594D01*
D11*
X28327365Y-9531428D02*
X27607365Y-9531428D01*
X27607365Y-9531428D02*
X27607365Y-9359999D01*
X27607365Y-9359999D02*
X27641651Y-9257142D01*
X27641651Y-9257142D02*
X27710222Y-9188571D01*
X27710222Y-9188571D02*
X27778794Y-9154285D01*
X27778794Y-9154285D02*
X27915937Y-9119999D01*
X27915937Y-9119999D02*
X28018794Y-9119999D01*
X28018794Y-9119999D02*
X28155937Y-9154285D01*
X28155937Y-9154285D02*
X28224508Y-9188571D01*
X28224508Y-9188571D02*
X28293080Y-9257142D01*
X28293080Y-9257142D02*
X28327365Y-9359999D01*
X28327365Y-9359999D02*
X28327365Y-9531428D01*
X28327365Y-8434285D02*
X28327365Y-8845714D01*
X28327365Y-8639999D02*
X27607365Y-8639999D01*
X27607365Y-8639999D02*
X27710222Y-8708571D01*
X27710222Y-8708571D02*
X27778794Y-8777142D01*
X27778794Y-8777142D02*
X27813080Y-8845714D01*
D12*
X95454819Y-76603333D02*
X96169104Y-76603333D01*
X96169104Y-76603333D02*
X96311961Y-76650952D01*
X96311961Y-76650952D02*
X96407200Y-76746190D01*
X96407200Y-76746190D02*
X96454819Y-76889047D01*
X96454819Y-76889047D02*
X96454819Y-76984285D01*
X95454819Y-76222380D02*
X95454819Y-75555714D01*
X95454819Y-75555714D02*
X96454819Y-75984285D01*
D10*
X53933333Y-40143832D02*
X53914285Y-40162880D01*
X53914285Y-40162880D02*
X53857143Y-40181927D01*
X53857143Y-40181927D02*
X53819047Y-40181927D01*
X53819047Y-40181927D02*
X53761904Y-40162880D01*
X53761904Y-40162880D02*
X53723809Y-40124784D01*
X53723809Y-40124784D02*
X53704762Y-40086689D01*
X53704762Y-40086689D02*
X53685714Y-40010499D01*
X53685714Y-40010499D02*
X53685714Y-39953356D01*
X53685714Y-39953356D02*
X53704762Y-39877165D01*
X53704762Y-39877165D02*
X53723809Y-39839070D01*
X53723809Y-39839070D02*
X53761904Y-39800975D01*
X53761904Y-39800975D02*
X53819047Y-39781927D01*
X53819047Y-39781927D02*
X53857143Y-39781927D01*
X53857143Y-39781927D02*
X53914285Y-39800975D01*
X53914285Y-39800975D02*
X53933333Y-39820022D01*
X54066666Y-39781927D02*
X54314285Y-39781927D01*
X54314285Y-39781927D02*
X54180952Y-39934308D01*
X54180952Y-39934308D02*
X54238095Y-39934308D01*
X54238095Y-39934308D02*
X54276190Y-39953356D01*
X54276190Y-39953356D02*
X54295238Y-39972403D01*
X54295238Y-39972403D02*
X54314285Y-40010499D01*
X54314285Y-40010499D02*
X54314285Y-40105737D01*
X54314285Y-40105737D02*
X54295238Y-40143832D01*
X54295238Y-40143832D02*
X54276190Y-40162880D01*
X54276190Y-40162880D02*
X54238095Y-40181927D01*
X54238095Y-40181927D02*
X54123809Y-40181927D01*
X54123809Y-40181927D02*
X54085714Y-40162880D01*
X54085714Y-40162880D02*
X54066666Y-40143832D01*
D11*
X28327365Y-53531428D02*
X27607365Y-53531428D01*
X27607365Y-53531428D02*
X27607365Y-53359999D01*
X27607365Y-53359999D02*
X27641651Y-53257142D01*
X27641651Y-53257142D02*
X27710222Y-53188571D01*
X27710222Y-53188571D02*
X27778794Y-53154285D01*
X27778794Y-53154285D02*
X27915937Y-53119999D01*
X27915937Y-53119999D02*
X28018794Y-53119999D01*
X28018794Y-53119999D02*
X28155937Y-53154285D01*
X28155937Y-53154285D02*
X28224508Y-53188571D01*
X28224508Y-53188571D02*
X28293080Y-53257142D01*
X28293080Y-53257142D02*
X28327365Y-53359999D01*
X28327365Y-53359999D02*
X28327365Y-53531428D01*
X28327365Y-52777142D02*
X28327365Y-52639999D01*
X28327365Y-52639999D02*
X28293080Y-52571428D01*
X28293080Y-52571428D02*
X28258794Y-52537142D01*
X28258794Y-52537142D02*
X28155937Y-52468571D01*
X28155937Y-52468571D02*
X28018794Y-52434285D01*
X28018794Y-52434285D02*
X27744508Y-52434285D01*
X27744508Y-52434285D02*
X27675937Y-52468571D01*
X27675937Y-52468571D02*
X27641651Y-52502857D01*
X27641651Y-52502857D02*
X27607365Y-52571428D01*
X27607365Y-52571428D02*
X27607365Y-52708571D01*
X27607365Y-52708571D02*
X27641651Y-52777142D01*
X27641651Y-52777142D02*
X27675937Y-52811428D01*
X27675937Y-52811428D02*
X27744508Y-52845714D01*
X27744508Y-52845714D02*
X27915937Y-52845714D01*
X27915937Y-52845714D02*
X27984508Y-52811428D01*
X27984508Y-52811428D02*
X28018794Y-52777142D01*
X28018794Y-52777142D02*
X28053080Y-52708571D01*
X28053080Y-52708571D02*
X28053080Y-52571428D01*
X28053080Y-52571428D02*
X28018794Y-52502857D01*
X28018794Y-52502857D02*
X27984508Y-52468571D01*
X27984508Y-52468571D02*
X27915937Y-52434285D01*
X28327365Y-15031428D02*
X27607365Y-15031428D01*
X27607365Y-15031428D02*
X27607365Y-14859999D01*
X27607365Y-14859999D02*
X27641651Y-14757142D01*
X27641651Y-14757142D02*
X27710222Y-14688571D01*
X27710222Y-14688571D02*
X27778794Y-14654285D01*
X27778794Y-14654285D02*
X27915937Y-14619999D01*
X27915937Y-14619999D02*
X28018794Y-14619999D01*
X28018794Y-14619999D02*
X28155937Y-14654285D01*
X28155937Y-14654285D02*
X28224508Y-14688571D01*
X28224508Y-14688571D02*
X28293080Y-14757142D01*
X28293080Y-14757142D02*
X28327365Y-14859999D01*
X28327365Y-14859999D02*
X28327365Y-15031428D01*
X27675937Y-14345714D02*
X27641651Y-14311428D01*
X27641651Y-14311428D02*
X27607365Y-14242857D01*
X27607365Y-14242857D02*
X27607365Y-14071428D01*
X27607365Y-14071428D02*
X27641651Y-14002857D01*
X27641651Y-14002857D02*
X27675937Y-13968571D01*
X27675937Y-13968571D02*
X27744508Y-13934285D01*
X27744508Y-13934285D02*
X27813080Y-13934285D01*
X27813080Y-13934285D02*
X27915937Y-13968571D01*
X27915937Y-13968571D02*
X28327365Y-14379999D01*
X28327365Y-14379999D02*
X28327365Y-13934285D01*
D10*
X19933333Y-12181927D02*
X19800000Y-11991451D01*
X19704762Y-12181927D02*
X19704762Y-11781927D01*
X19704762Y-11781927D02*
X19857143Y-11781927D01*
X19857143Y-11781927D02*
X19895238Y-11800975D01*
X19895238Y-11800975D02*
X19914285Y-11820022D01*
X19914285Y-11820022D02*
X19933333Y-11858118D01*
X19933333Y-11858118D02*
X19933333Y-11915260D01*
X19933333Y-11915260D02*
X19914285Y-11953356D01*
X19914285Y-11953356D02*
X19895238Y-11972403D01*
X19895238Y-11972403D02*
X19857143Y-11991451D01*
X19857143Y-11991451D02*
X19704762Y-11991451D01*
X20066666Y-11781927D02*
X20314285Y-11781927D01*
X20314285Y-11781927D02*
X20180952Y-11934308D01*
X20180952Y-11934308D02*
X20238095Y-11934308D01*
X20238095Y-11934308D02*
X20276190Y-11953356D01*
X20276190Y-11953356D02*
X20295238Y-11972403D01*
X20295238Y-11972403D02*
X20314285Y-12010499D01*
X20314285Y-12010499D02*
X20314285Y-12105737D01*
X20314285Y-12105737D02*
X20295238Y-12143832D01*
X20295238Y-12143832D02*
X20276190Y-12162880D01*
X20276190Y-12162880D02*
X20238095Y-12181927D01*
X20238095Y-12181927D02*
X20123809Y-12181927D01*
X20123809Y-12181927D02*
X20085714Y-12162880D01*
X20085714Y-12162880D02*
X20066666Y-12143832D01*
D12*
X65358095Y-68304819D02*
X65358095Y-69114342D01*
X65358095Y-69114342D02*
X65405714Y-69209580D01*
X65405714Y-69209580D02*
X65453333Y-69257200D01*
X65453333Y-69257200D02*
X65548571Y-69304819D01*
X65548571Y-69304819D02*
X65739047Y-69304819D01*
X65739047Y-69304819D02*
X65834285Y-69257200D01*
X65834285Y-69257200D02*
X65881904Y-69209580D01*
X65881904Y-69209580D02*
X65929523Y-69114342D01*
X65929523Y-69114342D02*
X65929523Y-68304819D01*
X66310476Y-68304819D02*
X66977142Y-68304819D01*
X66977142Y-68304819D02*
X66548571Y-69304819D01*
D11*
X28327365Y-37031428D02*
X27607365Y-37031428D01*
X27607365Y-37031428D02*
X27607365Y-36859999D01*
X27607365Y-36859999D02*
X27641651Y-36757142D01*
X27641651Y-36757142D02*
X27710222Y-36688571D01*
X27710222Y-36688571D02*
X27778794Y-36654285D01*
X27778794Y-36654285D02*
X27915937Y-36619999D01*
X27915937Y-36619999D02*
X28018794Y-36619999D01*
X28018794Y-36619999D02*
X28155937Y-36654285D01*
X28155937Y-36654285D02*
X28224508Y-36688571D01*
X28224508Y-36688571D02*
X28293080Y-36757142D01*
X28293080Y-36757142D02*
X28327365Y-36859999D01*
X28327365Y-36859999D02*
X28327365Y-37031428D01*
X27607365Y-36002857D02*
X27607365Y-36139999D01*
X27607365Y-36139999D02*
X27641651Y-36208571D01*
X27641651Y-36208571D02*
X27675937Y-36242857D01*
X27675937Y-36242857D02*
X27778794Y-36311428D01*
X27778794Y-36311428D02*
X27915937Y-36345714D01*
X27915937Y-36345714D02*
X28190222Y-36345714D01*
X28190222Y-36345714D02*
X28258794Y-36311428D01*
X28258794Y-36311428D02*
X28293080Y-36277142D01*
X28293080Y-36277142D02*
X28327365Y-36208571D01*
X28327365Y-36208571D02*
X28327365Y-36071428D01*
X28327365Y-36071428D02*
X28293080Y-36002857D01*
X28293080Y-36002857D02*
X28258794Y-35968571D01*
X28258794Y-35968571D02*
X28190222Y-35934285D01*
X28190222Y-35934285D02*
X28018794Y-35934285D01*
X28018794Y-35934285D02*
X27950222Y-35968571D01*
X27950222Y-35968571D02*
X27915937Y-36002857D01*
X27915937Y-36002857D02*
X27881651Y-36071428D01*
X27881651Y-36071428D02*
X27881651Y-36208571D01*
X27881651Y-36208571D02*
X27915937Y-36277142D01*
X27915937Y-36277142D02*
X27950222Y-36311428D01*
X27950222Y-36311428D02*
X28018794Y-36345714D01*
D10*
X19933333Y-24181927D02*
X19800000Y-23991451D01*
X19704762Y-24181927D02*
X19704762Y-23781927D01*
X19704762Y-23781927D02*
X19857143Y-23781927D01*
X19857143Y-23781927D02*
X19895238Y-23800975D01*
X19895238Y-23800975D02*
X19914285Y-23820022D01*
X19914285Y-23820022D02*
X19933333Y-23858118D01*
X19933333Y-23858118D02*
X19933333Y-23915260D01*
X19933333Y-23915260D02*
X19914285Y-23953356D01*
X19914285Y-23953356D02*
X19895238Y-23972403D01*
X19895238Y-23972403D02*
X19857143Y-23991451D01*
X19857143Y-23991451D02*
X19704762Y-23991451D01*
X20161904Y-23953356D02*
X20123809Y-23934308D01*
X20123809Y-23934308D02*
X20104762Y-23915260D01*
X20104762Y-23915260D02*
X20085714Y-23877165D01*
X20085714Y-23877165D02*
X20085714Y-23858118D01*
X20085714Y-23858118D02*
X20104762Y-23820022D01*
X20104762Y-23820022D02*
X20123809Y-23800975D01*
X20123809Y-23800975D02*
X20161904Y-23781927D01*
X20161904Y-23781927D02*
X20238095Y-23781927D01*
X20238095Y-23781927D02*
X20276190Y-23800975D01*
X20276190Y-23800975D02*
X20295238Y-23820022D01*
X20295238Y-23820022D02*
X20314285Y-23858118D01*
X20314285Y-23858118D02*
X20314285Y-23877165D01*
X20314285Y-23877165D02*
X20295238Y-23915260D01*
X20295238Y-23915260D02*
X20276190Y-23934308D01*
X20276190Y-23934308D02*
X20238095Y-23953356D01*
X20238095Y-23953356D02*
X20161904Y-23953356D01*
X20161904Y-23953356D02*
X20123809Y-23972403D01*
X20123809Y-23972403D02*
X20104762Y-23991451D01*
X20104762Y-23991451D02*
X20085714Y-24029546D01*
X20085714Y-24029546D02*
X20085714Y-24105737D01*
X20085714Y-24105737D02*
X20104762Y-24143832D01*
X20104762Y-24143832D02*
X20123809Y-24162880D01*
X20123809Y-24162880D02*
X20161904Y-24181927D01*
X20161904Y-24181927D02*
X20238095Y-24181927D01*
X20238095Y-24181927D02*
X20276190Y-24162880D01*
X20276190Y-24162880D02*
X20295238Y-24143832D01*
X20295238Y-24143832D02*
X20314285Y-24105737D01*
X20314285Y-24105737D02*
X20314285Y-24029546D01*
X20314285Y-24029546D02*
X20295238Y-23991451D01*
X20295238Y-23991451D02*
X20276190Y-23972403D01*
X20276190Y-23972403D02*
X20238095Y-23953356D01*
D12*
X81166666Y-77654819D02*
X81166666Y-78369104D01*
X81166666Y-78369104D02*
X81119047Y-78511961D01*
X81119047Y-78511961D02*
X81023809Y-78607200D01*
X81023809Y-78607200D02*
X80880952Y-78654819D01*
X80880952Y-78654819D02*
X80785714Y-78654819D01*
X82071428Y-77988152D02*
X82071428Y-78654819D01*
X81833333Y-77607200D02*
X81595238Y-78321485D01*
X81595238Y-78321485D02*
X82214285Y-78321485D01*
X51454819Y-46603333D02*
X52169104Y-46603333D01*
X52169104Y-46603333D02*
X52311961Y-46650952D01*
X52311961Y-46650952D02*
X52407200Y-46746190D01*
X52407200Y-46746190D02*
X52454819Y-46889047D01*
X52454819Y-46889047D02*
X52454819Y-46984285D01*
X51454819Y-45650952D02*
X51454819Y-46127142D01*
X51454819Y-46127142D02*
X51931009Y-46174761D01*
X51931009Y-46174761D02*
X51883390Y-46127142D01*
X51883390Y-46127142D02*
X51835771Y-46031904D01*
X51835771Y-46031904D02*
X51835771Y-45793809D01*
X51835771Y-45793809D02*
X51883390Y-45698571D01*
X51883390Y-45698571D02*
X51931009Y-45650952D01*
X51931009Y-45650952D02*
X52026247Y-45603333D01*
X52026247Y-45603333D02*
X52264342Y-45603333D01*
X52264342Y-45603333D02*
X52359580Y-45650952D01*
X52359580Y-45650952D02*
X52407200Y-45698571D01*
X52407200Y-45698571D02*
X52454819Y-45793809D01*
X52454819Y-45793809D02*
X52454819Y-46031904D01*
X52454819Y-46031904D02*
X52407200Y-46127142D01*
X52407200Y-46127142D02*
X52359580Y-46174761D01*
D14*
X67678571Y-82179530D02*
X67654762Y-82203340D01*
X67654762Y-82203340D02*
X67583333Y-82227149D01*
X67583333Y-82227149D02*
X67535714Y-82227149D01*
X67535714Y-82227149D02*
X67464286Y-82203340D01*
X67464286Y-82203340D02*
X67416667Y-82155720D01*
X67416667Y-82155720D02*
X67392857Y-82108101D01*
X67392857Y-82108101D02*
X67369048Y-82012863D01*
X67369048Y-82012863D02*
X67369048Y-81941435D01*
X67369048Y-81941435D02*
X67392857Y-81846197D01*
X67392857Y-81846197D02*
X67416667Y-81798578D01*
X67416667Y-81798578D02*
X67464286Y-81750959D01*
X67464286Y-81750959D02*
X67535714Y-81727149D01*
X67535714Y-81727149D02*
X67583333Y-81727149D01*
X67583333Y-81727149D02*
X67654762Y-81750959D01*
X67654762Y-81750959D02*
X67678571Y-81774768D01*
X68154762Y-82227149D02*
X67869048Y-82227149D01*
X68011905Y-82227149D02*
X68011905Y-81727149D01*
X68011905Y-81727149D02*
X67964286Y-81798578D01*
X67964286Y-81798578D02*
X67916667Y-81846197D01*
X67916667Y-81846197D02*
X67869048Y-81870006D01*
X68345238Y-81774768D02*
X68369047Y-81750959D01*
X68369047Y-81750959D02*
X68416666Y-81727149D01*
X68416666Y-81727149D02*
X68535714Y-81727149D01*
X68535714Y-81727149D02*
X68583333Y-81750959D01*
X68583333Y-81750959D02*
X68607142Y-81774768D01*
X68607142Y-81774768D02*
X68630952Y-81822387D01*
X68630952Y-81822387D02*
X68630952Y-81870006D01*
X68630952Y-81870006D02*
X68607142Y-81941435D01*
X68607142Y-81941435D02*
X68321428Y-82227149D01*
X68321428Y-82227149D02*
X68630952Y-82227149D01*
D10*
X19742857Y-51181927D02*
X19609524Y-50991451D01*
X19514286Y-51181927D02*
X19514286Y-50781927D01*
X19514286Y-50781927D02*
X19666667Y-50781927D01*
X19666667Y-50781927D02*
X19704762Y-50800975D01*
X19704762Y-50800975D02*
X19723809Y-50820022D01*
X19723809Y-50820022D02*
X19742857Y-50858118D01*
X19742857Y-50858118D02*
X19742857Y-50915260D01*
X19742857Y-50915260D02*
X19723809Y-50953356D01*
X19723809Y-50953356D02*
X19704762Y-50972403D01*
X19704762Y-50972403D02*
X19666667Y-50991451D01*
X19666667Y-50991451D02*
X19514286Y-50991451D01*
X20123809Y-51181927D02*
X19895238Y-51181927D01*
X20009524Y-51181927D02*
X20009524Y-50781927D01*
X20009524Y-50781927D02*
X19971428Y-50839070D01*
X19971428Y-50839070D02*
X19933333Y-50877165D01*
X19933333Y-50877165D02*
X19895238Y-50896213D01*
X20257142Y-50781927D02*
X20523809Y-50781927D01*
X20523809Y-50781927D02*
X20352380Y-51181927D01*
X43742857Y-50181927D02*
X43609524Y-49991451D01*
X43514286Y-50181927D02*
X43514286Y-49781927D01*
X43514286Y-49781927D02*
X43666667Y-49781927D01*
X43666667Y-49781927D02*
X43704762Y-49800975D01*
X43704762Y-49800975D02*
X43723809Y-49820022D01*
X43723809Y-49820022D02*
X43742857Y-49858118D01*
X43742857Y-49858118D02*
X43742857Y-49915260D01*
X43742857Y-49915260D02*
X43723809Y-49953356D01*
X43723809Y-49953356D02*
X43704762Y-49972403D01*
X43704762Y-49972403D02*
X43666667Y-49991451D01*
X43666667Y-49991451D02*
X43514286Y-49991451D01*
X43895238Y-49820022D02*
X43914286Y-49800975D01*
X43914286Y-49800975D02*
X43952381Y-49781927D01*
X43952381Y-49781927D02*
X44047619Y-49781927D01*
X44047619Y-49781927D02*
X44085714Y-49800975D01*
X44085714Y-49800975D02*
X44104762Y-49820022D01*
X44104762Y-49820022D02*
X44123809Y-49858118D01*
X44123809Y-49858118D02*
X44123809Y-49896213D01*
X44123809Y-49896213D02*
X44104762Y-49953356D01*
X44104762Y-49953356D02*
X43876190Y-50181927D01*
X43876190Y-50181927D02*
X44123809Y-50181927D01*
X44466666Y-49915260D02*
X44466666Y-50181927D01*
X44371428Y-49762880D02*
X44276190Y-50048594D01*
X44276190Y-50048594D02*
X44523809Y-50048594D01*
X19933333Y-21181927D02*
X19800000Y-20991451D01*
X19704762Y-21181927D02*
X19704762Y-20781927D01*
X19704762Y-20781927D02*
X19857143Y-20781927D01*
X19857143Y-20781927D02*
X19895238Y-20800975D01*
X19895238Y-20800975D02*
X19914285Y-20820022D01*
X19914285Y-20820022D02*
X19933333Y-20858118D01*
X19933333Y-20858118D02*
X19933333Y-20915260D01*
X19933333Y-20915260D02*
X19914285Y-20953356D01*
X19914285Y-20953356D02*
X19895238Y-20972403D01*
X19895238Y-20972403D02*
X19857143Y-20991451D01*
X19857143Y-20991451D02*
X19704762Y-20991451D01*
X20066666Y-20781927D02*
X20333333Y-20781927D01*
X20333333Y-20781927D02*
X20161904Y-21181927D01*
D14*
X77678571Y-49179530D02*
X77654762Y-49203340D01*
X77654762Y-49203340D02*
X77583333Y-49227149D01*
X77583333Y-49227149D02*
X77535714Y-49227149D01*
X77535714Y-49227149D02*
X77464286Y-49203340D01*
X77464286Y-49203340D02*
X77416667Y-49155720D01*
X77416667Y-49155720D02*
X77392857Y-49108101D01*
X77392857Y-49108101D02*
X77369048Y-49012863D01*
X77369048Y-49012863D02*
X77369048Y-48941435D01*
X77369048Y-48941435D02*
X77392857Y-48846197D01*
X77392857Y-48846197D02*
X77416667Y-48798578D01*
X77416667Y-48798578D02*
X77464286Y-48750959D01*
X77464286Y-48750959D02*
X77535714Y-48727149D01*
X77535714Y-48727149D02*
X77583333Y-48727149D01*
X77583333Y-48727149D02*
X77654762Y-48750959D01*
X77654762Y-48750959D02*
X77678571Y-48774768D01*
X78154762Y-49227149D02*
X77869048Y-49227149D01*
X78011905Y-49227149D02*
X78011905Y-48727149D01*
X78011905Y-48727149D02*
X77964286Y-48798578D01*
X77964286Y-48798578D02*
X77916667Y-48846197D01*
X77916667Y-48846197D02*
X77869048Y-48870006D01*
X78630952Y-49227149D02*
X78345238Y-49227149D01*
X78488095Y-49227149D02*
X78488095Y-48727149D01*
X78488095Y-48727149D02*
X78440476Y-48798578D01*
X78440476Y-48798578D02*
X78392857Y-48846197D01*
X78392857Y-48846197D02*
X78345238Y-48870006D01*
D11*
X34327365Y-15374285D02*
X33607365Y-15374285D01*
X33607365Y-15374285D02*
X33607365Y-15202856D01*
X33607365Y-15202856D02*
X33641651Y-15099999D01*
X33641651Y-15099999D02*
X33710222Y-15031428D01*
X33710222Y-15031428D02*
X33778794Y-14997142D01*
X33778794Y-14997142D02*
X33915937Y-14962856D01*
X33915937Y-14962856D02*
X34018794Y-14962856D01*
X34018794Y-14962856D02*
X34155937Y-14997142D01*
X34155937Y-14997142D02*
X34224508Y-15031428D01*
X34224508Y-15031428D02*
X34293080Y-15099999D01*
X34293080Y-15099999D02*
X34327365Y-15202856D01*
X34327365Y-15202856D02*
X34327365Y-15374285D01*
X34327365Y-14277142D02*
X34327365Y-14688571D01*
X34327365Y-14482856D02*
X33607365Y-14482856D01*
X33607365Y-14482856D02*
X33710222Y-14551428D01*
X33710222Y-14551428D02*
X33778794Y-14619999D01*
X33778794Y-14619999D02*
X33813080Y-14688571D01*
X34327365Y-13591428D02*
X34327365Y-14002857D01*
X34327365Y-13797142D02*
X33607365Y-13797142D01*
X33607365Y-13797142D02*
X33710222Y-13865714D01*
X33710222Y-13865714D02*
X33778794Y-13934285D01*
X33778794Y-13934285D02*
X33813080Y-14002857D01*
D10*
X19742857Y-54181927D02*
X19609524Y-53991451D01*
X19514286Y-54181927D02*
X19514286Y-53781927D01*
X19514286Y-53781927D02*
X19666667Y-53781927D01*
X19666667Y-53781927D02*
X19704762Y-53800975D01*
X19704762Y-53800975D02*
X19723809Y-53820022D01*
X19723809Y-53820022D02*
X19742857Y-53858118D01*
X19742857Y-53858118D02*
X19742857Y-53915260D01*
X19742857Y-53915260D02*
X19723809Y-53953356D01*
X19723809Y-53953356D02*
X19704762Y-53972403D01*
X19704762Y-53972403D02*
X19666667Y-53991451D01*
X19666667Y-53991451D02*
X19514286Y-53991451D01*
X20123809Y-54181927D02*
X19895238Y-54181927D01*
X20009524Y-54181927D02*
X20009524Y-53781927D01*
X20009524Y-53781927D02*
X19971428Y-53839070D01*
X19971428Y-53839070D02*
X19933333Y-53877165D01*
X19933333Y-53877165D02*
X19895238Y-53896213D01*
X20352380Y-53953356D02*
X20314285Y-53934308D01*
X20314285Y-53934308D02*
X20295238Y-53915260D01*
X20295238Y-53915260D02*
X20276190Y-53877165D01*
X20276190Y-53877165D02*
X20276190Y-53858118D01*
X20276190Y-53858118D02*
X20295238Y-53820022D01*
X20295238Y-53820022D02*
X20314285Y-53800975D01*
X20314285Y-53800975D02*
X20352380Y-53781927D01*
X20352380Y-53781927D02*
X20428571Y-53781927D01*
X20428571Y-53781927D02*
X20466666Y-53800975D01*
X20466666Y-53800975D02*
X20485714Y-53820022D01*
X20485714Y-53820022D02*
X20504761Y-53858118D01*
X20504761Y-53858118D02*
X20504761Y-53877165D01*
X20504761Y-53877165D02*
X20485714Y-53915260D01*
X20485714Y-53915260D02*
X20466666Y-53934308D01*
X20466666Y-53934308D02*
X20428571Y-53953356D01*
X20428571Y-53953356D02*
X20352380Y-53953356D01*
X20352380Y-53953356D02*
X20314285Y-53972403D01*
X20314285Y-53972403D02*
X20295238Y-53991451D01*
X20295238Y-53991451D02*
X20276190Y-54029546D01*
X20276190Y-54029546D02*
X20276190Y-54105737D01*
X20276190Y-54105737D02*
X20295238Y-54143832D01*
X20295238Y-54143832D02*
X20314285Y-54162880D01*
X20314285Y-54162880D02*
X20352380Y-54181927D01*
X20352380Y-54181927D02*
X20428571Y-54181927D01*
X20428571Y-54181927D02*
X20466666Y-54162880D01*
X20466666Y-54162880D02*
X20485714Y-54143832D01*
X20485714Y-54143832D02*
X20504761Y-54105737D01*
X20504761Y-54105737D02*
X20504761Y-54029546D01*
X20504761Y-54029546D02*
X20485714Y-53991451D01*
X20485714Y-53991451D02*
X20466666Y-53972403D01*
X20466666Y-53972403D02*
X20428571Y-53953356D01*
D12*
X39644819Y-67071904D02*
X40454342Y-67071904D01*
X40454342Y-67071904D02*
X40549580Y-67024285D01*
X40549580Y-67024285D02*
X40597200Y-66976666D01*
X40597200Y-66976666D02*
X40644819Y-66881428D01*
X40644819Y-66881428D02*
X40644819Y-66690952D01*
X40644819Y-66690952D02*
X40597200Y-66595714D01*
X40597200Y-66595714D02*
X40549580Y-66548095D01*
X40549580Y-66548095D02*
X40454342Y-66500476D01*
X40454342Y-66500476D02*
X39644819Y-66500476D01*
X39644819Y-65595714D02*
X39644819Y-65786190D01*
X39644819Y-65786190D02*
X39692438Y-65881428D01*
X39692438Y-65881428D02*
X39740057Y-65929047D01*
X39740057Y-65929047D02*
X39882914Y-66024285D01*
X39882914Y-66024285D02*
X40073390Y-66071904D01*
X40073390Y-66071904D02*
X40454342Y-66071904D01*
X40454342Y-66071904D02*
X40549580Y-66024285D01*
X40549580Y-66024285D02*
X40597200Y-65976666D01*
X40597200Y-65976666D02*
X40644819Y-65881428D01*
X40644819Y-65881428D02*
X40644819Y-65690952D01*
X40644819Y-65690952D02*
X40597200Y-65595714D01*
X40597200Y-65595714D02*
X40549580Y-65548095D01*
X40549580Y-65548095D02*
X40454342Y-65500476D01*
X40454342Y-65500476D02*
X40216247Y-65500476D01*
X40216247Y-65500476D02*
X40121009Y-65548095D01*
X40121009Y-65548095D02*
X40073390Y-65595714D01*
X40073390Y-65595714D02*
X40025771Y-65690952D01*
X40025771Y-65690952D02*
X40025771Y-65881428D01*
X40025771Y-65881428D02*
X40073390Y-65976666D01*
X40073390Y-65976666D02*
X40121009Y-66024285D01*
X40121009Y-66024285D02*
X40216247Y-66071904D01*
D10*
X19742857Y-39181927D02*
X19609524Y-38991451D01*
X19514286Y-39181927D02*
X19514286Y-38781927D01*
X19514286Y-38781927D02*
X19666667Y-38781927D01*
X19666667Y-38781927D02*
X19704762Y-38800975D01*
X19704762Y-38800975D02*
X19723809Y-38820022D01*
X19723809Y-38820022D02*
X19742857Y-38858118D01*
X19742857Y-38858118D02*
X19742857Y-38915260D01*
X19742857Y-38915260D02*
X19723809Y-38953356D01*
X19723809Y-38953356D02*
X19704762Y-38972403D01*
X19704762Y-38972403D02*
X19666667Y-38991451D01*
X19666667Y-38991451D02*
X19514286Y-38991451D01*
X20123809Y-39181927D02*
X19895238Y-39181927D01*
X20009524Y-39181927D02*
X20009524Y-38781927D01*
X20009524Y-38781927D02*
X19971428Y-38839070D01*
X19971428Y-38839070D02*
X19933333Y-38877165D01*
X19933333Y-38877165D02*
X19895238Y-38896213D01*
X20257142Y-38781927D02*
X20504761Y-38781927D01*
X20504761Y-38781927D02*
X20371428Y-38934308D01*
X20371428Y-38934308D02*
X20428571Y-38934308D01*
X20428571Y-38934308D02*
X20466666Y-38953356D01*
X20466666Y-38953356D02*
X20485714Y-38972403D01*
X20485714Y-38972403D02*
X20504761Y-39010499D01*
X20504761Y-39010499D02*
X20504761Y-39105737D01*
X20504761Y-39105737D02*
X20485714Y-39143832D01*
X20485714Y-39143832D02*
X20466666Y-39162880D01*
X20466666Y-39162880D02*
X20428571Y-39181927D01*
X20428571Y-39181927D02*
X20314285Y-39181927D01*
X20314285Y-39181927D02*
X20276190Y-39162880D01*
X20276190Y-39162880D02*
X20257142Y-39143832D01*
D14*
X77678571Y-43179530D02*
X77654762Y-43203340D01*
X77654762Y-43203340D02*
X77583333Y-43227149D01*
X77583333Y-43227149D02*
X77535714Y-43227149D01*
X77535714Y-43227149D02*
X77464286Y-43203340D01*
X77464286Y-43203340D02*
X77416667Y-43155720D01*
X77416667Y-43155720D02*
X77392857Y-43108101D01*
X77392857Y-43108101D02*
X77369048Y-43012863D01*
X77369048Y-43012863D02*
X77369048Y-42941435D01*
X77369048Y-42941435D02*
X77392857Y-42846197D01*
X77392857Y-42846197D02*
X77416667Y-42798578D01*
X77416667Y-42798578D02*
X77464286Y-42750959D01*
X77464286Y-42750959D02*
X77535714Y-42727149D01*
X77535714Y-42727149D02*
X77583333Y-42727149D01*
X77583333Y-42727149D02*
X77654762Y-42750959D01*
X77654762Y-42750959D02*
X77678571Y-42774768D01*
X78154762Y-43227149D02*
X77869048Y-43227149D01*
X78011905Y-43227149D02*
X78011905Y-42727149D01*
X78011905Y-42727149D02*
X77964286Y-42798578D01*
X77964286Y-42798578D02*
X77916667Y-42846197D01*
X77916667Y-42846197D02*
X77869048Y-42870006D01*
X78464285Y-42727149D02*
X78511904Y-42727149D01*
X78511904Y-42727149D02*
X78559523Y-42750959D01*
X78559523Y-42750959D02*
X78583333Y-42774768D01*
X78583333Y-42774768D02*
X78607142Y-42822387D01*
X78607142Y-42822387D02*
X78630952Y-42917625D01*
X78630952Y-42917625D02*
X78630952Y-43036673D01*
X78630952Y-43036673D02*
X78607142Y-43131911D01*
X78607142Y-43131911D02*
X78583333Y-43179530D01*
X78583333Y-43179530D02*
X78559523Y-43203340D01*
X78559523Y-43203340D02*
X78511904Y-43227149D01*
X78511904Y-43227149D02*
X78464285Y-43227149D01*
X78464285Y-43227149D02*
X78416666Y-43203340D01*
X78416666Y-43203340D02*
X78392857Y-43179530D01*
X78392857Y-43179530D02*
X78369047Y-43131911D01*
X78369047Y-43131911D02*
X78345238Y-43036673D01*
X78345238Y-43036673D02*
X78345238Y-42917625D01*
X78345238Y-42917625D02*
X78369047Y-42822387D01*
X78369047Y-42822387D02*
X78392857Y-42774768D01*
X78392857Y-42774768D02*
X78416666Y-42750959D01*
X78416666Y-42750959D02*
X78464285Y-42727149D01*
D11*
X28327365Y-31531428D02*
X27607365Y-31531428D01*
X27607365Y-31531428D02*
X27607365Y-31359999D01*
X27607365Y-31359999D02*
X27641651Y-31257142D01*
X27641651Y-31257142D02*
X27710222Y-31188571D01*
X27710222Y-31188571D02*
X27778794Y-31154285D01*
X27778794Y-31154285D02*
X27915937Y-31119999D01*
X27915937Y-31119999D02*
X28018794Y-31119999D01*
X28018794Y-31119999D02*
X28155937Y-31154285D01*
X28155937Y-31154285D02*
X28224508Y-31188571D01*
X28224508Y-31188571D02*
X28293080Y-31257142D01*
X28293080Y-31257142D02*
X28327365Y-31359999D01*
X28327365Y-31359999D02*
X28327365Y-31531428D01*
X27607365Y-30468571D02*
X27607365Y-30811428D01*
X27607365Y-30811428D02*
X27950222Y-30845714D01*
X27950222Y-30845714D02*
X27915937Y-30811428D01*
X27915937Y-30811428D02*
X27881651Y-30742857D01*
X27881651Y-30742857D02*
X27881651Y-30571428D01*
X27881651Y-30571428D02*
X27915937Y-30502857D01*
X27915937Y-30502857D02*
X27950222Y-30468571D01*
X27950222Y-30468571D02*
X28018794Y-30434285D01*
X28018794Y-30434285D02*
X28190222Y-30434285D01*
X28190222Y-30434285D02*
X28258794Y-30468571D01*
X28258794Y-30468571D02*
X28293080Y-30502857D01*
X28293080Y-30502857D02*
X28327365Y-30571428D01*
X28327365Y-30571428D02*
X28327365Y-30742857D01*
X28327365Y-30742857D02*
X28293080Y-30811428D01*
X28293080Y-30811428D02*
X28258794Y-30845714D01*
D12*
X45238095Y-25454819D02*
X45238095Y-26264342D01*
X45238095Y-26264342D02*
X45285714Y-26359580D01*
X45285714Y-26359580D02*
X45333333Y-26407200D01*
X45333333Y-26407200D02*
X45428571Y-26454819D01*
X45428571Y-26454819D02*
X45619047Y-26454819D01*
X45619047Y-26454819D02*
X45714285Y-26407200D01*
X45714285Y-26407200D02*
X45761904Y-26359580D01*
X45761904Y-26359580D02*
X45809523Y-26264342D01*
X45809523Y-26264342D02*
X45809523Y-25454819D01*
X46238095Y-25550057D02*
X46285714Y-25502438D01*
X46285714Y-25502438D02*
X46380952Y-25454819D01*
X46380952Y-25454819D02*
X46619047Y-25454819D01*
X46619047Y-25454819D02*
X46714285Y-25502438D01*
X46714285Y-25502438D02*
X46761904Y-25550057D01*
X46761904Y-25550057D02*
X46809523Y-25645295D01*
X46809523Y-25645295D02*
X46809523Y-25740533D01*
X46809523Y-25740533D02*
X46761904Y-25883390D01*
X46761904Y-25883390D02*
X46190476Y-26454819D01*
X46190476Y-26454819D02*
X46809523Y-26454819D01*
D10*
X43742857Y-54181927D02*
X43609524Y-53991451D01*
X43514286Y-54181927D02*
X43514286Y-53781927D01*
X43514286Y-53781927D02*
X43666667Y-53781927D01*
X43666667Y-53781927D02*
X43704762Y-53800975D01*
X43704762Y-53800975D02*
X43723809Y-53820022D01*
X43723809Y-53820022D02*
X43742857Y-53858118D01*
X43742857Y-53858118D02*
X43742857Y-53915260D01*
X43742857Y-53915260D02*
X43723809Y-53953356D01*
X43723809Y-53953356D02*
X43704762Y-53972403D01*
X43704762Y-53972403D02*
X43666667Y-53991451D01*
X43666667Y-53991451D02*
X43514286Y-53991451D01*
X43895238Y-53820022D02*
X43914286Y-53800975D01*
X43914286Y-53800975D02*
X43952381Y-53781927D01*
X43952381Y-53781927D02*
X44047619Y-53781927D01*
X44047619Y-53781927D02*
X44085714Y-53800975D01*
X44085714Y-53800975D02*
X44104762Y-53820022D01*
X44104762Y-53820022D02*
X44123809Y-53858118D01*
X44123809Y-53858118D02*
X44123809Y-53896213D01*
X44123809Y-53896213D02*
X44104762Y-53953356D01*
X44104762Y-53953356D02*
X43876190Y-54181927D01*
X43876190Y-54181927D02*
X44123809Y-54181927D01*
X44466666Y-53781927D02*
X44390476Y-53781927D01*
X44390476Y-53781927D02*
X44352380Y-53800975D01*
X44352380Y-53800975D02*
X44333333Y-53820022D01*
X44333333Y-53820022D02*
X44295238Y-53877165D01*
X44295238Y-53877165D02*
X44276190Y-53953356D01*
X44276190Y-53953356D02*
X44276190Y-54105737D01*
X44276190Y-54105737D02*
X44295238Y-54143832D01*
X44295238Y-54143832D02*
X44314285Y-54162880D01*
X44314285Y-54162880D02*
X44352380Y-54181927D01*
X44352380Y-54181927D02*
X44428571Y-54181927D01*
X44428571Y-54181927D02*
X44466666Y-54162880D01*
X44466666Y-54162880D02*
X44485714Y-54143832D01*
X44485714Y-54143832D02*
X44504761Y-54105737D01*
X44504761Y-54105737D02*
X44504761Y-54010499D01*
X44504761Y-54010499D02*
X44485714Y-53972403D01*
X44485714Y-53972403D02*
X44466666Y-53953356D01*
X44466666Y-53953356D02*
X44428571Y-53934308D01*
X44428571Y-53934308D02*
X44352380Y-53934308D01*
X44352380Y-53934308D02*
X44314285Y-53953356D01*
X44314285Y-53953356D02*
X44295238Y-53972403D01*
X44295238Y-53972403D02*
X44276190Y-54010499D01*
X19742857Y-73181927D02*
X19609524Y-72991451D01*
X19514286Y-73181927D02*
X19514286Y-72781927D01*
X19514286Y-72781927D02*
X19666667Y-72781927D01*
X19666667Y-72781927D02*
X19704762Y-72800975D01*
X19704762Y-72800975D02*
X19723809Y-72820022D01*
X19723809Y-72820022D02*
X19742857Y-72858118D01*
X19742857Y-72858118D02*
X19742857Y-72915260D01*
X19742857Y-72915260D02*
X19723809Y-72953356D01*
X19723809Y-72953356D02*
X19704762Y-72972403D01*
X19704762Y-72972403D02*
X19666667Y-72991451D01*
X19666667Y-72991451D02*
X19514286Y-72991451D01*
X19895238Y-72820022D02*
X19914286Y-72800975D01*
X19914286Y-72800975D02*
X19952381Y-72781927D01*
X19952381Y-72781927D02*
X20047619Y-72781927D01*
X20047619Y-72781927D02*
X20085714Y-72800975D01*
X20085714Y-72800975D02*
X20104762Y-72820022D01*
X20104762Y-72820022D02*
X20123809Y-72858118D01*
X20123809Y-72858118D02*
X20123809Y-72896213D01*
X20123809Y-72896213D02*
X20104762Y-72953356D01*
X20104762Y-72953356D02*
X19876190Y-73181927D01*
X19876190Y-73181927D02*
X20123809Y-73181927D01*
X20504761Y-73181927D02*
X20276190Y-73181927D01*
X20390476Y-73181927D02*
X20390476Y-72781927D01*
X20390476Y-72781927D02*
X20352380Y-72839070D01*
X20352380Y-72839070D02*
X20314285Y-72877165D01*
X20314285Y-72877165D02*
X20276190Y-72896213D01*
D11*
X28327365Y-20531428D02*
X27607365Y-20531428D01*
X27607365Y-20531428D02*
X27607365Y-20359999D01*
X27607365Y-20359999D02*
X27641651Y-20257142D01*
X27641651Y-20257142D02*
X27710222Y-20188571D01*
X27710222Y-20188571D02*
X27778794Y-20154285D01*
X27778794Y-20154285D02*
X27915937Y-20119999D01*
X27915937Y-20119999D02*
X28018794Y-20119999D01*
X28018794Y-20119999D02*
X28155937Y-20154285D01*
X28155937Y-20154285D02*
X28224508Y-20188571D01*
X28224508Y-20188571D02*
X28293080Y-20257142D01*
X28293080Y-20257142D02*
X28327365Y-20359999D01*
X28327365Y-20359999D02*
X28327365Y-20531428D01*
X27607365Y-19879999D02*
X27607365Y-19434285D01*
X27607365Y-19434285D02*
X27881651Y-19674285D01*
X27881651Y-19674285D02*
X27881651Y-19571428D01*
X27881651Y-19571428D02*
X27915937Y-19502857D01*
X27915937Y-19502857D02*
X27950222Y-19468571D01*
X27950222Y-19468571D02*
X28018794Y-19434285D01*
X28018794Y-19434285D02*
X28190222Y-19434285D01*
X28190222Y-19434285D02*
X28258794Y-19468571D01*
X28258794Y-19468571D02*
X28293080Y-19502857D01*
X28293080Y-19502857D02*
X28327365Y-19571428D01*
X28327365Y-19571428D02*
X28327365Y-19777142D01*
X28327365Y-19777142D02*
X28293080Y-19845714D01*
X28293080Y-19845714D02*
X28258794Y-19879999D01*
D10*
X59933333Y-9181927D02*
X59800000Y-8991451D01*
X59704762Y-9181927D02*
X59704762Y-8781927D01*
X59704762Y-8781927D02*
X59857143Y-8781927D01*
X59857143Y-8781927D02*
X59895238Y-8800975D01*
X59895238Y-8800975D02*
X59914285Y-8820022D01*
X59914285Y-8820022D02*
X59933333Y-8858118D01*
X59933333Y-8858118D02*
X59933333Y-8915260D01*
X59933333Y-8915260D02*
X59914285Y-8953356D01*
X59914285Y-8953356D02*
X59895238Y-8972403D01*
X59895238Y-8972403D02*
X59857143Y-8991451D01*
X59857143Y-8991451D02*
X59704762Y-8991451D01*
X60085714Y-8820022D02*
X60104762Y-8800975D01*
X60104762Y-8800975D02*
X60142857Y-8781927D01*
X60142857Y-8781927D02*
X60238095Y-8781927D01*
X60238095Y-8781927D02*
X60276190Y-8800975D01*
X60276190Y-8800975D02*
X60295238Y-8820022D01*
X60295238Y-8820022D02*
X60314285Y-8858118D01*
X60314285Y-8858118D02*
X60314285Y-8896213D01*
X60314285Y-8896213D02*
X60295238Y-8953356D01*
X60295238Y-8953356D02*
X60066666Y-9181927D01*
X60066666Y-9181927D02*
X60314285Y-9181927D01*
X19742857Y-57181927D02*
X19609524Y-56991451D01*
X19514286Y-57181927D02*
X19514286Y-56781927D01*
X19514286Y-56781927D02*
X19666667Y-56781927D01*
X19666667Y-56781927D02*
X19704762Y-56800975D01*
X19704762Y-56800975D02*
X19723809Y-56820022D01*
X19723809Y-56820022D02*
X19742857Y-56858118D01*
X19742857Y-56858118D02*
X19742857Y-56915260D01*
X19742857Y-56915260D02*
X19723809Y-56953356D01*
X19723809Y-56953356D02*
X19704762Y-56972403D01*
X19704762Y-56972403D02*
X19666667Y-56991451D01*
X19666667Y-56991451D02*
X19514286Y-56991451D01*
X20123809Y-57181927D02*
X19895238Y-57181927D01*
X20009524Y-57181927D02*
X20009524Y-56781927D01*
X20009524Y-56781927D02*
X19971428Y-56839070D01*
X19971428Y-56839070D02*
X19933333Y-56877165D01*
X19933333Y-56877165D02*
X19895238Y-56896213D01*
X20314285Y-57181927D02*
X20390476Y-57181927D01*
X20390476Y-57181927D02*
X20428571Y-57162880D01*
X20428571Y-57162880D02*
X20447619Y-57143832D01*
X20447619Y-57143832D02*
X20485714Y-57086689D01*
X20485714Y-57086689D02*
X20504761Y-57010499D01*
X20504761Y-57010499D02*
X20504761Y-56858118D01*
X20504761Y-56858118D02*
X20485714Y-56820022D01*
X20485714Y-56820022D02*
X20466666Y-56800975D01*
X20466666Y-56800975D02*
X20428571Y-56781927D01*
X20428571Y-56781927D02*
X20352380Y-56781927D01*
X20352380Y-56781927D02*
X20314285Y-56800975D01*
X20314285Y-56800975D02*
X20295238Y-56820022D01*
X20295238Y-56820022D02*
X20276190Y-56858118D01*
X20276190Y-56858118D02*
X20276190Y-56953356D01*
X20276190Y-56953356D02*
X20295238Y-56991451D01*
X20295238Y-56991451D02*
X20314285Y-57010499D01*
X20314285Y-57010499D02*
X20352380Y-57029546D01*
X20352380Y-57029546D02*
X20428571Y-57029546D01*
X20428571Y-57029546D02*
X20466666Y-57010499D01*
X20466666Y-57010499D02*
X20485714Y-56991451D01*
X20485714Y-56991451D02*
X20504761Y-56953356D01*
X19742857Y-36181927D02*
X19609524Y-35991451D01*
X19514286Y-36181927D02*
X19514286Y-35781927D01*
X19514286Y-35781927D02*
X19666667Y-35781927D01*
X19666667Y-35781927D02*
X19704762Y-35800975D01*
X19704762Y-35800975D02*
X19723809Y-35820022D01*
X19723809Y-35820022D02*
X19742857Y-35858118D01*
X19742857Y-35858118D02*
X19742857Y-35915260D01*
X19742857Y-35915260D02*
X19723809Y-35953356D01*
X19723809Y-35953356D02*
X19704762Y-35972403D01*
X19704762Y-35972403D02*
X19666667Y-35991451D01*
X19666667Y-35991451D02*
X19514286Y-35991451D01*
X20123809Y-36181927D02*
X19895238Y-36181927D01*
X20009524Y-36181927D02*
X20009524Y-35781927D01*
X20009524Y-35781927D02*
X19971428Y-35839070D01*
X19971428Y-35839070D02*
X19933333Y-35877165D01*
X19933333Y-35877165D02*
X19895238Y-35896213D01*
X20276190Y-35820022D02*
X20295238Y-35800975D01*
X20295238Y-35800975D02*
X20333333Y-35781927D01*
X20333333Y-35781927D02*
X20428571Y-35781927D01*
X20428571Y-35781927D02*
X20466666Y-35800975D01*
X20466666Y-35800975D02*
X20485714Y-35820022D01*
X20485714Y-35820022D02*
X20504761Y-35858118D01*
X20504761Y-35858118D02*
X20504761Y-35896213D01*
X20504761Y-35896213D02*
X20485714Y-35953356D01*
X20485714Y-35953356D02*
X20257142Y-36181927D01*
X20257142Y-36181927D02*
X20504761Y-36181927D01*
X43742857Y-73181927D02*
X43609524Y-72991451D01*
X43514286Y-73181927D02*
X43514286Y-72781927D01*
X43514286Y-72781927D02*
X43666667Y-72781927D01*
X43666667Y-72781927D02*
X43704762Y-72800975D01*
X43704762Y-72800975D02*
X43723809Y-72820022D01*
X43723809Y-72820022D02*
X43742857Y-72858118D01*
X43742857Y-72858118D02*
X43742857Y-72915260D01*
X43742857Y-72915260D02*
X43723809Y-72953356D01*
X43723809Y-72953356D02*
X43704762Y-72972403D01*
X43704762Y-72972403D02*
X43666667Y-72991451D01*
X43666667Y-72991451D02*
X43514286Y-72991451D01*
X43895238Y-72820022D02*
X43914286Y-72800975D01*
X43914286Y-72800975D02*
X43952381Y-72781927D01*
X43952381Y-72781927D02*
X44047619Y-72781927D01*
X44047619Y-72781927D02*
X44085714Y-72800975D01*
X44085714Y-72800975D02*
X44104762Y-72820022D01*
X44104762Y-72820022D02*
X44123809Y-72858118D01*
X44123809Y-72858118D02*
X44123809Y-72896213D01*
X44123809Y-72896213D02*
X44104762Y-72953356D01*
X44104762Y-72953356D02*
X43876190Y-73181927D01*
X43876190Y-73181927D02*
X44123809Y-73181927D01*
X44485714Y-72781927D02*
X44295238Y-72781927D01*
X44295238Y-72781927D02*
X44276190Y-72972403D01*
X44276190Y-72972403D02*
X44295238Y-72953356D01*
X44295238Y-72953356D02*
X44333333Y-72934308D01*
X44333333Y-72934308D02*
X44428571Y-72934308D01*
X44428571Y-72934308D02*
X44466666Y-72953356D01*
X44466666Y-72953356D02*
X44485714Y-72972403D01*
X44485714Y-72972403D02*
X44504761Y-73010499D01*
X44504761Y-73010499D02*
X44504761Y-73105737D01*
X44504761Y-73105737D02*
X44485714Y-73143832D01*
X44485714Y-73143832D02*
X44466666Y-73162880D01*
X44466666Y-73162880D02*
X44428571Y-73181927D01*
X44428571Y-73181927D02*
X44333333Y-73181927D01*
X44333333Y-73181927D02*
X44295238Y-73162880D01*
X44295238Y-73162880D02*
X44276190Y-73143832D01*
X15742857Y-54181927D02*
X15609524Y-53991451D01*
X15514286Y-54181927D02*
X15514286Y-53781927D01*
X15514286Y-53781927D02*
X15666667Y-53781927D01*
X15666667Y-53781927D02*
X15704762Y-53800975D01*
X15704762Y-53800975D02*
X15723809Y-53820022D01*
X15723809Y-53820022D02*
X15742857Y-53858118D01*
X15742857Y-53858118D02*
X15742857Y-53915260D01*
X15742857Y-53915260D02*
X15723809Y-53953356D01*
X15723809Y-53953356D02*
X15704762Y-53972403D01*
X15704762Y-53972403D02*
X15666667Y-53991451D01*
X15666667Y-53991451D02*
X15514286Y-53991451D01*
X15895238Y-53820022D02*
X15914286Y-53800975D01*
X15914286Y-53800975D02*
X15952381Y-53781927D01*
X15952381Y-53781927D02*
X16047619Y-53781927D01*
X16047619Y-53781927D02*
X16085714Y-53800975D01*
X16085714Y-53800975D02*
X16104762Y-53820022D01*
X16104762Y-53820022D02*
X16123809Y-53858118D01*
X16123809Y-53858118D02*
X16123809Y-53896213D01*
X16123809Y-53896213D02*
X16104762Y-53953356D01*
X16104762Y-53953356D02*
X15876190Y-54181927D01*
X15876190Y-54181927D02*
X16123809Y-54181927D01*
X16276190Y-53820022D02*
X16295238Y-53800975D01*
X16295238Y-53800975D02*
X16333333Y-53781927D01*
X16333333Y-53781927D02*
X16428571Y-53781927D01*
X16428571Y-53781927D02*
X16466666Y-53800975D01*
X16466666Y-53800975D02*
X16485714Y-53820022D01*
X16485714Y-53820022D02*
X16504761Y-53858118D01*
X16504761Y-53858118D02*
X16504761Y-53896213D01*
X16504761Y-53896213D02*
X16485714Y-53953356D01*
X16485714Y-53953356D02*
X16257142Y-54181927D01*
X16257142Y-54181927D02*
X16504761Y-54181927D01*
X69933333Y-35143832D02*
X69914285Y-35162880D01*
X69914285Y-35162880D02*
X69857143Y-35181927D01*
X69857143Y-35181927D02*
X69819047Y-35181927D01*
X69819047Y-35181927D02*
X69761904Y-35162880D01*
X69761904Y-35162880D02*
X69723809Y-35124784D01*
X69723809Y-35124784D02*
X69704762Y-35086689D01*
X69704762Y-35086689D02*
X69685714Y-35010499D01*
X69685714Y-35010499D02*
X69685714Y-34953356D01*
X69685714Y-34953356D02*
X69704762Y-34877165D01*
X69704762Y-34877165D02*
X69723809Y-34839070D01*
X69723809Y-34839070D02*
X69761904Y-34800975D01*
X69761904Y-34800975D02*
X69819047Y-34781927D01*
X69819047Y-34781927D02*
X69857143Y-34781927D01*
X69857143Y-34781927D02*
X69914285Y-34800975D01*
X69914285Y-34800975D02*
X69933333Y-34820022D01*
X70123809Y-35181927D02*
X70200000Y-35181927D01*
X70200000Y-35181927D02*
X70238095Y-35162880D01*
X70238095Y-35162880D02*
X70257143Y-35143832D01*
X70257143Y-35143832D02*
X70295238Y-35086689D01*
X70295238Y-35086689D02*
X70314285Y-35010499D01*
X70314285Y-35010499D02*
X70314285Y-34858118D01*
X70314285Y-34858118D02*
X70295238Y-34820022D01*
X70295238Y-34820022D02*
X70276190Y-34800975D01*
X70276190Y-34800975D02*
X70238095Y-34781927D01*
X70238095Y-34781927D02*
X70161904Y-34781927D01*
X70161904Y-34781927D02*
X70123809Y-34800975D01*
X70123809Y-34800975D02*
X70104762Y-34820022D01*
X70104762Y-34820022D02*
X70085714Y-34858118D01*
X70085714Y-34858118D02*
X70085714Y-34953356D01*
X70085714Y-34953356D02*
X70104762Y-34991451D01*
X70104762Y-34991451D02*
X70123809Y-35010499D01*
X70123809Y-35010499D02*
X70161904Y-35029546D01*
X70161904Y-35029546D02*
X70238095Y-35029546D01*
X70238095Y-35029546D02*
X70276190Y-35010499D01*
X70276190Y-35010499D02*
X70295238Y-34991451D01*
X70295238Y-34991451D02*
X70314285Y-34953356D01*
X19742857Y-48181927D02*
X19609524Y-47991451D01*
X19514286Y-48181927D02*
X19514286Y-47781927D01*
X19514286Y-47781927D02*
X19666667Y-47781927D01*
X19666667Y-47781927D02*
X19704762Y-47800975D01*
X19704762Y-47800975D02*
X19723809Y-47820022D01*
X19723809Y-47820022D02*
X19742857Y-47858118D01*
X19742857Y-47858118D02*
X19742857Y-47915260D01*
X19742857Y-47915260D02*
X19723809Y-47953356D01*
X19723809Y-47953356D02*
X19704762Y-47972403D01*
X19704762Y-47972403D02*
X19666667Y-47991451D01*
X19666667Y-47991451D02*
X19514286Y-47991451D01*
X20123809Y-48181927D02*
X19895238Y-48181927D01*
X20009524Y-48181927D02*
X20009524Y-47781927D01*
X20009524Y-47781927D02*
X19971428Y-47839070D01*
X19971428Y-47839070D02*
X19933333Y-47877165D01*
X19933333Y-47877165D02*
X19895238Y-47896213D01*
X20466666Y-47781927D02*
X20390476Y-47781927D01*
X20390476Y-47781927D02*
X20352380Y-47800975D01*
X20352380Y-47800975D02*
X20333333Y-47820022D01*
X20333333Y-47820022D02*
X20295238Y-47877165D01*
X20295238Y-47877165D02*
X20276190Y-47953356D01*
X20276190Y-47953356D02*
X20276190Y-48105737D01*
X20276190Y-48105737D02*
X20295238Y-48143832D01*
X20295238Y-48143832D02*
X20314285Y-48162880D01*
X20314285Y-48162880D02*
X20352380Y-48181927D01*
X20352380Y-48181927D02*
X20428571Y-48181927D01*
X20428571Y-48181927D02*
X20466666Y-48162880D01*
X20466666Y-48162880D02*
X20485714Y-48143832D01*
X20485714Y-48143832D02*
X20504761Y-48105737D01*
X20504761Y-48105737D02*
X20504761Y-48010499D01*
X20504761Y-48010499D02*
X20485714Y-47972403D01*
X20485714Y-47972403D02*
X20466666Y-47953356D01*
X20466666Y-47953356D02*
X20428571Y-47934308D01*
X20428571Y-47934308D02*
X20352380Y-47934308D01*
X20352380Y-47934308D02*
X20314285Y-47953356D01*
X20314285Y-47953356D02*
X20295238Y-47972403D01*
X20295238Y-47972403D02*
X20276190Y-48010499D01*
D11*
X34327365Y-42874285D02*
X33607365Y-42874285D01*
X33607365Y-42874285D02*
X33607365Y-42702856D01*
X33607365Y-42702856D02*
X33641651Y-42599999D01*
X33641651Y-42599999D02*
X33710222Y-42531428D01*
X33710222Y-42531428D02*
X33778794Y-42497142D01*
X33778794Y-42497142D02*
X33915937Y-42462856D01*
X33915937Y-42462856D02*
X34018794Y-42462856D01*
X34018794Y-42462856D02*
X34155937Y-42497142D01*
X34155937Y-42497142D02*
X34224508Y-42531428D01*
X34224508Y-42531428D02*
X34293080Y-42599999D01*
X34293080Y-42599999D02*
X34327365Y-42702856D01*
X34327365Y-42702856D02*
X34327365Y-42874285D01*
X34327365Y-41777142D02*
X34327365Y-42188571D01*
X34327365Y-41982856D02*
X33607365Y-41982856D01*
X33607365Y-41982856D02*
X33710222Y-42051428D01*
X33710222Y-42051428D02*
X33778794Y-42119999D01*
X33778794Y-42119999D02*
X33813080Y-42188571D01*
X33607365Y-41160000D02*
X33607365Y-41297142D01*
X33607365Y-41297142D02*
X33641651Y-41365714D01*
X33641651Y-41365714D02*
X33675937Y-41400000D01*
X33675937Y-41400000D02*
X33778794Y-41468571D01*
X33778794Y-41468571D02*
X33915937Y-41502857D01*
X33915937Y-41502857D02*
X34190222Y-41502857D01*
X34190222Y-41502857D02*
X34258794Y-41468571D01*
X34258794Y-41468571D02*
X34293080Y-41434285D01*
X34293080Y-41434285D02*
X34327365Y-41365714D01*
X34327365Y-41365714D02*
X34327365Y-41228571D01*
X34327365Y-41228571D02*
X34293080Y-41160000D01*
X34293080Y-41160000D02*
X34258794Y-41125714D01*
X34258794Y-41125714D02*
X34190222Y-41091428D01*
X34190222Y-41091428D02*
X34018794Y-41091428D01*
X34018794Y-41091428D02*
X33950222Y-41125714D01*
X33950222Y-41125714D02*
X33915937Y-41160000D01*
X33915937Y-41160000D02*
X33881651Y-41228571D01*
X33881651Y-41228571D02*
X33881651Y-41365714D01*
X33881651Y-41365714D02*
X33915937Y-41434285D01*
X33915937Y-41434285D02*
X33950222Y-41468571D01*
X33950222Y-41468571D02*
X34018794Y-41502857D01*
D10*
X59933333Y-82143832D02*
X59914285Y-82162880D01*
X59914285Y-82162880D02*
X59857143Y-82181927D01*
X59857143Y-82181927D02*
X59819047Y-82181927D01*
X59819047Y-82181927D02*
X59761904Y-82162880D01*
X59761904Y-82162880D02*
X59723809Y-82124784D01*
X59723809Y-82124784D02*
X59704762Y-82086689D01*
X59704762Y-82086689D02*
X59685714Y-82010499D01*
X59685714Y-82010499D02*
X59685714Y-81953356D01*
X59685714Y-81953356D02*
X59704762Y-81877165D01*
X59704762Y-81877165D02*
X59723809Y-81839070D01*
X59723809Y-81839070D02*
X59761904Y-81800975D01*
X59761904Y-81800975D02*
X59819047Y-81781927D01*
X59819047Y-81781927D02*
X59857143Y-81781927D01*
X59857143Y-81781927D02*
X59914285Y-81800975D01*
X59914285Y-81800975D02*
X59933333Y-81820022D01*
X60161904Y-81953356D02*
X60123809Y-81934308D01*
X60123809Y-81934308D02*
X60104762Y-81915260D01*
X60104762Y-81915260D02*
X60085714Y-81877165D01*
X60085714Y-81877165D02*
X60085714Y-81858118D01*
X60085714Y-81858118D02*
X60104762Y-81820022D01*
X60104762Y-81820022D02*
X60123809Y-81800975D01*
X60123809Y-81800975D02*
X60161904Y-81781927D01*
X60161904Y-81781927D02*
X60238095Y-81781927D01*
X60238095Y-81781927D02*
X60276190Y-81800975D01*
X60276190Y-81800975D02*
X60295238Y-81820022D01*
X60295238Y-81820022D02*
X60314285Y-81858118D01*
X60314285Y-81858118D02*
X60314285Y-81877165D01*
X60314285Y-81877165D02*
X60295238Y-81915260D01*
X60295238Y-81915260D02*
X60276190Y-81934308D01*
X60276190Y-81934308D02*
X60238095Y-81953356D01*
X60238095Y-81953356D02*
X60161904Y-81953356D01*
X60161904Y-81953356D02*
X60123809Y-81972403D01*
X60123809Y-81972403D02*
X60104762Y-81991451D01*
X60104762Y-81991451D02*
X60085714Y-82029546D01*
X60085714Y-82029546D02*
X60085714Y-82105737D01*
X60085714Y-82105737D02*
X60104762Y-82143832D01*
X60104762Y-82143832D02*
X60123809Y-82162880D01*
X60123809Y-82162880D02*
X60161904Y-82181927D01*
X60161904Y-82181927D02*
X60238095Y-82181927D01*
X60238095Y-82181927D02*
X60276190Y-82162880D01*
X60276190Y-82162880D02*
X60295238Y-82143832D01*
X60295238Y-82143832D02*
X60314285Y-82105737D01*
X60314285Y-82105737D02*
X60314285Y-82029546D01*
X60314285Y-82029546D02*
X60295238Y-81991451D01*
X60295238Y-81991451D02*
X60276190Y-81972403D01*
X60276190Y-81972403D02*
X60238095Y-81953356D01*
%TO.C,C4*%
D15*
X59200000Y-29600000D02*
X60800000Y-29600000D01*
X60800000Y-30400000D01*
X59200000Y-30400000D01*
X59200000Y-29600000D01*
%TO.C,D15*%
X33675000Y-35050000D02*
X34650000Y-35050000D01*
X34650000Y-37950000D01*
X33350000Y-37950000D01*
X33350000Y-35375000D01*
X33675000Y-35050000D01*
%TO.C,R27*%
X43200000Y-76587500D02*
X44800000Y-76587500D01*
X44800000Y-77412500D01*
X43200000Y-77412500D01*
X43200000Y-76587500D01*
%TO.C,R9*%
X19200000Y-26587500D02*
X20800000Y-26587500D01*
X20800000Y-27412500D01*
X19200000Y-27412500D01*
X19200000Y-26587500D01*
%TO.C,J6*%
X50730000Y-52365000D02*
X51365000Y-51730000D01*
X50730000Y-56810000D02*
X50730000Y-52365000D01*
X51365000Y-51730000D02*
X53270000Y-51730000D01*
X53270000Y-51730000D02*
X53270000Y-56810000D01*
X53270000Y-56810000D02*
X50730000Y-56810000D01*
%TO.C,R23*%
X19200000Y-76587500D02*
X20800000Y-76587500D01*
X20800000Y-77412500D01*
X19200000Y-77412500D01*
X19200000Y-76587500D01*
%TO.C,D17*%
X33675000Y-46050000D02*
X34650000Y-46050000D01*
X34650000Y-48950000D01*
X33350000Y-48950000D01*
X33350000Y-46375000D01*
X33675000Y-46050000D01*
%TO.C,J2*%
X88730000Y-7000000D02*
X90000000Y-5730000D01*
X88730000Y-56530000D02*
X88730000Y-7000000D01*
X90000000Y-5730000D02*
X93810000Y-5730000D01*
X93810000Y-5730000D02*
X93810000Y-56530000D01*
X93810000Y-56530000D02*
X88730000Y-56530000D01*
%TO.C,D4*%
X27675000Y-24050000D02*
X28650000Y-24050000D01*
X28650000Y-26950000D01*
X27350000Y-26950000D01*
X27350000Y-24375000D01*
X27675000Y-24050000D01*
%TO.C,U8*%
X76150000Y-30650000D02*
X76150000Y-36350000D01*
X76150000Y-30650000D02*
X77150000Y-29650000D01*
X76150000Y-36350000D02*
X79850000Y-36350000D01*
X77150000Y-29650000D02*
X79850000Y-29650000D01*
X79850000Y-29650000D02*
X79850000Y-36350000D01*
%TO.C,C6*%
X47000000Y-72100000D02*
X48600000Y-72100000D01*
X48600000Y-72900000D01*
X47000000Y-72900000D01*
X47000000Y-72100000D01*
%TO.C,U1*%
X44800000Y-8750000D02*
X48200000Y-8750000D01*
X48200000Y-15250000D01*
X43800000Y-15250000D01*
X43800000Y-9750000D01*
X44800000Y-8750000D01*
%TO.C,C1*%
X53200000Y-11600000D02*
X54800000Y-11600000D01*
X54800000Y-12400000D01*
X53200000Y-12400000D01*
X53200000Y-11600000D01*
%TO.C,R1*%
X19200000Y-8587500D02*
X20800000Y-8587500D01*
X20800000Y-9412500D01*
X19200000Y-9412500D01*
X19200000Y-8587500D01*
%TO.C,R15*%
X19200000Y-44587500D02*
X20800000Y-44587500D01*
X20800000Y-45412500D01*
X19200000Y-45412500D01*
X19200000Y-44587500D01*
%TO.C,J1*%
X6730000Y-7000000D02*
X8000000Y-5730000D01*
X6730000Y-56530000D02*
X6730000Y-7000000D01*
X8000000Y-5730000D02*
X11810000Y-5730000D01*
X11810000Y-5730000D02*
X11810000Y-56530000D01*
X11810000Y-56530000D02*
X6730000Y-56530000D01*
%TO.C,R20*%
X15200000Y-49587500D02*
X16800000Y-49587500D01*
X16800000Y-50412500D01*
X15200000Y-50412500D01*
X15200000Y-49587500D01*
%TO.C,U4*%
X58800000Y-18750000D02*
X62200000Y-18750000D01*
X62200000Y-25250000D01*
X57800000Y-25250000D01*
X57800000Y-19750000D01*
X58800000Y-18750000D01*
%TO.C,R5*%
X19200000Y-14587500D02*
X20800000Y-14587500D01*
X20800000Y-15412500D01*
X19200000Y-15412500D01*
X19200000Y-14587500D01*
%TO.C,R14*%
X19200000Y-41587500D02*
X20800000Y-41587500D01*
X20800000Y-42412500D01*
X19200000Y-42412500D01*
X19200000Y-41587500D01*
%TO.C,D13*%
X33675000Y-24050000D02*
X34650000Y-24050000D01*
X34650000Y-26950000D01*
X33350000Y-26950000D01*
X33350000Y-24375000D01*
X33675000Y-24050000D01*
%TO.C,D12*%
X33675000Y-18550000D02*
X34650000Y-18550000D01*
X34650000Y-21450000D01*
X33350000Y-21450000D01*
X33350000Y-18875000D01*
X33675000Y-18550000D01*
%TO.C,D8*%
X27675000Y-46050000D02*
X28650000Y-46050000D01*
X28650000Y-48950000D01*
X27350000Y-48950000D01*
X27350000Y-46375000D01*
X27675000Y-46050000D01*
%TO.C,J8*%
X73500000Y-11300000D02*
X74500000Y-10300000D01*
X73500000Y-21200000D02*
X82500000Y-21200000D01*
X73500000Y-24700000D02*
X73500000Y-11300000D01*
X74500000Y-10300000D02*
X82500000Y-10300000D01*
X82500000Y-10300000D02*
X82500000Y-24700000D01*
X82500000Y-24700000D02*
X73500000Y-24700000D01*
%TO.C,J3*%
X58730000Y-39365000D02*
X59365000Y-38730000D01*
X58730000Y-48890000D02*
X58730000Y-39365000D01*
X59365000Y-38730000D02*
X61270000Y-38730000D01*
X61270000Y-38730000D02*
X61270000Y-48890000D01*
X61270000Y-48890000D02*
X58730000Y-48890000D01*
%TO.C,D10*%
X33675000Y-7550000D02*
X34650000Y-7550000D01*
X34650000Y-10450000D01*
X33350000Y-10450000D01*
X33350000Y-7875000D01*
X33675000Y-7550000D01*
%TO.C,C2*%
X53200000Y-25600000D02*
X54800000Y-25600000D01*
X54800000Y-26400000D01*
X53200000Y-26400000D01*
X53200000Y-25600000D01*
%TO.C,U3*%
X44800000Y-36750000D02*
X48200000Y-36750000D01*
X48200000Y-43250000D01*
X43800000Y-43250000D01*
X43800000Y-37750000D01*
X44800000Y-36750000D01*
%TO.C,D7*%
X27675000Y-40550000D02*
X28650000Y-40550000D01*
X28650000Y-43450000D01*
X27350000Y-43450000D01*
X27350000Y-40875000D01*
X27675000Y-40550000D01*
%TO.C,D14*%
X33675000Y-29550000D02*
X34650000Y-29550000D01*
X34650000Y-32450000D01*
X33350000Y-32450000D01*
X33350000Y-29875000D01*
X33675000Y-29550000D01*
%TO.C,C7*%
X59200000Y-54600000D02*
X60800000Y-54600000D01*
X60800000Y-55400000D01*
X59200000Y-55400000D01*
X59200000Y-54600000D01*
%TO.C,U5*%
X11110000Y-63135000D02*
X20270000Y-63135000D01*
X11110000Y-69485000D02*
X11110000Y-63135000D01*
X20270000Y-63135000D02*
X21270000Y-64135000D01*
X21270000Y-64135000D02*
X21270000Y-69485000D01*
X21270000Y-69485000D02*
X11110000Y-69485000D01*
%TO.C,R6*%
X19200000Y-17587500D02*
X20800000Y-17587500D01*
X20800000Y-18412500D01*
X19200000Y-18412500D01*
X19200000Y-17587500D01*
%TO.C,C5*%
X23000000Y-72100000D02*
X24600000Y-72100000D01*
X24600000Y-72900000D01*
X23000000Y-72900000D01*
X23000000Y-72100000D01*
%TO.C,R10*%
X19200000Y-29587500D02*
X20800000Y-29587500D01*
X20800000Y-30412500D01*
X19200000Y-30412500D01*
X19200000Y-29587500D01*
%TO.C,R11*%
X19200000Y-32587500D02*
X20800000Y-32587500D01*
X20800000Y-33412500D01*
X19200000Y-33412500D01*
X19200000Y-32587500D01*
%TO.C,R4*%
X59200000Y-11587500D02*
X60800000Y-11587500D01*
X60800000Y-12412500D01*
X59200000Y-12412500D01*
X59200000Y-11587500D01*
%TO.C,D1*%
X27675000Y-7550000D02*
X28650000Y-7550000D01*
X28650000Y-10450000D01*
X27350000Y-10450000D01*
X27350000Y-7875000D01*
X27675000Y-7550000D01*
%TO.C,J7*%
X94730000Y-74365000D02*
X95365000Y-73730000D01*
X94730000Y-78810000D02*
X94730000Y-74365000D01*
X95365000Y-73730000D02*
X97270000Y-73730000D01*
X97270000Y-73730000D02*
X97270000Y-78810000D01*
X97270000Y-78810000D02*
X94730000Y-78810000D01*
%TO.C,C3*%
X53200000Y-39600000D02*
X54800000Y-39600000D01*
X54800000Y-40400000D01*
X53200000Y-40400000D01*
X53200000Y-39600000D01*
%TO.C,D9*%
X27675000Y-51550000D02*
X28650000Y-51550000D01*
X28650000Y-54450000D01*
X27350000Y-54450000D01*
X27350000Y-51875000D01*
X27675000Y-51550000D01*
%TO.C,D2*%
X27675000Y-13050000D02*
X28650000Y-13050000D01*
X28650000Y-15950000D01*
X27350000Y-15950000D01*
X27350000Y-13375000D01*
X27675000Y-13050000D01*
%TO.C,R3*%
X19200000Y-11587500D02*
X20800000Y-11587500D01*
X20800000Y-12412500D01*
X19200000Y-12412500D01*
X19200000Y-11587500D01*
%TO.C,U7*%
X64075000Y-59100000D02*
X69175000Y-59100000D01*
X69175000Y-78600000D01*
X63075000Y-78600000D01*
X63075000Y-60100000D01*
X64075000Y-59100000D01*
%TO.C,D6*%
X27675000Y-35050000D02*
X28650000Y-35050000D01*
X28650000Y-37950000D01*
X27350000Y-37950000D01*
X27350000Y-35375000D01*
X27675000Y-35050000D01*
%TO.C,R8*%
X19200000Y-23587500D02*
X20800000Y-23587500D01*
X20800000Y-24412500D01*
X19200000Y-24412500D01*
X19200000Y-23587500D01*
%TO.C,J4*%
X71500000Y-69800000D02*
X91500000Y-69800000D01*
X71500000Y-72700000D02*
X91500000Y-72700000D01*
X71500000Y-77600000D02*
X91500000Y-77600000D01*
X71500000Y-79100000D02*
X71500000Y-69800000D01*
X71500000Y-79100000D02*
X91500000Y-79100000D01*
X72000000Y-79600000D02*
X71500000Y-79100000D01*
X74955000Y-73862000D02*
X72862000Y-75955000D01*
X75138000Y-74045000D02*
X73045000Y-76138000D01*
X79955000Y-73862000D02*
X77862000Y-75955000D01*
X80138000Y-74045000D02*
X78045000Y-76138000D01*
X84955000Y-73862000D02*
X82862000Y-75955000D01*
X85138000Y-74045000D02*
X83045000Y-76138000D01*
X89955000Y-73862000D02*
X87862000Y-75955000D01*
X90138000Y-74045000D02*
X88045000Y-76138000D01*
X91500000Y-69800000D02*
X91500000Y-79600000D01*
X91500000Y-79600000D02*
X72000000Y-79600000D01*
X75500000Y-75000000D02*
G75*
G02*
X72500000Y-75000000I-1500000J0D01*
G01*
X72500000Y-75000000D02*
G75*
G02*
X75500000Y-75000000I1500000J0D01*
G01*
X80500000Y-75000000D02*
G75*
G02*
X77500000Y-75000000I-1500000J0D01*
G01*
X77500000Y-75000000D02*
G75*
G02*
X80500000Y-75000000I1500000J0D01*
G01*
X85500000Y-75000000D02*
G75*
G02*
X82500000Y-75000000I-1500000J0D01*
G01*
X82500000Y-75000000D02*
G75*
G02*
X85500000Y-75000000I1500000J0D01*
G01*
X90500000Y-75000000D02*
G75*
G02*
X87500000Y-75000000I-1500000J0D01*
G01*
X87500000Y-75000000D02*
G75*
G02*
X90500000Y-75000000I1500000J0D01*
G01*
%TO.C,J5*%
X50730000Y-44365000D02*
X51365000Y-43730000D01*
X50730000Y-48810000D02*
X50730000Y-44365000D01*
X51365000Y-43730000D02*
X53270000Y-43730000D01*
X53270000Y-43730000D02*
X53270000Y-48810000D01*
X53270000Y-48810000D02*
X50730000Y-48810000D01*
%TO.C,C12*%
X67000000Y-81375000D02*
X69000000Y-81375000D01*
X69000000Y-82625000D01*
X67000000Y-82625000D01*
X67000000Y-81375000D01*
%TO.C,R17*%
X19200000Y-50587500D02*
X20800000Y-50587500D01*
X20800000Y-51412500D01*
X19200000Y-51412500D01*
X19200000Y-50587500D01*
%TO.C,R24*%
X43200000Y-49587500D02*
X44800000Y-49587500D01*
X44800000Y-50412500D01*
X43200000Y-50412500D01*
X43200000Y-49587500D01*
%TO.C,R7*%
X19200000Y-20587500D02*
X20800000Y-20587500D01*
X20800000Y-21412500D01*
X19200000Y-21412500D01*
X19200000Y-20587500D01*
%TO.C,C11*%
X77000000Y-48375000D02*
X79000000Y-48375000D01*
X79000000Y-49625000D01*
X77000000Y-49625000D01*
X77000000Y-48375000D01*
%TO.C,D11*%
X33675000Y-13050000D02*
X34650000Y-13050000D01*
X34650000Y-15950000D01*
X33350000Y-15950000D01*
X33350000Y-13375000D01*
X33675000Y-13050000D01*
%TO.C,R18*%
X19200000Y-53587500D02*
X20800000Y-53587500D01*
X20800000Y-54412500D01*
X19200000Y-54412500D01*
X19200000Y-53587500D01*
%TO.C,U6*%
X35110000Y-63135000D02*
X44270000Y-63135000D01*
X35110000Y-69485000D02*
X35110000Y-63135000D01*
X44270000Y-63135000D02*
X45270000Y-64135000D01*
X45270000Y-64135000D02*
X45270000Y-69485000D01*
X45270000Y-69485000D02*
X35110000Y-69485000D01*
%TO.C,R13*%
X19200000Y-38587500D02*
X20800000Y-38587500D01*
X20800000Y-39412500D01*
X19200000Y-39412500D01*
X19200000Y-38587500D01*
%TO.C,C10*%
X77000000Y-42375000D02*
X79000000Y-42375000D01*
X79000000Y-43625000D01*
X77000000Y-43625000D01*
X77000000Y-42375000D01*
%TO.C,D5*%
X27675000Y-29550000D02*
X28650000Y-29550000D01*
X28650000Y-32450000D01*
X27350000Y-32450000D01*
X27350000Y-29875000D01*
X27675000Y-29550000D01*
%TO.C,U2*%
X44800000Y-22750000D02*
X48200000Y-22750000D01*
X48200000Y-29250000D01*
X43800000Y-29250000D01*
X43800000Y-23750000D01*
X44800000Y-22750000D01*
%TO.C,R26*%
X43200000Y-53587500D02*
X44800000Y-53587500D01*
X44800000Y-54412500D01*
X43200000Y-54412500D01*
X43200000Y-53587500D01*
%TO.C,R21*%
X19200000Y-72587500D02*
X20800000Y-72587500D01*
X20800000Y-73412500D01*
X19200000Y-73412500D01*
X19200000Y-72587500D01*
%TO.C,D3*%
X27675000Y-18550000D02*
X28650000Y-18550000D01*
X28650000Y-21450000D01*
X27350000Y-21450000D01*
X27350000Y-18875000D01*
X27675000Y-18550000D01*
%TO.C,R2*%
X59200000Y-8587500D02*
X60800000Y-8587500D01*
X60800000Y-9412500D01*
X59200000Y-9412500D01*
X59200000Y-8587500D01*
%TO.C,R19*%
X19200000Y-56587500D02*
X20800000Y-56587500D01*
X20800000Y-57412500D01*
X19200000Y-57412500D01*
X19200000Y-56587500D01*
%TO.C,R12*%
X19200000Y-35587500D02*
X20800000Y-35587500D01*
X20800000Y-36412500D01*
X19200000Y-36412500D01*
X19200000Y-35587500D01*
%TO.C,R25*%
X43200000Y-72587500D02*
X44800000Y-72587500D01*
X44800000Y-73412500D01*
X43200000Y-73412500D01*
X43200000Y-72587500D01*
%TO.C,R22*%
X15200000Y-53587500D02*
X16800000Y-53587500D01*
X16800000Y-54412500D01*
X15200000Y-54412500D01*
X15200000Y-53587500D01*
%TO.C,C9*%
X69200000Y-34600000D02*
X70800000Y-34600000D01*
X70800000Y-35400000D01*
X69200000Y-35400000D01*
X69200000Y-34600000D01*
%TO.C,R16*%
X19200000Y-47587500D02*
X20800000Y-47587500D01*
X20800000Y-48412500D01*
X19200000Y-48412500D01*
X19200000Y-47587500D01*
%TO.C,D16*%
X33675000Y-40550000D02*
X34650000Y-40550000D01*
X34650000Y-43450000D01*
X33350000Y-43450000D01*
X33350000Y-40875000D01*
X33675000Y-40550000D01*
%TO.C,C8*%
X59200000Y-81600000D02*
X60800000Y-81600000D01*
X60800000Y-82400000D01*
X59200000Y-82400000D01*
X59200000Y-81600000D01*
%TD*%
M02*
