%TF.GenerationSoftware,KiCad,Pcbnew,10.0.5*%
%TF.CreationDate,2026-08-13T21:16:27-04:00*%
%TF.ProjectId,mule,6d756c65-2e6b-4696-9361-645f70636258,rev?*%
%TF.SameCoordinates,Original*%
%TF.FileFunction,Soldermask,Bot*%
%TF.FilePolarity,Negative*%
%FSLAX46Y46*%
G04 Gerber Fmt 4.6, Leading zero omitted, Abs format (unit mm)*
G04 Created by KiCad (PCBNEW 10.0.5) date 2026-08-13 21:16:27*
%MOMM*%
%LPD*%
G01*
G04 APERTURE LIST*
G04 Aperture macros list*
%AMRoundRect*
0 Rectangle with rounded corners*
0 $1 Rounding radius*
0 $2 $3 $4 $5 $6 $7 $8 $9 X,Y pos of 4 corners*
0 Add a 4 corners polygon primitive as box body*
4,1,4,$2,$3,$4,$5,$6,$7,$8,$9,$2,$3,0*
0 Add four circle primitives for the rounded corners*
1,1,$1+$1,$2,$3*
1,1,$1+$1,$4,$5*
1,1,$1+$1,$6,$7*
1,1,$1+$1,$8,$9*
0 Add four rect primitives between the rounded corners*
20,1,$1+$1,$2,$3,$4,$5,0*
20,1,$1+$1,$4,$5,$6,$7,0*
20,1,$1+$1,$6,$7,$8,$9,0*
20,1,$1+$1,$8,$9,$2,$3,0*%
G04 Aperture macros list end*
%ADD10RoundRect,0.250000X-0.550000X0.550000X-0.550000X-0.550000X0.550000X-0.550000X0.550000X0.550000X0*%
%ADD11C,1.600000*%
%ADD12R,1.700000X1.700000*%
%ADD13C,1.700000*%
%ADD14R,2.600000X2.600000*%
%ADD15C,2.600000*%
%ADD16RoundRect,0.250000X-1.050000X-1.050000X1.050000X-1.050000X1.050000X1.050000X-1.050000X1.050000X0*%
%ADD17RoundRect,0.250001X-0.499999X-0.499999X0.499999X-0.499999X0.499999X0.499999X-0.499999X0.499999X0*%
%ADD18C,1.500000*%
G04 APERTURE END LIST*
D10*
%TO.C,U5*%
X20000000Y-62500000D03*
D11*
X17460000Y-62500000D03*
X14920000Y-62500000D03*
X12380000Y-62500000D03*
X12380000Y-70120000D03*
X14920000Y-70120000D03*
X17460000Y-70120000D03*
X20000000Y-70120000D03*
%TD*%
D12*
%TO.C,J2*%
X90000000Y-7000000D03*
D13*
X92540000Y-7000000D03*
X90000000Y-9540000D03*
X92540000Y-9540000D03*
X90000000Y-12080000D03*
X92540000Y-12080000D03*
X90000000Y-14620000D03*
X92540000Y-14620000D03*
X90000000Y-17160000D03*
X92540000Y-17160000D03*
X90000000Y-19700000D03*
X92540000Y-19700000D03*
X90000000Y-22240000D03*
X92540000Y-22240000D03*
X90000000Y-24780000D03*
X92540000Y-24780000D03*
X90000000Y-27320000D03*
X92540000Y-27320000D03*
X90000000Y-29860000D03*
X92540000Y-29860000D03*
X90000000Y-32400000D03*
X92540000Y-32400000D03*
X90000000Y-34940000D03*
X92540000Y-34940000D03*
X90000000Y-37480000D03*
X92540000Y-37480000D03*
X90000000Y-40020000D03*
X92540000Y-40020000D03*
X90000000Y-42560000D03*
X92540000Y-42560000D03*
X90000000Y-45100000D03*
X92540000Y-45100000D03*
X90000000Y-47640000D03*
X92540000Y-47640000D03*
X90000000Y-50180000D03*
X92540000Y-50180000D03*
X90000000Y-52720000D03*
X92540000Y-52720000D03*
X90000000Y-55260000D03*
X92540000Y-55260000D03*
%TD*%
D14*
%TO.C,J8*%
X78000000Y-11000000D03*
D15*
X78000000Y-17000000D03*
X82700000Y-14000000D03*
%TD*%
D12*
%TO.C,J7*%
X96000000Y-75000000D03*
D13*
X96000000Y-77540000D03*
%TD*%
D12*
%TO.C,J6*%
X52000000Y-53000000D03*
D13*
X52000000Y-55540000D03*
%TD*%
D12*
%TO.C,J5*%
X52000000Y-45000000D03*
D13*
X52000000Y-47540000D03*
%TD*%
D12*
%TO.C,J1*%
X8000000Y-7000000D03*
D13*
X10540000Y-7000000D03*
X8000000Y-9540000D03*
X10540000Y-9540000D03*
X8000000Y-12080000D03*
X10540000Y-12080000D03*
X8000000Y-14620000D03*
X10540000Y-14620000D03*
X8000000Y-17160000D03*
X10540000Y-17160000D03*
X8000000Y-19700000D03*
X10540000Y-19700000D03*
X8000000Y-22240000D03*
X10540000Y-22240000D03*
X8000000Y-24780000D03*
X10540000Y-24780000D03*
X8000000Y-27320000D03*
X10540000Y-27320000D03*
X8000000Y-29860000D03*
X10540000Y-29860000D03*
X8000000Y-32400000D03*
X10540000Y-32400000D03*
X8000000Y-34940000D03*
X10540000Y-34940000D03*
X8000000Y-37480000D03*
X10540000Y-37480000D03*
X8000000Y-40020000D03*
X10540000Y-40020000D03*
X8000000Y-42560000D03*
X10540000Y-42560000D03*
X8000000Y-45100000D03*
X10540000Y-45100000D03*
X8000000Y-47640000D03*
X10540000Y-47640000D03*
X8000000Y-50180000D03*
X10540000Y-50180000D03*
X8000000Y-52720000D03*
X10540000Y-52720000D03*
X8000000Y-55260000D03*
X10540000Y-55260000D03*
%TD*%
D10*
%TO.C,U6*%
X44000000Y-62500000D03*
D11*
X41460000Y-62500000D03*
X38920000Y-62500000D03*
X36380000Y-62500000D03*
X36380000Y-70120000D03*
X38920000Y-70120000D03*
X41460000Y-70120000D03*
X44000000Y-70120000D03*
%TD*%
D16*
%TO.C,J4*%
X74000000Y-75000000D03*
D15*
X79000000Y-75000000D03*
X84000000Y-75000000D03*
X89000000Y-75000000D03*
%TD*%
D12*
%TO.C,J3*%
X60000000Y-40000000D03*
D13*
X60000000Y-42540000D03*
X60000000Y-45080000D03*
X60000000Y-47620000D03*
%TD*%
D17*
%TO.C,U7*%
X68000000Y-61200000D03*
D18*
X68000000Y-63740000D03*
X68000000Y-68820000D03*
X68000000Y-73900000D03*
%TD*%
M02*
