%TF.GenerationSoftware,KiCad,Pcbnew,10.0.5*%
%TF.CreationDate,2026-08-13T21:16:27-04:00*%
%TF.ProjectId,mule,6d756c65-2e6b-4696-9361-645f70636258,rev?*%
%TF.SameCoordinates,Original*%
%TF.FileFunction,Soldermask,Top*%
%TF.FilePolarity,Negative*%
%FSLAX46Y46*%
G04 Gerber Fmt 4.6, Leading zero omitted, Abs format (unit mm)*
G04 Created by KiCad (PCBNEW 10.0.5) date 2026-08-13 21:16:27*
%MOMM*%
%LPD*%
G01*
G04 APERTURE LIST*
G04 Aperture macros list*
%AMRoundRect*
0 Rectangle with rounded corners*
0 $1 Rounding radius*
0 $2 $3 $4 $5 $6 $7 $8 $9 X,Y pos of 4 corners*
0 Add a 4 corners polygon primitive as box body*
4,1,4,$2,$3,$4,$5,$6,$7,$8,$9,$2,$3,0*
0 Add four circle primitives for the rounded corners*
1,1,$1+$1,$2,$3*
1,1,$1+$1,$4,$5*
1,1,$1+$1,$6,$7*
1,1,$1+$1,$8,$9*
0 Add four rect primitives between the rounded corners*
20,1,$1+$1,$2,$3,$4,$5,0*
20,1,$1+$1,$4,$5,$6,$7,0*
20,1,$1+$1,$6,$7,$8,$9,0*
20,1,$1+$1,$8,$9,$2,$3,0*%
G04 Aperture macros list end*
%ADD10RoundRect,0.200000X-0.200000X-0.275000X0.200000X-0.275000X0.200000X0.275000X-0.200000X0.275000X0*%
%ADD11RoundRect,0.225000X0.225000X0.250000X-0.225000X0.250000X-0.225000X-0.250000X0.225000X-0.250000X0*%
%ADD12RoundRect,0.250000X-0.550000X0.550000X-0.550000X-0.550000X0.550000X-0.550000X0.550000X0.550000X0*%
%ADD13C,1.600000*%
%ADD14RoundRect,0.150000X-0.587500X-0.150000X0.587500X-0.150000X0.587500X0.150000X-0.587500X0.150000X0*%
%ADD15RoundRect,0.112500X-0.637500X-0.112500X0.637500X-0.112500X0.637500X0.112500X-0.637500X0.112500X0*%
%ADD16R,1.700000X1.700000*%
%ADD17C,1.700000*%
%ADD18RoundRect,0.250000X-0.250000X-0.475000X0.250000X-0.475000X0.250000X0.475000X-0.250000X0.475000X0*%
%ADD19RoundRect,0.225000X-0.225000X-0.250000X0.225000X-0.250000X0.225000X0.250000X-0.225000X0.250000X0*%
%ADD20R,2.600000X2.600000*%
%ADD21C,2.600000*%
%ADD22RoundRect,0.250000X-1.050000X-1.050000X1.050000X-1.050000X1.050000X1.050000X-1.050000X1.050000X0*%
%ADD23RoundRect,0.250001X-0.499999X-0.499999X0.499999X-0.499999X0.499999X0.499999X-0.499999X0.499999X0*%
%ADD24C,1.500000*%
%ADD25RoundRect,0.375000X-0.625000X-0.375000X0.625000X-0.375000X0.625000X0.375000X-0.625000X0.375000X0*%
%ADD26RoundRect,0.500000X-0.500000X-1.400000X0.500000X-1.400000X0.500000X1.400000X-0.500000X1.400000X0*%
G04 APERTURE END LIST*
D10*
%TO.C,R2*%
X59175000Y-9000000D03*
X60825000Y-9000000D03*
%TD*%
%TO.C,R13*%
X19175000Y-39000000D03*
X20825000Y-39000000D03*
%TD*%
%TO.C,R11*%
X19175000Y-33000000D03*
X20825000Y-33000000D03*
%TD*%
D11*
%TO.C,C5*%
X16965000Y-72300000D03*
X15415000Y-72300000D03*
%TD*%
D12*
%TO.C,U5*%
X20000000Y-62500000D03*
D13*
X17460000Y-62500000D03*
X14920000Y-62500000D03*
X12380000Y-62500000D03*
X12380000Y-70120000D03*
X14920000Y-70120000D03*
X17460000Y-70120000D03*
X20000000Y-70120000D03*
%TD*%
D10*
%TO.C,R25*%
X43175000Y-73000000D03*
X44825000Y-73000000D03*
%TD*%
D14*
%TO.C,D3*%
X27062500Y-19050000D03*
X27062500Y-20950000D03*
X28937500Y-20000000D03*
%TD*%
D10*
%TO.C,R26*%
X43175000Y-54000000D03*
X44825000Y-54000000D03*
%TD*%
D14*
%TO.C,D13*%
X33062500Y-24550000D03*
X33062500Y-26450000D03*
X34937500Y-25500000D03*
%TD*%
D10*
%TO.C,R24*%
X43175000Y-50000000D03*
X44825000Y-50000000D03*
%TD*%
D14*
%TO.C,D15*%
X33062500Y-35550000D03*
X33062500Y-37450000D03*
X34937500Y-36500000D03*
%TD*%
D15*
%TO.C,U1*%
X43100000Y-9075000D03*
X43100000Y-9725000D03*
X43100000Y-10375000D03*
X43100000Y-11025000D03*
X43100000Y-11675000D03*
X43100000Y-12325000D03*
X43100000Y-12975000D03*
X43100000Y-13625000D03*
X43100000Y-14275000D03*
X43100000Y-14925000D03*
X48900000Y-14925000D03*
X48900000Y-14275000D03*
X48900000Y-13625000D03*
X48900000Y-12975000D03*
X48900000Y-12325000D03*
X48900000Y-11675000D03*
X48900000Y-11025000D03*
X48900000Y-10375000D03*
X48900000Y-9725000D03*
X48900000Y-9075000D03*
%TD*%
D16*
%TO.C,J2*%
X90000000Y-7000000D03*
D17*
X92540000Y-7000000D03*
X90000000Y-9540000D03*
X92540000Y-9540000D03*
X90000000Y-12080000D03*
X92540000Y-12080000D03*
X90000000Y-14620000D03*
X92540000Y-14620000D03*
X90000000Y-17160000D03*
X92540000Y-17160000D03*
X90000000Y-19700000D03*
X92540000Y-19700000D03*
X90000000Y-22240000D03*
X92540000Y-22240000D03*
X90000000Y-24780000D03*
X92540000Y-24780000D03*
X90000000Y-27320000D03*
X92540000Y-27320000D03*
X90000000Y-29860000D03*
X92540000Y-29860000D03*
X90000000Y-32400000D03*
X92540000Y-32400000D03*
X90000000Y-34940000D03*
X92540000Y-34940000D03*
X90000000Y-37480000D03*
X92540000Y-37480000D03*
X90000000Y-40020000D03*
X92540000Y-40020000D03*
X90000000Y-42560000D03*
X92540000Y-42560000D03*
X90000000Y-45100000D03*
X92540000Y-45100000D03*
X90000000Y-47640000D03*
X92540000Y-47640000D03*
X90000000Y-50180000D03*
X92540000Y-50180000D03*
X90000000Y-52720000D03*
X92540000Y-52720000D03*
X90000000Y-55260000D03*
X92540000Y-55260000D03*
%TD*%
D18*
%TO.C,C12*%
X67050000Y-82000000D03*
X68950000Y-82000000D03*
%TD*%
D10*
%TO.C,R10*%
X19175000Y-30000000D03*
X20825000Y-30000000D03*
%TD*%
%TO.C,R17*%
X19175000Y-51000000D03*
X20825000Y-51000000D03*
%TD*%
D19*
%TO.C,C3*%
X53225000Y-40000000D03*
X54775000Y-40000000D03*
%TD*%
D10*
%TO.C,R20*%
X15175000Y-50000000D03*
X16825000Y-50000000D03*
%TD*%
%TO.C,R16*%
X19175000Y-48000000D03*
X20825000Y-48000000D03*
%TD*%
D15*
%TO.C,U4*%
X57100000Y-19075000D03*
X57100000Y-19725000D03*
X57100000Y-20375000D03*
X57100000Y-21025000D03*
X57100000Y-21675000D03*
X57100000Y-22325000D03*
X57100000Y-22975000D03*
X57100000Y-23625000D03*
X57100000Y-24275000D03*
X57100000Y-24925000D03*
X62900000Y-24925000D03*
X62900000Y-24275000D03*
X62900000Y-23625000D03*
X62900000Y-22975000D03*
X62900000Y-22325000D03*
X62900000Y-21675000D03*
X62900000Y-21025000D03*
X62900000Y-20375000D03*
X62900000Y-19725000D03*
X62900000Y-19075000D03*
%TD*%
D14*
%TO.C,D2*%
X27062500Y-13550000D03*
X27062500Y-15450000D03*
X28937500Y-14500000D03*
%TD*%
%TO.C,D14*%
X33062500Y-30050000D03*
X33062500Y-31950000D03*
X34937500Y-31000000D03*
%TD*%
D10*
%TO.C,R7*%
X19175000Y-21000000D03*
X20825000Y-21000000D03*
%TD*%
D19*
%TO.C,C2*%
X53225000Y-26000000D03*
X54775000Y-26000000D03*
%TD*%
%TO.C,C7*%
X59225000Y-55000000D03*
X60775000Y-55000000D03*
%TD*%
D14*
%TO.C,D17*%
X33062500Y-46550000D03*
X33062500Y-48450000D03*
X34937500Y-47500000D03*
%TD*%
%TO.C,D16*%
X33062500Y-41050000D03*
X33062500Y-42950000D03*
X34937500Y-42000000D03*
%TD*%
D18*
%TO.C,C10*%
X77050000Y-43000000D03*
X78950000Y-43000000D03*
%TD*%
D20*
%TO.C,J8*%
X78000000Y-11000000D03*
D21*
X78000000Y-17000000D03*
X82700000Y-14000000D03*
%TD*%
D11*
%TO.C,C6*%
X40965000Y-72300000D03*
X39415000Y-72300000D03*
%TD*%
D14*
%TO.C,D6*%
X27062500Y-35550000D03*
X27062500Y-37450000D03*
X28937500Y-36500000D03*
%TD*%
D10*
%TO.C,R14*%
X19175000Y-42000000D03*
X20825000Y-42000000D03*
%TD*%
D14*
%TO.C,D4*%
X27062500Y-24550000D03*
X27062500Y-26450000D03*
X28937500Y-25500000D03*
%TD*%
D10*
%TO.C,R5*%
X19175000Y-15000000D03*
X20825000Y-15000000D03*
%TD*%
D14*
%TO.C,D7*%
X27062500Y-41050000D03*
X27062500Y-42950000D03*
X28937500Y-42000000D03*
%TD*%
D10*
%TO.C,R1*%
X19175000Y-9000000D03*
X20825000Y-9000000D03*
%TD*%
D16*
%TO.C,J7*%
X96000000Y-75000000D03*
D17*
X96000000Y-77540000D03*
%TD*%
D19*
%TO.C,C1*%
X53225000Y-12000000D03*
X54775000Y-12000000D03*
%TD*%
D10*
%TO.C,R3*%
X19175000Y-12000000D03*
X20825000Y-12000000D03*
%TD*%
%TO.C,R27*%
X43175000Y-77000000D03*
X44825000Y-77000000D03*
%TD*%
D15*
%TO.C,U3*%
X43100000Y-37075000D03*
X43100000Y-37725000D03*
X43100000Y-38375000D03*
X43100000Y-39025000D03*
X43100000Y-39675000D03*
X43100000Y-40325000D03*
X43100000Y-40975000D03*
X43100000Y-41625000D03*
X43100000Y-42275000D03*
X43100000Y-42925000D03*
X48900000Y-42925000D03*
X48900000Y-42275000D03*
X48900000Y-41625000D03*
X48900000Y-40975000D03*
X48900000Y-40325000D03*
X48900000Y-39675000D03*
X48900000Y-39025000D03*
X48900000Y-38375000D03*
X48900000Y-37725000D03*
X48900000Y-37075000D03*
%TD*%
D16*
%TO.C,J6*%
X52000000Y-53000000D03*
D17*
X52000000Y-55540000D03*
%TD*%
D10*
%TO.C,R21*%
X19175000Y-73000000D03*
X20825000Y-73000000D03*
%TD*%
D14*
%TO.C,D9*%
X27062500Y-52050000D03*
X27062500Y-53950000D03*
X28937500Y-53000000D03*
%TD*%
D18*
%TO.C,C11*%
X77050000Y-49000000D03*
X78950000Y-49000000D03*
%TD*%
D15*
%TO.C,U2*%
X43100000Y-23075000D03*
X43100000Y-23725000D03*
X43100000Y-24375000D03*
X43100000Y-25025000D03*
X43100000Y-25675000D03*
X43100000Y-26325000D03*
X43100000Y-26975000D03*
X43100000Y-27625000D03*
X43100000Y-28275000D03*
X43100000Y-28925000D03*
X48900000Y-28925000D03*
X48900000Y-28275000D03*
X48900000Y-27625000D03*
X48900000Y-26975000D03*
X48900000Y-26325000D03*
X48900000Y-25675000D03*
X48900000Y-25025000D03*
X48900000Y-24375000D03*
X48900000Y-23725000D03*
X48900000Y-23075000D03*
%TD*%
D19*
%TO.C,C8*%
X59225000Y-82000000D03*
X60775000Y-82000000D03*
%TD*%
D10*
%TO.C,R23*%
X19175000Y-77000000D03*
X20825000Y-77000000D03*
%TD*%
D14*
%TO.C,D10*%
X33062500Y-8050000D03*
X33062500Y-9950000D03*
X34937500Y-9000000D03*
%TD*%
D10*
%TO.C,R8*%
X19175000Y-24000000D03*
X20825000Y-24000000D03*
%TD*%
%TO.C,R12*%
X19175000Y-36000000D03*
X20825000Y-36000000D03*
%TD*%
D16*
%TO.C,J5*%
X52000000Y-45000000D03*
D17*
X52000000Y-47540000D03*
%TD*%
D14*
%TO.C,D8*%
X27062500Y-46550000D03*
X27062500Y-48450000D03*
X28937500Y-47500000D03*
%TD*%
D16*
%TO.C,J1*%
X8000000Y-7000000D03*
D17*
X10540000Y-7000000D03*
X8000000Y-9540000D03*
X10540000Y-9540000D03*
X8000000Y-12080000D03*
X10540000Y-12080000D03*
X8000000Y-14620000D03*
X10540000Y-14620000D03*
X8000000Y-17160000D03*
X10540000Y-17160000D03*
X8000000Y-19700000D03*
X10540000Y-19700000D03*
X8000000Y-22240000D03*
X10540000Y-22240000D03*
X8000000Y-24780000D03*
X10540000Y-24780000D03*
X8000000Y-27320000D03*
X10540000Y-27320000D03*
X8000000Y-29860000D03*
X10540000Y-29860000D03*
X8000000Y-32400000D03*
X10540000Y-32400000D03*
X8000000Y-34940000D03*
X10540000Y-34940000D03*
X8000000Y-37480000D03*
X10540000Y-37480000D03*
X8000000Y-40020000D03*
X10540000Y-40020000D03*
X8000000Y-42560000D03*
X10540000Y-42560000D03*
X8000000Y-45100000D03*
X10540000Y-45100000D03*
X8000000Y-47640000D03*
X10540000Y-47640000D03*
X8000000Y-50180000D03*
X10540000Y-50180000D03*
X8000000Y-52720000D03*
X10540000Y-52720000D03*
X8000000Y-55260000D03*
X10540000Y-55260000D03*
%TD*%
D10*
%TO.C,R19*%
X19175000Y-57000000D03*
X20825000Y-57000000D03*
%TD*%
D14*
%TO.C,D12*%
X33062500Y-19050000D03*
X33062500Y-20950000D03*
X34937500Y-20000000D03*
%TD*%
D12*
%TO.C,U6*%
X44000000Y-62500000D03*
D13*
X41460000Y-62500000D03*
X38920000Y-62500000D03*
X36380000Y-62500000D03*
X36380000Y-70120000D03*
X38920000Y-70120000D03*
X41460000Y-70120000D03*
X44000000Y-70120000D03*
%TD*%
D10*
%TO.C,R9*%
X19175000Y-27000000D03*
X20825000Y-27000000D03*
%TD*%
D22*
%TO.C,J4*%
X74000000Y-75000000D03*
D21*
X79000000Y-75000000D03*
X84000000Y-75000000D03*
X89000000Y-75000000D03*
%TD*%
D19*
%TO.C,C4*%
X59225000Y-30000000D03*
X60775000Y-30000000D03*
%TD*%
D10*
%TO.C,R6*%
X19175000Y-18000000D03*
X20825000Y-18000000D03*
%TD*%
D14*
%TO.C,D1*%
X27062500Y-8050000D03*
X27062500Y-9950000D03*
X28937500Y-9000000D03*
%TD*%
D10*
%TO.C,R4*%
X59175000Y-12000000D03*
X60825000Y-12000000D03*
%TD*%
D19*
%TO.C,C9*%
X69225000Y-35000000D03*
X70775000Y-35000000D03*
%TD*%
D16*
%TO.C,J3*%
X60000000Y-40000000D03*
D17*
X60000000Y-42540000D03*
X60000000Y-45080000D03*
X60000000Y-47620000D03*
%TD*%
D10*
%TO.C,R18*%
X19175000Y-54000000D03*
X20825000Y-54000000D03*
%TD*%
D23*
%TO.C,U7*%
X68000000Y-61200000D03*
D24*
X68000000Y-63740000D03*
X68000000Y-68820000D03*
X68000000Y-73900000D03*
%TD*%
D14*
%TO.C,D11*%
X33062500Y-13550000D03*
X33062500Y-15450000D03*
X34937500Y-14500000D03*
%TD*%
D10*
%TO.C,R15*%
X19175000Y-45000000D03*
X20825000Y-45000000D03*
%TD*%
D25*
%TO.C,U8*%
X74850000Y-30700000D03*
X74850000Y-33000000D03*
D26*
X81150000Y-33000000D03*
D25*
X74850000Y-35300000D03*
%TD*%
D14*
%TO.C,D5*%
X27062500Y-30050000D03*
X27062500Y-31950000D03*
X28937500Y-31000000D03*
%TD*%
D10*
%TO.C,R22*%
X15175000Y-54000000D03*
X16825000Y-54000000D03*
%TD*%
M02*
